M48
;DRILL file {kicad 0.201502231246+5447~21~ubuntu14.04.1-product} date Wed 06 May 2015 15:58:54 BST
;FORMAT={-:-/ absolute / inch / decimal}
FMAT,2
INCH,TZ
T1C0.016
T2C0.025
T3C0.028
T4C0.031
%
G90
G05
M72
T1
X4.0157Y-2.4213
X4.0236Y-3.0945
X4.0394Y-2.5472
X4.1339Y-1.8976
X4.1339Y-2.2441
X4.1339Y-2.3228
X4.1831Y-1.8327
X4.2126Y-1.6929
X4.2126Y-1.7717
X4.2126Y-2.2441
X4.2126Y-2.3228
X4.2913Y-1.6929
X4.2913Y-1.7717
X4.2913Y-2.1654
X4.2913Y-2.2441
X4.2913Y-2.3228
X4.3307Y-2.0079
X4.3307Y-2.0866
X4.3543Y-3.3504
X4.3701Y-1.6929
X4.3701Y-1.7717
X4.3701Y-2.2441
X4.3701Y-2.3228
X4.4488Y-1.6929
X4.4488Y-1.7717
X4.4488Y-2.2441
X4.4488Y-2.3228
X4.5276Y-1.6929
X4.5276Y-1.7717
X4.5276Y-1.8504
X4.5276Y-1.9291
X4.5276Y-2.0079
X4.5276Y-2.0866
X4.5276Y-2.1654
X4.5276Y-2.2441
X4.5276Y-2.3228
X4.6063Y-1.6929
X4.6063Y-1.7717
X4.6063Y-1.8504
X4.6063Y-1.9291
X4.6063Y-2.0079
X4.6063Y-2.0866
X4.6063Y-2.1654
X4.6063Y-2.2441
X4.6063Y-2.3228
X4.685Y-1.6929
X4.685Y-1.9291
X4.685Y-2.0079
X4.685Y-2.0866
X4.685Y-2.1654
X4.685Y-2.2441
X4.685Y-2.3228
X4.7638Y-2.2441
X4.7638Y-2.3228
X4.7913Y-1.7244
X4.8858Y-2.1969
X4.9173Y-1.8346
X4.9173Y-1.9055
X5.1417Y-2.1732
X5.1811Y-3.3937
X5.2047Y-2.2362
X5.2283Y-2.0866
X5.2441Y-2.4016
X5.2441Y-2.5197
X5.252Y-2.7441
X5.252Y-3.3543
X5.2598Y-3.4252
X5.2744Y-1.9654
X5.2756Y-2.1969
X5.2756Y-2.6654
X5.2815Y-1.8031
X5.315Y-1.9291
X5.315Y-3.4173
X5.3307Y-2.1417
X5.3307Y-2.2283
X5.3465Y-3.0787
X5.364Y-3.037
X5.3937Y-2.5827
X5.426Y-3.064
X5.427Y-2.907
X5.4409Y-2.3701
X5.4409Y-2.5827
X5.4567Y-2.0433
X5.4724Y-2.6142
X5.4724Y-2.7874
X5.5118Y-2.3819
X5.5217Y-1.6831
X5.5356Y-3.1337
X5.5906Y-2.2205
X5.6063Y-2.5748
X5.6063Y-2.622
X5.6063Y-2.6614
X5.619Y-3.107
X5.6299Y-2.0118
X5.6929Y-2.0394
X5.744Y-2.941
X5.7638Y-2.3307
X5.8Y-3.081
X5.8268Y-2.4685
X5.884Y-3.048
X5.941Y-3.337
X5.9449Y-1.9055
X5.9843Y-1.6831
X6.008Y-2.118
X6.036Y-2.179
X6.0827Y-1.8583
X6.094Y-2.148
X6.097Y-3.213
X6.1181Y-2.2362
X6.122Y-2.3189
X6.128Y-2.358
X6.245Y-2.815
X6.253Y-2.983
X6.2756Y-1.9724
X6.2992Y-2.2638
X6.323Y-2.315
X6.328Y-2.995
X6.347Y-2.702
X6.3819Y-2.248
X6.419Y-2.645
X6.42Y-1.882
X6.434Y-2.704
X6.545Y-2.396
X6.622Y-2.937
X6.65Y-1.742
X6.6831Y-2.0965
X6.689Y-2.6378
X6.7244Y-2.2992
T2
X5.5008Y-2.0917
X5.5008Y-2.1417
X5.5508Y-2.0917
X5.5508Y-2.1417
X5.6008Y-2.0917
X5.6008Y-2.1417
X5.6508Y-2.0917
X5.6508Y-2.1417
X5.7008Y-2.0917
X5.7008Y-2.1417
T3
X7.0472Y-1.7717
X7.0472Y-1.8504
X7.0472Y-2.0472
X7.0472Y-2.126
X7.0472Y-2.3228
X7.0472Y-2.4016
X7.0472Y-2.5984
X7.0472Y-2.6772
X7.0472Y-2.874
X7.0472Y-2.9528
X7.0472Y-3.1496
X7.0472Y-3.2283
X7.0472Y-3.3071
X7.0472Y-3.3858
T4
X6.5984Y-3.0748
X6.5984Y-3.3504
T0
M30
