G04 #@! TF.FileFunction,Copper,L2,Bot,Signal*
%FSLAX46Y46*%
G04 Gerber Fmt 4.6, Leading zero omitted, Abs format (unit mm)*
G04 Created by KiCad (PCBNEW 0.201502231246+5447~21~ubuntu14.04.1-product) date Wed 06 May 2015 01:31:57 BST*
%MOMM*%
G01*
G04 APERTURE LIST*
%ADD10C,0.100000*%
%ADD11C,1.500000*%
%ADD12C,1.016000*%
%ADD13R,5.080000X2.413000*%
%ADD14C,0.800000*%
%ADD15C,1.000000*%
%ADD16C,0.300000*%
%ADD17C,0.500000*%
%ADD18C,0.254000*%
G04 APERTURE END LIST*
D10*
D11*
X167600000Y-85100000D03*
X167600000Y-78100000D03*
X179000000Y-73000000D03*
X179000000Y-75000000D03*
X179000000Y-80000000D03*
X179000000Y-82000000D03*
X179000000Y-84000000D03*
X179000000Y-86000000D03*
D12*
X144800000Y-53130000D03*
X144800000Y-54400000D03*
X143530000Y-53130000D03*
X143530000Y-54400000D03*
X142260000Y-53130000D03*
X142260000Y-54400000D03*
X140990000Y-53130000D03*
X140990000Y-54400000D03*
X139720000Y-53130000D03*
X139720000Y-54400000D03*
D13*
X101200000Y-58881500D03*
X101200000Y-50118500D03*
X101200000Y-76081500D03*
X101200000Y-67318500D03*
D11*
X179000000Y-66000000D03*
X179000000Y-68000000D03*
X179000000Y-59000000D03*
X179000000Y-61000000D03*
X179000000Y-52000000D03*
X179000000Y-54000000D03*
X179000000Y-45000000D03*
X179000000Y-47000000D03*
D14*
X162500000Y-45100000D03*
X160800000Y-48300000D03*
X134150000Y-45800000D03*
X135000000Y-49000000D03*
X138200000Y-60200000D03*
X140000000Y-60500000D03*
X143000000Y-51100000D03*
X144600000Y-51800000D03*
X133200000Y-61000000D03*
X133200000Y-64000000D03*
X133400000Y-69700000D03*
X135800000Y-78200000D03*
X155727400Y-57226200D03*
X153314400Y-55346600D03*
X147320000Y-78257400D03*
X149453600Y-77419200D03*
X155651200Y-59893200D03*
X107000000Y-43000000D03*
X109000000Y-43000000D03*
X111000000Y-43000000D03*
X113000000Y-43000000D03*
X115000000Y-43000000D03*
X117000000Y-43000000D03*
X119000000Y-43000000D03*
X107000000Y-45000000D03*
X121000000Y-43000000D03*
X110000000Y-51000000D03*
X110000000Y-53000000D03*
X109000000Y-55000000D03*
X121000000Y-59000000D03*
X121000000Y-57000000D03*
X119000000Y-57000000D03*
X105000000Y-59000000D03*
X107000000Y-59000000D03*
X109000000Y-59000000D03*
X111000000Y-59000000D03*
X113000000Y-59000000D03*
X115000000Y-59000000D03*
X117000000Y-59000000D03*
X119000000Y-59000000D03*
X119000000Y-51000000D03*
X119000000Y-53000000D03*
X119000000Y-55000000D03*
X119000000Y-49000000D03*
X117000000Y-49000000D03*
X117000000Y-51000000D03*
X117000000Y-53000000D03*
X117000000Y-55000000D03*
X117000000Y-57000000D03*
X105000000Y-57000000D03*
X107000000Y-57000000D03*
X109000000Y-57000000D03*
X111000000Y-57000000D03*
X113000000Y-57000000D03*
X115000000Y-57000000D03*
X115000000Y-55000000D03*
X115000000Y-53000000D03*
X115000000Y-51000000D03*
X115000000Y-49000000D03*
X113000000Y-45000000D03*
X111000000Y-45000000D03*
X109000000Y-45000000D03*
X115000000Y-45000000D03*
X117000000Y-47000000D03*
X117000000Y-45000000D03*
X115000000Y-47000000D03*
X106250000Y-46550000D03*
X105000000Y-48200000D03*
X102200000Y-78600000D03*
X102600000Y-64700000D03*
X102000000Y-61500000D03*
X155500000Y-58900000D03*
X138600000Y-51900000D03*
X124100000Y-55800000D03*
X150500000Y-43100000D03*
X162100000Y-57100000D03*
X139000000Y-70800000D03*
X159400000Y-50100000D03*
X168200000Y-74600000D03*
X122200000Y-43600000D03*
X134000000Y-67700000D03*
X110600000Y-85100000D03*
X142000000Y-56400000D03*
X170800000Y-58400000D03*
X152603200Y-53797200D03*
X158826200Y-75768200D03*
X163068000Y-47802800D03*
D15*
X140603500Y-79595300D03*
X133971000Y-49921000D03*
X169900000Y-67000000D03*
X169750000Y-53250000D03*
D14*
X166243000Y-60858400D03*
X160731200Y-76073000D03*
X145897600Y-74701400D03*
X154863800Y-81610200D03*
X142722600Y-78917800D03*
X150901400Y-84759800D03*
X137845800Y-73837800D03*
X168910000Y-44246800D03*
X146400000Y-59200000D03*
X148000000Y-62700000D03*
X158623000Y-71501000D03*
X161213800Y-68630800D03*
X163423600Y-68681600D03*
X163042600Y-67183000D03*
X154787600Y-54559200D03*
X160604200Y-58801000D03*
D15*
X153175300Y-44682500D03*
X153175300Y-46782500D03*
D14*
X137000000Y-65600000D03*
X142400000Y-67600000D03*
X139000000Y-66400000D03*
X142400000Y-66600000D03*
X138200000Y-65600000D03*
X142400000Y-65400000D03*
X124900000Y-46600000D03*
X124900000Y-48400000D03*
X132800000Y-53000000D03*
X130600000Y-55200000D03*
X134000000Y-55800000D03*
X132200000Y-56800000D03*
X135400000Y-54400000D03*
X135400000Y-56600000D03*
X135000000Y-86800000D03*
X133400000Y-85200000D03*
X131600000Y-86200000D03*
X133600000Y-87000000D03*
X136245600Y-77139800D03*
X137820400Y-77825600D03*
D16*
X162500000Y-46600000D02*
X162500000Y-45100000D01*
X160800000Y-48300000D02*
X162500000Y-46600000D01*
D17*
X135000000Y-46650000D02*
X135000000Y-49000000D01*
X135000000Y-46650000D02*
X134150000Y-45800000D01*
X139700000Y-60200000D02*
X138200000Y-60200000D01*
X140000000Y-60500000D02*
X139700000Y-60200000D01*
X144600000Y-51800000D02*
X143700000Y-51800000D01*
X143700000Y-51800000D02*
X143000000Y-51100000D01*
X133200000Y-64000000D02*
X133200000Y-61000000D01*
X133400000Y-75800000D02*
X133400000Y-69700000D01*
X135800000Y-78200000D02*
X133400000Y-75800000D01*
X155727400Y-57226200D02*
X155727400Y-57200800D01*
X154330400Y-56362600D02*
X153314400Y-55346600D01*
X155194000Y-57226200D02*
X154330400Y-56362600D01*
X155727400Y-57226200D02*
X155194000Y-57226200D01*
X148615400Y-78257400D02*
X147320000Y-78257400D01*
X149453600Y-77419200D02*
X148615400Y-78257400D01*
X154330400Y-59334400D02*
X154330400Y-56362600D01*
X155651200Y-59893200D02*
X155575000Y-59817000D01*
X155575000Y-59817000D02*
X154813000Y-59817000D01*
X154813000Y-59817000D02*
X154330400Y-59334400D01*
X109000000Y-43000000D02*
X111000000Y-43000000D01*
X113000000Y-43000000D02*
X115000000Y-43000000D01*
X117000000Y-43000000D02*
X119000000Y-43000000D01*
X107000000Y-43000000D02*
X107000000Y-45000000D01*
X110000000Y-53000000D02*
X109000000Y-54000000D01*
X109000000Y-54000000D02*
X109000000Y-55000000D01*
X119000000Y-57000000D02*
X121000000Y-57000000D01*
X109000000Y-59000000D02*
X107000000Y-59000000D01*
X113000000Y-59000000D02*
X111000000Y-59000000D01*
X117000000Y-59000000D02*
X115000000Y-59000000D01*
X119000000Y-57000000D02*
X119000000Y-59000000D01*
X119000000Y-51000000D02*
X119000000Y-49000000D01*
X119000000Y-55000000D02*
X119000000Y-53000000D01*
X119000000Y-49000000D02*
X117000000Y-49000000D01*
X117000000Y-49000000D02*
X119000000Y-49000000D01*
X117000000Y-49000000D02*
X117000000Y-47000000D01*
X117000000Y-53000000D02*
X117000000Y-51000000D01*
X117000000Y-57000000D02*
X117000000Y-55000000D01*
X107000000Y-57000000D02*
X105000000Y-57000000D01*
X111000000Y-57000000D02*
X109000000Y-57000000D01*
X115000000Y-57000000D02*
X113000000Y-57000000D01*
X115000000Y-53000000D02*
X115000000Y-55000000D01*
X115000000Y-49000000D02*
X115000000Y-51000000D01*
X107000000Y-45000000D02*
X109000000Y-45000000D01*
X106250000Y-45750000D02*
X107000000Y-45000000D01*
X106250000Y-46550000D02*
X106250000Y-45750000D01*
X111000000Y-45000000D02*
X113000000Y-45000000D01*
X115000000Y-45000000D02*
X117000000Y-45000000D01*
X117000000Y-47000000D02*
X115000000Y-47000000D01*
X106250000Y-46550000D02*
X106300000Y-46600000D01*
X155500000Y-58400000D02*
X155500000Y-58900000D01*
X142260000Y-53130000D02*
X142260000Y-52860000D01*
X142260000Y-52860000D02*
X141200000Y-51800000D01*
X139720000Y-52580000D02*
X139720000Y-53130000D01*
X140500000Y-51800000D02*
X139720000Y-52580000D01*
X141200000Y-51800000D02*
X140500000Y-51800000D01*
X143530000Y-53130000D02*
X142260000Y-53130000D01*
D16*
X138900000Y-70700000D02*
X138800000Y-70700000D01*
X139000000Y-70800000D02*
X138900000Y-70700000D01*
X146400000Y-61100000D02*
X146400000Y-59200000D01*
X148000000Y-62700000D02*
X146400000Y-61100000D01*
X158623000Y-71501000D02*
X161213800Y-68910200D01*
X161213800Y-68910200D02*
X161213800Y-68630800D01*
X163423600Y-68681600D02*
X163042600Y-68300600D01*
X163042600Y-68300600D02*
X163042600Y-67183000D01*
X160070800Y-58267600D02*
X158419800Y-58267600D01*
X154787600Y-54914800D02*
X154787600Y-54559200D01*
X160604200Y-58801000D02*
X160070800Y-58267600D01*
X155473400Y-55600600D02*
X154787600Y-54914800D01*
X156210000Y-55600600D02*
X155473400Y-55600600D01*
X157403800Y-56794400D02*
X156210000Y-55600600D01*
X157403800Y-57251600D02*
X157403800Y-56794400D01*
X158419800Y-58267600D02*
X157403800Y-57251600D01*
X153175300Y-46782500D02*
X153175300Y-44682500D01*
X139000000Y-67600000D02*
X137000000Y-65600000D01*
X142400000Y-67600000D02*
X139000000Y-67600000D01*
X142200000Y-66400000D02*
X139000000Y-66400000D01*
X142400000Y-66600000D02*
X142200000Y-66400000D01*
X142200000Y-65600000D02*
X138200000Y-65600000D01*
X142400000Y-65400000D02*
X142200000Y-65600000D01*
X124900000Y-48400000D02*
X124900000Y-46600000D01*
X130600000Y-55200000D02*
X132800000Y-53000000D01*
X133200000Y-55800000D02*
X134000000Y-55800000D01*
X132200000Y-56800000D02*
X133200000Y-55800000D01*
X135400000Y-56600000D02*
X135400000Y-54400000D01*
X133400000Y-85200000D02*
X135000000Y-86800000D01*
X132800000Y-86200000D02*
X131600000Y-86200000D01*
X133600000Y-87000000D02*
X132800000Y-86200000D01*
X136245600Y-77139800D02*
X136931400Y-77825600D01*
X136931400Y-77825600D02*
X137820400Y-77825600D01*
D18*
G36*
X142389678Y-53208211D02*
X142340820Y-53257069D01*
X142179038Y-53256928D01*
X142132929Y-53210819D01*
X142133070Y-53049039D01*
X142245857Y-52936252D01*
X142260000Y-52950395D01*
X142274142Y-52936252D01*
X142377897Y-53040007D01*
X142389678Y-53208211D01*
X142389678Y-53208211D01*
G37*
X142389678Y-53208211D02*
X142340820Y-53257069D01*
X142179038Y-53256928D01*
X142132929Y-53210819D01*
X142133070Y-53049039D01*
X142245857Y-52936252D01*
X142260000Y-52950395D01*
X142274142Y-52936252D01*
X142377897Y-53040007D01*
X142389678Y-53208211D01*
G36*
X143657069Y-53049179D02*
X143656928Y-53210961D01*
X143610820Y-53257069D01*
X143449038Y-53256928D01*
X143412102Y-53219992D01*
X143400321Y-53051788D01*
X143515857Y-52936252D01*
X143530000Y-52950395D01*
X143544142Y-52936252D01*
X143657069Y-53049179D01*
X143657069Y-53049179D01*
G37*
X143657069Y-53049179D02*
X143656928Y-53210961D01*
X143610820Y-53257069D01*
X143449038Y-53256928D01*
X143412102Y-53219992D01*
X143400321Y-53051788D01*
X143515857Y-52936252D01*
X143530000Y-52950395D01*
X143544142Y-52936252D01*
X143657069Y-53049179D01*
G36*
X186873000Y-87873000D02*
X182228216Y-87873000D01*
X182284794Y-87736745D01*
X182285206Y-87265323D01*
X182285206Y-78265323D01*
X182105180Y-77829628D01*
X181775844Y-77499717D01*
X182104009Y-77172125D01*
X182284794Y-76736745D01*
X182285206Y-76265323D01*
X182285206Y-71265323D01*
X182105180Y-70829628D01*
X181775844Y-70499717D01*
X182104009Y-70172125D01*
X182284794Y-69736745D01*
X182285206Y-69265323D01*
X182285206Y-64265323D01*
X182105180Y-63829628D01*
X181775844Y-63499717D01*
X182104009Y-63172125D01*
X182284794Y-62736745D01*
X182285206Y-62265323D01*
X182285206Y-57265323D01*
X182105180Y-56829628D01*
X181775844Y-56499717D01*
X182104009Y-56172125D01*
X182284794Y-55736745D01*
X182285206Y-55265323D01*
X182285206Y-50265323D01*
X182105180Y-49829628D01*
X181775844Y-49499717D01*
X182104009Y-49172125D01*
X182284794Y-48736745D01*
X182285206Y-48265323D01*
X182285206Y-43265323D01*
X182105180Y-42829628D01*
X181772125Y-42495991D01*
X181336745Y-42315206D01*
X180865323Y-42314794D01*
X180429628Y-42494820D01*
X180095991Y-42827875D01*
X179915206Y-43263255D01*
X179914794Y-43734677D01*
X180070823Y-44112295D01*
X179785564Y-43826539D01*
X179276702Y-43615241D01*
X178725715Y-43614760D01*
X178216485Y-43825169D01*
X177826539Y-44214436D01*
X177615241Y-44723298D01*
X177614760Y-45274285D01*
X177825169Y-45783515D01*
X178214436Y-46173461D01*
X178451506Y-46271901D01*
X179000000Y-46820395D01*
X179548428Y-46271966D01*
X179783515Y-46174831D01*
X180173461Y-45785564D01*
X180384759Y-45276702D01*
X180385240Y-44725715D01*
X180198827Y-44274561D01*
X180427875Y-44504009D01*
X180863255Y-44684794D01*
X181334677Y-44685206D01*
X181770372Y-44505180D01*
X182104009Y-44172125D01*
X182284794Y-43736745D01*
X182285206Y-43265323D01*
X182285206Y-48265323D01*
X182105180Y-47829628D01*
X181772125Y-47495991D01*
X181336745Y-47315206D01*
X180865323Y-47314794D01*
X180429628Y-47494820D01*
X180219257Y-47704823D01*
X180397201Y-47204829D01*
X180369230Y-46654552D01*
X180212460Y-46276077D01*
X179971517Y-46208088D01*
X179179605Y-47000000D01*
X179971517Y-47791912D01*
X180195263Y-47728775D01*
X180095991Y-47827875D01*
X179915206Y-48263255D01*
X179914794Y-48734677D01*
X180094820Y-49170372D01*
X180424155Y-49500282D01*
X180095991Y-49827875D01*
X179915206Y-50263255D01*
X179914794Y-50734677D01*
X180070823Y-51112295D01*
X179791912Y-50832898D01*
X179791912Y-47971517D01*
X179000000Y-47179605D01*
X178820395Y-47359210D01*
X178820395Y-47000000D01*
X178028483Y-46208088D01*
X177787540Y-46276077D01*
X177602799Y-46795171D01*
X177630770Y-47345448D01*
X177787540Y-47723923D01*
X178028483Y-47791912D01*
X178820395Y-47000000D01*
X178820395Y-47359210D01*
X178208088Y-47971517D01*
X178276077Y-48212460D01*
X178795171Y-48397201D01*
X179345448Y-48369230D01*
X179723923Y-48212460D01*
X179791912Y-47971517D01*
X179791912Y-50832898D01*
X179785564Y-50826539D01*
X179276702Y-50615241D01*
X178725715Y-50614760D01*
X178216485Y-50825169D01*
X177826539Y-51214436D01*
X177615241Y-51723298D01*
X177614760Y-52274285D01*
X177825169Y-52783515D01*
X178214436Y-53173461D01*
X178451506Y-53271901D01*
X179000000Y-53820395D01*
X179548428Y-53271966D01*
X179783515Y-53174831D01*
X180173461Y-52785564D01*
X180384759Y-52276702D01*
X180385240Y-51725715D01*
X180198827Y-51274561D01*
X180427875Y-51504009D01*
X180863255Y-51684794D01*
X181334677Y-51685206D01*
X181770372Y-51505180D01*
X182104009Y-51172125D01*
X182284794Y-50736745D01*
X182285206Y-50265323D01*
X182285206Y-55265323D01*
X182105180Y-54829628D01*
X181772125Y-54495991D01*
X181336745Y-54315206D01*
X180865323Y-54314794D01*
X180429628Y-54494820D01*
X180219257Y-54704823D01*
X180397201Y-54204829D01*
X180369230Y-53654552D01*
X180212460Y-53276077D01*
X179971517Y-53208088D01*
X179179605Y-54000000D01*
X179971517Y-54791912D01*
X180195263Y-54728775D01*
X180095991Y-54827875D01*
X179915206Y-55263255D01*
X179914794Y-55734677D01*
X180094820Y-56170372D01*
X180424155Y-56500282D01*
X180095991Y-56827875D01*
X179915206Y-57263255D01*
X179914794Y-57734677D01*
X180070823Y-58112295D01*
X179791912Y-57832898D01*
X179791912Y-54971517D01*
X179000000Y-54179605D01*
X178820395Y-54359210D01*
X178820395Y-54000000D01*
X178028483Y-53208088D01*
X177787540Y-53276077D01*
X177602799Y-53795171D01*
X177630770Y-54345448D01*
X177787540Y-54723923D01*
X178028483Y-54791912D01*
X178820395Y-54000000D01*
X178820395Y-54359210D01*
X178208088Y-54971517D01*
X178276077Y-55212460D01*
X178795171Y-55397201D01*
X179345448Y-55369230D01*
X179723923Y-55212460D01*
X179791912Y-54971517D01*
X179791912Y-57832898D01*
X179785564Y-57826539D01*
X179276702Y-57615241D01*
X178725715Y-57614760D01*
X178216485Y-57825169D01*
X177826539Y-58214436D01*
X177615241Y-58723298D01*
X177614760Y-59274285D01*
X177825169Y-59783515D01*
X178214436Y-60173461D01*
X178451506Y-60271901D01*
X179000000Y-60820395D01*
X179548428Y-60271966D01*
X179783515Y-60174831D01*
X180173461Y-59785564D01*
X180384759Y-59276702D01*
X180385240Y-58725715D01*
X180198827Y-58274561D01*
X180427875Y-58504009D01*
X180863255Y-58684794D01*
X181334677Y-58685206D01*
X181770372Y-58505180D01*
X182104009Y-58172125D01*
X182284794Y-57736745D01*
X182285206Y-57265323D01*
X182285206Y-62265323D01*
X182105180Y-61829628D01*
X181772125Y-61495991D01*
X181336745Y-61315206D01*
X180865323Y-61314794D01*
X180429628Y-61494820D01*
X180219257Y-61704823D01*
X180397201Y-61204829D01*
X180369230Y-60654552D01*
X180212460Y-60276077D01*
X179971517Y-60208088D01*
X179179605Y-61000000D01*
X179971517Y-61791912D01*
X180195263Y-61728775D01*
X180095991Y-61827875D01*
X179915206Y-62263255D01*
X179914794Y-62734677D01*
X180094820Y-63170372D01*
X180424155Y-63500282D01*
X180095991Y-63827875D01*
X179915206Y-64263255D01*
X179914794Y-64734677D01*
X180070823Y-65112295D01*
X179791912Y-64832898D01*
X179791912Y-61971517D01*
X179000000Y-61179605D01*
X178820395Y-61359210D01*
X178820395Y-61000000D01*
X178028483Y-60208088D01*
X177787540Y-60276077D01*
X177602799Y-60795171D01*
X177630770Y-61345448D01*
X177787540Y-61723923D01*
X178028483Y-61791912D01*
X178820395Y-61000000D01*
X178820395Y-61359210D01*
X178208088Y-61971517D01*
X178276077Y-62212460D01*
X178795171Y-62397201D01*
X179345448Y-62369230D01*
X179723923Y-62212460D01*
X179791912Y-61971517D01*
X179791912Y-64832898D01*
X179785564Y-64826539D01*
X179276702Y-64615241D01*
X178725715Y-64614760D01*
X178216485Y-64825169D01*
X177826539Y-65214436D01*
X177615241Y-65723298D01*
X177614760Y-66274285D01*
X177825169Y-66783515D01*
X178214436Y-67173461D01*
X178451506Y-67271901D01*
X179000000Y-67820395D01*
X179548428Y-67271966D01*
X179783515Y-67174831D01*
X180173461Y-66785564D01*
X180384759Y-66276702D01*
X180385240Y-65725715D01*
X180198827Y-65274561D01*
X180427875Y-65504009D01*
X180863255Y-65684794D01*
X181334677Y-65685206D01*
X181770372Y-65505180D01*
X182104009Y-65172125D01*
X182284794Y-64736745D01*
X182285206Y-64265323D01*
X182285206Y-69265323D01*
X182105180Y-68829628D01*
X181772125Y-68495991D01*
X181336745Y-68315206D01*
X180865323Y-68314794D01*
X180429628Y-68494820D01*
X180219257Y-68704823D01*
X180397201Y-68204829D01*
X180369230Y-67654552D01*
X180212460Y-67276077D01*
X179971517Y-67208088D01*
X179179605Y-68000000D01*
X179971517Y-68791912D01*
X180195263Y-68728775D01*
X180095991Y-68827875D01*
X179915206Y-69263255D01*
X179914794Y-69734677D01*
X180094820Y-70170372D01*
X180424155Y-70500282D01*
X180095991Y-70827875D01*
X179915206Y-71263255D01*
X179914794Y-71734677D01*
X180094820Y-72170372D01*
X180195587Y-72271316D01*
X179971517Y-72208088D01*
X179791912Y-72387693D01*
X179791912Y-72028483D01*
X179791912Y-68971517D01*
X179000000Y-68179605D01*
X178820395Y-68359210D01*
X178820395Y-68000000D01*
X178028483Y-67208088D01*
X177787540Y-67276077D01*
X177602799Y-67795171D01*
X177630770Y-68345448D01*
X177787540Y-68723923D01*
X178028483Y-68791912D01*
X178820395Y-68000000D01*
X178820395Y-68359210D01*
X178208088Y-68971517D01*
X178276077Y-69212460D01*
X178795171Y-69397201D01*
X179345448Y-69369230D01*
X179723923Y-69212460D01*
X179791912Y-68971517D01*
X179791912Y-72028483D01*
X179723923Y-71787540D01*
X179204829Y-71602799D01*
X178654552Y-71630770D01*
X178276077Y-71787540D01*
X178208088Y-72028483D01*
X179000000Y-72820395D01*
X179791912Y-72028483D01*
X179791912Y-72387693D01*
X179179605Y-73000000D01*
X179971517Y-73791912D01*
X180212460Y-73723923D01*
X180397201Y-73204829D01*
X180369230Y-72654552D01*
X180221055Y-72296827D01*
X180427875Y-72504009D01*
X180863255Y-72684794D01*
X181334677Y-72685206D01*
X181770372Y-72505180D01*
X182104009Y-72172125D01*
X182284794Y-71736745D01*
X182285206Y-71265323D01*
X182285206Y-76265323D01*
X182105180Y-75829628D01*
X181772125Y-75495991D01*
X181336745Y-75315206D01*
X180865323Y-75314794D01*
X180429628Y-75494820D01*
X180198300Y-75725744D01*
X180384759Y-75276702D01*
X180385240Y-74725715D01*
X180174831Y-74216485D01*
X179785564Y-73826539D01*
X179548493Y-73728098D01*
X179000000Y-73179605D01*
X178820395Y-73359209D01*
X178820395Y-73000000D01*
X178028483Y-72208088D01*
X177787540Y-72276077D01*
X177602799Y-72795171D01*
X177630770Y-73345448D01*
X177787540Y-73723923D01*
X178028483Y-73791912D01*
X178820395Y-73000000D01*
X178820395Y-73359209D01*
X178451571Y-73728033D01*
X178216485Y-73825169D01*
X177826539Y-74214436D01*
X177615241Y-74723298D01*
X177614760Y-75274285D01*
X177825169Y-75783515D01*
X178214436Y-76173461D01*
X178723298Y-76384759D01*
X179274285Y-76385240D01*
X179783515Y-76174831D01*
X180071151Y-75887695D01*
X179915206Y-76263255D01*
X179914794Y-76734677D01*
X180094820Y-77170372D01*
X180424155Y-77500282D01*
X180095991Y-77827875D01*
X179915206Y-78263255D01*
X179914794Y-78734677D01*
X180070823Y-79112295D01*
X179785564Y-78826539D01*
X179276702Y-78615241D01*
X178725715Y-78614760D01*
X178216485Y-78825169D01*
X177826539Y-79214436D01*
X177615241Y-79723298D01*
X177614760Y-80274285D01*
X177825169Y-80783515D01*
X178041312Y-81000035D01*
X177826539Y-81214436D01*
X177615241Y-81723298D01*
X177614760Y-82274285D01*
X177825169Y-82783515D01*
X178041312Y-83000035D01*
X177826539Y-83214436D01*
X177615241Y-83723298D01*
X177614760Y-84274285D01*
X177825169Y-84783515D01*
X178214436Y-85173461D01*
X178451506Y-85271901D01*
X179000000Y-85820395D01*
X179548428Y-85271966D01*
X179783515Y-85174831D01*
X180173461Y-84785564D01*
X180384759Y-84276702D01*
X180385240Y-83725715D01*
X180174831Y-83216485D01*
X179958687Y-82999964D01*
X180173461Y-82785564D01*
X180384759Y-82276702D01*
X180385240Y-81725715D01*
X180174831Y-81216485D01*
X179958687Y-80999964D01*
X180173461Y-80785564D01*
X180384759Y-80276702D01*
X180385240Y-79725715D01*
X180198827Y-79274561D01*
X180427875Y-79504009D01*
X180863255Y-79684794D01*
X181334677Y-79685206D01*
X181770372Y-79505180D01*
X182104009Y-79172125D01*
X182284794Y-78736745D01*
X182285206Y-78265323D01*
X182285206Y-87265323D01*
X182105180Y-86829628D01*
X181772125Y-86495991D01*
X181336745Y-86315206D01*
X180865323Y-86314794D01*
X180429628Y-86494820D01*
X180219257Y-86704823D01*
X180397201Y-86204829D01*
X180369230Y-85654552D01*
X180212460Y-85276077D01*
X179971517Y-85208088D01*
X179179605Y-86000000D01*
X179971517Y-86791912D01*
X180195263Y-86728775D01*
X180095991Y-86827875D01*
X179915206Y-87263255D01*
X179914794Y-87734677D01*
X179971948Y-87873000D01*
X179791912Y-87873000D01*
X179791912Y-86971517D01*
X179000000Y-86179605D01*
X178820395Y-86359210D01*
X178820395Y-86000000D01*
X178028483Y-85208088D01*
X177787540Y-85276077D01*
X177602799Y-85795171D01*
X177630770Y-86345448D01*
X177787540Y-86723923D01*
X178028483Y-86791912D01*
X178820395Y-86000000D01*
X178820395Y-86359210D01*
X178208088Y-86971517D01*
X178276077Y-87212460D01*
X178795171Y-87397201D01*
X179345448Y-87369230D01*
X179723923Y-87212460D01*
X179791912Y-86971517D01*
X179791912Y-87873000D01*
X168997201Y-87873000D01*
X168997201Y-78304829D01*
X168969230Y-77754552D01*
X168812460Y-77376077D01*
X168571517Y-77308088D01*
X168391912Y-77487693D01*
X168391912Y-77128483D01*
X168323923Y-76887540D01*
X167804829Y-76702799D01*
X167254552Y-76730770D01*
X166876077Y-76887540D01*
X166808088Y-77128483D01*
X167600000Y-77920395D01*
X168391912Y-77128483D01*
X168391912Y-77487693D01*
X167779605Y-78100000D01*
X168571517Y-78891912D01*
X168812460Y-78823923D01*
X168997201Y-78304829D01*
X168997201Y-87873000D01*
X168985240Y-87873000D01*
X168985240Y-84825715D01*
X168774831Y-84316485D01*
X168391912Y-83932898D01*
X168391912Y-79071517D01*
X167600000Y-78279605D01*
X167420395Y-78459210D01*
X167420395Y-78100000D01*
X166628483Y-77308088D01*
X166387540Y-77376077D01*
X166202799Y-77895171D01*
X166230770Y-78445448D01*
X166387540Y-78823923D01*
X166628483Y-78891912D01*
X167420395Y-78100000D01*
X167420395Y-78459210D01*
X166808088Y-79071517D01*
X166876077Y-79312460D01*
X167395171Y-79497201D01*
X167945448Y-79469230D01*
X168323923Y-79312460D01*
X168391912Y-79071517D01*
X168391912Y-83932898D01*
X168385564Y-83926539D01*
X167876702Y-83715241D01*
X167325715Y-83714760D01*
X166816485Y-83925169D01*
X166426539Y-84314436D01*
X166215241Y-84823298D01*
X166214760Y-85374285D01*
X166425169Y-85883515D01*
X166814436Y-86273461D01*
X167323298Y-86484759D01*
X167874285Y-86485240D01*
X168383515Y-86274831D01*
X168773461Y-85885564D01*
X168984759Y-85376702D01*
X168985240Y-84825715D01*
X168985240Y-87873000D01*
X164458779Y-87873000D01*
X164458779Y-68476629D01*
X164301542Y-68096085D01*
X164010646Y-67804681D01*
X163920653Y-67767313D01*
X164077420Y-67389777D01*
X164077779Y-66978029D01*
X163920542Y-66597485D01*
X163629646Y-66306081D01*
X163249377Y-66148180D01*
X162837629Y-66147821D01*
X162457085Y-66305058D01*
X162165681Y-66595954D01*
X162007780Y-66976223D01*
X162007421Y-67387971D01*
X162164658Y-67768515D01*
X162257600Y-67861619D01*
X162257600Y-68300600D01*
X162317355Y-68601007D01*
X162388577Y-68707598D01*
X162388421Y-68886571D01*
X162545658Y-69267115D01*
X162836554Y-69558519D01*
X163216823Y-69716420D01*
X163628571Y-69716779D01*
X164009115Y-69559542D01*
X164300519Y-69268646D01*
X164458420Y-68888377D01*
X164458779Y-68476629D01*
X164458779Y-87873000D01*
X162248979Y-87873000D01*
X162248979Y-68425829D01*
X162091742Y-68045285D01*
X161800846Y-67753881D01*
X161639379Y-67686834D01*
X161639379Y-58596029D01*
X161482142Y-58215485D01*
X161191246Y-57924081D01*
X160810977Y-57766180D01*
X160679423Y-57766065D01*
X160625879Y-57712521D01*
X160371207Y-57542355D01*
X160070800Y-57482600D01*
X158744958Y-57482600D01*
X158188800Y-56926442D01*
X158188800Y-56794400D01*
X158129045Y-56493994D01*
X158129045Y-56493993D01*
X157958879Y-56239321D01*
X156765079Y-55045521D01*
X156510407Y-54875355D01*
X156210000Y-54815600D01*
X155801814Y-54815600D01*
X155822420Y-54765977D01*
X155822779Y-54354229D01*
X155665542Y-53973685D01*
X155374646Y-53682281D01*
X154994377Y-53524380D01*
X154582629Y-53524021D01*
X154310497Y-53636463D01*
X154310497Y-46557725D01*
X154138067Y-46140414D01*
X153960300Y-45962336D01*
X153960300Y-45502602D01*
X154136945Y-45326265D01*
X154310103Y-44909256D01*
X154310497Y-44457725D01*
X154138067Y-44040414D01*
X153819065Y-43720855D01*
X153402056Y-43547697D01*
X152950525Y-43547303D01*
X152533214Y-43719733D01*
X152213655Y-44038735D01*
X152040497Y-44455744D01*
X152040103Y-44907275D01*
X152212533Y-45324586D01*
X152390300Y-45502663D01*
X152390300Y-45962397D01*
X152213655Y-46138735D01*
X152040497Y-46555744D01*
X152040103Y-47007275D01*
X152212533Y-47424586D01*
X152531535Y-47744145D01*
X152948544Y-47917303D01*
X153400075Y-47917697D01*
X153817386Y-47745267D01*
X154136945Y-47426265D01*
X154310103Y-47009256D01*
X154310497Y-46557725D01*
X154310497Y-53636463D01*
X154202085Y-53681258D01*
X153910681Y-53972154D01*
X153752780Y-54352423D01*
X153752731Y-54407929D01*
X153521177Y-54311780D01*
X153109429Y-54311421D01*
X152728885Y-54468658D01*
X152437481Y-54759554D01*
X152279580Y-55139823D01*
X152279221Y-55551571D01*
X152436458Y-55932115D01*
X152727354Y-56223519D01*
X153090551Y-56374331D01*
X153445400Y-56729179D01*
X153445400Y-59334394D01*
X153445399Y-59334400D01*
X153501589Y-59616884D01*
X153512767Y-59673075D01*
X153704610Y-59960190D01*
X154187207Y-60442786D01*
X154187210Y-60442790D01*
X154474325Y-60634633D01*
X154813000Y-60702000D01*
X154996153Y-60702000D01*
X155064154Y-60770119D01*
X155444423Y-60928020D01*
X155856171Y-60928379D01*
X156236715Y-60771142D01*
X156528119Y-60480246D01*
X156686020Y-60099977D01*
X156686379Y-59688229D01*
X156529142Y-59307685D01*
X156238246Y-59016281D01*
X155857977Y-58858380D01*
X155446229Y-58858021D01*
X155267185Y-58932000D01*
X155215400Y-58932000D01*
X155215400Y-58134280D01*
X155520623Y-58261020D01*
X155932371Y-58261379D01*
X156312915Y-58104142D01*
X156604319Y-57813246D01*
X156699671Y-57583610D01*
X156848721Y-57806679D01*
X157864721Y-58822679D01*
X158119393Y-58992845D01*
X158119394Y-58992845D01*
X158419800Y-59052600D01*
X159588287Y-59052600D01*
X159726258Y-59386515D01*
X160017154Y-59677919D01*
X160397423Y-59835820D01*
X160809171Y-59836179D01*
X161189715Y-59678942D01*
X161481119Y-59388046D01*
X161639020Y-59007777D01*
X161639379Y-58596029D01*
X161639379Y-67686834D01*
X161420577Y-67595980D01*
X161008829Y-67595621D01*
X160628285Y-67752858D01*
X160336881Y-68043754D01*
X160178980Y-68424023D01*
X160178621Y-68835221D01*
X158547907Y-70465934D01*
X158418029Y-70465821D01*
X158037485Y-70623058D01*
X157746081Y-70913954D01*
X157588180Y-71294223D01*
X157587821Y-71705971D01*
X157745058Y-72086515D01*
X158035954Y-72377919D01*
X158416223Y-72535820D01*
X158827971Y-72536179D01*
X159208515Y-72378942D01*
X159499919Y-72088046D01*
X159657820Y-71707777D01*
X159657934Y-71576223D01*
X161673379Y-69560777D01*
X161799315Y-69508742D01*
X162090719Y-69217846D01*
X162248620Y-68837577D01*
X162248979Y-68425829D01*
X162248979Y-87873000D01*
X160472726Y-87873000D01*
X160699534Y-87646587D01*
X160828943Y-87593117D01*
X161092192Y-87330327D01*
X161145889Y-87201010D01*
X161403575Y-86943774D01*
X161926404Y-85684663D01*
X161926821Y-85206104D01*
X161934838Y-85186799D01*
X161935162Y-84814833D01*
X161927180Y-84795515D01*
X161927594Y-84321318D01*
X161406963Y-83061296D01*
X161146587Y-82800465D01*
X161093117Y-82671057D01*
X160830327Y-82407808D01*
X160701010Y-82354110D01*
X160443774Y-82096425D01*
X159184663Y-81573596D01*
X158706104Y-81573178D01*
X158686799Y-81565162D01*
X158314833Y-81564838D01*
X158295515Y-81572819D01*
X157821318Y-81572406D01*
X156561296Y-82093037D01*
X156300465Y-82353412D01*
X156171057Y-82406883D01*
X155907808Y-82669673D01*
X155854110Y-82798989D01*
X155596425Y-83056226D01*
X155073596Y-84315337D01*
X155073178Y-84793895D01*
X155065162Y-84813201D01*
X155064838Y-85185167D01*
X155072819Y-85204484D01*
X155072406Y-85678682D01*
X155593037Y-86938704D01*
X155853412Y-87199534D01*
X155906883Y-87328943D01*
X156169673Y-87592192D01*
X156298989Y-87645889D01*
X156525704Y-87873000D01*
X150488779Y-87873000D01*
X150488779Y-77214229D01*
X150331542Y-76833685D01*
X150040646Y-76542281D01*
X149660377Y-76384380D01*
X149248629Y-76384021D01*
X149035179Y-76472216D01*
X149035179Y-62495029D01*
X148877942Y-62114485D01*
X148587046Y-61823081D01*
X148206777Y-61665180D01*
X148075223Y-61665065D01*
X147185000Y-60774842D01*
X147185000Y-59878804D01*
X147276919Y-59787046D01*
X147434820Y-59406777D01*
X147435179Y-58995029D01*
X147277942Y-58614485D01*
X146987046Y-58323081D01*
X146606777Y-58165180D01*
X146195029Y-58164821D01*
X145943198Y-58268875D01*
X145943198Y-54173641D01*
X145774149Y-53764511D01*
X145942801Y-53358354D01*
X145943198Y-52903641D01*
X145769554Y-52483388D01*
X145534632Y-52248056D01*
X145634820Y-52006777D01*
X145635179Y-51595029D01*
X145477942Y-51214485D01*
X145187046Y-50923081D01*
X144806777Y-50765180D01*
X144395029Y-50764821D01*
X144056342Y-50904762D01*
X144027131Y-50875551D01*
X143877942Y-50514485D01*
X143587046Y-50223081D01*
X143206777Y-50065180D01*
X142795029Y-50064821D01*
X142414485Y-50222058D01*
X142123081Y-50512954D01*
X141965180Y-50893223D01*
X141964821Y-51304971D01*
X142122058Y-51685515D01*
X142411455Y-51975417D01*
X142406945Y-51973909D01*
X141953343Y-52005678D01*
X141681824Y-52118144D01*
X141668763Y-52192090D01*
X141638303Y-52161577D01*
X141218354Y-51987199D01*
X140763641Y-51986802D01*
X140343388Y-52160446D01*
X140311303Y-52192474D01*
X140298176Y-52118144D01*
X139866945Y-51973909D01*
X139413343Y-52005678D01*
X139141824Y-52118144D01*
X139103686Y-52334081D01*
X139720000Y-52950395D01*
X139734142Y-52936252D01*
X139847069Y-53049179D01*
X139846928Y-53210961D01*
X139800820Y-53257069D01*
X139639038Y-53256928D01*
X139526252Y-53144142D01*
X139540395Y-53130000D01*
X138924081Y-52513686D01*
X138708144Y-52551824D01*
X138563909Y-52983055D01*
X138595678Y-53436657D01*
X138708144Y-53708176D01*
X138782090Y-53721236D01*
X138751577Y-53751697D01*
X138577199Y-54171646D01*
X138576802Y-54626359D01*
X138750446Y-55046612D01*
X139071697Y-55368423D01*
X139491646Y-55542801D01*
X139946359Y-55543198D01*
X140355488Y-55374149D01*
X140761646Y-55542801D01*
X141216359Y-55543198D01*
X141625488Y-55374149D01*
X142031646Y-55542801D01*
X142486359Y-55543198D01*
X142895488Y-55374149D01*
X143301646Y-55542801D01*
X143756359Y-55543198D01*
X144165488Y-55374149D01*
X144571646Y-55542801D01*
X145026359Y-55543198D01*
X145446612Y-55369554D01*
X145768423Y-55048303D01*
X145942801Y-54628354D01*
X145943198Y-54173641D01*
X145943198Y-58268875D01*
X145814485Y-58322058D01*
X145523081Y-58612954D01*
X145365180Y-58993223D01*
X145364821Y-59404971D01*
X145522058Y-59785515D01*
X145615000Y-59878619D01*
X145615000Y-61100000D01*
X145674755Y-61400407D01*
X145844921Y-61655079D01*
X146964934Y-62775092D01*
X146964821Y-62904971D01*
X147122058Y-63285515D01*
X147412954Y-63576919D01*
X147793223Y-63734820D01*
X148204971Y-63735179D01*
X148585515Y-63577942D01*
X148876919Y-63287046D01*
X149034820Y-62906777D01*
X149035179Y-62495029D01*
X149035179Y-76472216D01*
X148868085Y-76541258D01*
X148576681Y-76832154D01*
X148425868Y-77195352D01*
X148248820Y-77372400D01*
X147887584Y-77372400D01*
X147526777Y-77222580D01*
X147115029Y-77222221D01*
X146734485Y-77379458D01*
X146443081Y-77670354D01*
X146285180Y-78050623D01*
X146284821Y-78462371D01*
X146442058Y-78842915D01*
X146732954Y-79134319D01*
X147113223Y-79292220D01*
X147524971Y-79292579D01*
X147888433Y-79142400D01*
X148615394Y-79142400D01*
X148615400Y-79142401D01*
X148615400Y-79142400D01*
X148897884Y-79086210D01*
X148954074Y-79075033D01*
X148954075Y-79075033D01*
X149241190Y-78883190D01*
X149678048Y-78446331D01*
X150039115Y-78297142D01*
X150330519Y-78006246D01*
X150488420Y-77625977D01*
X150488779Y-77214229D01*
X150488779Y-87873000D01*
X143435179Y-87873000D01*
X143435179Y-67395029D01*
X143313170Y-67099743D01*
X143434820Y-66806777D01*
X143435179Y-66395029D01*
X143277942Y-66014485D01*
X143263711Y-66000230D01*
X143276919Y-65987046D01*
X143434820Y-65606777D01*
X143435179Y-65195029D01*
X143277942Y-64814485D01*
X142987046Y-64523081D01*
X142606777Y-64365180D01*
X142195029Y-64364821D01*
X141814485Y-64522058D01*
X141523081Y-64812954D01*
X141522231Y-64815000D01*
X141035179Y-64815000D01*
X141035179Y-60295029D01*
X140877942Y-59914485D01*
X140587046Y-59623081D01*
X140206777Y-59465180D01*
X140162556Y-59465141D01*
X140162555Y-59465141D01*
X140038675Y-59382367D01*
X139982484Y-59371189D01*
X139700000Y-59314999D01*
X139699994Y-59315000D01*
X138767584Y-59315000D01*
X138406777Y-59165180D01*
X137995029Y-59164821D01*
X137614485Y-59322058D01*
X137323081Y-59612954D01*
X137165180Y-59993223D01*
X137164821Y-60404971D01*
X137322058Y-60785515D01*
X137612954Y-61076919D01*
X137993223Y-61234820D01*
X138404971Y-61235179D01*
X138768433Y-61085000D01*
X139121845Y-61085000D01*
X139122058Y-61085515D01*
X139412954Y-61376919D01*
X139793223Y-61534820D01*
X140204971Y-61535179D01*
X140585515Y-61377942D01*
X140876919Y-61087046D01*
X141034820Y-60706777D01*
X141035179Y-60295029D01*
X141035179Y-64815000D01*
X138878804Y-64815000D01*
X138787046Y-64723081D01*
X138406777Y-64565180D01*
X137995029Y-64564821D01*
X137614485Y-64722058D01*
X137600230Y-64736288D01*
X137587046Y-64723081D01*
X137206777Y-64565180D01*
X136795029Y-64564821D01*
X136435179Y-64713507D01*
X136435179Y-56395029D01*
X136277942Y-56014485D01*
X136185000Y-55921380D01*
X136185000Y-55078804D01*
X136276919Y-54987046D01*
X136434820Y-54606777D01*
X136435179Y-54195029D01*
X136277942Y-53814485D01*
X136035179Y-53571298D01*
X136035179Y-48795029D01*
X135885000Y-48431566D01*
X135885000Y-46650005D01*
X135885000Y-46650000D01*
X135885001Y-46650000D01*
X135817634Y-46311326D01*
X135817633Y-46311325D01*
X135753975Y-46216054D01*
X135625790Y-46024211D01*
X135625790Y-46024210D01*
X135625786Y-46024207D01*
X135177131Y-45575551D01*
X135027942Y-45214485D01*
X134737046Y-44923081D01*
X134356777Y-44765180D01*
X133945029Y-44764821D01*
X133564485Y-44922058D01*
X133273081Y-45212954D01*
X133115180Y-45593223D01*
X133114821Y-46004971D01*
X133272058Y-46385515D01*
X133562954Y-46676919D01*
X133926151Y-46827731D01*
X134115000Y-47016579D01*
X134115000Y-48432415D01*
X133965180Y-48793223D01*
X133964821Y-49204971D01*
X134122058Y-49585515D01*
X134412954Y-49876919D01*
X134793223Y-50034820D01*
X135204971Y-50035179D01*
X135585515Y-49877942D01*
X135876919Y-49587046D01*
X136034820Y-49206777D01*
X136035179Y-48795029D01*
X136035179Y-53571298D01*
X135987046Y-53523081D01*
X135606777Y-53365180D01*
X135195029Y-53364821D01*
X134814485Y-53522058D01*
X134523081Y-53812954D01*
X134365180Y-54193223D01*
X134364821Y-54604971D01*
X134477458Y-54877576D01*
X134206777Y-54765180D01*
X133835179Y-54764856D01*
X133835179Y-52795029D01*
X133677942Y-52414485D01*
X133387046Y-52123081D01*
X133006777Y-51965180D01*
X132595029Y-51964821D01*
X132214485Y-52122058D01*
X131923081Y-52412954D01*
X131765180Y-52793223D01*
X131765065Y-52924776D01*
X130524907Y-54164934D01*
X130395029Y-54164821D01*
X130014485Y-54322058D01*
X129723081Y-54612954D01*
X129565180Y-54993223D01*
X129564821Y-55404971D01*
X129722058Y-55785515D01*
X130012954Y-56076919D01*
X130393223Y-56234820D01*
X130804971Y-56235179D01*
X131185515Y-56077942D01*
X131476919Y-55787046D01*
X131634820Y-55406777D01*
X131634934Y-55275223D01*
X132875092Y-54035065D01*
X133004971Y-54035179D01*
X133385515Y-53877942D01*
X133676919Y-53587046D01*
X133834820Y-53206777D01*
X133835179Y-52795029D01*
X133835179Y-54764856D01*
X133795029Y-54764821D01*
X133414485Y-54922058D01*
X133321380Y-55015000D01*
X133200005Y-55015000D01*
X133200000Y-55014999D01*
X132899594Y-55074755D01*
X132644921Y-55244921D01*
X132124907Y-55764934D01*
X131995029Y-55764821D01*
X131614485Y-55922058D01*
X131323081Y-56212954D01*
X131165180Y-56593223D01*
X131164821Y-57004971D01*
X131322058Y-57385515D01*
X131612954Y-57676919D01*
X131993223Y-57834820D01*
X132404971Y-57835179D01*
X132785515Y-57677942D01*
X133076919Y-57387046D01*
X133234820Y-57006777D01*
X133234934Y-56875223D01*
X133427287Y-56682870D01*
X133793223Y-56834820D01*
X134204971Y-56835179D01*
X134364852Y-56769117D01*
X134364821Y-56804971D01*
X134522058Y-57185515D01*
X134812954Y-57476919D01*
X135193223Y-57634820D01*
X135604971Y-57635179D01*
X135985515Y-57477942D01*
X136276919Y-57187046D01*
X136434820Y-56806777D01*
X136435179Y-56395029D01*
X136435179Y-64713507D01*
X136414485Y-64722058D01*
X136123081Y-65012954D01*
X135965180Y-65393223D01*
X135964821Y-65804971D01*
X136122058Y-66185515D01*
X136412954Y-66476919D01*
X136793223Y-66634820D01*
X136924776Y-66634934D01*
X138444921Y-68155079D01*
X138699593Y-68325245D01*
X138699594Y-68325245D01*
X139000000Y-68385000D01*
X141721195Y-68385000D01*
X141812954Y-68476919D01*
X142193223Y-68634820D01*
X142604971Y-68635179D01*
X142985515Y-68477942D01*
X143276919Y-68187046D01*
X143434820Y-67806777D01*
X143435179Y-67395029D01*
X143435179Y-87873000D01*
X138855579Y-87873000D01*
X138855579Y-77620629D01*
X138698342Y-77240085D01*
X138407446Y-76948681D01*
X138027177Y-76790780D01*
X137615429Y-76790421D01*
X137278614Y-76929589D01*
X137123542Y-76554285D01*
X136832646Y-76262881D01*
X136452377Y-76104980D01*
X136040629Y-76104621D01*
X135660085Y-76261858D01*
X135386522Y-76534943D01*
X134285000Y-75433420D01*
X134285000Y-70267584D01*
X134434820Y-69906777D01*
X134435179Y-69495029D01*
X134277942Y-69114485D01*
X134235179Y-69071647D01*
X134235179Y-63795029D01*
X134085000Y-63431566D01*
X134085000Y-61567584D01*
X134234820Y-61206777D01*
X134235179Y-60795029D01*
X134077942Y-60414485D01*
X133787046Y-60123081D01*
X133406777Y-59965180D01*
X132995029Y-59964821D01*
X132614485Y-60122058D01*
X132323081Y-60412954D01*
X132165180Y-60793223D01*
X132164821Y-61204971D01*
X132315000Y-61568433D01*
X132315000Y-63432415D01*
X132165180Y-63793223D01*
X132164821Y-64204971D01*
X132322058Y-64585515D01*
X132612954Y-64876919D01*
X132993223Y-65034820D01*
X133404971Y-65035179D01*
X133785515Y-64877942D01*
X134076919Y-64587046D01*
X134234820Y-64206777D01*
X134235179Y-63795029D01*
X134235179Y-69071647D01*
X133987046Y-68823081D01*
X133606777Y-68665180D01*
X133195029Y-68664821D01*
X132814485Y-68822058D01*
X132523081Y-69112954D01*
X132365180Y-69493223D01*
X132364821Y-69904971D01*
X132515000Y-70268433D01*
X132515000Y-75799994D01*
X132514999Y-75800000D01*
X132571189Y-76082484D01*
X132582367Y-76138675D01*
X132774210Y-76425790D01*
X134772868Y-78424447D01*
X134922058Y-78785515D01*
X135212954Y-79076919D01*
X135593223Y-79234820D01*
X136004971Y-79235179D01*
X136385515Y-79077942D01*
X136676919Y-78787046D01*
X136764011Y-78577304D01*
X136931400Y-78610600D01*
X137141595Y-78610600D01*
X137233354Y-78702519D01*
X137613623Y-78860420D01*
X138025371Y-78860779D01*
X138405915Y-78703542D01*
X138697319Y-78412646D01*
X138855220Y-78032377D01*
X138855579Y-77620629D01*
X138855579Y-87873000D01*
X134190465Y-87873000D01*
X134399944Y-87663886D01*
X134412954Y-87676919D01*
X134793223Y-87834820D01*
X135204971Y-87835179D01*
X135585515Y-87677942D01*
X135876919Y-87387046D01*
X136034820Y-87006777D01*
X136035179Y-86595029D01*
X135877942Y-86214485D01*
X135587046Y-85923081D01*
X135206777Y-85765180D01*
X135075223Y-85765065D01*
X134435065Y-85124907D01*
X134435179Y-84995029D01*
X134277942Y-84614485D01*
X133987046Y-84323081D01*
X133606777Y-84165180D01*
X133195029Y-84164821D01*
X132814485Y-84322058D01*
X132523081Y-84612954D01*
X132365180Y-84993223D01*
X132364821Y-85404971D01*
X132368964Y-85415000D01*
X132278804Y-85415000D01*
X132187046Y-85323081D01*
X131806777Y-85165180D01*
X131395029Y-85164821D01*
X131014485Y-85322058D01*
X130723081Y-85612954D01*
X130565180Y-85993223D01*
X130564821Y-86404971D01*
X130722058Y-86785515D01*
X131012954Y-87076919D01*
X131393223Y-87234820D01*
X131804971Y-87235179D01*
X132185515Y-87077942D01*
X132278619Y-86985000D01*
X132474842Y-86985000D01*
X132564934Y-87075092D01*
X132564821Y-87204971D01*
X132722058Y-87585515D01*
X133009041Y-87873000D01*
X125935179Y-87873000D01*
X125935179Y-48195029D01*
X125777942Y-47814485D01*
X125685000Y-47721380D01*
X125685000Y-47278804D01*
X125776919Y-47187046D01*
X125934820Y-46806777D01*
X125935179Y-46395029D01*
X125777942Y-46014485D01*
X125487046Y-45723081D01*
X125106777Y-45565180D01*
X124695029Y-45564821D01*
X124314485Y-45722058D01*
X124023081Y-46012954D01*
X123865180Y-46393223D01*
X123864821Y-46804971D01*
X124022058Y-47185515D01*
X124115000Y-47278619D01*
X124115000Y-47721195D01*
X124023081Y-47812954D01*
X123865180Y-48193223D01*
X123864821Y-48604971D01*
X124022058Y-48985515D01*
X124312954Y-49276919D01*
X124693223Y-49434820D01*
X125104971Y-49435179D01*
X125485515Y-49277942D01*
X125776919Y-48987046D01*
X125934820Y-48606777D01*
X125935179Y-48195029D01*
X125935179Y-87873000D01*
X104472726Y-87873000D01*
X104699534Y-87646587D01*
X104828943Y-87593117D01*
X105092192Y-87330327D01*
X105145889Y-87201010D01*
X105403575Y-86943774D01*
X105926404Y-85684663D01*
X105926821Y-85206104D01*
X105934838Y-85186799D01*
X105935162Y-84814833D01*
X105927180Y-84795515D01*
X105927594Y-84321318D01*
X105406963Y-83061296D01*
X105146587Y-82800465D01*
X105093117Y-82671057D01*
X104830327Y-82407808D01*
X104701010Y-82354110D01*
X104443774Y-82096425D01*
X104375000Y-82067867D01*
X104375000Y-77414309D01*
X104375000Y-76367250D01*
X104375000Y-75795750D01*
X104375000Y-74748691D01*
X104375000Y-68651309D01*
X104375000Y-67604250D01*
X104375000Y-67032750D01*
X104375000Y-65985691D01*
X104375000Y-60214309D01*
X104375000Y-59167250D01*
X104375000Y-58595750D01*
X104375000Y-57548691D01*
X104375000Y-51451309D01*
X104375000Y-50404250D01*
X104216250Y-50245500D01*
X101327000Y-50245500D01*
X101327000Y-51801250D01*
X101485750Y-51960000D01*
X103613691Y-51960000D01*
X103866310Y-51960000D01*
X104099699Y-51863327D01*
X104278327Y-51684698D01*
X104375000Y-51451309D01*
X104375000Y-57548691D01*
X104278327Y-57315302D01*
X104099699Y-57136673D01*
X103866310Y-57040000D01*
X103613691Y-57040000D01*
X101485750Y-57040000D01*
X101327000Y-57198750D01*
X101327000Y-58754500D01*
X104216250Y-58754500D01*
X104375000Y-58595750D01*
X104375000Y-59167250D01*
X104216250Y-59008500D01*
X101327000Y-59008500D01*
X101327000Y-60564250D01*
X101485750Y-60723000D01*
X103613691Y-60723000D01*
X103866310Y-60723000D01*
X104099699Y-60626327D01*
X104278327Y-60447698D01*
X104375000Y-60214309D01*
X104375000Y-65985691D01*
X104278327Y-65752302D01*
X104099699Y-65573673D01*
X103866310Y-65477000D01*
X103613691Y-65477000D01*
X101485750Y-65477000D01*
X101327000Y-65635750D01*
X101327000Y-67191500D01*
X104216250Y-67191500D01*
X104375000Y-67032750D01*
X104375000Y-67604250D01*
X104216250Y-67445500D01*
X101327000Y-67445500D01*
X101327000Y-69001250D01*
X101485750Y-69160000D01*
X103613691Y-69160000D01*
X103866310Y-69160000D01*
X104099699Y-69063327D01*
X104278327Y-68884698D01*
X104375000Y-68651309D01*
X104375000Y-74748691D01*
X104278327Y-74515302D01*
X104099699Y-74336673D01*
X103866310Y-74240000D01*
X103613691Y-74240000D01*
X101485750Y-74240000D01*
X101327000Y-74398750D01*
X101327000Y-75954500D01*
X104216250Y-75954500D01*
X104375000Y-75795750D01*
X104375000Y-76367250D01*
X104216250Y-76208500D01*
X101327000Y-76208500D01*
X101327000Y-77764250D01*
X101485750Y-77923000D01*
X103613691Y-77923000D01*
X103866310Y-77923000D01*
X104099699Y-77826327D01*
X104278327Y-77647698D01*
X104375000Y-77414309D01*
X104375000Y-82067867D01*
X103184663Y-81573596D01*
X102706104Y-81573178D01*
X102686799Y-81565162D01*
X102314833Y-81564838D01*
X102295515Y-81572819D01*
X101821318Y-81572406D01*
X100561296Y-82093037D01*
X100300465Y-82353412D01*
X100171057Y-82406883D01*
X99907808Y-82669673D01*
X99854110Y-82798989D01*
X99627000Y-83025704D01*
X99627000Y-77923000D01*
X100914250Y-77923000D01*
X101073000Y-77764250D01*
X101073000Y-76208500D01*
X101053000Y-76208500D01*
X101053000Y-75954500D01*
X101073000Y-75954500D01*
X101073000Y-74398750D01*
X100914250Y-74240000D01*
X99627000Y-74240000D01*
X99627000Y-69160000D01*
X100914250Y-69160000D01*
X101073000Y-69001250D01*
X101073000Y-67445500D01*
X101053000Y-67445500D01*
X101053000Y-67191500D01*
X101073000Y-67191500D01*
X101073000Y-65635750D01*
X100914250Y-65477000D01*
X99627000Y-65477000D01*
X99627000Y-60723000D01*
X100914250Y-60723000D01*
X101073000Y-60564250D01*
X101073000Y-59008500D01*
X101053000Y-59008500D01*
X101053000Y-58754500D01*
X101073000Y-58754500D01*
X101073000Y-57198750D01*
X100914250Y-57040000D01*
X99627000Y-57040000D01*
X99627000Y-51960000D01*
X100914250Y-51960000D01*
X101073000Y-51801250D01*
X101073000Y-50245500D01*
X101053000Y-50245500D01*
X101053000Y-49991500D01*
X101073000Y-49991500D01*
X101073000Y-48435750D01*
X100914250Y-48277000D01*
X99627000Y-48277000D01*
X99627000Y-46972726D01*
X99853412Y-47199534D01*
X99906883Y-47328943D01*
X100169673Y-47592192D01*
X100298989Y-47645889D01*
X100556226Y-47903575D01*
X101476884Y-48285865D01*
X101327000Y-48435750D01*
X101327000Y-49991500D01*
X104216250Y-49991500D01*
X104375000Y-49832750D01*
X104375000Y-48785691D01*
X104278327Y-48552302D01*
X104099699Y-48373673D01*
X103866310Y-48277000D01*
X103613691Y-48277000D01*
X103543146Y-48277000D01*
X104438704Y-47906963D01*
X104699534Y-47646587D01*
X104828943Y-47593117D01*
X105092192Y-47330327D01*
X105145889Y-47201010D01*
X105403575Y-46943774D01*
X105926404Y-45684663D01*
X105926821Y-45206104D01*
X105934838Y-45186799D01*
X105935162Y-44814833D01*
X105927180Y-44795515D01*
X105927594Y-44321318D01*
X105406963Y-43061296D01*
X105146587Y-42800465D01*
X105093117Y-42671057D01*
X104830327Y-42407808D01*
X104701010Y-42354110D01*
X104474295Y-42127000D01*
X156527273Y-42127000D01*
X156300465Y-42353412D01*
X156171057Y-42406883D01*
X155907808Y-42669673D01*
X155854110Y-42798989D01*
X155596425Y-43056226D01*
X155073596Y-44315337D01*
X155073178Y-44793895D01*
X155065162Y-44813201D01*
X155064838Y-45185167D01*
X155072819Y-45204484D01*
X155072406Y-45678682D01*
X155593037Y-46938704D01*
X155853412Y-47199534D01*
X155906883Y-47328943D01*
X156169673Y-47592192D01*
X156298989Y-47645889D01*
X156556226Y-47903575D01*
X157815337Y-48426404D01*
X158293895Y-48426821D01*
X158313201Y-48434838D01*
X158685167Y-48435162D01*
X158704484Y-48427180D01*
X159178682Y-48427594D01*
X159765099Y-48185290D01*
X159764821Y-48504971D01*
X159922058Y-48885515D01*
X160212954Y-49176919D01*
X160593223Y-49334820D01*
X161004971Y-49335179D01*
X161385515Y-49177942D01*
X161676919Y-48887046D01*
X161834820Y-48506777D01*
X161834934Y-48375223D01*
X163055079Y-47155079D01*
X163225245Y-46900407D01*
X163225245Y-46900406D01*
X163285000Y-46600000D01*
X163285000Y-45778804D01*
X163376919Y-45687046D01*
X163534820Y-45306777D01*
X163535179Y-44895029D01*
X163377942Y-44514485D01*
X163087046Y-44223081D01*
X162706777Y-44065180D01*
X162295029Y-44064821D01*
X161914485Y-44222058D01*
X161894729Y-44241779D01*
X161406963Y-43061296D01*
X161146587Y-42800465D01*
X161093117Y-42671057D01*
X160830327Y-42407808D01*
X160701010Y-42354110D01*
X160474295Y-42127000D01*
X186873000Y-42127000D01*
X186873000Y-87873000D01*
X186873000Y-87873000D01*
G37*
X186873000Y-87873000D02*
X182228216Y-87873000D01*
X182284794Y-87736745D01*
X182285206Y-87265323D01*
X182285206Y-78265323D01*
X182105180Y-77829628D01*
X181775844Y-77499717D01*
X182104009Y-77172125D01*
X182284794Y-76736745D01*
X182285206Y-76265323D01*
X182285206Y-71265323D01*
X182105180Y-70829628D01*
X181775844Y-70499717D01*
X182104009Y-70172125D01*
X182284794Y-69736745D01*
X182285206Y-69265323D01*
X182285206Y-64265323D01*
X182105180Y-63829628D01*
X181775844Y-63499717D01*
X182104009Y-63172125D01*
X182284794Y-62736745D01*
X182285206Y-62265323D01*
X182285206Y-57265323D01*
X182105180Y-56829628D01*
X181775844Y-56499717D01*
X182104009Y-56172125D01*
X182284794Y-55736745D01*
X182285206Y-55265323D01*
X182285206Y-50265323D01*
X182105180Y-49829628D01*
X181775844Y-49499717D01*
X182104009Y-49172125D01*
X182284794Y-48736745D01*
X182285206Y-48265323D01*
X182285206Y-43265323D01*
X182105180Y-42829628D01*
X181772125Y-42495991D01*
X181336745Y-42315206D01*
X180865323Y-42314794D01*
X180429628Y-42494820D01*
X180095991Y-42827875D01*
X179915206Y-43263255D01*
X179914794Y-43734677D01*
X180070823Y-44112295D01*
X179785564Y-43826539D01*
X179276702Y-43615241D01*
X178725715Y-43614760D01*
X178216485Y-43825169D01*
X177826539Y-44214436D01*
X177615241Y-44723298D01*
X177614760Y-45274285D01*
X177825169Y-45783515D01*
X178214436Y-46173461D01*
X178451506Y-46271901D01*
X179000000Y-46820395D01*
X179548428Y-46271966D01*
X179783515Y-46174831D01*
X180173461Y-45785564D01*
X180384759Y-45276702D01*
X180385240Y-44725715D01*
X180198827Y-44274561D01*
X180427875Y-44504009D01*
X180863255Y-44684794D01*
X181334677Y-44685206D01*
X181770372Y-44505180D01*
X182104009Y-44172125D01*
X182284794Y-43736745D01*
X182285206Y-43265323D01*
X182285206Y-48265323D01*
X182105180Y-47829628D01*
X181772125Y-47495991D01*
X181336745Y-47315206D01*
X180865323Y-47314794D01*
X180429628Y-47494820D01*
X180219257Y-47704823D01*
X180397201Y-47204829D01*
X180369230Y-46654552D01*
X180212460Y-46276077D01*
X179971517Y-46208088D01*
X179179605Y-47000000D01*
X179971517Y-47791912D01*
X180195263Y-47728775D01*
X180095991Y-47827875D01*
X179915206Y-48263255D01*
X179914794Y-48734677D01*
X180094820Y-49170372D01*
X180424155Y-49500282D01*
X180095991Y-49827875D01*
X179915206Y-50263255D01*
X179914794Y-50734677D01*
X180070823Y-51112295D01*
X179791912Y-50832898D01*
X179791912Y-47971517D01*
X179000000Y-47179605D01*
X178820395Y-47359210D01*
X178820395Y-47000000D01*
X178028483Y-46208088D01*
X177787540Y-46276077D01*
X177602799Y-46795171D01*
X177630770Y-47345448D01*
X177787540Y-47723923D01*
X178028483Y-47791912D01*
X178820395Y-47000000D01*
X178820395Y-47359210D01*
X178208088Y-47971517D01*
X178276077Y-48212460D01*
X178795171Y-48397201D01*
X179345448Y-48369230D01*
X179723923Y-48212460D01*
X179791912Y-47971517D01*
X179791912Y-50832898D01*
X179785564Y-50826539D01*
X179276702Y-50615241D01*
X178725715Y-50614760D01*
X178216485Y-50825169D01*
X177826539Y-51214436D01*
X177615241Y-51723298D01*
X177614760Y-52274285D01*
X177825169Y-52783515D01*
X178214436Y-53173461D01*
X178451506Y-53271901D01*
X179000000Y-53820395D01*
X179548428Y-53271966D01*
X179783515Y-53174831D01*
X180173461Y-52785564D01*
X180384759Y-52276702D01*
X180385240Y-51725715D01*
X180198827Y-51274561D01*
X180427875Y-51504009D01*
X180863255Y-51684794D01*
X181334677Y-51685206D01*
X181770372Y-51505180D01*
X182104009Y-51172125D01*
X182284794Y-50736745D01*
X182285206Y-50265323D01*
X182285206Y-55265323D01*
X182105180Y-54829628D01*
X181772125Y-54495991D01*
X181336745Y-54315206D01*
X180865323Y-54314794D01*
X180429628Y-54494820D01*
X180219257Y-54704823D01*
X180397201Y-54204829D01*
X180369230Y-53654552D01*
X180212460Y-53276077D01*
X179971517Y-53208088D01*
X179179605Y-54000000D01*
X179971517Y-54791912D01*
X180195263Y-54728775D01*
X180095991Y-54827875D01*
X179915206Y-55263255D01*
X179914794Y-55734677D01*
X180094820Y-56170372D01*
X180424155Y-56500282D01*
X180095991Y-56827875D01*
X179915206Y-57263255D01*
X179914794Y-57734677D01*
X180070823Y-58112295D01*
X179791912Y-57832898D01*
X179791912Y-54971517D01*
X179000000Y-54179605D01*
X178820395Y-54359210D01*
X178820395Y-54000000D01*
X178028483Y-53208088D01*
X177787540Y-53276077D01*
X177602799Y-53795171D01*
X177630770Y-54345448D01*
X177787540Y-54723923D01*
X178028483Y-54791912D01*
X178820395Y-54000000D01*
X178820395Y-54359210D01*
X178208088Y-54971517D01*
X178276077Y-55212460D01*
X178795171Y-55397201D01*
X179345448Y-55369230D01*
X179723923Y-55212460D01*
X179791912Y-54971517D01*
X179791912Y-57832898D01*
X179785564Y-57826539D01*
X179276702Y-57615241D01*
X178725715Y-57614760D01*
X178216485Y-57825169D01*
X177826539Y-58214436D01*
X177615241Y-58723298D01*
X177614760Y-59274285D01*
X177825169Y-59783515D01*
X178214436Y-60173461D01*
X178451506Y-60271901D01*
X179000000Y-60820395D01*
X179548428Y-60271966D01*
X179783515Y-60174831D01*
X180173461Y-59785564D01*
X180384759Y-59276702D01*
X180385240Y-58725715D01*
X180198827Y-58274561D01*
X180427875Y-58504009D01*
X180863255Y-58684794D01*
X181334677Y-58685206D01*
X181770372Y-58505180D01*
X182104009Y-58172125D01*
X182284794Y-57736745D01*
X182285206Y-57265323D01*
X182285206Y-62265323D01*
X182105180Y-61829628D01*
X181772125Y-61495991D01*
X181336745Y-61315206D01*
X180865323Y-61314794D01*
X180429628Y-61494820D01*
X180219257Y-61704823D01*
X180397201Y-61204829D01*
X180369230Y-60654552D01*
X180212460Y-60276077D01*
X179971517Y-60208088D01*
X179179605Y-61000000D01*
X179971517Y-61791912D01*
X180195263Y-61728775D01*
X180095991Y-61827875D01*
X179915206Y-62263255D01*
X179914794Y-62734677D01*
X180094820Y-63170372D01*
X180424155Y-63500282D01*
X180095991Y-63827875D01*
X179915206Y-64263255D01*
X179914794Y-64734677D01*
X180070823Y-65112295D01*
X179791912Y-64832898D01*
X179791912Y-61971517D01*
X179000000Y-61179605D01*
X178820395Y-61359210D01*
X178820395Y-61000000D01*
X178028483Y-60208088D01*
X177787540Y-60276077D01*
X177602799Y-60795171D01*
X177630770Y-61345448D01*
X177787540Y-61723923D01*
X178028483Y-61791912D01*
X178820395Y-61000000D01*
X178820395Y-61359210D01*
X178208088Y-61971517D01*
X178276077Y-62212460D01*
X178795171Y-62397201D01*
X179345448Y-62369230D01*
X179723923Y-62212460D01*
X179791912Y-61971517D01*
X179791912Y-64832898D01*
X179785564Y-64826539D01*
X179276702Y-64615241D01*
X178725715Y-64614760D01*
X178216485Y-64825169D01*
X177826539Y-65214436D01*
X177615241Y-65723298D01*
X177614760Y-66274285D01*
X177825169Y-66783515D01*
X178214436Y-67173461D01*
X178451506Y-67271901D01*
X179000000Y-67820395D01*
X179548428Y-67271966D01*
X179783515Y-67174831D01*
X180173461Y-66785564D01*
X180384759Y-66276702D01*
X180385240Y-65725715D01*
X180198827Y-65274561D01*
X180427875Y-65504009D01*
X180863255Y-65684794D01*
X181334677Y-65685206D01*
X181770372Y-65505180D01*
X182104009Y-65172125D01*
X182284794Y-64736745D01*
X182285206Y-64265323D01*
X182285206Y-69265323D01*
X182105180Y-68829628D01*
X181772125Y-68495991D01*
X181336745Y-68315206D01*
X180865323Y-68314794D01*
X180429628Y-68494820D01*
X180219257Y-68704823D01*
X180397201Y-68204829D01*
X180369230Y-67654552D01*
X180212460Y-67276077D01*
X179971517Y-67208088D01*
X179179605Y-68000000D01*
X179971517Y-68791912D01*
X180195263Y-68728775D01*
X180095991Y-68827875D01*
X179915206Y-69263255D01*
X179914794Y-69734677D01*
X180094820Y-70170372D01*
X180424155Y-70500282D01*
X180095991Y-70827875D01*
X179915206Y-71263255D01*
X179914794Y-71734677D01*
X180094820Y-72170372D01*
X180195587Y-72271316D01*
X179971517Y-72208088D01*
X179791912Y-72387693D01*
X179791912Y-72028483D01*
X179791912Y-68971517D01*
X179000000Y-68179605D01*
X178820395Y-68359210D01*
X178820395Y-68000000D01*
X178028483Y-67208088D01*
X177787540Y-67276077D01*
X177602799Y-67795171D01*
X177630770Y-68345448D01*
X177787540Y-68723923D01*
X178028483Y-68791912D01*
X178820395Y-68000000D01*
X178820395Y-68359210D01*
X178208088Y-68971517D01*
X178276077Y-69212460D01*
X178795171Y-69397201D01*
X179345448Y-69369230D01*
X179723923Y-69212460D01*
X179791912Y-68971517D01*
X179791912Y-72028483D01*
X179723923Y-71787540D01*
X179204829Y-71602799D01*
X178654552Y-71630770D01*
X178276077Y-71787540D01*
X178208088Y-72028483D01*
X179000000Y-72820395D01*
X179791912Y-72028483D01*
X179791912Y-72387693D01*
X179179605Y-73000000D01*
X179971517Y-73791912D01*
X180212460Y-73723923D01*
X180397201Y-73204829D01*
X180369230Y-72654552D01*
X180221055Y-72296827D01*
X180427875Y-72504009D01*
X180863255Y-72684794D01*
X181334677Y-72685206D01*
X181770372Y-72505180D01*
X182104009Y-72172125D01*
X182284794Y-71736745D01*
X182285206Y-71265323D01*
X182285206Y-76265323D01*
X182105180Y-75829628D01*
X181772125Y-75495991D01*
X181336745Y-75315206D01*
X180865323Y-75314794D01*
X180429628Y-75494820D01*
X180198300Y-75725744D01*
X180384759Y-75276702D01*
X180385240Y-74725715D01*
X180174831Y-74216485D01*
X179785564Y-73826539D01*
X179548493Y-73728098D01*
X179000000Y-73179605D01*
X178820395Y-73359209D01*
X178820395Y-73000000D01*
X178028483Y-72208088D01*
X177787540Y-72276077D01*
X177602799Y-72795171D01*
X177630770Y-73345448D01*
X177787540Y-73723923D01*
X178028483Y-73791912D01*
X178820395Y-73000000D01*
X178820395Y-73359209D01*
X178451571Y-73728033D01*
X178216485Y-73825169D01*
X177826539Y-74214436D01*
X177615241Y-74723298D01*
X177614760Y-75274285D01*
X177825169Y-75783515D01*
X178214436Y-76173461D01*
X178723298Y-76384759D01*
X179274285Y-76385240D01*
X179783515Y-76174831D01*
X180071151Y-75887695D01*
X179915206Y-76263255D01*
X179914794Y-76734677D01*
X180094820Y-77170372D01*
X180424155Y-77500282D01*
X180095991Y-77827875D01*
X179915206Y-78263255D01*
X179914794Y-78734677D01*
X180070823Y-79112295D01*
X179785564Y-78826539D01*
X179276702Y-78615241D01*
X178725715Y-78614760D01*
X178216485Y-78825169D01*
X177826539Y-79214436D01*
X177615241Y-79723298D01*
X177614760Y-80274285D01*
X177825169Y-80783515D01*
X178041312Y-81000035D01*
X177826539Y-81214436D01*
X177615241Y-81723298D01*
X177614760Y-82274285D01*
X177825169Y-82783515D01*
X178041312Y-83000035D01*
X177826539Y-83214436D01*
X177615241Y-83723298D01*
X177614760Y-84274285D01*
X177825169Y-84783515D01*
X178214436Y-85173461D01*
X178451506Y-85271901D01*
X179000000Y-85820395D01*
X179548428Y-85271966D01*
X179783515Y-85174831D01*
X180173461Y-84785564D01*
X180384759Y-84276702D01*
X180385240Y-83725715D01*
X180174831Y-83216485D01*
X179958687Y-82999964D01*
X180173461Y-82785564D01*
X180384759Y-82276702D01*
X180385240Y-81725715D01*
X180174831Y-81216485D01*
X179958687Y-80999964D01*
X180173461Y-80785564D01*
X180384759Y-80276702D01*
X180385240Y-79725715D01*
X180198827Y-79274561D01*
X180427875Y-79504009D01*
X180863255Y-79684794D01*
X181334677Y-79685206D01*
X181770372Y-79505180D01*
X182104009Y-79172125D01*
X182284794Y-78736745D01*
X182285206Y-78265323D01*
X182285206Y-87265323D01*
X182105180Y-86829628D01*
X181772125Y-86495991D01*
X181336745Y-86315206D01*
X180865323Y-86314794D01*
X180429628Y-86494820D01*
X180219257Y-86704823D01*
X180397201Y-86204829D01*
X180369230Y-85654552D01*
X180212460Y-85276077D01*
X179971517Y-85208088D01*
X179179605Y-86000000D01*
X179971517Y-86791912D01*
X180195263Y-86728775D01*
X180095991Y-86827875D01*
X179915206Y-87263255D01*
X179914794Y-87734677D01*
X179971948Y-87873000D01*
X179791912Y-87873000D01*
X179791912Y-86971517D01*
X179000000Y-86179605D01*
X178820395Y-86359210D01*
X178820395Y-86000000D01*
X178028483Y-85208088D01*
X177787540Y-85276077D01*
X177602799Y-85795171D01*
X177630770Y-86345448D01*
X177787540Y-86723923D01*
X178028483Y-86791912D01*
X178820395Y-86000000D01*
X178820395Y-86359210D01*
X178208088Y-86971517D01*
X178276077Y-87212460D01*
X178795171Y-87397201D01*
X179345448Y-87369230D01*
X179723923Y-87212460D01*
X179791912Y-86971517D01*
X179791912Y-87873000D01*
X168997201Y-87873000D01*
X168997201Y-78304829D01*
X168969230Y-77754552D01*
X168812460Y-77376077D01*
X168571517Y-77308088D01*
X168391912Y-77487693D01*
X168391912Y-77128483D01*
X168323923Y-76887540D01*
X167804829Y-76702799D01*
X167254552Y-76730770D01*
X166876077Y-76887540D01*
X166808088Y-77128483D01*
X167600000Y-77920395D01*
X168391912Y-77128483D01*
X168391912Y-77487693D01*
X167779605Y-78100000D01*
X168571517Y-78891912D01*
X168812460Y-78823923D01*
X168997201Y-78304829D01*
X168997201Y-87873000D01*
X168985240Y-87873000D01*
X168985240Y-84825715D01*
X168774831Y-84316485D01*
X168391912Y-83932898D01*
X168391912Y-79071517D01*
X167600000Y-78279605D01*
X167420395Y-78459210D01*
X167420395Y-78100000D01*
X166628483Y-77308088D01*
X166387540Y-77376077D01*
X166202799Y-77895171D01*
X166230770Y-78445448D01*
X166387540Y-78823923D01*
X166628483Y-78891912D01*
X167420395Y-78100000D01*
X167420395Y-78459210D01*
X166808088Y-79071517D01*
X166876077Y-79312460D01*
X167395171Y-79497201D01*
X167945448Y-79469230D01*
X168323923Y-79312460D01*
X168391912Y-79071517D01*
X168391912Y-83932898D01*
X168385564Y-83926539D01*
X167876702Y-83715241D01*
X167325715Y-83714760D01*
X166816485Y-83925169D01*
X166426539Y-84314436D01*
X166215241Y-84823298D01*
X166214760Y-85374285D01*
X166425169Y-85883515D01*
X166814436Y-86273461D01*
X167323298Y-86484759D01*
X167874285Y-86485240D01*
X168383515Y-86274831D01*
X168773461Y-85885564D01*
X168984759Y-85376702D01*
X168985240Y-84825715D01*
X168985240Y-87873000D01*
X164458779Y-87873000D01*
X164458779Y-68476629D01*
X164301542Y-68096085D01*
X164010646Y-67804681D01*
X163920653Y-67767313D01*
X164077420Y-67389777D01*
X164077779Y-66978029D01*
X163920542Y-66597485D01*
X163629646Y-66306081D01*
X163249377Y-66148180D01*
X162837629Y-66147821D01*
X162457085Y-66305058D01*
X162165681Y-66595954D01*
X162007780Y-66976223D01*
X162007421Y-67387971D01*
X162164658Y-67768515D01*
X162257600Y-67861619D01*
X162257600Y-68300600D01*
X162317355Y-68601007D01*
X162388577Y-68707598D01*
X162388421Y-68886571D01*
X162545658Y-69267115D01*
X162836554Y-69558519D01*
X163216823Y-69716420D01*
X163628571Y-69716779D01*
X164009115Y-69559542D01*
X164300519Y-69268646D01*
X164458420Y-68888377D01*
X164458779Y-68476629D01*
X164458779Y-87873000D01*
X162248979Y-87873000D01*
X162248979Y-68425829D01*
X162091742Y-68045285D01*
X161800846Y-67753881D01*
X161639379Y-67686834D01*
X161639379Y-58596029D01*
X161482142Y-58215485D01*
X161191246Y-57924081D01*
X160810977Y-57766180D01*
X160679423Y-57766065D01*
X160625879Y-57712521D01*
X160371207Y-57542355D01*
X160070800Y-57482600D01*
X158744958Y-57482600D01*
X158188800Y-56926442D01*
X158188800Y-56794400D01*
X158129045Y-56493994D01*
X158129045Y-56493993D01*
X157958879Y-56239321D01*
X156765079Y-55045521D01*
X156510407Y-54875355D01*
X156210000Y-54815600D01*
X155801814Y-54815600D01*
X155822420Y-54765977D01*
X155822779Y-54354229D01*
X155665542Y-53973685D01*
X155374646Y-53682281D01*
X154994377Y-53524380D01*
X154582629Y-53524021D01*
X154310497Y-53636463D01*
X154310497Y-46557725D01*
X154138067Y-46140414D01*
X153960300Y-45962336D01*
X153960300Y-45502602D01*
X154136945Y-45326265D01*
X154310103Y-44909256D01*
X154310497Y-44457725D01*
X154138067Y-44040414D01*
X153819065Y-43720855D01*
X153402056Y-43547697D01*
X152950525Y-43547303D01*
X152533214Y-43719733D01*
X152213655Y-44038735D01*
X152040497Y-44455744D01*
X152040103Y-44907275D01*
X152212533Y-45324586D01*
X152390300Y-45502663D01*
X152390300Y-45962397D01*
X152213655Y-46138735D01*
X152040497Y-46555744D01*
X152040103Y-47007275D01*
X152212533Y-47424586D01*
X152531535Y-47744145D01*
X152948544Y-47917303D01*
X153400075Y-47917697D01*
X153817386Y-47745267D01*
X154136945Y-47426265D01*
X154310103Y-47009256D01*
X154310497Y-46557725D01*
X154310497Y-53636463D01*
X154202085Y-53681258D01*
X153910681Y-53972154D01*
X153752780Y-54352423D01*
X153752731Y-54407929D01*
X153521177Y-54311780D01*
X153109429Y-54311421D01*
X152728885Y-54468658D01*
X152437481Y-54759554D01*
X152279580Y-55139823D01*
X152279221Y-55551571D01*
X152436458Y-55932115D01*
X152727354Y-56223519D01*
X153090551Y-56374331D01*
X153445400Y-56729179D01*
X153445400Y-59334394D01*
X153445399Y-59334400D01*
X153501589Y-59616884D01*
X153512767Y-59673075D01*
X153704610Y-59960190D01*
X154187207Y-60442786D01*
X154187210Y-60442790D01*
X154474325Y-60634633D01*
X154813000Y-60702000D01*
X154996153Y-60702000D01*
X155064154Y-60770119D01*
X155444423Y-60928020D01*
X155856171Y-60928379D01*
X156236715Y-60771142D01*
X156528119Y-60480246D01*
X156686020Y-60099977D01*
X156686379Y-59688229D01*
X156529142Y-59307685D01*
X156238246Y-59016281D01*
X155857977Y-58858380D01*
X155446229Y-58858021D01*
X155267185Y-58932000D01*
X155215400Y-58932000D01*
X155215400Y-58134280D01*
X155520623Y-58261020D01*
X155932371Y-58261379D01*
X156312915Y-58104142D01*
X156604319Y-57813246D01*
X156699671Y-57583610D01*
X156848721Y-57806679D01*
X157864721Y-58822679D01*
X158119393Y-58992845D01*
X158119394Y-58992845D01*
X158419800Y-59052600D01*
X159588287Y-59052600D01*
X159726258Y-59386515D01*
X160017154Y-59677919D01*
X160397423Y-59835820D01*
X160809171Y-59836179D01*
X161189715Y-59678942D01*
X161481119Y-59388046D01*
X161639020Y-59007777D01*
X161639379Y-58596029D01*
X161639379Y-67686834D01*
X161420577Y-67595980D01*
X161008829Y-67595621D01*
X160628285Y-67752858D01*
X160336881Y-68043754D01*
X160178980Y-68424023D01*
X160178621Y-68835221D01*
X158547907Y-70465934D01*
X158418029Y-70465821D01*
X158037485Y-70623058D01*
X157746081Y-70913954D01*
X157588180Y-71294223D01*
X157587821Y-71705971D01*
X157745058Y-72086515D01*
X158035954Y-72377919D01*
X158416223Y-72535820D01*
X158827971Y-72536179D01*
X159208515Y-72378942D01*
X159499919Y-72088046D01*
X159657820Y-71707777D01*
X159657934Y-71576223D01*
X161673379Y-69560777D01*
X161799315Y-69508742D01*
X162090719Y-69217846D01*
X162248620Y-68837577D01*
X162248979Y-68425829D01*
X162248979Y-87873000D01*
X160472726Y-87873000D01*
X160699534Y-87646587D01*
X160828943Y-87593117D01*
X161092192Y-87330327D01*
X161145889Y-87201010D01*
X161403575Y-86943774D01*
X161926404Y-85684663D01*
X161926821Y-85206104D01*
X161934838Y-85186799D01*
X161935162Y-84814833D01*
X161927180Y-84795515D01*
X161927594Y-84321318D01*
X161406963Y-83061296D01*
X161146587Y-82800465D01*
X161093117Y-82671057D01*
X160830327Y-82407808D01*
X160701010Y-82354110D01*
X160443774Y-82096425D01*
X159184663Y-81573596D01*
X158706104Y-81573178D01*
X158686799Y-81565162D01*
X158314833Y-81564838D01*
X158295515Y-81572819D01*
X157821318Y-81572406D01*
X156561296Y-82093037D01*
X156300465Y-82353412D01*
X156171057Y-82406883D01*
X155907808Y-82669673D01*
X155854110Y-82798989D01*
X155596425Y-83056226D01*
X155073596Y-84315337D01*
X155073178Y-84793895D01*
X155065162Y-84813201D01*
X155064838Y-85185167D01*
X155072819Y-85204484D01*
X155072406Y-85678682D01*
X155593037Y-86938704D01*
X155853412Y-87199534D01*
X155906883Y-87328943D01*
X156169673Y-87592192D01*
X156298989Y-87645889D01*
X156525704Y-87873000D01*
X150488779Y-87873000D01*
X150488779Y-77214229D01*
X150331542Y-76833685D01*
X150040646Y-76542281D01*
X149660377Y-76384380D01*
X149248629Y-76384021D01*
X149035179Y-76472216D01*
X149035179Y-62495029D01*
X148877942Y-62114485D01*
X148587046Y-61823081D01*
X148206777Y-61665180D01*
X148075223Y-61665065D01*
X147185000Y-60774842D01*
X147185000Y-59878804D01*
X147276919Y-59787046D01*
X147434820Y-59406777D01*
X147435179Y-58995029D01*
X147277942Y-58614485D01*
X146987046Y-58323081D01*
X146606777Y-58165180D01*
X146195029Y-58164821D01*
X145943198Y-58268875D01*
X145943198Y-54173641D01*
X145774149Y-53764511D01*
X145942801Y-53358354D01*
X145943198Y-52903641D01*
X145769554Y-52483388D01*
X145534632Y-52248056D01*
X145634820Y-52006777D01*
X145635179Y-51595029D01*
X145477942Y-51214485D01*
X145187046Y-50923081D01*
X144806777Y-50765180D01*
X144395029Y-50764821D01*
X144056342Y-50904762D01*
X144027131Y-50875551D01*
X143877942Y-50514485D01*
X143587046Y-50223081D01*
X143206777Y-50065180D01*
X142795029Y-50064821D01*
X142414485Y-50222058D01*
X142123081Y-50512954D01*
X141965180Y-50893223D01*
X141964821Y-51304971D01*
X142122058Y-51685515D01*
X142411455Y-51975417D01*
X142406945Y-51973909D01*
X141953343Y-52005678D01*
X141681824Y-52118144D01*
X141668763Y-52192090D01*
X141638303Y-52161577D01*
X141218354Y-51987199D01*
X140763641Y-51986802D01*
X140343388Y-52160446D01*
X140311303Y-52192474D01*
X140298176Y-52118144D01*
X139866945Y-51973909D01*
X139413343Y-52005678D01*
X139141824Y-52118144D01*
X139103686Y-52334081D01*
X139720000Y-52950395D01*
X139734142Y-52936252D01*
X139847069Y-53049179D01*
X139846928Y-53210961D01*
X139800820Y-53257069D01*
X139639038Y-53256928D01*
X139526252Y-53144142D01*
X139540395Y-53130000D01*
X138924081Y-52513686D01*
X138708144Y-52551824D01*
X138563909Y-52983055D01*
X138595678Y-53436657D01*
X138708144Y-53708176D01*
X138782090Y-53721236D01*
X138751577Y-53751697D01*
X138577199Y-54171646D01*
X138576802Y-54626359D01*
X138750446Y-55046612D01*
X139071697Y-55368423D01*
X139491646Y-55542801D01*
X139946359Y-55543198D01*
X140355488Y-55374149D01*
X140761646Y-55542801D01*
X141216359Y-55543198D01*
X141625488Y-55374149D01*
X142031646Y-55542801D01*
X142486359Y-55543198D01*
X142895488Y-55374149D01*
X143301646Y-55542801D01*
X143756359Y-55543198D01*
X144165488Y-55374149D01*
X144571646Y-55542801D01*
X145026359Y-55543198D01*
X145446612Y-55369554D01*
X145768423Y-55048303D01*
X145942801Y-54628354D01*
X145943198Y-54173641D01*
X145943198Y-58268875D01*
X145814485Y-58322058D01*
X145523081Y-58612954D01*
X145365180Y-58993223D01*
X145364821Y-59404971D01*
X145522058Y-59785515D01*
X145615000Y-59878619D01*
X145615000Y-61100000D01*
X145674755Y-61400407D01*
X145844921Y-61655079D01*
X146964934Y-62775092D01*
X146964821Y-62904971D01*
X147122058Y-63285515D01*
X147412954Y-63576919D01*
X147793223Y-63734820D01*
X148204971Y-63735179D01*
X148585515Y-63577942D01*
X148876919Y-63287046D01*
X149034820Y-62906777D01*
X149035179Y-62495029D01*
X149035179Y-76472216D01*
X148868085Y-76541258D01*
X148576681Y-76832154D01*
X148425868Y-77195352D01*
X148248820Y-77372400D01*
X147887584Y-77372400D01*
X147526777Y-77222580D01*
X147115029Y-77222221D01*
X146734485Y-77379458D01*
X146443081Y-77670354D01*
X146285180Y-78050623D01*
X146284821Y-78462371D01*
X146442058Y-78842915D01*
X146732954Y-79134319D01*
X147113223Y-79292220D01*
X147524971Y-79292579D01*
X147888433Y-79142400D01*
X148615394Y-79142400D01*
X148615400Y-79142401D01*
X148615400Y-79142400D01*
X148897884Y-79086210D01*
X148954074Y-79075033D01*
X148954075Y-79075033D01*
X149241190Y-78883190D01*
X149678048Y-78446331D01*
X150039115Y-78297142D01*
X150330519Y-78006246D01*
X150488420Y-77625977D01*
X150488779Y-77214229D01*
X150488779Y-87873000D01*
X143435179Y-87873000D01*
X143435179Y-67395029D01*
X143313170Y-67099743D01*
X143434820Y-66806777D01*
X143435179Y-66395029D01*
X143277942Y-66014485D01*
X143263711Y-66000230D01*
X143276919Y-65987046D01*
X143434820Y-65606777D01*
X143435179Y-65195029D01*
X143277942Y-64814485D01*
X142987046Y-64523081D01*
X142606777Y-64365180D01*
X142195029Y-64364821D01*
X141814485Y-64522058D01*
X141523081Y-64812954D01*
X141522231Y-64815000D01*
X141035179Y-64815000D01*
X141035179Y-60295029D01*
X140877942Y-59914485D01*
X140587046Y-59623081D01*
X140206777Y-59465180D01*
X140162556Y-59465141D01*
X140162555Y-59465141D01*
X140038675Y-59382367D01*
X139982484Y-59371189D01*
X139700000Y-59314999D01*
X139699994Y-59315000D01*
X138767584Y-59315000D01*
X138406777Y-59165180D01*
X137995029Y-59164821D01*
X137614485Y-59322058D01*
X137323081Y-59612954D01*
X137165180Y-59993223D01*
X137164821Y-60404971D01*
X137322058Y-60785515D01*
X137612954Y-61076919D01*
X137993223Y-61234820D01*
X138404971Y-61235179D01*
X138768433Y-61085000D01*
X139121845Y-61085000D01*
X139122058Y-61085515D01*
X139412954Y-61376919D01*
X139793223Y-61534820D01*
X140204971Y-61535179D01*
X140585515Y-61377942D01*
X140876919Y-61087046D01*
X141034820Y-60706777D01*
X141035179Y-60295029D01*
X141035179Y-64815000D01*
X138878804Y-64815000D01*
X138787046Y-64723081D01*
X138406777Y-64565180D01*
X137995029Y-64564821D01*
X137614485Y-64722058D01*
X137600230Y-64736288D01*
X137587046Y-64723081D01*
X137206777Y-64565180D01*
X136795029Y-64564821D01*
X136435179Y-64713507D01*
X136435179Y-56395029D01*
X136277942Y-56014485D01*
X136185000Y-55921380D01*
X136185000Y-55078804D01*
X136276919Y-54987046D01*
X136434820Y-54606777D01*
X136435179Y-54195029D01*
X136277942Y-53814485D01*
X136035179Y-53571298D01*
X136035179Y-48795029D01*
X135885000Y-48431566D01*
X135885000Y-46650005D01*
X135885000Y-46650000D01*
X135885001Y-46650000D01*
X135817634Y-46311326D01*
X135817633Y-46311325D01*
X135753975Y-46216054D01*
X135625790Y-46024211D01*
X135625790Y-46024210D01*
X135625786Y-46024207D01*
X135177131Y-45575551D01*
X135027942Y-45214485D01*
X134737046Y-44923081D01*
X134356777Y-44765180D01*
X133945029Y-44764821D01*
X133564485Y-44922058D01*
X133273081Y-45212954D01*
X133115180Y-45593223D01*
X133114821Y-46004971D01*
X133272058Y-46385515D01*
X133562954Y-46676919D01*
X133926151Y-46827731D01*
X134115000Y-47016579D01*
X134115000Y-48432415D01*
X133965180Y-48793223D01*
X133964821Y-49204971D01*
X134122058Y-49585515D01*
X134412954Y-49876919D01*
X134793223Y-50034820D01*
X135204971Y-50035179D01*
X135585515Y-49877942D01*
X135876919Y-49587046D01*
X136034820Y-49206777D01*
X136035179Y-48795029D01*
X136035179Y-53571298D01*
X135987046Y-53523081D01*
X135606777Y-53365180D01*
X135195029Y-53364821D01*
X134814485Y-53522058D01*
X134523081Y-53812954D01*
X134365180Y-54193223D01*
X134364821Y-54604971D01*
X134477458Y-54877576D01*
X134206777Y-54765180D01*
X133835179Y-54764856D01*
X133835179Y-52795029D01*
X133677942Y-52414485D01*
X133387046Y-52123081D01*
X133006777Y-51965180D01*
X132595029Y-51964821D01*
X132214485Y-52122058D01*
X131923081Y-52412954D01*
X131765180Y-52793223D01*
X131765065Y-52924776D01*
X130524907Y-54164934D01*
X130395029Y-54164821D01*
X130014485Y-54322058D01*
X129723081Y-54612954D01*
X129565180Y-54993223D01*
X129564821Y-55404971D01*
X129722058Y-55785515D01*
X130012954Y-56076919D01*
X130393223Y-56234820D01*
X130804971Y-56235179D01*
X131185515Y-56077942D01*
X131476919Y-55787046D01*
X131634820Y-55406777D01*
X131634934Y-55275223D01*
X132875092Y-54035065D01*
X133004971Y-54035179D01*
X133385515Y-53877942D01*
X133676919Y-53587046D01*
X133834820Y-53206777D01*
X133835179Y-52795029D01*
X133835179Y-54764856D01*
X133795029Y-54764821D01*
X133414485Y-54922058D01*
X133321380Y-55015000D01*
X133200005Y-55015000D01*
X133200000Y-55014999D01*
X132899594Y-55074755D01*
X132644921Y-55244921D01*
X132124907Y-55764934D01*
X131995029Y-55764821D01*
X131614485Y-55922058D01*
X131323081Y-56212954D01*
X131165180Y-56593223D01*
X131164821Y-57004971D01*
X131322058Y-57385515D01*
X131612954Y-57676919D01*
X131993223Y-57834820D01*
X132404971Y-57835179D01*
X132785515Y-57677942D01*
X133076919Y-57387046D01*
X133234820Y-57006777D01*
X133234934Y-56875223D01*
X133427287Y-56682870D01*
X133793223Y-56834820D01*
X134204971Y-56835179D01*
X134364852Y-56769117D01*
X134364821Y-56804971D01*
X134522058Y-57185515D01*
X134812954Y-57476919D01*
X135193223Y-57634820D01*
X135604971Y-57635179D01*
X135985515Y-57477942D01*
X136276919Y-57187046D01*
X136434820Y-56806777D01*
X136435179Y-56395029D01*
X136435179Y-64713507D01*
X136414485Y-64722058D01*
X136123081Y-65012954D01*
X135965180Y-65393223D01*
X135964821Y-65804971D01*
X136122058Y-66185515D01*
X136412954Y-66476919D01*
X136793223Y-66634820D01*
X136924776Y-66634934D01*
X138444921Y-68155079D01*
X138699593Y-68325245D01*
X138699594Y-68325245D01*
X139000000Y-68385000D01*
X141721195Y-68385000D01*
X141812954Y-68476919D01*
X142193223Y-68634820D01*
X142604971Y-68635179D01*
X142985515Y-68477942D01*
X143276919Y-68187046D01*
X143434820Y-67806777D01*
X143435179Y-67395029D01*
X143435179Y-87873000D01*
X138855579Y-87873000D01*
X138855579Y-77620629D01*
X138698342Y-77240085D01*
X138407446Y-76948681D01*
X138027177Y-76790780D01*
X137615429Y-76790421D01*
X137278614Y-76929589D01*
X137123542Y-76554285D01*
X136832646Y-76262881D01*
X136452377Y-76104980D01*
X136040629Y-76104621D01*
X135660085Y-76261858D01*
X135386522Y-76534943D01*
X134285000Y-75433420D01*
X134285000Y-70267584D01*
X134434820Y-69906777D01*
X134435179Y-69495029D01*
X134277942Y-69114485D01*
X134235179Y-69071647D01*
X134235179Y-63795029D01*
X134085000Y-63431566D01*
X134085000Y-61567584D01*
X134234820Y-61206777D01*
X134235179Y-60795029D01*
X134077942Y-60414485D01*
X133787046Y-60123081D01*
X133406777Y-59965180D01*
X132995029Y-59964821D01*
X132614485Y-60122058D01*
X132323081Y-60412954D01*
X132165180Y-60793223D01*
X132164821Y-61204971D01*
X132315000Y-61568433D01*
X132315000Y-63432415D01*
X132165180Y-63793223D01*
X132164821Y-64204971D01*
X132322058Y-64585515D01*
X132612954Y-64876919D01*
X132993223Y-65034820D01*
X133404971Y-65035179D01*
X133785515Y-64877942D01*
X134076919Y-64587046D01*
X134234820Y-64206777D01*
X134235179Y-63795029D01*
X134235179Y-69071647D01*
X133987046Y-68823081D01*
X133606777Y-68665180D01*
X133195029Y-68664821D01*
X132814485Y-68822058D01*
X132523081Y-69112954D01*
X132365180Y-69493223D01*
X132364821Y-69904971D01*
X132515000Y-70268433D01*
X132515000Y-75799994D01*
X132514999Y-75800000D01*
X132571189Y-76082484D01*
X132582367Y-76138675D01*
X132774210Y-76425790D01*
X134772868Y-78424447D01*
X134922058Y-78785515D01*
X135212954Y-79076919D01*
X135593223Y-79234820D01*
X136004971Y-79235179D01*
X136385515Y-79077942D01*
X136676919Y-78787046D01*
X136764011Y-78577304D01*
X136931400Y-78610600D01*
X137141595Y-78610600D01*
X137233354Y-78702519D01*
X137613623Y-78860420D01*
X138025371Y-78860779D01*
X138405915Y-78703542D01*
X138697319Y-78412646D01*
X138855220Y-78032377D01*
X138855579Y-77620629D01*
X138855579Y-87873000D01*
X134190465Y-87873000D01*
X134399944Y-87663886D01*
X134412954Y-87676919D01*
X134793223Y-87834820D01*
X135204971Y-87835179D01*
X135585515Y-87677942D01*
X135876919Y-87387046D01*
X136034820Y-87006777D01*
X136035179Y-86595029D01*
X135877942Y-86214485D01*
X135587046Y-85923081D01*
X135206777Y-85765180D01*
X135075223Y-85765065D01*
X134435065Y-85124907D01*
X134435179Y-84995029D01*
X134277942Y-84614485D01*
X133987046Y-84323081D01*
X133606777Y-84165180D01*
X133195029Y-84164821D01*
X132814485Y-84322058D01*
X132523081Y-84612954D01*
X132365180Y-84993223D01*
X132364821Y-85404971D01*
X132368964Y-85415000D01*
X132278804Y-85415000D01*
X132187046Y-85323081D01*
X131806777Y-85165180D01*
X131395029Y-85164821D01*
X131014485Y-85322058D01*
X130723081Y-85612954D01*
X130565180Y-85993223D01*
X130564821Y-86404971D01*
X130722058Y-86785515D01*
X131012954Y-87076919D01*
X131393223Y-87234820D01*
X131804971Y-87235179D01*
X132185515Y-87077942D01*
X132278619Y-86985000D01*
X132474842Y-86985000D01*
X132564934Y-87075092D01*
X132564821Y-87204971D01*
X132722058Y-87585515D01*
X133009041Y-87873000D01*
X125935179Y-87873000D01*
X125935179Y-48195029D01*
X125777942Y-47814485D01*
X125685000Y-47721380D01*
X125685000Y-47278804D01*
X125776919Y-47187046D01*
X125934820Y-46806777D01*
X125935179Y-46395029D01*
X125777942Y-46014485D01*
X125487046Y-45723081D01*
X125106777Y-45565180D01*
X124695029Y-45564821D01*
X124314485Y-45722058D01*
X124023081Y-46012954D01*
X123865180Y-46393223D01*
X123864821Y-46804971D01*
X124022058Y-47185515D01*
X124115000Y-47278619D01*
X124115000Y-47721195D01*
X124023081Y-47812954D01*
X123865180Y-48193223D01*
X123864821Y-48604971D01*
X124022058Y-48985515D01*
X124312954Y-49276919D01*
X124693223Y-49434820D01*
X125104971Y-49435179D01*
X125485515Y-49277942D01*
X125776919Y-48987046D01*
X125934820Y-48606777D01*
X125935179Y-48195029D01*
X125935179Y-87873000D01*
X104472726Y-87873000D01*
X104699534Y-87646587D01*
X104828943Y-87593117D01*
X105092192Y-87330327D01*
X105145889Y-87201010D01*
X105403575Y-86943774D01*
X105926404Y-85684663D01*
X105926821Y-85206104D01*
X105934838Y-85186799D01*
X105935162Y-84814833D01*
X105927180Y-84795515D01*
X105927594Y-84321318D01*
X105406963Y-83061296D01*
X105146587Y-82800465D01*
X105093117Y-82671057D01*
X104830327Y-82407808D01*
X104701010Y-82354110D01*
X104443774Y-82096425D01*
X104375000Y-82067867D01*
X104375000Y-77414309D01*
X104375000Y-76367250D01*
X104375000Y-75795750D01*
X104375000Y-74748691D01*
X104375000Y-68651309D01*
X104375000Y-67604250D01*
X104375000Y-67032750D01*
X104375000Y-65985691D01*
X104375000Y-60214309D01*
X104375000Y-59167250D01*
X104375000Y-58595750D01*
X104375000Y-57548691D01*
X104375000Y-51451309D01*
X104375000Y-50404250D01*
X104216250Y-50245500D01*
X101327000Y-50245500D01*
X101327000Y-51801250D01*
X101485750Y-51960000D01*
X103613691Y-51960000D01*
X103866310Y-51960000D01*
X104099699Y-51863327D01*
X104278327Y-51684698D01*
X104375000Y-51451309D01*
X104375000Y-57548691D01*
X104278327Y-57315302D01*
X104099699Y-57136673D01*
X103866310Y-57040000D01*
X103613691Y-57040000D01*
X101485750Y-57040000D01*
X101327000Y-57198750D01*
X101327000Y-58754500D01*
X104216250Y-58754500D01*
X104375000Y-58595750D01*
X104375000Y-59167250D01*
X104216250Y-59008500D01*
X101327000Y-59008500D01*
X101327000Y-60564250D01*
X101485750Y-60723000D01*
X103613691Y-60723000D01*
X103866310Y-60723000D01*
X104099699Y-60626327D01*
X104278327Y-60447698D01*
X104375000Y-60214309D01*
X104375000Y-65985691D01*
X104278327Y-65752302D01*
X104099699Y-65573673D01*
X103866310Y-65477000D01*
X103613691Y-65477000D01*
X101485750Y-65477000D01*
X101327000Y-65635750D01*
X101327000Y-67191500D01*
X104216250Y-67191500D01*
X104375000Y-67032750D01*
X104375000Y-67604250D01*
X104216250Y-67445500D01*
X101327000Y-67445500D01*
X101327000Y-69001250D01*
X101485750Y-69160000D01*
X103613691Y-69160000D01*
X103866310Y-69160000D01*
X104099699Y-69063327D01*
X104278327Y-68884698D01*
X104375000Y-68651309D01*
X104375000Y-74748691D01*
X104278327Y-74515302D01*
X104099699Y-74336673D01*
X103866310Y-74240000D01*
X103613691Y-74240000D01*
X101485750Y-74240000D01*
X101327000Y-74398750D01*
X101327000Y-75954500D01*
X104216250Y-75954500D01*
X104375000Y-75795750D01*
X104375000Y-76367250D01*
X104216250Y-76208500D01*
X101327000Y-76208500D01*
X101327000Y-77764250D01*
X101485750Y-77923000D01*
X103613691Y-77923000D01*
X103866310Y-77923000D01*
X104099699Y-77826327D01*
X104278327Y-77647698D01*
X104375000Y-77414309D01*
X104375000Y-82067867D01*
X103184663Y-81573596D01*
X102706104Y-81573178D01*
X102686799Y-81565162D01*
X102314833Y-81564838D01*
X102295515Y-81572819D01*
X101821318Y-81572406D01*
X100561296Y-82093037D01*
X100300465Y-82353412D01*
X100171057Y-82406883D01*
X99907808Y-82669673D01*
X99854110Y-82798989D01*
X99627000Y-83025704D01*
X99627000Y-77923000D01*
X100914250Y-77923000D01*
X101073000Y-77764250D01*
X101073000Y-76208500D01*
X101053000Y-76208500D01*
X101053000Y-75954500D01*
X101073000Y-75954500D01*
X101073000Y-74398750D01*
X100914250Y-74240000D01*
X99627000Y-74240000D01*
X99627000Y-69160000D01*
X100914250Y-69160000D01*
X101073000Y-69001250D01*
X101073000Y-67445500D01*
X101053000Y-67445500D01*
X101053000Y-67191500D01*
X101073000Y-67191500D01*
X101073000Y-65635750D01*
X100914250Y-65477000D01*
X99627000Y-65477000D01*
X99627000Y-60723000D01*
X100914250Y-60723000D01*
X101073000Y-60564250D01*
X101073000Y-59008500D01*
X101053000Y-59008500D01*
X101053000Y-58754500D01*
X101073000Y-58754500D01*
X101073000Y-57198750D01*
X100914250Y-57040000D01*
X99627000Y-57040000D01*
X99627000Y-51960000D01*
X100914250Y-51960000D01*
X101073000Y-51801250D01*
X101073000Y-50245500D01*
X101053000Y-50245500D01*
X101053000Y-49991500D01*
X101073000Y-49991500D01*
X101073000Y-48435750D01*
X100914250Y-48277000D01*
X99627000Y-48277000D01*
X99627000Y-46972726D01*
X99853412Y-47199534D01*
X99906883Y-47328943D01*
X100169673Y-47592192D01*
X100298989Y-47645889D01*
X100556226Y-47903575D01*
X101476884Y-48285865D01*
X101327000Y-48435750D01*
X101327000Y-49991500D01*
X104216250Y-49991500D01*
X104375000Y-49832750D01*
X104375000Y-48785691D01*
X104278327Y-48552302D01*
X104099699Y-48373673D01*
X103866310Y-48277000D01*
X103613691Y-48277000D01*
X103543146Y-48277000D01*
X104438704Y-47906963D01*
X104699534Y-47646587D01*
X104828943Y-47593117D01*
X105092192Y-47330327D01*
X105145889Y-47201010D01*
X105403575Y-46943774D01*
X105926404Y-45684663D01*
X105926821Y-45206104D01*
X105934838Y-45186799D01*
X105935162Y-44814833D01*
X105927180Y-44795515D01*
X105927594Y-44321318D01*
X105406963Y-43061296D01*
X105146587Y-42800465D01*
X105093117Y-42671057D01*
X104830327Y-42407808D01*
X104701010Y-42354110D01*
X104474295Y-42127000D01*
X156527273Y-42127000D01*
X156300465Y-42353412D01*
X156171057Y-42406883D01*
X155907808Y-42669673D01*
X155854110Y-42798989D01*
X155596425Y-43056226D01*
X155073596Y-44315337D01*
X155073178Y-44793895D01*
X155065162Y-44813201D01*
X155064838Y-45185167D01*
X155072819Y-45204484D01*
X155072406Y-45678682D01*
X155593037Y-46938704D01*
X155853412Y-47199534D01*
X155906883Y-47328943D01*
X156169673Y-47592192D01*
X156298989Y-47645889D01*
X156556226Y-47903575D01*
X157815337Y-48426404D01*
X158293895Y-48426821D01*
X158313201Y-48434838D01*
X158685167Y-48435162D01*
X158704484Y-48427180D01*
X159178682Y-48427594D01*
X159765099Y-48185290D01*
X159764821Y-48504971D01*
X159922058Y-48885515D01*
X160212954Y-49176919D01*
X160593223Y-49334820D01*
X161004971Y-49335179D01*
X161385515Y-49177942D01*
X161676919Y-48887046D01*
X161834820Y-48506777D01*
X161834934Y-48375223D01*
X163055079Y-47155079D01*
X163225245Y-46900407D01*
X163225245Y-46900406D01*
X163285000Y-46600000D01*
X163285000Y-45778804D01*
X163376919Y-45687046D01*
X163534820Y-45306777D01*
X163535179Y-44895029D01*
X163377942Y-44514485D01*
X163087046Y-44223081D01*
X162706777Y-44065180D01*
X162295029Y-44064821D01*
X161914485Y-44222058D01*
X161894729Y-44241779D01*
X161406963Y-43061296D01*
X161146587Y-42800465D01*
X161093117Y-42671057D01*
X160830327Y-42407808D01*
X160701010Y-42354110D01*
X160474295Y-42127000D01*
X186873000Y-42127000D01*
X186873000Y-87873000D01*
M02*
