G04 #@! TF.FileFunction,Legend,Bot*
%FSLAX46Y46*%
G04 Gerber Fmt 4.6, Leading zero omitted, Abs format (unit mm)*
G04 Created by KiCad (PCBNEW 0.201505061231+5645~23~ubuntu14.04.1-product) date Wed 06 May 2015 16:32:05 BST*
%MOMM*%
G01*
G04 APERTURE LIST*
%ADD10C,0.100000*%
%ADD11C,0.200000*%
%ADD12C,0.300000*%
%ADD13C,0.250000*%
%ADD14C,1.500000*%
%ADD15C,1.100000*%
%ADD16C,1.016000*%
%ADD17R,5.080000X2.413000*%
%ADD18C,6.300000*%
%ADD19C,0.600000*%
G04 APERTURE END LIST*
D10*
D11*
X151900000Y-80800000D02*
X152500000Y-80200000D01*
X151900000Y-80150000D02*
X152550000Y-80800000D01*
X152250000Y-82400000D02*
X152250000Y-81000000D01*
X150350000Y-80500000D02*
X151700000Y-80500000D01*
X134150000Y-83500000D02*
X135450000Y-83500000D01*
X136000000Y-81600000D02*
X136000000Y-83000000D01*
X142400000Y-83850000D02*
X143000000Y-83250000D01*
X142400000Y-83150000D02*
X143050000Y-83800000D01*
X144700000Y-83500000D02*
X143250000Y-83500000D01*
X142750000Y-83000000D02*
X142800000Y-83000000D01*
X142750000Y-81500000D02*
X142750000Y-83000000D01*
X136300000Y-83200000D02*
X136300000Y-83100000D01*
X135650000Y-83850000D02*
X136300000Y-83200000D01*
X136300000Y-83800000D02*
X136300000Y-83850000D01*
X135650000Y-83150000D02*
X136300000Y-83800000D01*
X136950000Y-83600000D02*
X136800000Y-83450000D01*
X136650000Y-83600000D02*
X136950000Y-83600000D01*
X136800000Y-83450000D02*
X136650000Y-83600000D01*
X136000000Y-84300000D02*
G75*
G03X136800000Y-83500000I0J800000D01*
G01*
D12*
X154892857Y-85750000D02*
X154178571Y-85750000D01*
X155035714Y-86178571D02*
X154535714Y-84678571D01*
X154035714Y-86178571D01*
X152678571Y-86035714D02*
X152750000Y-86107143D01*
X152964286Y-86178571D01*
X153107143Y-86178571D01*
X153321428Y-86107143D01*
X153464286Y-85964286D01*
X153535714Y-85821429D01*
X153607143Y-85535714D01*
X153607143Y-85321429D01*
X153535714Y-85035714D01*
X153464286Y-84892857D01*
X153321428Y-84750000D01*
X153107143Y-84678571D01*
X152964286Y-84678571D01*
X152750000Y-84750000D01*
X152678571Y-84821429D01*
X151178571Y-86035714D02*
X151250000Y-86107143D01*
X151464286Y-86178571D01*
X151607143Y-86178571D01*
X151821428Y-86107143D01*
X151964286Y-85964286D01*
X152035714Y-85821429D01*
X152107143Y-85535714D01*
X152107143Y-85321429D01*
X152035714Y-85035714D01*
X151964286Y-84892857D01*
X151821428Y-84750000D01*
X151607143Y-84678571D01*
X151464286Y-84678571D01*
X151250000Y-84750000D01*
X151178571Y-84821429D01*
X150535714Y-85392857D02*
X150035714Y-85392857D01*
X149821428Y-86178571D02*
X150535714Y-86178571D01*
X150535714Y-84678571D01*
X149821428Y-84678571D01*
X148464285Y-86178571D02*
X149178571Y-86178571D01*
X149178571Y-84678571D01*
X146964286Y-86178571D02*
X146964286Y-84678571D01*
X146464286Y-85750000D01*
X145964286Y-84678571D01*
X145964286Y-86178571D01*
X145321429Y-85750000D02*
X144607143Y-85750000D01*
X145464286Y-86178571D02*
X144964286Y-84678571D01*
X144464286Y-86178571D01*
X143178572Y-84750000D02*
X143321429Y-84678571D01*
X143535715Y-84678571D01*
X143750000Y-84750000D01*
X143892858Y-84892857D01*
X143964286Y-85035714D01*
X144035715Y-85321429D01*
X144035715Y-85535714D01*
X143964286Y-85821429D01*
X143892858Y-85964286D01*
X143750000Y-86107143D01*
X143535715Y-86178571D01*
X143392858Y-86178571D01*
X143178572Y-86107143D01*
X143107143Y-86035714D01*
X143107143Y-85535714D01*
X143392858Y-85535714D01*
X142464286Y-86178571D02*
X142464286Y-84678571D01*
X141607143Y-86178571D01*
X141607143Y-84678571D01*
X140607143Y-84678571D02*
X140321429Y-84678571D01*
X140178571Y-84750000D01*
X140035714Y-84892857D01*
X139964286Y-85178571D01*
X139964286Y-85678571D01*
X140035714Y-85964286D01*
X140178571Y-86107143D01*
X140321429Y-86178571D01*
X140607143Y-86178571D01*
X140750000Y-86107143D01*
X140892857Y-85964286D01*
X140964286Y-85678571D01*
X140964286Y-85178571D01*
X140892857Y-84892857D01*
X140750000Y-84750000D01*
X140607143Y-84678571D01*
X137285714Y-84750000D02*
X137428571Y-84678571D01*
X137642857Y-84678571D01*
X137857142Y-84750000D01*
X138000000Y-84892857D01*
X138071428Y-85035714D01*
X138142857Y-85321429D01*
X138142857Y-85535714D01*
X138071428Y-85821429D01*
X138000000Y-85964286D01*
X137857142Y-86107143D01*
X137642857Y-86178571D01*
X137500000Y-86178571D01*
X137285714Y-86107143D01*
X137214285Y-86035714D01*
X137214285Y-85535714D01*
X137500000Y-85535714D01*
X136285714Y-85464286D02*
X136285714Y-86178571D01*
X136785714Y-84678571D02*
X136285714Y-85464286D01*
X135785714Y-84678571D01*
X134428571Y-86178571D02*
X134928571Y-85464286D01*
X135285714Y-86178571D02*
X135285714Y-84678571D01*
X134714286Y-84678571D01*
X134571428Y-84750000D01*
X134500000Y-84821429D01*
X134428571Y-84964286D01*
X134428571Y-85178571D01*
X134500000Y-85321429D01*
X134571428Y-85392857D01*
X134714286Y-85464286D01*
X135285714Y-85464286D01*
X133500000Y-84678571D02*
X133214286Y-84678571D01*
X133071428Y-84750000D01*
X132928571Y-84892857D01*
X132857143Y-85178571D01*
X132857143Y-85678571D01*
X132928571Y-85964286D01*
X133071428Y-86107143D01*
X133214286Y-86178571D01*
X133500000Y-86178571D01*
X133642857Y-86107143D01*
X133785714Y-85964286D01*
X133857143Y-85678571D01*
X133857143Y-85178571D01*
X133785714Y-84892857D01*
X133642857Y-84750000D01*
X133500000Y-84678571D01*
X152250000Y-83464286D02*
X152250000Y-84178571D01*
X152750000Y-82678571D02*
X152250000Y-83464286D01*
X151750000Y-82678571D01*
X149749999Y-79678571D02*
X148749999Y-81178571D01*
X148749999Y-79678571D02*
X149749999Y-81178571D01*
X154249999Y-79678571D02*
X153249999Y-79678571D01*
X154249999Y-81178571D01*
X153249999Y-81178571D01*
X141749999Y-82678571D02*
X140749999Y-82678571D01*
X141749999Y-84178571D01*
X140749999Y-84178571D01*
X146249999Y-82678571D02*
X145249999Y-84178571D01*
X145249999Y-82678571D02*
X146249999Y-84178571D01*
X142750000Y-80464286D02*
X142750000Y-81178571D01*
X143250000Y-79678571D02*
X142750000Y-80464286D01*
X142250000Y-79678571D01*
X137999999Y-82678571D02*
X136999999Y-82678571D01*
X137999999Y-84178571D01*
X136999999Y-84178571D01*
X136499999Y-79678571D02*
X135499999Y-81178571D01*
X135499999Y-79678571D02*
X136499999Y-81178571D01*
X133000000Y-83464286D02*
X133000000Y-84178571D01*
X133500000Y-82678571D02*
X133000000Y-83464286D01*
X132500000Y-82678571D01*
D11*
X152750000Y-80500000D02*
G75*
G03X152750000Y-80500000I-500000J0D01*
G01*
X152250000Y-82500000D02*
X152750000Y-82000000D01*
X152250000Y-82500000D02*
X151750000Y-82000000D01*
X150250000Y-80500000D02*
X150750000Y-81000000D01*
X150250000Y-80500000D02*
X150750000Y-80000000D01*
X143250000Y-83500000D02*
G75*
G03X143250000Y-83500000I-500000J0D01*
G01*
X144750000Y-83500000D02*
X144250000Y-84000000D01*
X144750000Y-83500000D02*
X144250000Y-83000000D01*
X142750000Y-81500000D02*
X143250000Y-82000000D01*
X142750000Y-81500000D02*
X142250000Y-82000000D01*
X136500000Y-83500000D02*
G75*
G03X136500000Y-83500000I-500000J0D01*
G01*
X134000000Y-83500000D02*
X134500000Y-84000000D01*
X134000000Y-83500000D02*
X134500000Y-83000000D01*
X136000000Y-81500000D02*
X136500000Y-82000000D01*
X136000000Y-81500000D02*
X135500000Y-82000000D01*
D12*
X162504763Y-72571429D02*
X162123810Y-73904762D01*
X161742858Y-72952381D01*
X161361906Y-73904762D01*
X160980953Y-72571429D01*
X160409525Y-72571429D02*
X160028572Y-73904762D01*
X159647620Y-72952381D01*
X159266668Y-73904762D01*
X158885715Y-72571429D01*
X158314287Y-72571429D02*
X157933334Y-73904762D01*
X157552382Y-72952381D01*
X157171430Y-73904762D01*
X156790477Y-72571429D01*
X156028573Y-73714286D02*
X155933334Y-73809524D01*
X156028573Y-73904762D01*
X156123811Y-73809524D01*
X156028573Y-73714286D01*
X156028573Y-73904762D01*
X154219049Y-73809524D02*
X154409525Y-73904762D01*
X154790477Y-73904762D01*
X154980953Y-73809524D01*
X155076192Y-73714286D01*
X155171430Y-73523810D01*
X155171430Y-72952381D01*
X155076192Y-72761905D01*
X154980953Y-72666667D01*
X154790477Y-72571429D01*
X154409525Y-72571429D01*
X154219049Y-72666667D01*
X152504763Y-72571429D02*
X152504763Y-73904762D01*
X153361906Y-72571429D02*
X153361906Y-73619048D01*
X153266667Y-73809524D01*
X153076191Y-73904762D01*
X152790477Y-73904762D01*
X152600001Y-73809524D01*
X152504763Y-73714286D01*
X151647620Y-73809524D02*
X151457143Y-73904762D01*
X151076191Y-73904762D01*
X150885715Y-73809524D01*
X150790477Y-73619048D01*
X150790477Y-73523810D01*
X150885715Y-73333333D01*
X151076191Y-73238095D01*
X151361905Y-73238095D01*
X151552382Y-73142857D01*
X151647620Y-72952381D01*
X151647620Y-72857143D01*
X151552382Y-72666667D01*
X151361905Y-72571429D01*
X151076191Y-72571429D01*
X150885715Y-72666667D01*
X150219048Y-72571429D02*
X149457143Y-72571429D01*
X149933334Y-73904762D02*
X149933334Y-72190476D01*
X149838095Y-72000000D01*
X149647619Y-71904762D01*
X149457143Y-71904762D01*
X148790477Y-73714286D02*
X148695238Y-73809524D01*
X148790477Y-73904762D01*
X148885715Y-73809524D01*
X148790477Y-73714286D01*
X148790477Y-73904762D01*
X146980953Y-73809524D02*
X147171429Y-73904762D01*
X147552381Y-73904762D01*
X147742857Y-73809524D01*
X147838096Y-73714286D01*
X147933334Y-73523810D01*
X147933334Y-72952381D01*
X147838096Y-72761905D01*
X147742857Y-72666667D01*
X147552381Y-72571429D01*
X147171429Y-72571429D01*
X146980953Y-72666667D01*
X145838095Y-73904762D02*
X146028571Y-73809524D01*
X146123810Y-73714286D01*
X146219048Y-73523810D01*
X146219048Y-72952381D01*
X146123810Y-72761905D01*
X146028571Y-72666667D01*
X145838095Y-72571429D01*
X145552381Y-72571429D01*
X145361905Y-72666667D01*
X145266667Y-72761905D01*
X145171429Y-72952381D01*
X145171429Y-73523810D01*
X145266667Y-73714286D01*
X145361905Y-73809524D01*
X145552381Y-73904762D01*
X145838095Y-73904762D01*
X144314286Y-73714286D02*
X144219047Y-73809524D01*
X144314286Y-73904762D01*
X144409524Y-73809524D01*
X144314286Y-73714286D01*
X144314286Y-73904762D01*
X142504762Y-72571429D02*
X142504762Y-73904762D01*
X143361905Y-72571429D02*
X143361905Y-73619048D01*
X143266666Y-73809524D01*
X143076190Y-73904762D01*
X142790476Y-73904762D01*
X142600000Y-73809524D01*
X142504762Y-73714286D01*
X141552381Y-73904762D02*
X141552381Y-71904762D01*
X141361904Y-73142857D02*
X140790476Y-73904762D01*
X140790476Y-72571429D02*
X141552381Y-73333333D01*
D13*
X128619048Y-62258333D02*
X127666667Y-62258333D01*
X128809524Y-62829762D02*
X128142857Y-60829762D01*
X127476190Y-62829762D01*
X124238094Y-60925000D02*
X124428571Y-60829762D01*
X124714285Y-60829762D01*
X124999999Y-60925000D01*
X125190475Y-61115476D01*
X125285714Y-61305952D01*
X125380952Y-61686905D01*
X125380952Y-61972619D01*
X125285714Y-62353571D01*
X125190475Y-62544048D01*
X124999999Y-62734524D01*
X124714285Y-62829762D01*
X124523809Y-62829762D01*
X124238094Y-62734524D01*
X124142856Y-62639286D01*
X124142856Y-61972619D01*
X124523809Y-61972619D01*
X120714284Y-60925000D02*
X120904761Y-60829762D01*
X121190475Y-60829762D01*
X121476189Y-60925000D01*
X121666665Y-61115476D01*
X121761904Y-61305952D01*
X121857142Y-61686905D01*
X121857142Y-61972619D01*
X121761904Y-62353571D01*
X121666665Y-62544048D01*
X121476189Y-62734524D01*
X121190475Y-62829762D01*
X120999999Y-62829762D01*
X120714284Y-62734524D01*
X120619046Y-62639286D01*
X120619046Y-61972619D01*
X120999999Y-61972619D01*
X118619046Y-62829762D02*
X119285713Y-61877381D01*
X119761904Y-62829762D02*
X119761904Y-60829762D01*
X118999999Y-60829762D01*
X118809523Y-60925000D01*
X118714284Y-61020238D01*
X118619046Y-61210714D01*
X118619046Y-61496429D01*
X118714284Y-61686905D01*
X118809523Y-61782143D01*
X118999999Y-61877381D01*
X119761904Y-61877381D01*
X117761904Y-61782143D02*
X117095237Y-61782143D01*
X116809523Y-62829762D02*
X117761904Y-62829762D01*
X117761904Y-60829762D01*
X116809523Y-60829762D01*
X115952380Y-62829762D02*
X115952380Y-60829762D01*
X113952379Y-60925000D02*
X114142856Y-60829762D01*
X114428570Y-60829762D01*
X114714284Y-60925000D01*
X114904760Y-61115476D01*
X114999999Y-61305952D01*
X115095237Y-61686905D01*
X115095237Y-61972619D01*
X114999999Y-62353571D01*
X114904760Y-62544048D01*
X114714284Y-62734524D01*
X114428570Y-62829762D01*
X114238094Y-62829762D01*
X113952379Y-62734524D01*
X113857141Y-62639286D01*
X113857141Y-61972619D01*
X114238094Y-61972619D01*
X128619048Y-65308333D02*
X127666667Y-65308333D01*
X128809524Y-65879762D02*
X128142857Y-63879762D01*
X127476190Y-65879762D01*
X124142856Y-65879762D02*
X124809523Y-64927381D01*
X125285714Y-65879762D02*
X125285714Y-63879762D01*
X124523809Y-63879762D01*
X124333333Y-63975000D01*
X124238094Y-64070238D01*
X124142856Y-64260714D01*
X124142856Y-64546429D01*
X124238094Y-64736905D01*
X124333333Y-64832143D01*
X124523809Y-64927381D01*
X125285714Y-64927381D01*
X123380952Y-65308333D02*
X122428571Y-65308333D01*
X123571428Y-65879762D02*
X122904761Y-63879762D01*
X122238094Y-65879762D01*
X120523808Y-63975000D02*
X120714285Y-63879762D01*
X120999999Y-63879762D01*
X121285713Y-63975000D01*
X121476189Y-64165476D01*
X121571428Y-64355952D01*
X121666666Y-64736905D01*
X121666666Y-65022619D01*
X121571428Y-65403571D01*
X121476189Y-65594048D01*
X121285713Y-65784524D01*
X120999999Y-65879762D01*
X120809523Y-65879762D01*
X120523808Y-65784524D01*
X120428570Y-65689286D01*
X120428570Y-65022619D01*
X120809523Y-65022619D01*
X119571428Y-65879762D02*
X119571428Y-63879762D01*
X119571428Y-64832143D02*
X118428570Y-64832143D01*
X118428570Y-65879762D02*
X118428570Y-63879762D01*
X117476190Y-63879762D02*
X117476190Y-65498810D01*
X117380951Y-65689286D01*
X117285713Y-65784524D01*
X117095237Y-65879762D01*
X116714285Y-65879762D01*
X116523809Y-65784524D01*
X116428570Y-65689286D01*
X116333332Y-65498810D01*
X116333332Y-63879762D01*
X127857143Y-67882143D02*
X127571429Y-67977381D01*
X127476190Y-68072619D01*
X127380952Y-68263095D01*
X127380952Y-68548810D01*
X127476190Y-68739286D01*
X127571429Y-68834524D01*
X127761905Y-68929762D01*
X128523810Y-68929762D01*
X128523810Y-66929762D01*
X127857143Y-66929762D01*
X127666667Y-67025000D01*
X127571429Y-67120238D01*
X127476190Y-67310714D01*
X127476190Y-67501190D01*
X127571429Y-67691667D01*
X127666667Y-67786905D01*
X127857143Y-67882143D01*
X128523810Y-67882143D01*
X125190476Y-66929762D02*
X123857142Y-68929762D01*
X123857142Y-66929762D02*
X125190476Y-68929762D01*
X123095238Y-68929762D02*
X123095238Y-66929762D01*
X122238095Y-68358333D02*
X121285714Y-68358333D01*
X122428571Y-68929762D02*
X121761904Y-66929762D01*
X121095237Y-68929762D01*
X120047618Y-66929762D02*
X119666666Y-66929762D01*
X119476190Y-67025000D01*
X119285713Y-67215476D01*
X119190475Y-67596429D01*
X119190475Y-68263095D01*
X119285713Y-68644048D01*
X119476190Y-68834524D01*
X119666666Y-68929762D01*
X120047618Y-68929762D01*
X120238094Y-68834524D01*
X120428571Y-68644048D01*
X120523809Y-68263095D01*
X120523809Y-67596429D01*
X120428571Y-67215476D01*
X120238094Y-67025000D01*
X120047618Y-66929762D01*
X128523810Y-71979762D02*
X128523810Y-69979762D01*
X128047619Y-69979762D01*
X127761905Y-70075000D01*
X127571429Y-70265476D01*
X127476190Y-70455952D01*
X127380952Y-70836905D01*
X127380952Y-71122619D01*
X127476190Y-71503571D01*
X127571429Y-71694048D01*
X127761905Y-71884524D01*
X128047619Y-71979762D01*
X128523810Y-71979762D01*
X123857142Y-71789286D02*
X123952380Y-71884524D01*
X124238095Y-71979762D01*
X124428571Y-71979762D01*
X124714285Y-71884524D01*
X124904761Y-71694048D01*
X125000000Y-71503571D01*
X125095238Y-71122619D01*
X125095238Y-70836905D01*
X125000000Y-70455952D01*
X124904761Y-70265476D01*
X124714285Y-70075000D01*
X124428571Y-69979762D01*
X124238095Y-69979762D01*
X123952380Y-70075000D01*
X123857142Y-70170238D01*
X121476190Y-71979762D02*
X121476190Y-69979762D01*
X120714285Y-69979762D01*
X120523809Y-70075000D01*
X120428570Y-70170238D01*
X120333332Y-70360714D01*
X120333332Y-70646429D01*
X120428570Y-70836905D01*
X120523809Y-70932143D01*
X120714285Y-71027381D01*
X121476190Y-71027381D01*
X119476190Y-71979762D02*
X119476190Y-69979762D01*
X119476190Y-70932143D02*
X118333332Y-70932143D01*
X118333332Y-71979762D02*
X118333332Y-69979762D01*
X117476190Y-71408333D02*
X116523809Y-71408333D01*
X117666666Y-71979762D02*
X116999999Y-69979762D01*
X116333332Y-71979762D01*
X115666666Y-71979762D02*
X115666666Y-69979762D01*
X114999999Y-71408333D01*
X114333332Y-69979762D01*
X114333332Y-71979762D01*
X128523810Y-73982143D02*
X127857143Y-73982143D01*
X127571429Y-75029762D02*
X128523810Y-75029762D01*
X128523810Y-73029762D01*
X127571429Y-73029762D01*
X124047618Y-75029762D02*
X124714285Y-74077381D01*
X125190476Y-75029762D02*
X125190476Y-73029762D01*
X124428571Y-73029762D01*
X124238095Y-73125000D01*
X124142856Y-73220238D01*
X124047618Y-73410714D01*
X124047618Y-73696429D01*
X124142856Y-73886905D01*
X124238095Y-73982143D01*
X124428571Y-74077381D01*
X125190476Y-74077381D01*
X121666666Y-73982143D02*
X120999999Y-73982143D01*
X120714285Y-75029762D02*
X121666666Y-75029762D01*
X121666666Y-73029762D01*
X120714285Y-73029762D01*
X119857142Y-75029762D02*
X119857142Y-73029762D01*
X118904761Y-75029762D02*
X118904761Y-73029762D01*
X118428570Y-73029762D01*
X118142856Y-73125000D01*
X117952380Y-73315476D01*
X117857141Y-73505952D01*
X117761903Y-73886905D01*
X117761903Y-74172619D01*
X117857141Y-74553571D01*
X117952380Y-74744048D01*
X118142856Y-74934524D01*
X118428570Y-75029762D01*
X118904761Y-75029762D01*
X116904761Y-73982143D02*
X116238094Y-73982143D01*
X115952380Y-75029762D02*
X116904761Y-75029762D01*
X116904761Y-73029762D01*
X115952380Y-73029762D01*
X127571429Y-78079762D02*
X128523810Y-78079762D01*
X128523810Y-76079762D01*
X124238094Y-77889286D02*
X124333332Y-77984524D01*
X124619047Y-78079762D01*
X124809523Y-78079762D01*
X125095237Y-77984524D01*
X125285713Y-77794048D01*
X125380952Y-77603571D01*
X125476190Y-77222619D01*
X125476190Y-76936905D01*
X125380952Y-76555952D01*
X125285713Y-76365476D01*
X125095237Y-76175000D01*
X124809523Y-76079762D01*
X124619047Y-76079762D01*
X124333332Y-76175000D01*
X124238094Y-76270238D01*
X121857142Y-78079762D02*
X121857142Y-76079762D01*
X120714284Y-78079762D02*
X121571427Y-76936905D01*
X120714284Y-76079762D02*
X121857142Y-77222619D01*
X118619046Y-76079762D02*
X117476189Y-76079762D01*
X118047617Y-78079762D02*
X118047617Y-76079762D01*
X116904760Y-77508333D02*
X115952379Y-77508333D01*
X117095236Y-78079762D02*
X116428569Y-76079762D01*
X115761902Y-78079762D01*
X115095236Y-78079762D02*
X115095236Y-76079762D01*
X113952378Y-78079762D01*
X113952378Y-76079762D01*
X127380952Y-81129762D02*
X128047619Y-80177381D01*
X128523810Y-81129762D02*
X128523810Y-79129762D01*
X127761905Y-79129762D01*
X127571429Y-79225000D01*
X127476190Y-79320238D01*
X127380952Y-79510714D01*
X127380952Y-79796429D01*
X127476190Y-79986905D01*
X127571429Y-80082143D01*
X127761905Y-80177381D01*
X128523810Y-80177381D01*
X125285714Y-79129762D02*
X124142857Y-79129762D01*
X124714285Y-81129762D02*
X124714285Y-79129762D01*
X123571428Y-80558333D02*
X122619047Y-80558333D01*
X123761904Y-81129762D02*
X123095237Y-79129762D01*
X122428570Y-81129762D01*
X121380951Y-80177381D02*
X121380951Y-81129762D01*
X122047618Y-79129762D02*
X121380951Y-80177381D01*
X120714284Y-79129762D01*
X119095237Y-81129762D02*
X120047618Y-81129762D01*
X120047618Y-79129762D01*
X118047617Y-79129762D02*
X117666665Y-79129762D01*
X117476189Y-79225000D01*
X117285712Y-79415476D01*
X117190474Y-79796429D01*
X117190474Y-80463095D01*
X117285712Y-80844048D01*
X117476189Y-81034524D01*
X117666665Y-81129762D01*
X118047617Y-81129762D01*
X118238093Y-81034524D01*
X118428570Y-80844048D01*
X118523808Y-80463095D01*
X118523808Y-79796429D01*
X118428570Y-79415476D01*
X118238093Y-79225000D01*
X118047617Y-79129762D01*
X115190474Y-81129762D02*
X115857141Y-80177381D01*
X116333332Y-81129762D02*
X116333332Y-79129762D01*
X115571427Y-79129762D01*
X115380951Y-79225000D01*
X115285712Y-79320238D01*
X115190474Y-79510714D01*
X115190474Y-79796429D01*
X115285712Y-79986905D01*
X115380951Y-80082143D01*
X115571427Y-80177381D01*
X116333332Y-80177381D01*
X114333332Y-80367857D02*
X112809522Y-80367857D01*
X111857142Y-81129762D02*
X111857142Y-79129762D01*
X111380951Y-79129762D01*
X111095237Y-79225000D01*
X110904761Y-79415476D01*
X110809522Y-79605952D01*
X110714284Y-79986905D01*
X110714284Y-80272619D01*
X110809522Y-80653571D01*
X110904761Y-80844048D01*
X111095237Y-81034524D01*
X111380951Y-81129762D01*
X111857142Y-81129762D01*
X109952380Y-80558333D02*
X108999999Y-80558333D01*
X110142856Y-81129762D02*
X109476189Y-79129762D01*
X108809522Y-81129762D01*
X108428570Y-79129762D02*
X107761903Y-81129762D01*
X107095236Y-79129762D01*
X106428570Y-81129762D02*
X106428570Y-79129762D01*
X105476189Y-80082143D02*
X104809522Y-80082143D01*
X104523808Y-81129762D02*
X105476189Y-81129762D01*
X105476189Y-79129762D01*
X104523808Y-79129762D01*
X103761903Y-81034524D02*
X103476188Y-81129762D01*
X102999998Y-81129762D01*
X102809522Y-81034524D01*
X102714284Y-80939286D01*
X102619045Y-80748810D01*
X102619045Y-80558333D01*
X102714284Y-80367857D01*
X102809522Y-80272619D01*
X102999998Y-80177381D01*
X103380950Y-80082143D01*
X103571426Y-79986905D01*
X103666665Y-79891667D01*
X103761903Y-79701190D01*
X103761903Y-79510714D01*
X103666665Y-79320238D01*
X103571426Y-79225000D01*
X103380950Y-79129762D01*
X102904760Y-79129762D01*
X102619045Y-79225000D01*
X128619048Y-84084524D02*
X128333333Y-84179762D01*
X127857143Y-84179762D01*
X127666667Y-84084524D01*
X127571429Y-83989286D01*
X127476190Y-83798810D01*
X127476190Y-83608333D01*
X127571429Y-83417857D01*
X127666667Y-83322619D01*
X127857143Y-83227381D01*
X128238095Y-83132143D01*
X128428571Y-83036905D01*
X128523810Y-82941667D01*
X128619048Y-82751190D01*
X128619048Y-82560714D01*
X128523810Y-82370238D01*
X128428571Y-82275000D01*
X128238095Y-82179762D01*
X127761905Y-82179762D01*
X127476190Y-82275000D01*
X124142857Y-84179762D02*
X125095238Y-84179762D01*
X125095238Y-82179762D01*
X123571428Y-83608333D02*
X122619047Y-83608333D01*
X123761904Y-84179762D02*
X123095237Y-82179762D01*
X122428570Y-84179762D01*
X121761904Y-82179762D02*
X121761904Y-83798810D01*
X121666665Y-83989286D01*
X121571427Y-84084524D01*
X121380951Y-84179762D01*
X120999999Y-84179762D01*
X120809523Y-84084524D01*
X120714284Y-83989286D01*
X120619046Y-83798810D01*
X120619046Y-82179762D01*
D10*
G36*
X177291600Y-79546618D02*
X177285797Y-79639916D01*
X177261919Y-79725134D01*
X177210259Y-79811684D01*
X177121113Y-79908977D01*
X176984773Y-80026426D01*
X176791533Y-80173443D01*
X176531690Y-80359439D01*
X176252283Y-80554466D01*
X176066525Y-80683452D01*
X175808897Y-80862429D01*
X175490938Y-81083375D01*
X175124189Y-81338269D01*
X174720189Y-81619091D01*
X174290479Y-81917820D01*
X173846597Y-82226434D01*
X173400084Y-82536912D01*
X173372395Y-82556167D01*
X172816928Y-82940872D01*
X172341504Y-83266741D01*
X171944233Y-83535017D01*
X171623220Y-83746939D01*
X171376574Y-83903748D01*
X171202403Y-84006683D01*
X171098813Y-84056985D01*
X171073695Y-84062800D01*
X170984882Y-84050547D01*
X170948234Y-83993754D01*
X170941600Y-83883032D01*
X170962666Y-83744156D01*
X171038115Y-83612124D01*
X171132100Y-83505333D01*
X171214590Y-83433994D01*
X171369585Y-83314146D01*
X171588850Y-83151471D01*
X171864154Y-82951650D01*
X172187264Y-82720366D01*
X172549946Y-82463299D01*
X172943968Y-82186131D01*
X173361098Y-81894544D01*
X173793101Y-81594219D01*
X174231747Y-81290838D01*
X174668801Y-80990081D01*
X175096031Y-80697631D01*
X175505204Y-80419169D01*
X175888088Y-80160377D01*
X176236450Y-79926936D01*
X176542056Y-79724528D01*
X176796675Y-79558834D01*
X176992072Y-79435535D01*
X177120017Y-79360314D01*
X177170191Y-79338400D01*
X177247867Y-79350076D01*
X177282863Y-79403820D01*
X177291548Y-79527706D01*
X177291600Y-79546618D01*
X177291600Y-79546618D01*
X177291600Y-79546618D01*
G37*
X177291600Y-79546618D02*
X177285797Y-79639916D01*
X177261919Y-79725134D01*
X177210259Y-79811684D01*
X177121113Y-79908977D01*
X176984773Y-80026426D01*
X176791533Y-80173443D01*
X176531690Y-80359439D01*
X176252283Y-80554466D01*
X176066525Y-80683452D01*
X175808897Y-80862429D01*
X175490938Y-81083375D01*
X175124189Y-81338269D01*
X174720189Y-81619091D01*
X174290479Y-81917820D01*
X173846597Y-82226434D01*
X173400084Y-82536912D01*
X173372395Y-82556167D01*
X172816928Y-82940872D01*
X172341504Y-83266741D01*
X171944233Y-83535017D01*
X171623220Y-83746939D01*
X171376574Y-83903748D01*
X171202403Y-84006683D01*
X171098813Y-84056985D01*
X171073695Y-84062800D01*
X170984882Y-84050547D01*
X170948234Y-83993754D01*
X170941600Y-83883032D01*
X170962666Y-83744156D01*
X171038115Y-83612124D01*
X171132100Y-83505333D01*
X171214590Y-83433994D01*
X171369585Y-83314146D01*
X171588850Y-83151471D01*
X171864154Y-82951650D01*
X172187264Y-82720366D01*
X172549946Y-82463299D01*
X172943968Y-82186131D01*
X173361098Y-81894544D01*
X173793101Y-81594219D01*
X174231747Y-81290838D01*
X174668801Y-80990081D01*
X175096031Y-80697631D01*
X175505204Y-80419169D01*
X175888088Y-80160377D01*
X176236450Y-79926936D01*
X176542056Y-79724528D01*
X176796675Y-79558834D01*
X176992072Y-79435535D01*
X177120017Y-79360314D01*
X177170191Y-79338400D01*
X177247867Y-79350076D01*
X177282863Y-79403820D01*
X177291548Y-79527706D01*
X177291600Y-79546618D01*
X177291600Y-79546618D01*
G36*
X177291600Y-77641618D02*
X177284316Y-77817303D01*
X177253374Y-77931507D01*
X177185142Y-78023853D01*
X177147389Y-78060718D01*
X177073520Y-78119871D01*
X176926306Y-78229356D01*
X176716034Y-78381820D01*
X176452994Y-78569907D01*
X176147473Y-78786262D01*
X175809760Y-79023531D01*
X175450144Y-79274358D01*
X175432889Y-79286348D01*
X174735519Y-79770875D01*
X174116828Y-80200675D01*
X173571992Y-80578901D01*
X173096189Y-80908707D01*
X172684595Y-81193244D01*
X172332386Y-81435666D01*
X172034741Y-81639125D01*
X171786835Y-81806775D01*
X171583846Y-81941769D01*
X171420950Y-82047258D01*
X171293325Y-82126396D01*
X171196147Y-82182337D01*
X171124592Y-82218232D01*
X171073839Y-82237234D01*
X171039064Y-82242497D01*
X171015443Y-82237173D01*
X170998153Y-82224416D01*
X170982372Y-82207377D01*
X170975466Y-82200133D01*
X170940961Y-82104999D01*
X170945163Y-81956039D01*
X170982693Y-81790966D01*
X171048176Y-81647492D01*
X171055900Y-81636006D01*
X171115988Y-81580176D01*
X171250733Y-81473768D01*
X171452011Y-81322443D01*
X171711702Y-81131858D01*
X172021682Y-80907673D01*
X172373831Y-80655548D01*
X172760025Y-80381142D01*
X173172144Y-80090113D01*
X173602065Y-79788122D01*
X174041666Y-79480828D01*
X174482825Y-79173889D01*
X174917420Y-78872965D01*
X175337330Y-78583715D01*
X175734431Y-78311799D01*
X176100603Y-78062875D01*
X176427723Y-77842604D01*
X176707670Y-77656644D01*
X176932320Y-77510654D01*
X177093553Y-77410294D01*
X177183247Y-77361223D01*
X177196705Y-77357200D01*
X177251461Y-77371213D01*
X177280199Y-77428850D01*
X177290724Y-77553504D01*
X177291600Y-77641618D01*
X177291600Y-77641618D01*
X177291600Y-77641618D01*
G37*
X177291600Y-77641618D02*
X177284316Y-77817303D01*
X177253374Y-77931507D01*
X177185142Y-78023853D01*
X177147389Y-78060718D01*
X177073520Y-78119871D01*
X176926306Y-78229356D01*
X176716034Y-78381820D01*
X176452994Y-78569907D01*
X176147473Y-78786262D01*
X175809760Y-79023531D01*
X175450144Y-79274358D01*
X175432889Y-79286348D01*
X174735519Y-79770875D01*
X174116828Y-80200675D01*
X173571992Y-80578901D01*
X173096189Y-80908707D01*
X172684595Y-81193244D01*
X172332386Y-81435666D01*
X172034741Y-81639125D01*
X171786835Y-81806775D01*
X171583846Y-81941769D01*
X171420950Y-82047258D01*
X171293325Y-82126396D01*
X171196147Y-82182337D01*
X171124592Y-82218232D01*
X171073839Y-82237234D01*
X171039064Y-82242497D01*
X171015443Y-82237173D01*
X170998153Y-82224416D01*
X170982372Y-82207377D01*
X170975466Y-82200133D01*
X170940961Y-82104999D01*
X170945163Y-81956039D01*
X170982693Y-81790966D01*
X171048176Y-81647492D01*
X171055900Y-81636006D01*
X171115988Y-81580176D01*
X171250733Y-81473768D01*
X171452011Y-81322443D01*
X171711702Y-81131858D01*
X172021682Y-80907673D01*
X172373831Y-80655548D01*
X172760025Y-80381142D01*
X173172144Y-80090113D01*
X173602065Y-79788122D01*
X174041666Y-79480828D01*
X174482825Y-79173889D01*
X174917420Y-78872965D01*
X175337330Y-78583715D01*
X175734431Y-78311799D01*
X176100603Y-78062875D01*
X176427723Y-77842604D01*
X176707670Y-77656644D01*
X176932320Y-77510654D01*
X177093553Y-77410294D01*
X177183247Y-77361223D01*
X177196705Y-77357200D01*
X177251461Y-77371213D01*
X177280199Y-77428850D01*
X177290724Y-77553504D01*
X177291600Y-77641618D01*
X177291600Y-77641618D01*
G36*
X177291600Y-75621002D02*
X177287925Y-75809349D01*
X177269410Y-75930216D01*
X177224815Y-76017663D01*
X177142901Y-76105745D01*
X177126500Y-76121306D01*
X177044159Y-76188466D01*
X176889283Y-76304482D01*
X176670157Y-76463647D01*
X176395065Y-76660254D01*
X176072291Y-76888597D01*
X175710120Y-77142968D01*
X175316836Y-77417662D01*
X174900723Y-77706970D01*
X174470067Y-78005186D01*
X174033151Y-78306603D01*
X173598260Y-78605515D01*
X173173678Y-78896214D01*
X172767690Y-79172993D01*
X172388580Y-79430147D01*
X172044632Y-79661967D01*
X171744132Y-79862746D01*
X171495363Y-80026779D01*
X171306609Y-80148358D01*
X171186156Y-80221777D01*
X171144695Y-80241979D01*
X171033889Y-80242800D01*
X170979410Y-80222877D01*
X170946418Y-80131945D01*
X170941800Y-79977885D01*
X170962471Y-79794175D01*
X171005343Y-79614293D01*
X171044887Y-79512713D01*
X171071541Y-79466064D01*
X171111454Y-79414167D01*
X171170662Y-79352541D01*
X171255196Y-79276704D01*
X171371093Y-79182175D01*
X171524384Y-79064472D01*
X171721105Y-78919115D01*
X171967289Y-78741622D01*
X172268971Y-78527512D01*
X172632184Y-78272304D01*
X173062961Y-77971516D01*
X173567338Y-77620666D01*
X173953187Y-77352766D01*
X174433191Y-77019604D01*
X174891259Y-76701564D01*
X175320128Y-76403693D01*
X175712533Y-76131043D01*
X176061213Y-75888662D01*
X176358902Y-75681600D01*
X176598340Y-75514907D01*
X176772261Y-75393632D01*
X176873402Y-75322826D01*
X176893814Y-75308358D01*
X177054572Y-75237321D01*
X177160514Y-75243435D01*
X177230021Y-75267352D01*
X177269290Y-75311687D01*
X177286915Y-75401188D01*
X177291488Y-75560603D01*
X177291600Y-75621002D01*
X177291600Y-75621002D01*
X177291600Y-75621002D01*
G37*
X177291600Y-75621002D02*
X177287925Y-75809349D01*
X177269410Y-75930216D01*
X177224815Y-76017663D01*
X177142901Y-76105745D01*
X177126500Y-76121306D01*
X177044159Y-76188466D01*
X176889283Y-76304482D01*
X176670157Y-76463647D01*
X176395065Y-76660254D01*
X176072291Y-76888597D01*
X175710120Y-77142968D01*
X175316836Y-77417662D01*
X174900723Y-77706970D01*
X174470067Y-78005186D01*
X174033151Y-78306603D01*
X173598260Y-78605515D01*
X173173678Y-78896214D01*
X172767690Y-79172993D01*
X172388580Y-79430147D01*
X172044632Y-79661967D01*
X171744132Y-79862746D01*
X171495363Y-80026779D01*
X171306609Y-80148358D01*
X171186156Y-80221777D01*
X171144695Y-80241979D01*
X171033889Y-80242800D01*
X170979410Y-80222877D01*
X170946418Y-80131945D01*
X170941800Y-79977885D01*
X170962471Y-79794175D01*
X171005343Y-79614293D01*
X171044887Y-79512713D01*
X171071541Y-79466064D01*
X171111454Y-79414167D01*
X171170662Y-79352541D01*
X171255196Y-79276704D01*
X171371093Y-79182175D01*
X171524384Y-79064472D01*
X171721105Y-78919115D01*
X171967289Y-78741622D01*
X172268971Y-78527512D01*
X172632184Y-78272304D01*
X173062961Y-77971516D01*
X173567338Y-77620666D01*
X173953187Y-77352766D01*
X174433191Y-77019604D01*
X174891259Y-76701564D01*
X175320128Y-76403693D01*
X175712533Y-76131043D01*
X176061213Y-75888662D01*
X176358902Y-75681600D01*
X176598340Y-75514907D01*
X176772261Y-75393632D01*
X176873402Y-75322826D01*
X176893814Y-75308358D01*
X177054572Y-75237321D01*
X177160514Y-75243435D01*
X177230021Y-75267352D01*
X177269290Y-75311687D01*
X177286915Y-75401188D01*
X177291488Y-75560603D01*
X177291600Y-75621002D01*
X177291600Y-75621002D01*
G36*
X177291600Y-73292351D02*
X177289235Y-73498770D01*
X177276428Y-73633760D01*
X177244612Y-73727473D01*
X177185218Y-73810063D01*
X177126500Y-73873386D01*
X177055777Y-73932789D01*
X176911360Y-74042230D01*
X176701548Y-74195950D01*
X176434639Y-74388192D01*
X176118933Y-74613196D01*
X175762727Y-74865206D01*
X175374321Y-75138463D01*
X174962014Y-75427210D01*
X174534103Y-75725687D01*
X174098889Y-76028138D01*
X173664669Y-76328804D01*
X173239743Y-76621927D01*
X172832409Y-76901749D01*
X172450966Y-77162512D01*
X172103712Y-77398458D01*
X171798946Y-77603829D01*
X171544968Y-77772867D01*
X171350076Y-77899813D01*
X171222568Y-77978911D01*
X171172762Y-78004350D01*
X171058318Y-77992214D01*
X171005100Y-77959808D01*
X170965758Y-77865951D01*
X170945557Y-77705633D01*
X170944043Y-77512087D01*
X170960761Y-77318544D01*
X170995256Y-77158238D01*
X171016791Y-77105150D01*
X171069200Y-77048031D01*
X171192001Y-76944715D01*
X171387018Y-76793874D01*
X171656076Y-76594185D01*
X172000999Y-76344323D01*
X172423610Y-76042963D01*
X172925734Y-75688780D01*
X173509194Y-75280449D01*
X173984799Y-74949311D01*
X174471596Y-74611432D01*
X174936306Y-74289719D01*
X175371835Y-73989030D01*
X175771089Y-73714226D01*
X176126972Y-73470164D01*
X176432390Y-73261703D01*
X176680248Y-73093703D01*
X176863452Y-72971023D01*
X176974908Y-72898520D01*
X177005168Y-72880760D01*
X177131339Y-72837834D01*
X177215181Y-72853226D01*
X177264547Y-72938220D01*
X177287289Y-73104103D01*
X177291600Y-73292351D01*
X177291600Y-73292351D01*
X177291600Y-73292351D01*
G37*
X177291600Y-73292351D02*
X177289235Y-73498770D01*
X177276428Y-73633760D01*
X177244612Y-73727473D01*
X177185218Y-73810063D01*
X177126500Y-73873386D01*
X177055777Y-73932789D01*
X176911360Y-74042230D01*
X176701548Y-74195950D01*
X176434639Y-74388192D01*
X176118933Y-74613196D01*
X175762727Y-74865206D01*
X175374321Y-75138463D01*
X174962014Y-75427210D01*
X174534103Y-75725687D01*
X174098889Y-76028138D01*
X173664669Y-76328804D01*
X173239743Y-76621927D01*
X172832409Y-76901749D01*
X172450966Y-77162512D01*
X172103712Y-77398458D01*
X171798946Y-77603829D01*
X171544968Y-77772867D01*
X171350076Y-77899813D01*
X171222568Y-77978911D01*
X171172762Y-78004350D01*
X171058318Y-77992214D01*
X171005100Y-77959808D01*
X170965758Y-77865951D01*
X170945557Y-77705633D01*
X170944043Y-77512087D01*
X170960761Y-77318544D01*
X170995256Y-77158238D01*
X171016791Y-77105150D01*
X171069200Y-77048031D01*
X171192001Y-76944715D01*
X171387018Y-76793874D01*
X171656076Y-76594185D01*
X172000999Y-76344323D01*
X172423610Y-76042963D01*
X172925734Y-75688780D01*
X173509194Y-75280449D01*
X173984799Y-74949311D01*
X174471596Y-74611432D01*
X174936306Y-74289719D01*
X175371835Y-73989030D01*
X175771089Y-73714226D01*
X176126972Y-73470164D01*
X176432390Y-73261703D01*
X176680248Y-73093703D01*
X176863452Y-72971023D01*
X176974908Y-72898520D01*
X177005168Y-72880760D01*
X177131339Y-72837834D01*
X177215181Y-72853226D01*
X177264547Y-72938220D01*
X177287289Y-73104103D01*
X177291600Y-73292351D01*
X177291600Y-73292351D01*
G36*
X177291600Y-70873523D02*
X177290032Y-71096868D01*
X177280786Y-71245665D01*
X177257050Y-71346962D01*
X177212009Y-71427808D01*
X177138852Y-71515250D01*
X177126500Y-71528980D01*
X177061640Y-71589580D01*
X176945037Y-71684080D01*
X176773620Y-71814656D01*
X176544318Y-71983484D01*
X176254060Y-72192741D01*
X175899777Y-72444602D01*
X175478398Y-72741244D01*
X174986852Y-73084842D01*
X174422068Y-73477572D01*
X173780977Y-73921611D01*
X173060508Y-74419135D01*
X172618000Y-74724146D01*
X172228503Y-74992386D01*
X171913957Y-75208312D01*
X171665589Y-75377168D01*
X171474626Y-75504199D01*
X171332296Y-75594649D01*
X171229825Y-75653764D01*
X171158442Y-75686786D01*
X171109373Y-75698962D01*
X171073845Y-75695534D01*
X171043087Y-75681749D01*
X171029188Y-75673968D01*
X170987043Y-75634596D01*
X170960680Y-75560269D01*
X170946727Y-75430778D01*
X170941814Y-75225918D01*
X170941600Y-75148773D01*
X170943928Y-74920245D01*
X170954520Y-74767018D01*
X170978780Y-74662833D01*
X171022118Y-74581431D01*
X171071416Y-74518317D01*
X171129953Y-74468858D01*
X171263633Y-74367614D01*
X171464138Y-74220413D01*
X171723151Y-74033087D01*
X172032356Y-73811465D01*
X172383436Y-73561376D01*
X172768073Y-73288652D01*
X173177951Y-72999122D01*
X173604753Y-72698616D01*
X174040162Y-72392965D01*
X174475860Y-72087997D01*
X174903532Y-71789544D01*
X175314860Y-71503435D01*
X175701527Y-71235500D01*
X176055216Y-70991569D01*
X176367610Y-70777472D01*
X176630393Y-70599040D01*
X176835248Y-70462102D01*
X176973856Y-70372488D01*
X177037600Y-70336132D01*
X177144841Y-70335456D01*
X177202700Y-70355451D01*
X177245448Y-70392310D01*
X177272147Y-70463000D01*
X177286280Y-70587823D01*
X177291332Y-70787082D01*
X177291600Y-70873523D01*
X177291600Y-70873523D01*
X177291600Y-70873523D01*
G37*
X177291600Y-70873523D02*
X177290032Y-71096868D01*
X177280786Y-71245665D01*
X177257050Y-71346962D01*
X177212009Y-71427808D01*
X177138852Y-71515250D01*
X177126500Y-71528980D01*
X177061640Y-71589580D01*
X176945037Y-71684080D01*
X176773620Y-71814656D01*
X176544318Y-71983484D01*
X176254060Y-72192741D01*
X175899777Y-72444602D01*
X175478398Y-72741244D01*
X174986852Y-73084842D01*
X174422068Y-73477572D01*
X173780977Y-73921611D01*
X173060508Y-74419135D01*
X172618000Y-74724146D01*
X172228503Y-74992386D01*
X171913957Y-75208312D01*
X171665589Y-75377168D01*
X171474626Y-75504199D01*
X171332296Y-75594649D01*
X171229825Y-75653764D01*
X171158442Y-75686786D01*
X171109373Y-75698962D01*
X171073845Y-75695534D01*
X171043087Y-75681749D01*
X171029188Y-75673968D01*
X170987043Y-75634596D01*
X170960680Y-75560269D01*
X170946727Y-75430778D01*
X170941814Y-75225918D01*
X170941600Y-75148773D01*
X170943928Y-74920245D01*
X170954520Y-74767018D01*
X170978780Y-74662833D01*
X171022118Y-74581431D01*
X171071416Y-74518317D01*
X171129953Y-74468858D01*
X171263633Y-74367614D01*
X171464138Y-74220413D01*
X171723151Y-74033087D01*
X172032356Y-73811465D01*
X172383436Y-73561376D01*
X172768073Y-73288652D01*
X173177951Y-72999122D01*
X173604753Y-72698616D01*
X174040162Y-72392965D01*
X174475860Y-72087997D01*
X174903532Y-71789544D01*
X175314860Y-71503435D01*
X175701527Y-71235500D01*
X176055216Y-70991569D01*
X176367610Y-70777472D01*
X176630393Y-70599040D01*
X176835248Y-70462102D01*
X176973856Y-70372488D01*
X177037600Y-70336132D01*
X177144841Y-70335456D01*
X177202700Y-70355451D01*
X177245448Y-70392310D01*
X177272147Y-70463000D01*
X177286280Y-70587823D01*
X177291332Y-70787082D01*
X177291600Y-70873523D01*
X177291600Y-70873523D01*
G36*
X177291600Y-59279022D02*
X177291429Y-60511065D01*
X177290906Y-61644499D01*
X177290012Y-62682313D01*
X177288729Y-63627499D01*
X177287037Y-64483046D01*
X177284920Y-65251945D01*
X177282359Y-65937186D01*
X177279335Y-66541760D01*
X177275830Y-67068655D01*
X177271825Y-67520864D01*
X177267304Y-67901375D01*
X177262246Y-68213179D01*
X177256635Y-68459267D01*
X177250451Y-68642628D01*
X177243676Y-68766253D01*
X177236292Y-68833132D01*
X177233046Y-68844929D01*
X177182350Y-68894864D01*
X177056103Y-68996094D01*
X176862470Y-69142913D01*
X176609614Y-69329618D01*
X176305700Y-69550503D01*
X175958892Y-69799863D01*
X175782335Y-69925791D01*
X175782335Y-62269600D01*
X175767600Y-62269600D01*
X175767600Y-56138979D01*
X175767600Y-54598800D01*
X175767456Y-54598800D01*
X175767456Y-51370973D01*
X175753821Y-50918996D01*
X175710134Y-50554602D01*
X175632575Y-50267216D01*
X175517323Y-50046265D01*
X175360556Y-49881175D01*
X175191324Y-49776636D01*
X174978047Y-49703816D01*
X174696396Y-49650865D01*
X174371634Y-49618181D01*
X174029024Y-49606166D01*
X173693827Y-49615221D01*
X173391307Y-49645745D01*
X173146725Y-49698141D01*
X173034023Y-49742423D01*
X172890595Y-49840883D01*
X172778652Y-49951646D01*
X172696223Y-50105240D01*
X172627072Y-50322759D01*
X172580970Y-50566588D01*
X172567200Y-50765900D01*
X172567200Y-50941200D01*
X172948200Y-50941200D01*
X173329200Y-50941200D01*
X173329200Y-50740832D01*
X173370906Y-50523179D01*
X173443500Y-50409291D01*
X173514998Y-50341120D01*
X173602625Y-50297548D01*
X173733848Y-50270072D01*
X173936135Y-50250186D01*
X173964200Y-50248076D01*
X174329855Y-50242157D01*
X174609057Y-50285440D01*
X174804617Y-50378601D01*
X174891435Y-50471060D01*
X174923009Y-50531276D01*
X174946233Y-50611687D01*
X174962329Y-50727481D01*
X174972520Y-50893846D01*
X174978027Y-51125971D01*
X174980074Y-51439044D01*
X174980200Y-51573965D01*
X174977957Y-51990762D01*
X174966389Y-52316779D01*
X174938235Y-52562818D01*
X174886236Y-52739678D01*
X174803131Y-52858159D01*
X174681660Y-52929061D01*
X174514563Y-52963185D01*
X174294579Y-52971331D01*
X174044858Y-52965358D01*
X173763005Y-52948698D01*
X173565680Y-52914090D01*
X173436046Y-52850523D01*
X173357269Y-52746986D01*
X173312513Y-52592469D01*
X173295525Y-52475290D01*
X173264248Y-52211200D01*
X172890324Y-52211200D01*
X172711578Y-52211933D01*
X172596253Y-52225755D01*
X172534351Y-52270099D01*
X172515874Y-52362395D01*
X172530826Y-52520077D01*
X172569209Y-52760577D01*
X172570544Y-52768793D01*
X172625794Y-53022342D01*
X172707321Y-53222564D01*
X172826072Y-53375011D01*
X172992996Y-53485234D01*
X173219041Y-53558785D01*
X173515155Y-53601215D01*
X173892288Y-53618077D01*
X174243600Y-53617148D01*
X174530067Y-53610916D01*
X174737935Y-53600495D01*
X174890203Y-53582536D01*
X175009867Y-53553689D01*
X175119925Y-53510605D01*
X175183400Y-53480270D01*
X175363540Y-53371544D01*
X175483263Y-53241596D01*
X175548401Y-53125600D01*
X175627989Y-52897492D01*
X175691092Y-52580850D01*
X175736219Y-52187627D01*
X175761877Y-51729778D01*
X175767456Y-51370973D01*
X175767456Y-54598800D01*
X175386600Y-54598800D01*
X175005600Y-54598800D01*
X175005600Y-56095009D01*
X175003615Y-56611822D01*
X174997625Y-57028730D01*
X174987570Y-57347352D01*
X174973393Y-57569309D01*
X174955037Y-57696217D01*
X174947797Y-57718081D01*
X174867339Y-57823157D01*
X174729516Y-57894410D01*
X174521114Y-57935793D01*
X174228919Y-57951262D01*
X174167400Y-57951600D01*
X173858977Y-57940311D01*
X173636690Y-57903808D01*
X173487324Y-57838136D01*
X173397663Y-57739342D01*
X173387002Y-57718081D01*
X173367204Y-57623272D01*
X173351606Y-57433969D01*
X173340149Y-57148553D01*
X173332777Y-56765404D01*
X173329430Y-56282904D01*
X173329200Y-56095009D01*
X173329200Y-54598800D01*
X172945014Y-54598800D01*
X172560828Y-54598800D01*
X172578102Y-56237100D01*
X172583584Y-56700069D01*
X172589664Y-57072743D01*
X172596985Y-57366424D01*
X172606189Y-57592417D01*
X172617918Y-57762025D01*
X172632815Y-57886552D01*
X172651523Y-57977302D01*
X172674683Y-58045579D01*
X172681801Y-58061666D01*
X172808452Y-58252064D01*
X172997350Y-58398290D01*
X173261043Y-58507591D01*
X173583200Y-58582242D01*
X173719320Y-58593552D01*
X173926637Y-58596132D01*
X174178033Y-58591217D01*
X174446388Y-58580038D01*
X174704584Y-58563829D01*
X174925502Y-58543822D01*
X175082023Y-58521251D01*
X175118322Y-58512456D01*
X175382944Y-58386027D01*
X175575895Y-58187600D01*
X175690564Y-57938567D01*
X175713751Y-57840519D01*
X175732047Y-57712371D01*
X175745949Y-57542490D01*
X175755955Y-57319245D01*
X175762564Y-57031006D01*
X175766273Y-56666139D01*
X175767580Y-56213015D01*
X175767600Y-56138979D01*
X175767600Y-62269600D01*
X175421117Y-62269600D01*
X175059899Y-62269600D01*
X175025752Y-62527013D01*
X174983374Y-62717911D01*
X174913208Y-62829643D01*
X174884302Y-62851504D01*
X174746264Y-62903294D01*
X174536850Y-62941191D01*
X174285673Y-62962415D01*
X174022347Y-62964184D01*
X173829801Y-62950523D01*
X173597368Y-62910548D01*
X173448656Y-62841372D01*
X173366303Y-62724060D01*
X173332949Y-62539674D01*
X173329200Y-62404473D01*
X173333710Y-62231599D01*
X173356400Y-62103534D01*
X173411008Y-62011684D01*
X173511272Y-61947451D01*
X173670931Y-61902241D01*
X173903724Y-61867456D01*
X174223388Y-61834501D01*
X174243141Y-61832630D01*
X174674782Y-61786332D01*
X175015386Y-61732995D01*
X175275514Y-61664591D01*
X175465723Y-61573090D01*
X175596573Y-61450465D01*
X175678623Y-61288688D01*
X175722432Y-61079729D01*
X175738558Y-60815560D01*
X175739624Y-60694800D01*
X175722953Y-60342493D01*
X175666719Y-60073889D01*
X175561178Y-59875562D01*
X175396584Y-59734089D01*
X175163192Y-59636044D01*
X174931745Y-59581932D01*
X174610632Y-59540977D01*
X174257303Y-59526553D01*
X173897431Y-59536920D01*
X173556692Y-59570337D01*
X173260758Y-59625064D01*
X173035305Y-59699359D01*
X173008732Y-59712301D01*
X172870334Y-59834080D01*
X172759123Y-60027406D01*
X172688402Y-60263179D01*
X172669915Y-60453500D01*
X172668800Y-60694800D01*
X173023432Y-60694800D01*
X173209462Y-60692810D01*
X173318023Y-60681000D01*
X173373242Y-60650603D01*
X173399242Y-60592854D01*
X173407947Y-60555100D01*
X173453977Y-60385099D01*
X173518306Y-60265310D01*
X173617050Y-60188517D01*
X173766323Y-60147502D01*
X173982238Y-60135048D01*
X174280910Y-60143936D01*
X174321338Y-60146003D01*
X174568753Y-60166219D01*
X174733568Y-60198540D01*
X174834456Y-60246916D01*
X174846722Y-60257138D01*
X174933913Y-60387288D01*
X174978794Y-60561327D01*
X174983298Y-60750538D01*
X174949356Y-60926203D01*
X174878902Y-61059607D01*
X174788719Y-61119119D01*
X174693494Y-61135155D01*
X174522539Y-61156735D01*
X174301363Y-61180856D01*
X174090729Y-61201314D01*
X173675388Y-61244425D01*
X173349481Y-61292336D01*
X173100844Y-61350569D01*
X172917313Y-61424645D01*
X172786724Y-61520086D01*
X172696912Y-61642413D01*
X172635716Y-61797147D01*
X172616219Y-61870623D01*
X172581272Y-62115152D01*
X172576381Y-62400413D01*
X172599011Y-62689433D01*
X172646628Y-62945239D01*
X172700506Y-63100078D01*
X172832129Y-63280883D01*
X173035396Y-63413563D01*
X173318786Y-63502365D01*
X173582239Y-63542040D01*
X173850491Y-63559182D01*
X174159319Y-63562639D01*
X174477821Y-63553632D01*
X174775095Y-63533381D01*
X175020243Y-63503106D01*
X175128007Y-63481013D01*
X175370930Y-63393274D01*
X175544355Y-63264948D01*
X175659744Y-63080267D01*
X175728561Y-62823458D01*
X175752843Y-62621389D01*
X175782335Y-62269600D01*
X175782335Y-69925791D01*
X175767600Y-69936301D01*
X175767600Y-68518000D01*
X175767600Y-66511400D01*
X175767600Y-64504800D01*
X174167400Y-64504800D01*
X172567200Y-64504800D01*
X172567200Y-64835000D01*
X172567200Y-65165200D01*
X173786400Y-65165200D01*
X175005600Y-65165200D01*
X175005600Y-65698600D01*
X175005600Y-66232000D01*
X173938800Y-66232000D01*
X172872000Y-66232000D01*
X172872000Y-66536800D01*
X172872000Y-66841600D01*
X173938800Y-66841600D01*
X175005600Y-66841600D01*
X175005600Y-67645933D01*
X175007637Y-67922089D01*
X175013263Y-68161709D01*
X175021747Y-68346730D01*
X175032359Y-68459089D01*
X175039466Y-68484133D01*
X175103936Y-68501169D01*
X175240481Y-68513332D01*
X175419602Y-68517999D01*
X175420466Y-68518000D01*
X175767600Y-68518000D01*
X175767600Y-69936301D01*
X175577354Y-70071994D01*
X175169250Y-70361190D01*
X174742745Y-70661746D01*
X174306002Y-70967957D01*
X173867186Y-71274119D01*
X173434461Y-71574527D01*
X173015990Y-71863476D01*
X172619939Y-72135260D01*
X172254471Y-72384175D01*
X171927750Y-72604516D01*
X171647940Y-72790577D01*
X171423206Y-72936655D01*
X171261712Y-73037044D01*
X171171622Y-73086039D01*
X171158065Y-73090000D01*
X171044636Y-73058909D01*
X171002560Y-73029039D01*
X170995476Y-73000087D01*
X170988916Y-72925866D01*
X170982863Y-72803282D01*
X170977299Y-72629242D01*
X170972210Y-72400651D01*
X170967579Y-72114416D01*
X170963389Y-71767442D01*
X170959624Y-71356635D01*
X170956267Y-70878901D01*
X170953304Y-70331146D01*
X170950716Y-69710276D01*
X170948489Y-69013197D01*
X170946605Y-68236815D01*
X170945048Y-67378035D01*
X170943802Y-66433764D01*
X170942852Y-65400907D01*
X170942179Y-64276371D01*
X170941769Y-63057061D01*
X170941604Y-61739883D01*
X170941600Y-61455860D01*
X170941658Y-60166502D01*
X170941849Y-58974879D01*
X170942199Y-57877128D01*
X170942732Y-56869385D01*
X170943475Y-55947785D01*
X170944451Y-55108464D01*
X170945686Y-54347557D01*
X170947206Y-53661202D01*
X170949036Y-53045533D01*
X170951200Y-52496687D01*
X170953725Y-52010799D01*
X170956635Y-51584004D01*
X170959955Y-51212440D01*
X170963711Y-50892242D01*
X170967928Y-50619545D01*
X170972631Y-50390485D01*
X170977845Y-50201199D01*
X170983595Y-50047822D01*
X170989908Y-49926489D01*
X170996807Y-49833337D01*
X171004319Y-49764502D01*
X171012467Y-49716119D01*
X171018327Y-49693120D01*
X171057412Y-49603058D01*
X171140868Y-49437723D01*
X171263233Y-49206692D01*
X171419045Y-48919539D01*
X171602843Y-48585838D01*
X171809165Y-48215165D01*
X172032548Y-47817096D01*
X172267531Y-47401203D01*
X172508652Y-46977064D01*
X172750450Y-46554253D01*
X172987462Y-46142344D01*
X173214227Y-45750913D01*
X173425282Y-45389535D01*
X173615167Y-45067784D01*
X173778419Y-44795236D01*
X173909577Y-44581466D01*
X174003178Y-44436048D01*
X174053761Y-44368558D01*
X174057139Y-44365848D01*
X174171658Y-44341341D01*
X174223681Y-44363842D01*
X174262820Y-44416454D01*
X174345601Y-44548275D01*
X174466525Y-44749592D01*
X174620094Y-45010689D01*
X174800807Y-45321850D01*
X175003168Y-45673360D01*
X175221676Y-46055505D01*
X175450833Y-46458569D01*
X175685141Y-46872836D01*
X175919099Y-47288592D01*
X176147210Y-47696121D01*
X176363975Y-48085708D01*
X176563894Y-48447638D01*
X176741469Y-48772196D01*
X176891202Y-49049666D01*
X177007592Y-49270333D01*
X177067427Y-49388112D01*
X177291600Y-49841625D01*
X177291600Y-59279022D01*
X177291600Y-59279022D01*
X177291600Y-59279022D01*
G37*
X177291600Y-59279022D02*
X177291429Y-60511065D01*
X177290906Y-61644499D01*
X177290012Y-62682313D01*
X177288729Y-63627499D01*
X177287037Y-64483046D01*
X177284920Y-65251945D01*
X177282359Y-65937186D01*
X177279335Y-66541760D01*
X177275830Y-67068655D01*
X177271825Y-67520864D01*
X177267304Y-67901375D01*
X177262246Y-68213179D01*
X177256635Y-68459267D01*
X177250451Y-68642628D01*
X177243676Y-68766253D01*
X177236292Y-68833132D01*
X177233046Y-68844929D01*
X177182350Y-68894864D01*
X177056103Y-68996094D01*
X176862470Y-69142913D01*
X176609614Y-69329618D01*
X176305700Y-69550503D01*
X175958892Y-69799863D01*
X175782335Y-69925791D01*
X175782335Y-62269600D01*
X175767600Y-62269600D01*
X175767600Y-56138979D01*
X175767600Y-54598800D01*
X175767456Y-54598800D01*
X175767456Y-51370973D01*
X175753821Y-50918996D01*
X175710134Y-50554602D01*
X175632575Y-50267216D01*
X175517323Y-50046265D01*
X175360556Y-49881175D01*
X175191324Y-49776636D01*
X174978047Y-49703816D01*
X174696396Y-49650865D01*
X174371634Y-49618181D01*
X174029024Y-49606166D01*
X173693827Y-49615221D01*
X173391307Y-49645745D01*
X173146725Y-49698141D01*
X173034023Y-49742423D01*
X172890595Y-49840883D01*
X172778652Y-49951646D01*
X172696223Y-50105240D01*
X172627072Y-50322759D01*
X172580970Y-50566588D01*
X172567200Y-50765900D01*
X172567200Y-50941200D01*
X172948200Y-50941200D01*
X173329200Y-50941200D01*
X173329200Y-50740832D01*
X173370906Y-50523179D01*
X173443500Y-50409291D01*
X173514998Y-50341120D01*
X173602625Y-50297548D01*
X173733848Y-50270072D01*
X173936135Y-50250186D01*
X173964200Y-50248076D01*
X174329855Y-50242157D01*
X174609057Y-50285440D01*
X174804617Y-50378601D01*
X174891435Y-50471060D01*
X174923009Y-50531276D01*
X174946233Y-50611687D01*
X174962329Y-50727481D01*
X174972520Y-50893846D01*
X174978027Y-51125971D01*
X174980074Y-51439044D01*
X174980200Y-51573965D01*
X174977957Y-51990762D01*
X174966389Y-52316779D01*
X174938235Y-52562818D01*
X174886236Y-52739678D01*
X174803131Y-52858159D01*
X174681660Y-52929061D01*
X174514563Y-52963185D01*
X174294579Y-52971331D01*
X174044858Y-52965358D01*
X173763005Y-52948698D01*
X173565680Y-52914090D01*
X173436046Y-52850523D01*
X173357269Y-52746986D01*
X173312513Y-52592469D01*
X173295525Y-52475290D01*
X173264248Y-52211200D01*
X172890324Y-52211200D01*
X172711578Y-52211933D01*
X172596253Y-52225755D01*
X172534351Y-52270099D01*
X172515874Y-52362395D01*
X172530826Y-52520077D01*
X172569209Y-52760577D01*
X172570544Y-52768793D01*
X172625794Y-53022342D01*
X172707321Y-53222564D01*
X172826072Y-53375011D01*
X172992996Y-53485234D01*
X173219041Y-53558785D01*
X173515155Y-53601215D01*
X173892288Y-53618077D01*
X174243600Y-53617148D01*
X174530067Y-53610916D01*
X174737935Y-53600495D01*
X174890203Y-53582536D01*
X175009867Y-53553689D01*
X175119925Y-53510605D01*
X175183400Y-53480270D01*
X175363540Y-53371544D01*
X175483263Y-53241596D01*
X175548401Y-53125600D01*
X175627989Y-52897492D01*
X175691092Y-52580850D01*
X175736219Y-52187627D01*
X175761877Y-51729778D01*
X175767456Y-51370973D01*
X175767456Y-54598800D01*
X175386600Y-54598800D01*
X175005600Y-54598800D01*
X175005600Y-56095009D01*
X175003615Y-56611822D01*
X174997625Y-57028730D01*
X174987570Y-57347352D01*
X174973393Y-57569309D01*
X174955037Y-57696217D01*
X174947797Y-57718081D01*
X174867339Y-57823157D01*
X174729516Y-57894410D01*
X174521114Y-57935793D01*
X174228919Y-57951262D01*
X174167400Y-57951600D01*
X173858977Y-57940311D01*
X173636690Y-57903808D01*
X173487324Y-57838136D01*
X173397663Y-57739342D01*
X173387002Y-57718081D01*
X173367204Y-57623272D01*
X173351606Y-57433969D01*
X173340149Y-57148553D01*
X173332777Y-56765404D01*
X173329430Y-56282904D01*
X173329200Y-56095009D01*
X173329200Y-54598800D01*
X172945014Y-54598800D01*
X172560828Y-54598800D01*
X172578102Y-56237100D01*
X172583584Y-56700069D01*
X172589664Y-57072743D01*
X172596985Y-57366424D01*
X172606189Y-57592417D01*
X172617918Y-57762025D01*
X172632815Y-57886552D01*
X172651523Y-57977302D01*
X172674683Y-58045579D01*
X172681801Y-58061666D01*
X172808452Y-58252064D01*
X172997350Y-58398290D01*
X173261043Y-58507591D01*
X173583200Y-58582242D01*
X173719320Y-58593552D01*
X173926637Y-58596132D01*
X174178033Y-58591217D01*
X174446388Y-58580038D01*
X174704584Y-58563829D01*
X174925502Y-58543822D01*
X175082023Y-58521251D01*
X175118322Y-58512456D01*
X175382944Y-58386027D01*
X175575895Y-58187600D01*
X175690564Y-57938567D01*
X175713751Y-57840519D01*
X175732047Y-57712371D01*
X175745949Y-57542490D01*
X175755955Y-57319245D01*
X175762564Y-57031006D01*
X175766273Y-56666139D01*
X175767580Y-56213015D01*
X175767600Y-56138979D01*
X175767600Y-62269600D01*
X175421117Y-62269600D01*
X175059899Y-62269600D01*
X175025752Y-62527013D01*
X174983374Y-62717911D01*
X174913208Y-62829643D01*
X174884302Y-62851504D01*
X174746264Y-62903294D01*
X174536850Y-62941191D01*
X174285673Y-62962415D01*
X174022347Y-62964184D01*
X173829801Y-62950523D01*
X173597368Y-62910548D01*
X173448656Y-62841372D01*
X173366303Y-62724060D01*
X173332949Y-62539674D01*
X173329200Y-62404473D01*
X173333710Y-62231599D01*
X173356400Y-62103534D01*
X173411008Y-62011684D01*
X173511272Y-61947451D01*
X173670931Y-61902241D01*
X173903724Y-61867456D01*
X174223388Y-61834501D01*
X174243141Y-61832630D01*
X174674782Y-61786332D01*
X175015386Y-61732995D01*
X175275514Y-61664591D01*
X175465723Y-61573090D01*
X175596573Y-61450465D01*
X175678623Y-61288688D01*
X175722432Y-61079729D01*
X175738558Y-60815560D01*
X175739624Y-60694800D01*
X175722953Y-60342493D01*
X175666719Y-60073889D01*
X175561178Y-59875562D01*
X175396584Y-59734089D01*
X175163192Y-59636044D01*
X174931745Y-59581932D01*
X174610632Y-59540977D01*
X174257303Y-59526553D01*
X173897431Y-59536920D01*
X173556692Y-59570337D01*
X173260758Y-59625064D01*
X173035305Y-59699359D01*
X173008732Y-59712301D01*
X172870334Y-59834080D01*
X172759123Y-60027406D01*
X172688402Y-60263179D01*
X172669915Y-60453500D01*
X172668800Y-60694800D01*
X173023432Y-60694800D01*
X173209462Y-60692810D01*
X173318023Y-60681000D01*
X173373242Y-60650603D01*
X173399242Y-60592854D01*
X173407947Y-60555100D01*
X173453977Y-60385099D01*
X173518306Y-60265310D01*
X173617050Y-60188517D01*
X173766323Y-60147502D01*
X173982238Y-60135048D01*
X174280910Y-60143936D01*
X174321338Y-60146003D01*
X174568753Y-60166219D01*
X174733568Y-60198540D01*
X174834456Y-60246916D01*
X174846722Y-60257138D01*
X174933913Y-60387288D01*
X174978794Y-60561327D01*
X174983298Y-60750538D01*
X174949356Y-60926203D01*
X174878902Y-61059607D01*
X174788719Y-61119119D01*
X174693494Y-61135155D01*
X174522539Y-61156735D01*
X174301363Y-61180856D01*
X174090729Y-61201314D01*
X173675388Y-61244425D01*
X173349481Y-61292336D01*
X173100844Y-61350569D01*
X172917313Y-61424645D01*
X172786724Y-61520086D01*
X172696912Y-61642413D01*
X172635716Y-61797147D01*
X172616219Y-61870623D01*
X172581272Y-62115152D01*
X172576381Y-62400413D01*
X172599011Y-62689433D01*
X172646628Y-62945239D01*
X172700506Y-63100078D01*
X172832129Y-63280883D01*
X173035396Y-63413563D01*
X173318786Y-63502365D01*
X173582239Y-63542040D01*
X173850491Y-63559182D01*
X174159319Y-63562639D01*
X174477821Y-63553632D01*
X174775095Y-63533381D01*
X175020243Y-63503106D01*
X175128007Y-63481013D01*
X175370930Y-63393274D01*
X175544355Y-63264948D01*
X175659744Y-63080267D01*
X175728561Y-62823458D01*
X175752843Y-62621389D01*
X175782335Y-62269600D01*
X175782335Y-69925791D01*
X175767600Y-69936301D01*
X175767600Y-68518000D01*
X175767600Y-66511400D01*
X175767600Y-64504800D01*
X174167400Y-64504800D01*
X172567200Y-64504800D01*
X172567200Y-64835000D01*
X172567200Y-65165200D01*
X173786400Y-65165200D01*
X175005600Y-65165200D01*
X175005600Y-65698600D01*
X175005600Y-66232000D01*
X173938800Y-66232000D01*
X172872000Y-66232000D01*
X172872000Y-66536800D01*
X172872000Y-66841600D01*
X173938800Y-66841600D01*
X175005600Y-66841600D01*
X175005600Y-67645933D01*
X175007637Y-67922089D01*
X175013263Y-68161709D01*
X175021747Y-68346730D01*
X175032359Y-68459089D01*
X175039466Y-68484133D01*
X175103936Y-68501169D01*
X175240481Y-68513332D01*
X175419602Y-68517999D01*
X175420466Y-68518000D01*
X175767600Y-68518000D01*
X175767600Y-69936301D01*
X175577354Y-70071994D01*
X175169250Y-70361190D01*
X174742745Y-70661746D01*
X174306002Y-70967957D01*
X173867186Y-71274119D01*
X173434461Y-71574527D01*
X173015990Y-71863476D01*
X172619939Y-72135260D01*
X172254471Y-72384175D01*
X171927750Y-72604516D01*
X171647940Y-72790577D01*
X171423206Y-72936655D01*
X171261712Y-73037044D01*
X171171622Y-73086039D01*
X171158065Y-73090000D01*
X171044636Y-73058909D01*
X171002560Y-73029039D01*
X170995476Y-73000087D01*
X170988916Y-72925866D01*
X170982863Y-72803282D01*
X170977299Y-72629242D01*
X170972210Y-72400651D01*
X170967579Y-72114416D01*
X170963389Y-71767442D01*
X170959624Y-71356635D01*
X170956267Y-70878901D01*
X170953304Y-70331146D01*
X170950716Y-69710276D01*
X170948489Y-69013197D01*
X170946605Y-68236815D01*
X170945048Y-67378035D01*
X170943802Y-66433764D01*
X170942852Y-65400907D01*
X170942179Y-64276371D01*
X170941769Y-63057061D01*
X170941604Y-61739883D01*
X170941600Y-61455860D01*
X170941658Y-60166502D01*
X170941849Y-58974879D01*
X170942199Y-57877128D01*
X170942732Y-56869385D01*
X170943475Y-55947785D01*
X170944451Y-55108464D01*
X170945686Y-54347557D01*
X170947206Y-53661202D01*
X170949036Y-53045533D01*
X170951200Y-52496687D01*
X170953725Y-52010799D01*
X170956635Y-51584004D01*
X170959955Y-51212440D01*
X170963711Y-50892242D01*
X170967928Y-50619545D01*
X170972631Y-50390485D01*
X170977845Y-50201199D01*
X170983595Y-50047822D01*
X170989908Y-49926489D01*
X170996807Y-49833337D01*
X171004319Y-49764502D01*
X171012467Y-49716119D01*
X171018327Y-49693120D01*
X171057412Y-49603058D01*
X171140868Y-49437723D01*
X171263233Y-49206692D01*
X171419045Y-48919539D01*
X171602843Y-48585838D01*
X171809165Y-48215165D01*
X172032548Y-47817096D01*
X172267531Y-47401203D01*
X172508652Y-46977064D01*
X172750450Y-46554253D01*
X172987462Y-46142344D01*
X173214227Y-45750913D01*
X173425282Y-45389535D01*
X173615167Y-45067784D01*
X173778419Y-44795236D01*
X173909577Y-44581466D01*
X174003178Y-44436048D01*
X174053761Y-44368558D01*
X174057139Y-44365848D01*
X174171658Y-44341341D01*
X174223681Y-44363842D01*
X174262820Y-44416454D01*
X174345601Y-44548275D01*
X174466525Y-44749592D01*
X174620094Y-45010689D01*
X174800807Y-45321850D01*
X175003168Y-45673360D01*
X175221676Y-46055505D01*
X175450833Y-46458569D01*
X175685141Y-46872836D01*
X175919099Y-47288592D01*
X176147210Y-47696121D01*
X176363975Y-48085708D01*
X176563894Y-48447638D01*
X176741469Y-48772196D01*
X176891202Y-49049666D01*
X177007592Y-49270333D01*
X177067427Y-49388112D01*
X177291600Y-49841625D01*
X177291600Y-59279022D01*
X177291600Y-59279022D01*
G36*
X163347000Y-66486000D02*
X163343304Y-66960491D01*
X163329759Y-67344907D01*
X163302683Y-67650588D01*
X163258391Y-67888871D01*
X163193198Y-68071096D01*
X163103421Y-68208600D01*
X162985376Y-68312723D01*
X162835378Y-68394801D01*
X162710553Y-68444792D01*
X162550121Y-68482888D01*
X162313915Y-68513565D01*
X162027557Y-68535816D01*
X161716673Y-68548632D01*
X161406884Y-68551003D01*
X161123815Y-68541921D01*
X160893089Y-68520378D01*
X160871831Y-68517177D01*
X160569085Y-68446469D01*
X160354040Y-68341664D01*
X160217051Y-68197750D01*
X160200460Y-68168319D01*
X160132223Y-67978866D01*
X160077344Y-67711216D01*
X160039162Y-67388278D01*
X160021018Y-67032960D01*
X160019983Y-66930500D01*
X160019600Y-66486000D01*
X160908600Y-66486000D01*
X161797600Y-66486000D01*
X161797600Y-66714600D01*
X161797600Y-66943200D01*
X161168524Y-66943200D01*
X160905430Y-66944304D01*
X160726631Y-66949398D01*
X160614834Y-66961150D01*
X160552743Y-66982229D01*
X160523063Y-67015304D01*
X160512995Y-67044361D01*
X160503848Y-67166334D01*
X160514444Y-67348883D01*
X160539844Y-67554026D01*
X160575106Y-67743784D01*
X160615291Y-67880175D01*
X160624157Y-67898978D01*
X160699828Y-67984962D01*
X160828466Y-68046577D01*
X161021205Y-68085838D01*
X161289178Y-68104761D01*
X161643518Y-68105361D01*
X161750057Y-68102796D01*
X162065134Y-68091564D01*
X162315819Y-68070490D01*
X162509409Y-68028953D01*
X162653198Y-67956334D01*
X162754484Y-67842014D01*
X162820563Y-67675371D01*
X162858731Y-67445787D01*
X162876283Y-67142640D01*
X162880517Y-66755312D01*
X162879608Y-66458687D01*
X162875123Y-66048113D01*
X162864162Y-65726674D01*
X162843929Y-65481972D01*
X162811626Y-65301610D01*
X162764457Y-65173190D01*
X162699624Y-65084313D01*
X162614330Y-65022583D01*
X162548728Y-64992008D01*
X162294111Y-64923140D01*
X161959165Y-64887468D01*
X161559956Y-64886097D01*
X161272810Y-64904193D01*
X160991324Y-64936027D01*
X160794905Y-64981906D01*
X160667051Y-65053324D01*
X160591261Y-65161773D01*
X160551034Y-65318749D01*
X160539487Y-65414960D01*
X160514673Y-65673200D01*
X160259899Y-65673200D01*
X160005126Y-65673200D01*
X160037937Y-65359277D01*
X160096882Y-65043558D01*
X160197616Y-64803183D01*
X160335853Y-64647214D01*
X160389734Y-64615448D01*
X160610285Y-64543439D01*
X160914557Y-64493014D01*
X161286657Y-64465782D01*
X161710688Y-64463353D01*
X161848400Y-64467814D01*
X162259118Y-64496529D01*
X162582510Y-64548855D01*
X162831261Y-64630507D01*
X163018057Y-64747197D01*
X163155582Y-64904642D01*
X163253564Y-65100826D01*
X163284657Y-65193334D01*
X163308128Y-65298278D01*
X163325001Y-65430832D01*
X163336300Y-65606169D01*
X163343048Y-65839465D01*
X163346270Y-66145894D01*
X163347000Y-66486000D01*
X163347000Y-66486000D01*
X163347000Y-66486000D01*
G37*
X163347000Y-66486000D02*
X163343304Y-66960491D01*
X163329759Y-67344907D01*
X163302683Y-67650588D01*
X163258391Y-67888871D01*
X163193198Y-68071096D01*
X163103421Y-68208600D01*
X162985376Y-68312723D01*
X162835378Y-68394801D01*
X162710553Y-68444792D01*
X162550121Y-68482888D01*
X162313915Y-68513565D01*
X162027557Y-68535816D01*
X161716673Y-68548632D01*
X161406884Y-68551003D01*
X161123815Y-68541921D01*
X160893089Y-68520378D01*
X160871831Y-68517177D01*
X160569085Y-68446469D01*
X160354040Y-68341664D01*
X160217051Y-68197750D01*
X160200460Y-68168319D01*
X160132223Y-67978866D01*
X160077344Y-67711216D01*
X160039162Y-67388278D01*
X160021018Y-67032960D01*
X160019983Y-66930500D01*
X160019600Y-66486000D01*
X160908600Y-66486000D01*
X161797600Y-66486000D01*
X161797600Y-66714600D01*
X161797600Y-66943200D01*
X161168524Y-66943200D01*
X160905430Y-66944304D01*
X160726631Y-66949398D01*
X160614834Y-66961150D01*
X160552743Y-66982229D01*
X160523063Y-67015304D01*
X160512995Y-67044361D01*
X160503848Y-67166334D01*
X160514444Y-67348883D01*
X160539844Y-67554026D01*
X160575106Y-67743784D01*
X160615291Y-67880175D01*
X160624157Y-67898978D01*
X160699828Y-67984962D01*
X160828466Y-68046577D01*
X161021205Y-68085838D01*
X161289178Y-68104761D01*
X161643518Y-68105361D01*
X161750057Y-68102796D01*
X162065134Y-68091564D01*
X162315819Y-68070490D01*
X162509409Y-68028953D01*
X162653198Y-67956334D01*
X162754484Y-67842014D01*
X162820563Y-67675371D01*
X162858731Y-67445787D01*
X162876283Y-67142640D01*
X162880517Y-66755312D01*
X162879608Y-66458687D01*
X162875123Y-66048113D01*
X162864162Y-65726674D01*
X162843929Y-65481972D01*
X162811626Y-65301610D01*
X162764457Y-65173190D01*
X162699624Y-65084313D01*
X162614330Y-65022583D01*
X162548728Y-64992008D01*
X162294111Y-64923140D01*
X161959165Y-64887468D01*
X161559956Y-64886097D01*
X161272810Y-64904193D01*
X160991324Y-64936027D01*
X160794905Y-64981906D01*
X160667051Y-65053324D01*
X160591261Y-65161773D01*
X160551034Y-65318749D01*
X160539487Y-65414960D01*
X160514673Y-65673200D01*
X160259899Y-65673200D01*
X160005126Y-65673200D01*
X160037937Y-65359277D01*
X160096882Y-65043558D01*
X160197616Y-64803183D01*
X160335853Y-64647214D01*
X160389734Y-64615448D01*
X160610285Y-64543439D01*
X160914557Y-64493014D01*
X161286657Y-64465782D01*
X161710688Y-64463353D01*
X161848400Y-64467814D01*
X162259118Y-64496529D01*
X162582510Y-64548855D01*
X162831261Y-64630507D01*
X163018057Y-64747197D01*
X163155582Y-64904642D01*
X163253564Y-65100826D01*
X163284657Y-65193334D01*
X163308128Y-65298278D01*
X163325001Y-65430832D01*
X163336300Y-65606169D01*
X163343048Y-65839465D01*
X163346270Y-66145894D01*
X163347000Y-66486000D01*
X163347000Y-66486000D01*
G36*
X153466400Y-64962000D02*
X152831400Y-64962000D01*
X152196400Y-64962000D01*
X152196400Y-66740000D01*
X152196400Y-68518000D01*
X151942400Y-68518000D01*
X151688400Y-68518000D01*
X151688400Y-66740000D01*
X151688400Y-64962000D01*
X151053400Y-64962000D01*
X150418400Y-64962000D01*
X150418400Y-64733400D01*
X150418400Y-64504800D01*
X151942400Y-64504800D01*
X153466400Y-64504800D01*
X153466400Y-64733400D01*
X153466400Y-64962000D01*
X153466400Y-64962000D01*
X153466400Y-64962000D01*
G37*
X153466400Y-64962000D02*
X152831400Y-64962000D01*
X152196400Y-64962000D01*
X152196400Y-66740000D01*
X152196400Y-68518000D01*
X151942400Y-68518000D01*
X151688400Y-68518000D01*
X151688400Y-66740000D01*
X151688400Y-64962000D01*
X151053400Y-64962000D01*
X150418400Y-64962000D01*
X150418400Y-64733400D01*
X150418400Y-64504800D01*
X151942400Y-64504800D01*
X153466400Y-64504800D01*
X153466400Y-64733400D01*
X153466400Y-64962000D01*
X153466400Y-64962000D01*
G36*
X158292400Y-68518000D02*
X158063800Y-68518000D01*
X157835200Y-68518000D01*
X157835200Y-67603600D01*
X157835200Y-66689200D01*
X156692200Y-66689200D01*
X155549200Y-66689200D01*
X155549200Y-67603600D01*
X155549200Y-68518000D01*
X155295200Y-68518000D01*
X155041200Y-68518000D01*
X155041200Y-66511400D01*
X155041200Y-64504800D01*
X155295200Y-64504800D01*
X155549200Y-64504800D01*
X155549200Y-65368400D01*
X155549200Y-66232000D01*
X156692200Y-66232000D01*
X157835200Y-66232000D01*
X157835200Y-65368400D01*
X157835200Y-64504800D01*
X158063800Y-64504800D01*
X158292400Y-64504800D01*
X158292400Y-66511400D01*
X158292400Y-68518000D01*
X158292400Y-68518000D01*
X158292400Y-68518000D01*
G37*
X158292400Y-68518000D02*
X158063800Y-68518000D01*
X157835200Y-68518000D01*
X157835200Y-67603600D01*
X157835200Y-66689200D01*
X156692200Y-66689200D01*
X155549200Y-66689200D01*
X155549200Y-67603600D01*
X155549200Y-68518000D01*
X155295200Y-68518000D01*
X155041200Y-68518000D01*
X155041200Y-66511400D01*
X155041200Y-64504800D01*
X155295200Y-64504800D01*
X155549200Y-64504800D01*
X155549200Y-65368400D01*
X155549200Y-66232000D01*
X156692200Y-66232000D01*
X157835200Y-66232000D01*
X157835200Y-65368400D01*
X157835200Y-64504800D01*
X158063800Y-64504800D01*
X158292400Y-64504800D01*
X158292400Y-66511400D01*
X158292400Y-68518000D01*
X158292400Y-68518000D01*
G36*
X165607600Y-68518000D02*
X165379000Y-68518000D01*
X165150400Y-68518000D01*
X165150400Y-66511400D01*
X165150400Y-64504800D01*
X165379000Y-64504800D01*
X165607600Y-64504800D01*
X165607600Y-66511400D01*
X165607600Y-68518000D01*
X165607600Y-68518000D01*
X165607600Y-68518000D01*
G37*
X165607600Y-68518000D02*
X165379000Y-68518000D01*
X165150400Y-68518000D01*
X165150400Y-66511400D01*
X165150400Y-64504800D01*
X165379000Y-64504800D01*
X165607600Y-64504800D01*
X165607600Y-66511400D01*
X165607600Y-68518000D01*
X165607600Y-68518000D01*
G36*
X169722400Y-68518000D02*
X168452400Y-68518000D01*
X167182400Y-68518000D01*
X167182400Y-68289400D01*
X167182400Y-68060800D01*
X168198400Y-68060800D01*
X169214400Y-68060800D01*
X169214400Y-66282800D01*
X169214400Y-64504800D01*
X169468400Y-64504800D01*
X169722400Y-64504800D01*
X169722400Y-66511400D01*
X169722400Y-68518000D01*
X169722400Y-68518000D01*
X169722400Y-68518000D01*
G37*
X169722400Y-68518000D02*
X168452400Y-68518000D01*
X167182400Y-68518000D01*
X167182400Y-68289400D01*
X167182400Y-68060800D01*
X168198400Y-68060800D01*
X169214400Y-68060800D01*
X169214400Y-66282800D01*
X169214400Y-64504800D01*
X169468400Y-64504800D01*
X169722400Y-64504800D01*
X169722400Y-66511400D01*
X169722400Y-68518000D01*
X169722400Y-68518000D01*
G36*
X158571800Y-61380600D02*
X158569086Y-61841168D01*
X158559736Y-62212923D01*
X158541938Y-62508537D01*
X158513880Y-62740682D01*
X158473749Y-62922029D01*
X158419734Y-63065252D01*
X158350021Y-63183021D01*
X158305940Y-63239629D01*
X158198557Y-63350425D01*
X158077879Y-63432893D01*
X157926902Y-63491507D01*
X157728626Y-63530742D01*
X157466048Y-63555074D01*
X157122167Y-63568977D01*
X157047800Y-63570774D01*
X156634240Y-63573230D01*
X156299511Y-63560752D01*
X156053107Y-63533771D01*
X155998410Y-63523044D01*
X155764002Y-63451680D01*
X155594480Y-63348885D01*
X155478861Y-63198664D01*
X155406165Y-62985021D01*
X155365409Y-62691961D01*
X155358025Y-62590306D01*
X155331678Y-62168000D01*
X155592839Y-62168000D01*
X155854000Y-62168000D01*
X155854000Y-62495367D01*
X155861236Y-62693683D01*
X155888826Y-62826063D01*
X155945589Y-62927516D01*
X155970633Y-62958329D01*
X156034946Y-63022432D01*
X156112070Y-63066579D01*
X156225496Y-63097803D01*
X156398717Y-63123135D01*
X156587759Y-63143064D01*
X156974405Y-63163625D01*
X157317962Y-63147597D01*
X157600849Y-63096920D01*
X157805486Y-63013535D01*
X157814701Y-63007659D01*
X157888083Y-62941750D01*
X157945598Y-62843700D01*
X157989058Y-62701999D01*
X158020271Y-62505137D01*
X158041049Y-62241605D01*
X158053201Y-61899893D01*
X158058537Y-61468491D01*
X158058597Y-61456800D01*
X158058634Y-61053765D01*
X158052518Y-60739655D01*
X158037683Y-60501855D01*
X158011561Y-60327753D01*
X157971585Y-60204735D01*
X157915185Y-60120188D01*
X157839796Y-60061499D01*
X157767342Y-60026057D01*
X157628633Y-59992299D01*
X157398003Y-59970180D01*
X157071773Y-59959416D01*
X156884111Y-59958200D01*
X156597503Y-59959171D01*
X156394349Y-59963711D01*
X156256508Y-59974262D01*
X156165840Y-59993264D01*
X156104205Y-60023158D01*
X156053462Y-60066384D01*
X156049295Y-60070526D01*
X155975129Y-60177601D01*
X155931951Y-60333282D01*
X155914778Y-60489626D01*
X155892588Y-60796400D01*
X155637326Y-60796400D01*
X155382064Y-60796400D01*
X155412164Y-60437360D01*
X155459605Y-60138326D01*
X155551840Y-59901881D01*
X155697222Y-59723201D01*
X155904104Y-59597466D01*
X156180837Y-59519853D01*
X156535776Y-59485540D01*
X156977272Y-59489707D01*
X157047800Y-59493157D01*
X157479466Y-59530080D01*
X157823291Y-59593021D01*
X158090715Y-59686429D01*
X158293180Y-59814753D01*
X158442128Y-59982441D01*
X158483914Y-60051585D01*
X158512685Y-60115722D01*
X158534529Y-60198407D01*
X158550360Y-60313439D01*
X158561089Y-60474618D01*
X158567631Y-60695745D01*
X158570897Y-60990620D01*
X158571799Y-61373044D01*
X158571800Y-61380600D01*
X158571800Y-61380600D01*
X158571800Y-61380600D01*
G37*
X158571800Y-61380600D02*
X158569086Y-61841168D01*
X158559736Y-62212923D01*
X158541938Y-62508537D01*
X158513880Y-62740682D01*
X158473749Y-62922029D01*
X158419734Y-63065252D01*
X158350021Y-63183021D01*
X158305940Y-63239629D01*
X158198557Y-63350425D01*
X158077879Y-63432893D01*
X157926902Y-63491507D01*
X157728626Y-63530742D01*
X157466048Y-63555074D01*
X157122167Y-63568977D01*
X157047800Y-63570774D01*
X156634240Y-63573230D01*
X156299511Y-63560752D01*
X156053107Y-63533771D01*
X155998410Y-63523044D01*
X155764002Y-63451680D01*
X155594480Y-63348885D01*
X155478861Y-63198664D01*
X155406165Y-62985021D01*
X155365409Y-62691961D01*
X155358025Y-62590306D01*
X155331678Y-62168000D01*
X155592839Y-62168000D01*
X155854000Y-62168000D01*
X155854000Y-62495367D01*
X155861236Y-62693683D01*
X155888826Y-62826063D01*
X155945589Y-62927516D01*
X155970633Y-62958329D01*
X156034946Y-63022432D01*
X156112070Y-63066579D01*
X156225496Y-63097803D01*
X156398717Y-63123135D01*
X156587759Y-63143064D01*
X156974405Y-63163625D01*
X157317962Y-63147597D01*
X157600849Y-63096920D01*
X157805486Y-63013535D01*
X157814701Y-63007659D01*
X157888083Y-62941750D01*
X157945598Y-62843700D01*
X157989058Y-62701999D01*
X158020271Y-62505137D01*
X158041049Y-62241605D01*
X158053201Y-61899893D01*
X158058537Y-61468491D01*
X158058597Y-61456800D01*
X158058634Y-61053765D01*
X158052518Y-60739655D01*
X158037683Y-60501855D01*
X158011561Y-60327753D01*
X157971585Y-60204735D01*
X157915185Y-60120188D01*
X157839796Y-60061499D01*
X157767342Y-60026057D01*
X157628633Y-59992299D01*
X157398003Y-59970180D01*
X157071773Y-59959416D01*
X156884111Y-59958200D01*
X156597503Y-59959171D01*
X156394349Y-59963711D01*
X156256508Y-59974262D01*
X156165840Y-59993264D01*
X156104205Y-60023158D01*
X156053462Y-60066384D01*
X156049295Y-60070526D01*
X155975129Y-60177601D01*
X155931951Y-60333282D01*
X155914778Y-60489626D01*
X155892588Y-60796400D01*
X155637326Y-60796400D01*
X155382064Y-60796400D01*
X155412164Y-60437360D01*
X155459605Y-60138326D01*
X155551840Y-59901881D01*
X155697222Y-59723201D01*
X155904104Y-59597466D01*
X156180837Y-59519853D01*
X156535776Y-59485540D01*
X156977272Y-59489707D01*
X157047800Y-59493157D01*
X157479466Y-59530080D01*
X157823291Y-59593021D01*
X158090715Y-59686429D01*
X158293180Y-59814753D01*
X158442128Y-59982441D01*
X158483914Y-60051585D01*
X158512685Y-60115722D01*
X158534529Y-60198407D01*
X158550360Y-60313439D01*
X158561089Y-60474618D01*
X158567631Y-60695745D01*
X158570897Y-60990620D01*
X158571799Y-61373044D01*
X158571800Y-61380600D01*
X158571800Y-61380600D01*
G36*
X153009200Y-63539600D02*
X151688400Y-63539600D01*
X150367600Y-63539600D01*
X150367600Y-63336400D01*
X150367600Y-63133200D01*
X151434400Y-63133200D01*
X152501200Y-63133200D01*
X152501200Y-62422000D01*
X152501200Y-61710800D01*
X151485200Y-61710800D01*
X150469200Y-61710800D01*
X150469200Y-61482200D01*
X150469200Y-61253600D01*
X151485200Y-61253600D01*
X152501200Y-61253600D01*
X152501200Y-60593200D01*
X152501200Y-59932800D01*
X151434400Y-59932800D01*
X150367600Y-59932800D01*
X150367600Y-59729600D01*
X150367600Y-59526400D01*
X151688400Y-59526400D01*
X153009200Y-59526400D01*
X153009200Y-61533000D01*
X153009200Y-63539600D01*
X153009200Y-63539600D01*
X153009200Y-63539600D01*
G37*
X153009200Y-63539600D02*
X151688400Y-63539600D01*
X150367600Y-63539600D01*
X150367600Y-63336400D01*
X150367600Y-63133200D01*
X151434400Y-63133200D01*
X152501200Y-63133200D01*
X152501200Y-62422000D01*
X152501200Y-61710800D01*
X151485200Y-61710800D01*
X150469200Y-61710800D01*
X150469200Y-61482200D01*
X150469200Y-61253600D01*
X151485200Y-61253600D01*
X152501200Y-61253600D01*
X152501200Y-60593200D01*
X152501200Y-59932800D01*
X151434400Y-59932800D01*
X150367600Y-59932800D01*
X150367600Y-59729600D01*
X150367600Y-59526400D01*
X151688400Y-59526400D01*
X153009200Y-59526400D01*
X153009200Y-61533000D01*
X153009200Y-63539600D01*
X153009200Y-63539600D01*
G36*
X164471853Y-63502472D02*
X164426380Y-63529238D01*
X164310274Y-63538751D01*
X164226723Y-63539468D01*
X163956600Y-63539336D01*
X163812739Y-63132007D01*
X163668878Y-62724679D01*
X163520246Y-62726737D01*
X163520246Y-62320400D01*
X163402206Y-62002900D01*
X163344466Y-61845574D01*
X163261536Y-61616939D01*
X163162230Y-61341423D01*
X163055364Y-61043458D01*
X162989749Y-60859767D01*
X162893053Y-60591881D01*
X162807875Y-60362103D01*
X162739985Y-60185506D01*
X162695157Y-60077161D01*
X162679587Y-60049879D01*
X162658363Y-60100117D01*
X162607786Y-60231894D01*
X162533083Y-60431217D01*
X162439483Y-60684091D01*
X162332216Y-60976522D01*
X162285679Y-61104112D01*
X162172656Y-61414168D01*
X162069842Y-61695613D01*
X161982847Y-61933135D01*
X161917285Y-62111420D01*
X161878767Y-62215155D01*
X161872523Y-62231500D01*
X161866243Y-62264284D01*
X161886296Y-62287871D01*
X161946285Y-62303760D01*
X162059812Y-62313450D01*
X162240480Y-62318441D01*
X162501892Y-62320234D01*
X162678888Y-62320400D01*
X163520246Y-62320400D01*
X163520246Y-62726737D01*
X162675585Y-62738439D01*
X161682291Y-62752200D01*
X161532454Y-63145900D01*
X161382616Y-63539600D01*
X161132908Y-63539600D01*
X160989410Y-63531776D01*
X160899117Y-63511806D01*
X160883200Y-63496810D01*
X160900490Y-63441471D01*
X160949859Y-63301286D01*
X161027553Y-63086481D01*
X161129819Y-62807283D01*
X161252905Y-62473919D01*
X161393057Y-62096613D01*
X161546523Y-61685593D01*
X161614968Y-61502910D01*
X162346737Y-59551800D01*
X162693080Y-59551800D01*
X163039424Y-59551800D01*
X163739029Y-61456800D01*
X163893177Y-61876775D01*
X164037010Y-62269099D01*
X164166603Y-62623032D01*
X164278033Y-62927840D01*
X164367376Y-63172784D01*
X164430708Y-63347129D01*
X164464104Y-63440138D01*
X164467740Y-63450700D01*
X164471853Y-63502472D01*
X164471853Y-63502472D01*
X164471853Y-63502472D01*
G37*
X164471853Y-63502472D02*
X164426380Y-63529238D01*
X164310274Y-63538751D01*
X164226723Y-63539468D01*
X163956600Y-63539336D01*
X163812739Y-63132007D01*
X163668878Y-62724679D01*
X163520246Y-62726737D01*
X163520246Y-62320400D01*
X163402206Y-62002900D01*
X163344466Y-61845574D01*
X163261536Y-61616939D01*
X163162230Y-61341423D01*
X163055364Y-61043458D01*
X162989749Y-60859767D01*
X162893053Y-60591881D01*
X162807875Y-60362103D01*
X162739985Y-60185506D01*
X162695157Y-60077161D01*
X162679587Y-60049879D01*
X162658363Y-60100117D01*
X162607786Y-60231894D01*
X162533083Y-60431217D01*
X162439483Y-60684091D01*
X162332216Y-60976522D01*
X162285679Y-61104112D01*
X162172656Y-61414168D01*
X162069842Y-61695613D01*
X161982847Y-61933135D01*
X161917285Y-62111420D01*
X161878767Y-62215155D01*
X161872523Y-62231500D01*
X161866243Y-62264284D01*
X161886296Y-62287871D01*
X161946285Y-62303760D01*
X162059812Y-62313450D01*
X162240480Y-62318441D01*
X162501892Y-62320234D01*
X162678888Y-62320400D01*
X163520246Y-62320400D01*
X163520246Y-62726737D01*
X162675585Y-62738439D01*
X161682291Y-62752200D01*
X161532454Y-63145900D01*
X161382616Y-63539600D01*
X161132908Y-63539600D01*
X160989410Y-63531776D01*
X160899117Y-63511806D01*
X160883200Y-63496810D01*
X160900490Y-63441471D01*
X160949859Y-63301286D01*
X161027553Y-63086481D01*
X161129819Y-62807283D01*
X161252905Y-62473919D01*
X161393057Y-62096613D01*
X161546523Y-61685593D01*
X161614968Y-61502910D01*
X162346737Y-59551800D01*
X162693080Y-59551800D01*
X163039424Y-59551800D01*
X163739029Y-61456800D01*
X163893177Y-61876775D01*
X164037010Y-62269099D01*
X164166603Y-62623032D01*
X164278033Y-62927840D01*
X164367376Y-63172784D01*
X164430708Y-63347129D01*
X164464104Y-63440138D01*
X164467740Y-63450700D01*
X164471853Y-63502472D01*
X164471853Y-63502472D01*
G36*
X169722400Y-63539600D02*
X169468400Y-63539600D01*
X169214400Y-63539600D01*
X169214400Y-62755279D01*
X169214400Y-61970958D01*
X169214400Y-61558400D01*
X169214400Y-60745600D01*
X169214400Y-59932800D01*
X168566700Y-59936508D01*
X168142982Y-59944595D01*
X167812183Y-59964155D01*
X167566154Y-59996258D01*
X167396747Y-60041972D01*
X167295814Y-60102369D01*
X167294659Y-60103512D01*
X167248213Y-60177686D01*
X167217064Y-60302702D01*
X167197425Y-60498267D01*
X167189953Y-60648213D01*
X167184551Y-60914319D01*
X167198872Y-61121638D01*
X167243870Y-61277633D01*
X167330499Y-61389765D01*
X167469711Y-61465494D01*
X167672460Y-61512284D01*
X167949698Y-61537595D01*
X168312380Y-61548889D01*
X168515900Y-61551481D01*
X169214400Y-61558400D01*
X169214400Y-61970958D01*
X168261900Y-61955179D01*
X167867808Y-61945820D01*
X167561250Y-61929719D01*
X167328197Y-61902847D01*
X167154619Y-61861174D01*
X167026486Y-61800669D01*
X166929768Y-61717305D01*
X166850436Y-61607050D01*
X166811907Y-61538709D01*
X166760885Y-61428827D01*
X166728047Y-61312044D01*
X166709664Y-61162552D01*
X166702009Y-60954542D01*
X166701024Y-60771000D01*
X166713142Y-60423063D01*
X166752340Y-60157237D01*
X166824036Y-59956369D01*
X166933645Y-59803307D01*
X167033931Y-59716806D01*
X167128930Y-59658176D01*
X167242701Y-59612715D01*
X167388651Y-59578846D01*
X167580190Y-59554992D01*
X167830725Y-59539577D01*
X168153664Y-59531024D01*
X168562415Y-59527756D01*
X168642900Y-59527611D01*
X169722400Y-59526400D01*
X169722400Y-61533000D01*
X169722400Y-63539600D01*
X169722400Y-63539600D01*
X169722400Y-63539600D01*
G37*
X169722400Y-63539600D02*
X169468400Y-63539600D01*
X169214400Y-63539600D01*
X169214400Y-62755279D01*
X169214400Y-61970958D01*
X169214400Y-61558400D01*
X169214400Y-60745600D01*
X169214400Y-59932800D01*
X168566700Y-59936508D01*
X168142982Y-59944595D01*
X167812183Y-59964155D01*
X167566154Y-59996258D01*
X167396747Y-60041972D01*
X167295814Y-60102369D01*
X167294659Y-60103512D01*
X167248213Y-60177686D01*
X167217064Y-60302702D01*
X167197425Y-60498267D01*
X167189953Y-60648213D01*
X167184551Y-60914319D01*
X167198872Y-61121638D01*
X167243870Y-61277633D01*
X167330499Y-61389765D01*
X167469711Y-61465494D01*
X167672460Y-61512284D01*
X167949698Y-61537595D01*
X168312380Y-61548889D01*
X168515900Y-61551481D01*
X169214400Y-61558400D01*
X169214400Y-61970958D01*
X168261900Y-61955179D01*
X167867808Y-61945820D01*
X167561250Y-61929719D01*
X167328197Y-61902847D01*
X167154619Y-61861174D01*
X167026486Y-61800669D01*
X166929768Y-61717305D01*
X166850436Y-61607050D01*
X166811907Y-61538709D01*
X166760885Y-61428827D01*
X166728047Y-61312044D01*
X166709664Y-61162552D01*
X166702009Y-60954542D01*
X166701024Y-60771000D01*
X166713142Y-60423063D01*
X166752340Y-60157237D01*
X166824036Y-59956369D01*
X166933645Y-59803307D01*
X167033931Y-59716806D01*
X167128930Y-59658176D01*
X167242701Y-59612715D01*
X167388651Y-59578846D01*
X167580190Y-59554992D01*
X167830725Y-59539577D01*
X168153664Y-59531024D01*
X168562415Y-59527756D01*
X168642900Y-59527611D01*
X169722400Y-59526400D01*
X169722400Y-61533000D01*
X169722400Y-63539600D01*
X169722400Y-63539600D01*
G36*
X137413600Y-54571245D02*
X137387530Y-54619963D01*
X137313997Y-54743073D01*
X137200013Y-54929205D01*
X137052590Y-55166992D01*
X136878741Y-55445064D01*
X136685478Y-55752052D01*
X136677000Y-55765473D01*
X135940400Y-56931386D01*
X135940400Y-57771693D01*
X135940400Y-58612000D01*
X135686400Y-58612000D01*
X135432400Y-58612000D01*
X135432400Y-57760363D01*
X135432399Y-56908726D01*
X134695799Y-55774175D01*
X134499839Y-55470689D01*
X134323496Y-55194409D01*
X134174017Y-54956943D01*
X134058647Y-54769902D01*
X133984631Y-54644898D01*
X133959199Y-54593812D01*
X134005109Y-54568599D01*
X134123414Y-54551959D01*
X134235445Y-54548000D01*
X134511690Y-54548000D01*
X135086345Y-55459000D01*
X135267904Y-55741627D01*
X135427448Y-55979856D01*
X135557747Y-56163573D01*
X135651571Y-56282662D01*
X135701687Y-56327007D01*
X135706010Y-56325849D01*
X135745956Y-56270983D01*
X135830927Y-56143911D01*
X135951913Y-55958463D01*
X136099901Y-55728471D01*
X136265879Y-55467766D01*
X136291338Y-55427549D01*
X136831656Y-54573400D01*
X137122628Y-54558164D01*
X137279070Y-54554444D01*
X137384695Y-54560491D01*
X137413600Y-54571245D01*
X137413600Y-54571245D01*
X137413600Y-54571245D01*
G37*
X137413600Y-54571245D02*
X137387530Y-54619963D01*
X137313997Y-54743073D01*
X137200013Y-54929205D01*
X137052590Y-55166992D01*
X136878741Y-55445064D01*
X136685478Y-55752052D01*
X136677000Y-55765473D01*
X135940400Y-56931386D01*
X135940400Y-57771693D01*
X135940400Y-58612000D01*
X135686400Y-58612000D01*
X135432400Y-58612000D01*
X135432400Y-57760363D01*
X135432399Y-56908726D01*
X134695799Y-55774175D01*
X134499839Y-55470689D01*
X134323496Y-55194409D01*
X134174017Y-54956943D01*
X134058647Y-54769902D01*
X133984631Y-54644898D01*
X133959199Y-54593812D01*
X134005109Y-54568599D01*
X134123414Y-54551959D01*
X134235445Y-54548000D01*
X134511690Y-54548000D01*
X135086345Y-55459000D01*
X135267904Y-55741627D01*
X135427448Y-55979856D01*
X135557747Y-56163573D01*
X135651571Y-56282662D01*
X135701687Y-56327007D01*
X135706010Y-56325849D01*
X135745956Y-56270983D01*
X135830927Y-56143911D01*
X135951913Y-55958463D01*
X136099901Y-55728471D01*
X136265879Y-55467766D01*
X136291338Y-55427549D01*
X136831656Y-54573400D01*
X137122628Y-54558164D01*
X137279070Y-54554444D01*
X137384695Y-54560491D01*
X137413600Y-54571245D01*
X137413600Y-54571245D01*
G36*
X141630000Y-55005200D02*
X140995000Y-55005200D01*
X140360000Y-55005200D01*
X140360000Y-56808600D01*
X140360000Y-58612000D01*
X140106000Y-58612000D01*
X139852000Y-58612000D01*
X139852000Y-56808600D01*
X139852000Y-55005200D01*
X139191600Y-55005200D01*
X138531200Y-55005200D01*
X138531200Y-54776600D01*
X138531200Y-54548000D01*
X140080600Y-54548000D01*
X141630000Y-54548000D01*
X141630000Y-54776600D01*
X141630000Y-55005200D01*
X141630000Y-55005200D01*
X141630000Y-55005200D01*
G37*
X141630000Y-55005200D02*
X140995000Y-55005200D01*
X140360000Y-55005200D01*
X140360000Y-56808600D01*
X140360000Y-58612000D01*
X140106000Y-58612000D01*
X139852000Y-58612000D01*
X139852000Y-56808600D01*
X139852000Y-55005200D01*
X139191600Y-55005200D01*
X138531200Y-55005200D01*
X138531200Y-54776600D01*
X138531200Y-54548000D01*
X140080600Y-54548000D01*
X141630000Y-54548000D01*
X141630000Y-54776600D01*
X141630000Y-55005200D01*
X141630000Y-55005200D01*
G36*
X143712800Y-58612000D02*
X143458800Y-58612000D01*
X143204800Y-58612000D01*
X143204800Y-56580000D01*
X143204800Y-54548000D01*
X143458800Y-54548000D01*
X143712800Y-54548000D01*
X143712800Y-56580000D01*
X143712800Y-58612000D01*
X143712800Y-58612000D01*
X143712800Y-58612000D01*
G37*
X143712800Y-58612000D02*
X143458800Y-58612000D01*
X143204800Y-58612000D01*
X143204800Y-56580000D01*
X143204800Y-54548000D01*
X143458800Y-54548000D01*
X143712800Y-54548000D01*
X143712800Y-56580000D01*
X143712800Y-58612000D01*
X143712800Y-58612000D01*
G36*
X148451864Y-57291200D02*
X148422936Y-57673692D01*
X148380541Y-57980085D01*
X148300524Y-58206683D01*
X148173725Y-58371219D01*
X148003985Y-58485000D01*
X147912644Y-58524568D01*
X147807888Y-58553157D01*
X147671013Y-58572846D01*
X147483316Y-58585719D01*
X147226092Y-58593856D01*
X146989400Y-58597923D01*
X146625531Y-58599549D01*
X146347485Y-58592332D01*
X146139789Y-58575349D01*
X145986976Y-58547674D01*
X145944105Y-58535453D01*
X145728190Y-58436730D01*
X145571188Y-58289621D01*
X145466870Y-58082101D01*
X145409004Y-57802144D01*
X145391429Y-57468664D01*
X145402049Y-57144002D01*
X145440974Y-56899364D01*
X145512699Y-56716004D01*
X145600578Y-56596694D01*
X145680495Y-56527514D01*
X145785319Y-56471600D01*
X145929480Y-56425593D01*
X146127410Y-56386136D01*
X146393539Y-56349871D01*
X146742299Y-56313439D01*
X146868351Y-56301686D01*
X147208506Y-56268259D01*
X147461240Y-56234398D01*
X147640532Y-56193219D01*
X147760355Y-56137835D01*
X147834685Y-56061361D01*
X147877499Y-55956910D01*
X147902771Y-55817598D01*
X147906285Y-55790301D01*
X147921461Y-55503770D01*
X147879822Y-55288756D01*
X147772571Y-55136027D01*
X147590909Y-55036351D01*
X147326041Y-54980495D01*
X147118888Y-54963950D01*
X146720015Y-54958094D01*
X146415605Y-54983476D01*
X146203338Y-55040420D01*
X146100400Y-55106800D01*
X146034882Y-55214502D01*
X145983014Y-55372222D01*
X145971293Y-55433338D01*
X145936463Y-55665600D01*
X145682378Y-55665600D01*
X145428293Y-55665600D01*
X145463710Y-55373500D01*
X145528293Y-55073381D01*
X145643315Y-54852111D01*
X145815773Y-54696692D01*
X145834029Y-54685679D01*
X146009489Y-54619167D01*
X146260408Y-54571144D01*
X146562293Y-54541862D01*
X146890652Y-54531573D01*
X147220993Y-54540529D01*
X147528824Y-54568981D01*
X147789654Y-54617183D01*
X147934135Y-54664062D01*
X148124948Y-54777547D01*
X148259083Y-54939741D01*
X148342626Y-55163908D01*
X148381665Y-55463309D01*
X148386400Y-55649412D01*
X148368309Y-55959764D01*
X148307897Y-56208363D01*
X148195957Y-56402315D01*
X148023279Y-56548721D01*
X147780657Y-56654687D01*
X147458880Y-56727317D01*
X147048742Y-56773714D01*
X146917087Y-56782954D01*
X146649527Y-56803728D01*
X146407957Y-56829645D01*
X146215964Y-56857676D01*
X146097132Y-56884794D01*
X146084144Y-56889876D01*
X145981484Y-56962078D01*
X145916576Y-57078320D01*
X145883476Y-57256890D01*
X145876242Y-57516076D01*
X145876416Y-57529080D01*
X145905952Y-57806256D01*
X145987101Y-58000018D01*
X146122822Y-58116144D01*
X146189942Y-58141293D01*
X146310879Y-58159328D01*
X146505503Y-58171566D01*
X146746067Y-58178025D01*
X147004825Y-58178725D01*
X147254030Y-58173684D01*
X147465936Y-58162922D01*
X147612796Y-58146458D01*
X147640447Y-58140291D01*
X147775421Y-58052229D01*
X147872106Y-57883225D01*
X147923111Y-57649124D01*
X147929200Y-57521431D01*
X147929200Y-57291200D01*
X148190532Y-57291200D01*
X148451864Y-57291200D01*
X148451864Y-57291200D01*
X148451864Y-57291200D01*
G37*
X148451864Y-57291200D02*
X148422936Y-57673692D01*
X148380541Y-57980085D01*
X148300524Y-58206683D01*
X148173725Y-58371219D01*
X148003985Y-58485000D01*
X147912644Y-58524568D01*
X147807888Y-58553157D01*
X147671013Y-58572846D01*
X147483316Y-58585719D01*
X147226092Y-58593856D01*
X146989400Y-58597923D01*
X146625531Y-58599549D01*
X146347485Y-58592332D01*
X146139789Y-58575349D01*
X145986976Y-58547674D01*
X145944105Y-58535453D01*
X145728190Y-58436730D01*
X145571188Y-58289621D01*
X145466870Y-58082101D01*
X145409004Y-57802144D01*
X145391429Y-57468664D01*
X145402049Y-57144002D01*
X145440974Y-56899364D01*
X145512699Y-56716004D01*
X145600578Y-56596694D01*
X145680495Y-56527514D01*
X145785319Y-56471600D01*
X145929480Y-56425593D01*
X146127410Y-56386136D01*
X146393539Y-56349871D01*
X146742299Y-56313439D01*
X146868351Y-56301686D01*
X147208506Y-56268259D01*
X147461240Y-56234398D01*
X147640532Y-56193219D01*
X147760355Y-56137835D01*
X147834685Y-56061361D01*
X147877499Y-55956910D01*
X147902771Y-55817598D01*
X147906285Y-55790301D01*
X147921461Y-55503770D01*
X147879822Y-55288756D01*
X147772571Y-55136027D01*
X147590909Y-55036351D01*
X147326041Y-54980495D01*
X147118888Y-54963950D01*
X146720015Y-54958094D01*
X146415605Y-54983476D01*
X146203338Y-55040420D01*
X146100400Y-55106800D01*
X146034882Y-55214502D01*
X145983014Y-55372222D01*
X145971293Y-55433338D01*
X145936463Y-55665600D01*
X145682378Y-55665600D01*
X145428293Y-55665600D01*
X145463710Y-55373500D01*
X145528293Y-55073381D01*
X145643315Y-54852111D01*
X145815773Y-54696692D01*
X145834029Y-54685679D01*
X146009489Y-54619167D01*
X146260408Y-54571144D01*
X146562293Y-54541862D01*
X146890652Y-54531573D01*
X147220993Y-54540529D01*
X147528824Y-54568981D01*
X147789654Y-54617183D01*
X147934135Y-54664062D01*
X148124948Y-54777547D01*
X148259083Y-54939741D01*
X148342626Y-55163908D01*
X148381665Y-55463309D01*
X148386400Y-55649412D01*
X148368309Y-55959764D01*
X148307897Y-56208363D01*
X148195957Y-56402315D01*
X148023279Y-56548721D01*
X147780657Y-56654687D01*
X147458880Y-56727317D01*
X147048742Y-56773714D01*
X146917087Y-56782954D01*
X146649527Y-56803728D01*
X146407957Y-56829645D01*
X146215964Y-56857676D01*
X146097132Y-56884794D01*
X146084144Y-56889876D01*
X145981484Y-56962078D01*
X145916576Y-57078320D01*
X145883476Y-57256890D01*
X145876242Y-57516076D01*
X145876416Y-57529080D01*
X145905952Y-57806256D01*
X145987101Y-58000018D01*
X146122822Y-58116144D01*
X146189942Y-58141293D01*
X146310879Y-58159328D01*
X146505503Y-58171566D01*
X146746067Y-58178025D01*
X147004825Y-58178725D01*
X147254030Y-58173684D01*
X147465936Y-58162922D01*
X147612796Y-58146458D01*
X147640447Y-58140291D01*
X147775421Y-58052229D01*
X147872106Y-57883225D01*
X147923111Y-57649124D01*
X147929200Y-57521431D01*
X147929200Y-57291200D01*
X148190532Y-57291200D01*
X148451864Y-57291200D01*
X148451864Y-57291200D01*
G36*
X153161600Y-58612000D02*
X152907600Y-58612000D01*
X152653600Y-58612000D01*
X152653600Y-57799200D01*
X152653600Y-56986400D01*
X152653600Y-56529200D01*
X152653600Y-55767200D01*
X152653600Y-55005200D01*
X151793307Y-55005200D01*
X151498672Y-55007990D01*
X151231791Y-55015709D01*
X151012606Y-55027380D01*
X150861060Y-55042027D01*
X150805795Y-55053568D01*
X150693469Y-55120784D01*
X150616655Y-55233651D01*
X150567627Y-55410306D01*
X150538659Y-55668887D01*
X150537690Y-55682935D01*
X150530073Y-55905581D01*
X150546220Y-56064013D01*
X150590585Y-56193768D01*
X150605458Y-56223693D01*
X150666845Y-56327043D01*
X150738208Y-56404060D01*
X150834619Y-56458580D01*
X150971148Y-56494439D01*
X151162865Y-56515473D01*
X151424842Y-56525520D01*
X151772149Y-56528414D01*
X151802700Y-56528451D01*
X152653600Y-56529200D01*
X152653600Y-56986400D01*
X151838277Y-56986400D01*
X151457047Y-56989520D01*
X151164922Y-57005685D01*
X150949445Y-57045101D01*
X150798160Y-57117974D01*
X150698611Y-57234512D01*
X150638343Y-57404920D01*
X150604899Y-57639404D01*
X150585824Y-57948171D01*
X150582838Y-58015100D01*
X150556853Y-58612000D01*
X150335226Y-58612000D01*
X150113600Y-58612000D01*
X150113789Y-57913500D01*
X150120269Y-57562583D01*
X150142480Y-57298321D01*
X150184902Y-57106392D01*
X150252018Y-56972473D01*
X150348309Y-56882245D01*
X150452631Y-56830642D01*
X150588416Y-56779016D01*
X150414508Y-56692208D01*
X150262003Y-56586338D01*
X150157070Y-56436306D01*
X150093624Y-56226451D01*
X150065575Y-55941108D01*
X150062878Y-55787480D01*
X150074359Y-55456329D01*
X150112126Y-55204512D01*
X150180972Y-55012060D01*
X150285688Y-54859007D01*
X150285736Y-54858952D01*
X150366674Y-54776127D01*
X150454099Y-54711024D01*
X150561180Y-54661266D01*
X150701085Y-54624480D01*
X150886982Y-54598290D01*
X151132038Y-54580321D01*
X151449421Y-54568198D01*
X151852300Y-54559546D01*
X151955100Y-54557850D01*
X153161600Y-54538633D01*
X153161600Y-56575316D01*
X153161600Y-58612000D01*
X153161600Y-58612000D01*
X153161600Y-58612000D01*
G37*
X153161600Y-58612000D02*
X152907600Y-58612000D01*
X152653600Y-58612000D01*
X152653600Y-57799200D01*
X152653600Y-56986400D01*
X152653600Y-56529200D01*
X152653600Y-55767200D01*
X152653600Y-55005200D01*
X151793307Y-55005200D01*
X151498672Y-55007990D01*
X151231791Y-55015709D01*
X151012606Y-55027380D01*
X150861060Y-55042027D01*
X150805795Y-55053568D01*
X150693469Y-55120784D01*
X150616655Y-55233651D01*
X150567627Y-55410306D01*
X150538659Y-55668887D01*
X150537690Y-55682935D01*
X150530073Y-55905581D01*
X150546220Y-56064013D01*
X150590585Y-56193768D01*
X150605458Y-56223693D01*
X150666845Y-56327043D01*
X150738208Y-56404060D01*
X150834619Y-56458580D01*
X150971148Y-56494439D01*
X151162865Y-56515473D01*
X151424842Y-56525520D01*
X151772149Y-56528414D01*
X151802700Y-56528451D01*
X152653600Y-56529200D01*
X152653600Y-56986400D01*
X151838277Y-56986400D01*
X151457047Y-56989520D01*
X151164922Y-57005685D01*
X150949445Y-57045101D01*
X150798160Y-57117974D01*
X150698611Y-57234512D01*
X150638343Y-57404920D01*
X150604899Y-57639404D01*
X150585824Y-57948171D01*
X150582838Y-58015100D01*
X150556853Y-58612000D01*
X150335226Y-58612000D01*
X150113600Y-58612000D01*
X150113789Y-57913500D01*
X150120269Y-57562583D01*
X150142480Y-57298321D01*
X150184902Y-57106392D01*
X150252018Y-56972473D01*
X150348309Y-56882245D01*
X150452631Y-56830642D01*
X150588416Y-56779016D01*
X150414508Y-56692208D01*
X150262003Y-56586338D01*
X150157070Y-56436306D01*
X150093624Y-56226451D01*
X150065575Y-55941108D01*
X150062878Y-55787480D01*
X150074359Y-55456329D01*
X150112126Y-55204512D01*
X150180972Y-55012060D01*
X150285688Y-54859007D01*
X150285736Y-54858952D01*
X150366674Y-54776127D01*
X150454099Y-54711024D01*
X150561180Y-54661266D01*
X150701085Y-54624480D01*
X150886982Y-54598290D01*
X151132038Y-54580321D01*
X151449421Y-54568198D01*
X151852300Y-54559546D01*
X151955100Y-54557850D01*
X153161600Y-54538633D01*
X153161600Y-56575316D01*
X153161600Y-58612000D01*
X153161600Y-58612000D01*
G36*
X157479600Y-58612000D02*
X156184200Y-58612000D01*
X154888800Y-58612000D01*
X154888800Y-58383400D01*
X154888800Y-58154800D01*
X155930200Y-58154800D01*
X156971600Y-58154800D01*
X156971600Y-57443600D01*
X156971600Y-56732400D01*
X155981000Y-56732400D01*
X154990400Y-56732400D01*
X154990400Y-56503800D01*
X154990400Y-56275200D01*
X155981000Y-56275200D01*
X156971600Y-56275200D01*
X156971600Y-55640200D01*
X156971600Y-55005200D01*
X155930200Y-55005200D01*
X154888800Y-55005200D01*
X154888800Y-54776600D01*
X154888800Y-54548000D01*
X156184200Y-54548000D01*
X157479600Y-54548000D01*
X157479600Y-56580000D01*
X157479600Y-58612000D01*
X157479600Y-58612000D01*
X157479600Y-58612000D01*
G37*
X157479600Y-58612000D02*
X156184200Y-58612000D01*
X154888800Y-58612000D01*
X154888800Y-58383400D01*
X154888800Y-58154800D01*
X155930200Y-58154800D01*
X156971600Y-58154800D01*
X156971600Y-57443600D01*
X156971600Y-56732400D01*
X155981000Y-56732400D01*
X154990400Y-56732400D01*
X154990400Y-56503800D01*
X154990400Y-56275200D01*
X155981000Y-56275200D01*
X156971600Y-56275200D01*
X156971600Y-55640200D01*
X156971600Y-55005200D01*
X155930200Y-55005200D01*
X154888800Y-55005200D01*
X154888800Y-54776600D01*
X154888800Y-54548000D01*
X156184200Y-54548000D01*
X157479600Y-54548000D01*
X157479600Y-56580000D01*
X157479600Y-58612000D01*
X157479600Y-58612000D01*
G36*
X162356400Y-54568807D02*
X162339881Y-54620917D01*
X162292828Y-54758006D01*
X162218995Y-54969412D01*
X162122138Y-55244477D01*
X162006012Y-55572539D01*
X161874371Y-55942937D01*
X161730971Y-56345012D01*
X161715768Y-56387562D01*
X161567692Y-56802047D01*
X161427642Y-57194319D01*
X161299971Y-57552171D01*
X161189030Y-57863394D01*
X161099170Y-58115782D01*
X161034742Y-58297126D01*
X161000100Y-58395219D01*
X160999792Y-58396100D01*
X160924449Y-58612000D01*
X160585715Y-58612000D01*
X160246981Y-58612000D01*
X159549090Y-56641120D01*
X159398519Y-56214456D01*
X159259101Y-55816616D01*
X159134409Y-55457999D01*
X159028014Y-55149004D01*
X158943487Y-54900027D01*
X158884400Y-54721469D01*
X158854324Y-54623728D01*
X158851200Y-54609120D01*
X158899611Y-54568275D01*
X159039125Y-54549175D01*
X159099764Y-54548000D01*
X159263679Y-54557870D01*
X159352140Y-54592651D01*
X159382750Y-54636900D01*
X159417296Y-54731750D01*
X159479071Y-54907029D01*
X159562922Y-55147710D01*
X159663699Y-55438767D01*
X159776249Y-55765174D01*
X159895422Y-56111906D01*
X160016067Y-56463937D01*
X160133031Y-56806242D01*
X160241164Y-57123794D01*
X160335315Y-57401569D01*
X160410331Y-57624539D01*
X160461061Y-57777680D01*
X160479963Y-57837300D01*
X160524452Y-57967205D01*
X160562562Y-58043741D01*
X160573741Y-58052466D01*
X160596819Y-58006076D01*
X160649251Y-57874373D01*
X160727112Y-57668038D01*
X160826474Y-57397752D01*
X160943411Y-57074196D01*
X161073995Y-56708051D01*
X161213400Y-56312566D01*
X161823000Y-54573400D01*
X162089700Y-54558045D01*
X162238558Y-54553951D01*
X162335367Y-54559880D01*
X162356400Y-54568807D01*
X162356400Y-54568807D01*
X162356400Y-54568807D01*
G37*
X162356400Y-54568807D02*
X162339881Y-54620917D01*
X162292828Y-54758006D01*
X162218995Y-54969412D01*
X162122138Y-55244477D01*
X162006012Y-55572539D01*
X161874371Y-55942937D01*
X161730971Y-56345012D01*
X161715768Y-56387562D01*
X161567692Y-56802047D01*
X161427642Y-57194319D01*
X161299971Y-57552171D01*
X161189030Y-57863394D01*
X161099170Y-58115782D01*
X161034742Y-58297126D01*
X161000100Y-58395219D01*
X160999792Y-58396100D01*
X160924449Y-58612000D01*
X160585715Y-58612000D01*
X160246981Y-58612000D01*
X159549090Y-56641120D01*
X159398519Y-56214456D01*
X159259101Y-55816616D01*
X159134409Y-55457999D01*
X159028014Y-55149004D01*
X158943487Y-54900027D01*
X158884400Y-54721469D01*
X158854324Y-54623728D01*
X158851200Y-54609120D01*
X158899611Y-54568275D01*
X159039125Y-54549175D01*
X159099764Y-54548000D01*
X159263679Y-54557870D01*
X159352140Y-54592651D01*
X159382750Y-54636900D01*
X159417296Y-54731750D01*
X159479071Y-54907029D01*
X159562922Y-55147710D01*
X159663699Y-55438767D01*
X159776249Y-55765174D01*
X159895422Y-56111906D01*
X160016067Y-56463937D01*
X160133031Y-56806242D01*
X160241164Y-57123794D01*
X160335315Y-57401569D01*
X160410331Y-57624539D01*
X160461061Y-57777680D01*
X160479963Y-57837300D01*
X160524452Y-57967205D01*
X160562562Y-58043741D01*
X160573741Y-58052466D01*
X160596819Y-58006076D01*
X160649251Y-57874373D01*
X160727112Y-57668038D01*
X160826474Y-57397752D01*
X160943411Y-57074196D01*
X161073995Y-56708051D01*
X161213400Y-56312566D01*
X161823000Y-54573400D01*
X162089700Y-54558045D01*
X162238558Y-54553951D01*
X162335367Y-54559880D01*
X162356400Y-54568807D01*
X162356400Y-54568807D01*
G36*
X164337600Y-58612000D02*
X164109000Y-58612000D01*
X163880400Y-58612000D01*
X163880400Y-56580000D01*
X163880400Y-54548000D01*
X164109000Y-54548000D01*
X164337600Y-54548000D01*
X164337600Y-56580000D01*
X164337600Y-58612000D01*
X164337600Y-58612000D01*
X164337600Y-58612000D01*
G37*
X164337600Y-58612000D02*
X164109000Y-58612000D01*
X163880400Y-58612000D01*
X163880400Y-56580000D01*
X163880400Y-54548000D01*
X164109000Y-54548000D01*
X164337600Y-54548000D01*
X164337600Y-56580000D01*
X164337600Y-58612000D01*
X164337600Y-58612000D01*
G36*
X169722400Y-58612000D02*
X169469058Y-58612000D01*
X169215716Y-58612000D01*
X169202358Y-56864168D01*
X169189000Y-55116336D01*
X168122200Y-56862229D01*
X167055400Y-58608122D01*
X166661700Y-58610061D01*
X166268000Y-58612000D01*
X166268000Y-56580000D01*
X166268000Y-54548000D01*
X166521341Y-54548000D01*
X166774683Y-54548000D01*
X166788041Y-56299946D01*
X166801400Y-58051892D01*
X167868200Y-56301256D01*
X168935000Y-54550621D01*
X169328700Y-54549310D01*
X169722400Y-54548000D01*
X169722400Y-56580000D01*
X169722400Y-58612000D01*
X169722400Y-58612000D01*
X169722400Y-58612000D01*
G37*
X169722400Y-58612000D02*
X169469058Y-58612000D01*
X169215716Y-58612000D01*
X169202358Y-56864168D01*
X169189000Y-55116336D01*
X168122200Y-56862229D01*
X167055400Y-58608122D01*
X166661700Y-58610061D01*
X166268000Y-58612000D01*
X166268000Y-56580000D01*
X166268000Y-54548000D01*
X166521341Y-54548000D01*
X166774683Y-54548000D01*
X166788041Y-56299946D01*
X166801400Y-58051892D01*
X167868200Y-56301256D01*
X168935000Y-54550621D01*
X169328700Y-54549310D01*
X169722400Y-54548000D01*
X169722400Y-56580000D01*
X169722400Y-58612000D01*
X169722400Y-58612000D01*
G36*
X141350600Y-51550800D02*
X141347388Y-52035354D01*
X141335413Y-52429235D01*
X141311169Y-52743230D01*
X141271146Y-52988131D01*
X141211838Y-53174726D01*
X141129736Y-53313806D01*
X141021332Y-53416160D01*
X140883118Y-53492577D01*
X140711587Y-53553847D01*
X140698063Y-53557901D01*
X140502690Y-53598406D01*
X140235365Y-53630144D01*
X139925467Y-53651730D01*
X139602374Y-53661779D01*
X139295467Y-53658906D01*
X139034123Y-53641726D01*
X139001140Y-53637888D01*
X138684428Y-53579953D01*
X138453444Y-53492254D01*
X138294867Y-53367656D01*
X138198958Y-53208121D01*
X138152647Y-53046906D01*
X138109718Y-52817365D01*
X138073490Y-52550444D01*
X138047284Y-52277091D01*
X138034420Y-52028251D01*
X138038217Y-51834871D01*
X138045525Y-51777923D01*
X138078603Y-51601600D01*
X138939901Y-51601600D01*
X139801200Y-51601600D01*
X139801200Y-51804800D01*
X139801200Y-52008000D01*
X139159829Y-52008000D01*
X138518459Y-52008000D01*
X138541184Y-52440969D01*
X138563230Y-52699745D01*
X138606832Y-52896655D01*
X138684204Y-53039376D01*
X138807557Y-53135583D01*
X138989107Y-53192954D01*
X139241066Y-53219164D01*
X139575648Y-53221889D01*
X139775800Y-53216903D01*
X140088196Y-53204993D01*
X140336173Y-53183724D01*
X140527170Y-53142346D01*
X140668624Y-53070111D01*
X140767971Y-52956269D01*
X140832651Y-52790068D01*
X140870100Y-52560761D01*
X140887755Y-52257597D01*
X140893056Y-51869826D01*
X140893400Y-51601600D01*
X140891440Y-51164759D01*
X140881366Y-50818437D01*
X140856885Y-50551569D01*
X140811702Y-50353090D01*
X140739524Y-50211935D01*
X140634058Y-50117039D01*
X140489010Y-50057338D01*
X140298087Y-50021766D01*
X140054995Y-49999259D01*
X139979000Y-49993945D01*
X139710785Y-49987233D01*
X139411199Y-49996925D01*
X139166907Y-50018532D01*
X138915952Y-50061476D01*
X138747380Y-50124272D01*
X138642041Y-50223110D01*
X138580786Y-50374177D01*
X138551255Y-50538946D01*
X138518110Y-50788800D01*
X138296055Y-50788800D01*
X138074000Y-50788800D01*
X138074000Y-50494763D01*
X138105347Y-50199955D01*
X138188300Y-49977312D01*
X138258668Y-49857432D01*
X138340745Y-49765523D01*
X138448319Y-49697926D01*
X138595181Y-49650982D01*
X138795117Y-49621032D01*
X139061918Y-49604416D01*
X139409372Y-49597476D01*
X139623400Y-49596481D01*
X139951405Y-49596574D01*
X140196224Y-49599421D01*
X140376268Y-49607049D01*
X140509948Y-49621483D01*
X140615675Y-49644750D01*
X140711860Y-49678875D01*
X140816913Y-49725886D01*
X140822330Y-49728423D01*
X140998485Y-49822279D01*
X141113359Y-49921193D01*
X141203097Y-50059050D01*
X141228730Y-50109423D01*
X141267429Y-50191739D01*
X141296932Y-50270906D01*
X141318484Y-50361661D01*
X141333332Y-50478740D01*
X141342721Y-50636878D01*
X141347898Y-50850812D01*
X141350108Y-51135277D01*
X141350597Y-51505009D01*
X141350600Y-51550800D01*
X141350600Y-51550800D01*
X141350600Y-51550800D01*
G37*
X141350600Y-51550800D02*
X141347388Y-52035354D01*
X141335413Y-52429235D01*
X141311169Y-52743230D01*
X141271146Y-52988131D01*
X141211838Y-53174726D01*
X141129736Y-53313806D01*
X141021332Y-53416160D01*
X140883118Y-53492577D01*
X140711587Y-53553847D01*
X140698063Y-53557901D01*
X140502690Y-53598406D01*
X140235365Y-53630144D01*
X139925467Y-53651730D01*
X139602374Y-53661779D01*
X139295467Y-53658906D01*
X139034123Y-53641726D01*
X139001140Y-53637888D01*
X138684428Y-53579953D01*
X138453444Y-53492254D01*
X138294867Y-53367656D01*
X138198958Y-53208121D01*
X138152647Y-53046906D01*
X138109718Y-52817365D01*
X138073490Y-52550444D01*
X138047284Y-52277091D01*
X138034420Y-52028251D01*
X138038217Y-51834871D01*
X138045525Y-51777923D01*
X138078603Y-51601600D01*
X138939901Y-51601600D01*
X139801200Y-51601600D01*
X139801200Y-51804800D01*
X139801200Y-52008000D01*
X139159829Y-52008000D01*
X138518459Y-52008000D01*
X138541184Y-52440969D01*
X138563230Y-52699745D01*
X138606832Y-52896655D01*
X138684204Y-53039376D01*
X138807557Y-53135583D01*
X138989107Y-53192954D01*
X139241066Y-53219164D01*
X139575648Y-53221889D01*
X139775800Y-53216903D01*
X140088196Y-53204993D01*
X140336173Y-53183724D01*
X140527170Y-53142346D01*
X140668624Y-53070111D01*
X140767971Y-52956269D01*
X140832651Y-52790068D01*
X140870100Y-52560761D01*
X140887755Y-52257597D01*
X140893056Y-51869826D01*
X140893400Y-51601600D01*
X140891440Y-51164759D01*
X140881366Y-50818437D01*
X140856885Y-50551569D01*
X140811702Y-50353090D01*
X140739524Y-50211935D01*
X140634058Y-50117039D01*
X140489010Y-50057338D01*
X140298087Y-50021766D01*
X140054995Y-49999259D01*
X139979000Y-49993945D01*
X139710785Y-49987233D01*
X139411199Y-49996925D01*
X139166907Y-50018532D01*
X138915952Y-50061476D01*
X138747380Y-50124272D01*
X138642041Y-50223110D01*
X138580786Y-50374177D01*
X138551255Y-50538946D01*
X138518110Y-50788800D01*
X138296055Y-50788800D01*
X138074000Y-50788800D01*
X138074000Y-50494763D01*
X138105347Y-50199955D01*
X138188300Y-49977312D01*
X138258668Y-49857432D01*
X138340745Y-49765523D01*
X138448319Y-49697926D01*
X138595181Y-49650982D01*
X138795117Y-49621032D01*
X139061918Y-49604416D01*
X139409372Y-49597476D01*
X139623400Y-49596481D01*
X139951405Y-49596574D01*
X140196224Y-49599421D01*
X140376268Y-49607049D01*
X140509948Y-49621483D01*
X140615675Y-49644750D01*
X140711860Y-49678875D01*
X140816913Y-49725886D01*
X140822330Y-49728423D01*
X140998485Y-49822279D01*
X141113359Y-49921193D01*
X141203097Y-50059050D01*
X141228730Y-50109423D01*
X141267429Y-50191739D01*
X141296932Y-50270906D01*
X141318484Y-50361661D01*
X141333332Y-50478740D01*
X141342721Y-50636878D01*
X141347898Y-50850812D01*
X141350108Y-51135277D01*
X141350597Y-51505009D01*
X141350600Y-51550800D01*
X141350600Y-51550800D01*
G36*
X136499200Y-53633600D02*
X135203800Y-53633600D01*
X133908400Y-53633600D01*
X133908400Y-53405000D01*
X133908400Y-53176400D01*
X134949800Y-53176400D01*
X135991200Y-53176400D01*
X135991200Y-52465200D01*
X135991200Y-51754000D01*
X134975200Y-51754000D01*
X133959200Y-51754000D01*
X133959200Y-51550800D01*
X133959200Y-51347600D01*
X134975200Y-51347600D01*
X135991200Y-51347600D01*
X135991200Y-50687200D01*
X135991200Y-50026800D01*
X134949800Y-50026800D01*
X133908400Y-50026800D01*
X133908400Y-49798200D01*
X133908400Y-49569600D01*
X135203800Y-49569600D01*
X136499200Y-49569600D01*
X136499200Y-51601600D01*
X136499200Y-53633600D01*
X136499200Y-53633600D01*
X136499200Y-53633600D01*
G37*
X136499200Y-53633600D02*
X135203800Y-53633600D01*
X133908400Y-53633600D01*
X133908400Y-53405000D01*
X133908400Y-53176400D01*
X134949800Y-53176400D01*
X135991200Y-53176400D01*
X135991200Y-52465200D01*
X135991200Y-51754000D01*
X134975200Y-51754000D01*
X133959200Y-51754000D01*
X133959200Y-51550800D01*
X133959200Y-51347600D01*
X134975200Y-51347600D01*
X135991200Y-51347600D01*
X135991200Y-50687200D01*
X135991200Y-50026800D01*
X134949800Y-50026800D01*
X133908400Y-50026800D01*
X133908400Y-49798200D01*
X133908400Y-49569600D01*
X135203800Y-49569600D01*
X136499200Y-49569600D01*
X136499200Y-51601600D01*
X136499200Y-53633600D01*
X136499200Y-53633600D01*
G36*
X146354400Y-53633600D02*
X145846400Y-53631291D01*
X145846400Y-53176400D01*
X145846400Y-51601600D01*
X145846400Y-50026800D01*
X145020900Y-50027083D01*
X144611840Y-50031767D01*
X144291446Y-50048551D01*
X144047063Y-50082000D01*
X143866035Y-50136682D01*
X143735709Y-50217163D01*
X143643428Y-50328010D01*
X143576540Y-50473788D01*
X143549589Y-50558016D01*
X143526753Y-50691336D01*
X143508846Y-50902743D01*
X143496155Y-51168834D01*
X143488969Y-51466202D01*
X143487574Y-51771442D01*
X143492258Y-52061148D01*
X143503309Y-52311916D01*
X143521015Y-52500339D01*
X143525376Y-52528458D01*
X143606379Y-52775883D01*
X143747510Y-52974559D01*
X143931401Y-53102045D01*
X143983712Y-53120657D01*
X144088034Y-53136633D01*
X144272881Y-53150824D01*
X144517178Y-53162164D01*
X144799853Y-53169589D01*
X144995500Y-53171818D01*
X145846400Y-53176400D01*
X145846400Y-53631291D01*
X145198700Y-53628349D01*
X144853106Y-53624561D01*
X144530217Y-53616885D01*
X144247831Y-53606068D01*
X144023747Y-53592859D01*
X143875763Y-53578005D01*
X143839800Y-53571258D01*
X143606581Y-53486724D01*
X143417047Y-53358165D01*
X143267753Y-53177048D01*
X143155258Y-52934838D01*
X143076118Y-52623002D01*
X143026891Y-52233008D01*
X143004133Y-51756323D01*
X143001600Y-51493811D01*
X143009145Y-51053253D01*
X143037230Y-50684873D01*
X143094025Y-50382323D01*
X143187704Y-50139255D01*
X143326436Y-49949321D01*
X143518395Y-49806172D01*
X143771752Y-49703462D01*
X144094679Y-49634840D01*
X144495347Y-49593961D01*
X144981928Y-49574474D01*
X145478100Y-49569985D01*
X146354400Y-49569600D01*
X146354400Y-51601600D01*
X146354400Y-53633600D01*
X146354400Y-53633600D01*
X146354400Y-53633600D01*
G37*
X146354400Y-53633600D02*
X145846400Y-53631291D01*
X145846400Y-53176400D01*
X145846400Y-51601600D01*
X145846400Y-50026800D01*
X145020900Y-50027083D01*
X144611840Y-50031767D01*
X144291446Y-50048551D01*
X144047063Y-50082000D01*
X143866035Y-50136682D01*
X143735709Y-50217163D01*
X143643428Y-50328010D01*
X143576540Y-50473788D01*
X143549589Y-50558016D01*
X143526753Y-50691336D01*
X143508846Y-50902743D01*
X143496155Y-51168834D01*
X143488969Y-51466202D01*
X143487574Y-51771442D01*
X143492258Y-52061148D01*
X143503309Y-52311916D01*
X143521015Y-52500339D01*
X143525376Y-52528458D01*
X143606379Y-52775883D01*
X143747510Y-52974559D01*
X143931401Y-53102045D01*
X143983712Y-53120657D01*
X144088034Y-53136633D01*
X144272881Y-53150824D01*
X144517178Y-53162164D01*
X144799853Y-53169589D01*
X144995500Y-53171818D01*
X145846400Y-53176400D01*
X145846400Y-53631291D01*
X145198700Y-53628349D01*
X144853106Y-53624561D01*
X144530217Y-53616885D01*
X144247831Y-53606068D01*
X144023747Y-53592859D01*
X143875763Y-53578005D01*
X143839800Y-53571258D01*
X143606581Y-53486724D01*
X143417047Y-53358165D01*
X143267753Y-53177048D01*
X143155258Y-52934838D01*
X143076118Y-52623002D01*
X143026891Y-52233008D01*
X143004133Y-51756323D01*
X143001600Y-51493811D01*
X143009145Y-51053253D01*
X143037230Y-50684873D01*
X143094025Y-50382323D01*
X143187704Y-50139255D01*
X143326436Y-49949321D01*
X143518395Y-49806172D01*
X143771752Y-49703462D01*
X144094679Y-49634840D01*
X144495347Y-49593961D01*
X144981928Y-49574474D01*
X145478100Y-49569985D01*
X146354400Y-49569600D01*
X146354400Y-51601600D01*
X146354400Y-53633600D01*
X146354400Y-53633600D01*
G36*
X148742000Y-53633600D02*
X148488000Y-53633600D01*
X148234000Y-53633600D01*
X148234000Y-51601600D01*
X148234000Y-49569600D01*
X148488000Y-49569600D01*
X148742000Y-49569600D01*
X148742000Y-51601600D01*
X148742000Y-53633600D01*
X148742000Y-53633600D01*
X148742000Y-53633600D01*
G37*
X148742000Y-53633600D02*
X148488000Y-53633600D01*
X148234000Y-53633600D01*
X148234000Y-51601600D01*
X148234000Y-49569600D01*
X148488000Y-49569600D01*
X148742000Y-49569600D01*
X148742000Y-51601600D01*
X148742000Y-53633600D01*
X148742000Y-53633600D01*
G36*
X153669600Y-53633600D02*
X153415600Y-53633600D01*
X153161600Y-53633600D01*
X153161600Y-52816518D01*
X153161600Y-51999436D01*
X153161600Y-51601600D01*
X153161600Y-50810086D01*
X153161600Y-50018572D01*
X152242713Y-50035386D01*
X151323827Y-50052200D01*
X151205585Y-50189766D01*
X151122280Y-50343332D01*
X151064789Y-50559367D01*
X151038080Y-50800902D01*
X151047125Y-51030966D01*
X151075279Y-51159131D01*
X151131912Y-51293350D01*
X151210738Y-51397027D01*
X151324447Y-51474081D01*
X151485731Y-51528432D01*
X151707281Y-51563999D01*
X152001789Y-51584703D01*
X152381945Y-51594464D01*
X152488500Y-51595624D01*
X153161600Y-51601600D01*
X153161600Y-51999436D01*
X152293745Y-52016418D01*
X151425891Y-52033400D01*
X151277745Y-52199301D01*
X151216283Y-52271344D01*
X151174718Y-52338640D01*
X151149157Y-52422202D01*
X151135711Y-52543044D01*
X151130489Y-52722178D01*
X151129600Y-52980619D01*
X151129600Y-52999401D01*
X151129600Y-53633600D01*
X150875600Y-53633600D01*
X150621600Y-53633600D01*
X150621600Y-52968177D01*
X150627701Y-52621511D01*
X150648895Y-52360792D01*
X150689515Y-52170937D01*
X150753895Y-52036864D01*
X150846370Y-51943491D01*
X150930204Y-51894238D01*
X151079196Y-51822078D01*
X150888585Y-51698730D01*
X150750069Y-51582981D01*
X150655526Y-51434262D01*
X150599731Y-51235390D01*
X150577460Y-50969180D01*
X150580647Y-50685951D01*
X150603725Y-50372802D01*
X150652337Y-50140117D01*
X150736228Y-49967997D01*
X150865142Y-49836540D01*
X151048825Y-49725847D01*
X151051426Y-49724551D01*
X151135883Y-49684724D01*
X151218459Y-49654077D01*
X151314050Y-49631095D01*
X151437551Y-49614259D01*
X151603856Y-49602053D01*
X151827860Y-49592959D01*
X152124457Y-49585460D01*
X152485674Y-49578456D01*
X153669600Y-49556810D01*
X153669600Y-51595205D01*
X153669600Y-53633600D01*
X153669600Y-53633600D01*
X153669600Y-53633600D01*
G37*
X153669600Y-53633600D02*
X153415600Y-53633600D01*
X153161600Y-53633600D01*
X153161600Y-52816518D01*
X153161600Y-51999436D01*
X153161600Y-51601600D01*
X153161600Y-50810086D01*
X153161600Y-50018572D01*
X152242713Y-50035386D01*
X151323827Y-50052200D01*
X151205585Y-50189766D01*
X151122280Y-50343332D01*
X151064789Y-50559367D01*
X151038080Y-50800902D01*
X151047125Y-51030966D01*
X151075279Y-51159131D01*
X151131912Y-51293350D01*
X151210738Y-51397027D01*
X151324447Y-51474081D01*
X151485731Y-51528432D01*
X151707281Y-51563999D01*
X152001789Y-51584703D01*
X152381945Y-51594464D01*
X152488500Y-51595624D01*
X153161600Y-51601600D01*
X153161600Y-51999436D01*
X152293745Y-52016418D01*
X151425891Y-52033400D01*
X151277745Y-52199301D01*
X151216283Y-52271344D01*
X151174718Y-52338640D01*
X151149157Y-52422202D01*
X151135711Y-52543044D01*
X151130489Y-52722178D01*
X151129600Y-52980619D01*
X151129600Y-52999401D01*
X151129600Y-53633600D01*
X150875600Y-53633600D01*
X150621600Y-53633600D01*
X150621600Y-52968177D01*
X150627701Y-52621511D01*
X150648895Y-52360792D01*
X150689515Y-52170937D01*
X150753895Y-52036864D01*
X150846370Y-51943491D01*
X150930204Y-51894238D01*
X151079196Y-51822078D01*
X150888585Y-51698730D01*
X150750069Y-51582981D01*
X150655526Y-51434262D01*
X150599731Y-51235390D01*
X150577460Y-50969180D01*
X150580647Y-50685951D01*
X150603725Y-50372802D01*
X150652337Y-50140117D01*
X150736228Y-49967997D01*
X150865142Y-49836540D01*
X151048825Y-49725847D01*
X151051426Y-49724551D01*
X151135883Y-49684724D01*
X151218459Y-49654077D01*
X151314050Y-49631095D01*
X151437551Y-49614259D01*
X151603856Y-49602053D01*
X151827860Y-49592959D01*
X152124457Y-49585460D01*
X152485674Y-49578456D01*
X153669600Y-49556810D01*
X153669600Y-51595205D01*
X153669600Y-53633600D01*
X153669600Y-53633600D01*
G36*
X158546400Y-53633600D02*
X158038400Y-53631262D01*
X158038400Y-53176400D01*
X158038400Y-52457204D01*
X158038400Y-51738008D01*
X158038400Y-51347600D01*
X158038400Y-50687200D01*
X158038400Y-50026800D01*
X157249368Y-50026800D01*
X156865073Y-50030266D01*
X156570968Y-50045370D01*
X156355747Y-50079173D01*
X156208104Y-50138732D01*
X156116732Y-50231109D01*
X156070325Y-50363361D01*
X156057577Y-50542549D01*
X156066513Y-50765339D01*
X156084252Y-50944824D01*
X156119884Y-51082300D01*
X156185687Y-51183446D01*
X156293939Y-51253938D01*
X156456919Y-51299455D01*
X156686905Y-51325674D01*
X156996177Y-51338272D01*
X157314500Y-51342400D01*
X158038400Y-51347600D01*
X158038400Y-51738008D01*
X157180779Y-51770387D01*
X156886361Y-51784078D01*
X156619434Y-51801279D01*
X156400053Y-51820330D01*
X156248271Y-51839569D01*
X156193268Y-51852152D01*
X156071575Y-51927162D01*
X155993881Y-52052641D01*
X155953017Y-52245879D01*
X155942057Y-52458074D01*
X155943607Y-52681180D01*
X155962090Y-52852257D01*
X156009309Y-52978233D01*
X156097067Y-53066039D01*
X156237167Y-53122605D01*
X156441413Y-53154859D01*
X156721607Y-53169732D01*
X157089554Y-53174154D01*
X157162100Y-53174366D01*
X158038400Y-53176400D01*
X158038400Y-53631262D01*
X157416100Y-53628400D01*
X157078028Y-53625253D01*
X156766237Y-53619366D01*
X156497850Y-53611299D01*
X156289996Y-53601612D01*
X156159801Y-53590867D01*
X156133400Y-53586421D01*
X155871133Y-53487867D01*
X155676203Y-53330624D01*
X155543869Y-53106921D01*
X155469388Y-52808988D01*
X155447883Y-52463263D01*
X155480833Y-52144036D01*
X155575838Y-51878040D01*
X155726260Y-51679846D01*
X155841756Y-51598800D01*
X156007312Y-51512282D01*
X155880913Y-51429462D01*
X155738079Y-51301490D01*
X155644366Y-51128102D01*
X155593597Y-50892004D01*
X155579544Y-50585600D01*
X155597457Y-50267484D01*
X155651903Y-50030195D01*
X155748503Y-49857774D01*
X155875534Y-49745261D01*
X156013536Y-49691382D01*
X156244903Y-49646463D01*
X156561735Y-49611250D01*
X156956131Y-49586492D01*
X157420187Y-49572938D01*
X157720900Y-49570502D01*
X158546400Y-49569600D01*
X158546400Y-51601600D01*
X158546400Y-53633600D01*
X158546400Y-53633600D01*
X158546400Y-53633600D01*
G37*
X158546400Y-53633600D02*
X158038400Y-53631262D01*
X158038400Y-53176400D01*
X158038400Y-52457204D01*
X158038400Y-51738008D01*
X158038400Y-51347600D01*
X158038400Y-50687200D01*
X158038400Y-50026800D01*
X157249368Y-50026800D01*
X156865073Y-50030266D01*
X156570968Y-50045370D01*
X156355747Y-50079173D01*
X156208104Y-50138732D01*
X156116732Y-50231109D01*
X156070325Y-50363361D01*
X156057577Y-50542549D01*
X156066513Y-50765339D01*
X156084252Y-50944824D01*
X156119884Y-51082300D01*
X156185687Y-51183446D01*
X156293939Y-51253938D01*
X156456919Y-51299455D01*
X156686905Y-51325674D01*
X156996177Y-51338272D01*
X157314500Y-51342400D01*
X158038400Y-51347600D01*
X158038400Y-51738008D01*
X157180779Y-51770387D01*
X156886361Y-51784078D01*
X156619434Y-51801279D01*
X156400053Y-51820330D01*
X156248271Y-51839569D01*
X156193268Y-51852152D01*
X156071575Y-51927162D01*
X155993881Y-52052641D01*
X155953017Y-52245879D01*
X155942057Y-52458074D01*
X155943607Y-52681180D01*
X155962090Y-52852257D01*
X156009309Y-52978233D01*
X156097067Y-53066039D01*
X156237167Y-53122605D01*
X156441413Y-53154859D01*
X156721607Y-53169732D01*
X157089554Y-53174154D01*
X157162100Y-53174366D01*
X158038400Y-53176400D01*
X158038400Y-53631262D01*
X157416100Y-53628400D01*
X157078028Y-53625253D01*
X156766237Y-53619366D01*
X156497850Y-53611299D01*
X156289996Y-53601612D01*
X156159801Y-53590867D01*
X156133400Y-53586421D01*
X155871133Y-53487867D01*
X155676203Y-53330624D01*
X155543869Y-53106921D01*
X155469388Y-52808988D01*
X155447883Y-52463263D01*
X155480833Y-52144036D01*
X155575838Y-51878040D01*
X155726260Y-51679846D01*
X155841756Y-51598800D01*
X156007312Y-51512282D01*
X155880913Y-51429462D01*
X155738079Y-51301490D01*
X155644366Y-51128102D01*
X155593597Y-50892004D01*
X155579544Y-50585600D01*
X155597457Y-50267484D01*
X155651903Y-50030195D01*
X155748503Y-49857774D01*
X155875534Y-49745261D01*
X156013536Y-49691382D01*
X156244903Y-49646463D01*
X156561735Y-49611250D01*
X156956131Y-49586492D01*
X157420187Y-49572938D01*
X157720900Y-49570502D01*
X158546400Y-49569600D01*
X158546400Y-51601600D01*
X158546400Y-53633600D01*
X158546400Y-53633600D01*
G36*
X164896400Y-53633600D02*
X164643066Y-53633600D01*
X164389733Y-53633600D01*
X164376366Y-51900076D01*
X164363000Y-50166552D01*
X163647194Y-51887376D01*
X162931388Y-53608200D01*
X162679786Y-53623190D01*
X162428185Y-53638181D01*
X161707860Y-51895990D01*
X160987534Y-50153800D01*
X160986167Y-51893700D01*
X160984800Y-53633600D01*
X160730800Y-53633600D01*
X160476800Y-53633600D01*
X160476800Y-51599545D01*
X160476800Y-49565491D01*
X160889665Y-49580245D01*
X161302530Y-49595000D01*
X161972200Y-51232101D01*
X162129322Y-51615251D01*
X162274693Y-51967912D01*
X162403767Y-52279195D01*
X162511998Y-52538214D01*
X162594840Y-52734081D01*
X162647747Y-52855909D01*
X162665745Y-52893078D01*
X162689871Y-52853467D01*
X162747856Y-52730171D01*
X162835201Y-52533588D01*
X162947405Y-52274113D01*
X163079970Y-51962142D01*
X163228396Y-51608072D01*
X163374307Y-51255976D01*
X164058995Y-49595000D01*
X164477697Y-49580245D01*
X164896400Y-49565491D01*
X164896400Y-51599545D01*
X164896400Y-53633600D01*
X164896400Y-53633600D01*
X164896400Y-53633600D01*
G37*
X164896400Y-53633600D02*
X164643066Y-53633600D01*
X164389733Y-53633600D01*
X164376366Y-51900076D01*
X164363000Y-50166552D01*
X163647194Y-51887376D01*
X162931388Y-53608200D01*
X162679786Y-53623190D01*
X162428185Y-53638181D01*
X161707860Y-51895990D01*
X160987534Y-50153800D01*
X160986167Y-51893700D01*
X160984800Y-53633600D01*
X160730800Y-53633600D01*
X160476800Y-53633600D01*
X160476800Y-51599545D01*
X160476800Y-49565491D01*
X160889665Y-49580245D01*
X161302530Y-49595000D01*
X161972200Y-51232101D01*
X162129322Y-51615251D01*
X162274693Y-51967912D01*
X162403767Y-52279195D01*
X162511998Y-52538214D01*
X162594840Y-52734081D01*
X162647747Y-52855909D01*
X162665745Y-52893078D01*
X162689871Y-52853467D01*
X162747856Y-52730171D01*
X162835201Y-52533588D01*
X162947405Y-52274113D01*
X163079970Y-51962142D01*
X163228396Y-51608072D01*
X163374307Y-51255976D01*
X164058995Y-49595000D01*
X164477697Y-49580245D01*
X164896400Y-49565491D01*
X164896400Y-51599545D01*
X164896400Y-53633600D01*
X164896400Y-53633600D01*
G36*
X170078000Y-53616871D02*
X170032131Y-53626189D01*
X169914235Y-53632262D01*
X169809195Y-53633600D01*
X169540391Y-53633600D01*
X169390354Y-53200767D01*
X169240318Y-52767935D01*
X169111317Y-52769731D01*
X169111317Y-52414400D01*
X169017315Y-52173100D01*
X168969988Y-52047234D01*
X168896350Y-51846051D01*
X168803822Y-51590071D01*
X168699825Y-51299812D01*
X168603290Y-51028306D01*
X168501826Y-50748825D01*
X168409887Y-50508682D01*
X168333226Y-50321857D01*
X168277596Y-50202330D01*
X168248747Y-50164082D01*
X168247968Y-50164706D01*
X168222365Y-50220625D01*
X168168823Y-50355553D01*
X168093461Y-50552776D01*
X168002399Y-50795582D01*
X167901753Y-51067256D01*
X167797644Y-51351086D01*
X167696190Y-51630358D01*
X167603509Y-51888359D01*
X167525720Y-52108376D01*
X167468942Y-52273695D01*
X167439293Y-52367604D01*
X167436400Y-52381541D01*
X167484406Y-52392481D01*
X167617259Y-52401878D01*
X167818208Y-52409074D01*
X168070505Y-52413414D01*
X168273858Y-52414400D01*
X169111317Y-52414400D01*
X169111317Y-52769731D01*
X168254165Y-52781667D01*
X167268012Y-52795400D01*
X167112040Y-53214500D01*
X166956068Y-53633600D01*
X166688947Y-53633600D01*
X166421825Y-53633600D01*
X166530788Y-53341500D01*
X166573977Y-53225942D01*
X166647925Y-53028335D01*
X166747730Y-52761766D01*
X166868492Y-52439321D01*
X167005310Y-52074086D01*
X167153282Y-51679150D01*
X167287043Y-51322200D01*
X167934336Y-49595000D01*
X168262510Y-49580139D01*
X168440578Y-49574560D01*
X168544447Y-49584112D01*
X168601329Y-49617767D01*
X168638439Y-49684498D01*
X168647711Y-49707139D01*
X168679565Y-49790509D01*
X168739892Y-49952231D01*
X168824212Y-50180063D01*
X168928047Y-50461762D01*
X169046920Y-50785086D01*
X169176350Y-51137794D01*
X169311860Y-51507642D01*
X169448971Y-51882389D01*
X169583204Y-52249792D01*
X169710081Y-52597610D01*
X169825124Y-52913599D01*
X169923854Y-53185518D01*
X170001791Y-53401124D01*
X170054459Y-53548176D01*
X170077378Y-53614431D01*
X170078000Y-53616871D01*
X170078000Y-53616871D01*
X170078000Y-53616871D01*
G37*
X170078000Y-53616871D02*
X170032131Y-53626189D01*
X169914235Y-53632262D01*
X169809195Y-53633600D01*
X169540391Y-53633600D01*
X169390354Y-53200767D01*
X169240318Y-52767935D01*
X169111317Y-52769731D01*
X169111317Y-52414400D01*
X169017315Y-52173100D01*
X168969988Y-52047234D01*
X168896350Y-51846051D01*
X168803822Y-51590071D01*
X168699825Y-51299812D01*
X168603290Y-51028306D01*
X168501826Y-50748825D01*
X168409887Y-50508682D01*
X168333226Y-50321857D01*
X168277596Y-50202330D01*
X168248747Y-50164082D01*
X168247968Y-50164706D01*
X168222365Y-50220625D01*
X168168823Y-50355553D01*
X168093461Y-50552776D01*
X168002399Y-50795582D01*
X167901753Y-51067256D01*
X167797644Y-51351086D01*
X167696190Y-51630358D01*
X167603509Y-51888359D01*
X167525720Y-52108376D01*
X167468942Y-52273695D01*
X167439293Y-52367604D01*
X167436400Y-52381541D01*
X167484406Y-52392481D01*
X167617259Y-52401878D01*
X167818208Y-52409074D01*
X168070505Y-52413414D01*
X168273858Y-52414400D01*
X169111317Y-52414400D01*
X169111317Y-52769731D01*
X168254165Y-52781667D01*
X167268012Y-52795400D01*
X167112040Y-53214500D01*
X166956068Y-53633600D01*
X166688947Y-53633600D01*
X166421825Y-53633600D01*
X166530788Y-53341500D01*
X166573977Y-53225942D01*
X166647925Y-53028335D01*
X166747730Y-52761766D01*
X166868492Y-52439321D01*
X167005310Y-52074086D01*
X167153282Y-51679150D01*
X167287043Y-51322200D01*
X167934336Y-49595000D01*
X168262510Y-49580139D01*
X168440578Y-49574560D01*
X168544447Y-49584112D01*
X168601329Y-49617767D01*
X168638439Y-49684498D01*
X168647711Y-49707139D01*
X168679565Y-49790509D01*
X168739892Y-49952231D01*
X168824212Y-50180063D01*
X168928047Y-50461762D01*
X169046920Y-50785086D01*
X169176350Y-51137794D01*
X169311860Y-51507642D01*
X169448971Y-51882389D01*
X169583204Y-52249792D01*
X169710081Y-52597610D01*
X169825124Y-52913599D01*
X169923854Y-53185518D01*
X170001791Y-53401124D01*
X170054459Y-53548176D01*
X170077378Y-53614431D01*
X170078000Y-53616871D01*
X170078000Y-53616871D01*
%LPC*%
D14*
X167600000Y-85100000D03*
X167600000Y-78100000D03*
X179000000Y-73000000D03*
X179000000Y-75000000D03*
D15*
X181100000Y-71500000D03*
X181100000Y-76500000D03*
D14*
X179000000Y-80000000D03*
X179000000Y-82000000D03*
X179000000Y-84000000D03*
X179000000Y-86000000D03*
D15*
X181100000Y-78500000D03*
X181100000Y-87500000D03*
D16*
X144800000Y-53130000D03*
X144800000Y-54400000D03*
X143530000Y-53130000D03*
X143530000Y-54400000D03*
X142260000Y-53130000D03*
X142260000Y-54400000D03*
X140990000Y-53130000D03*
X140990000Y-54400000D03*
X139720000Y-53130000D03*
X139720000Y-54400000D03*
D17*
X101200000Y-58881500D03*
X101200000Y-50118500D03*
X101200000Y-76081500D03*
X101200000Y-67318500D03*
D14*
X179000000Y-66000000D03*
X179000000Y-68000000D03*
D15*
X181100000Y-64500000D03*
X181100000Y-69500000D03*
D14*
X179000000Y-59000000D03*
X179000000Y-61000000D03*
D15*
X181100000Y-57500000D03*
X181100000Y-62500000D03*
D14*
X179000000Y-52000000D03*
X179000000Y-54000000D03*
D15*
X181100000Y-50500000D03*
X181100000Y-55500000D03*
D14*
X179000000Y-45000000D03*
X179000000Y-47000000D03*
D15*
X181100000Y-43500000D03*
X181100000Y-48500000D03*
D18*
X158500000Y-85000000D03*
D19*
X158500000Y-82500000D03*
X161000000Y-85000000D03*
X158500000Y-87500000D03*
X156000000Y-85000000D03*
X156700000Y-83200000D03*
X160300000Y-83200000D03*
X156700000Y-86800000D03*
X160300000Y-86800000D03*
D18*
X158500000Y-45000000D03*
D19*
X158500000Y-42500000D03*
X161000000Y-45000000D03*
X158500000Y-47500000D03*
X156000000Y-45000000D03*
X156700000Y-43200000D03*
X160300000Y-43200000D03*
X156700000Y-46800000D03*
X160300000Y-46800000D03*
D18*
X102500000Y-45000000D03*
D19*
X102500000Y-42500000D03*
X105000000Y-45000000D03*
X102500000Y-47500000D03*
X100000000Y-45000000D03*
X100700000Y-43200000D03*
X104300000Y-43200000D03*
X100700000Y-46800000D03*
X104300000Y-46800000D03*
D18*
X102500000Y-85000000D03*
D19*
X102500000Y-82500000D03*
X105000000Y-85000000D03*
X102500000Y-87500000D03*
X100000000Y-85000000D03*
X100700000Y-83200000D03*
X104300000Y-83200000D03*
X100700000Y-86800000D03*
X104300000Y-86800000D03*
M02*
