M48
;DRILL file {kicad 0.201502231246+5447~21~ubuntu14.04.1-product} date Wed 06 May 2015 01:28:09 BST
;FORMAT={-:-/ absolute / inch / decimal}
FMAT,2
INCH,TZ
T1C0.024
T2C0.043
T3C0.130
%
G90
G05
M72
T1
X3.937Y-1.7717
X3.937Y-3.3465
X3.9646Y-1.7008
X3.9646Y-1.8425
X3.9646Y-3.2756
X3.9646Y-3.4173
X4.0354Y-1.6732
X4.0354Y-1.8701
X4.0354Y-3.248
X4.0354Y-3.4449
X4.1063Y-1.7008
X4.1063Y-1.8425
X4.1063Y-3.2756
X4.1063Y-3.4173
X4.1339Y-1.7717
X4.1339Y-3.3465
X6.1417Y-1.7717
X6.1417Y-3.3465
X6.1693Y-1.7008
X6.1693Y-1.8425
X6.1693Y-3.2756
X6.1693Y-3.4173
X6.2402Y-1.6732
X6.2402Y-1.8701
X6.2402Y-3.248
X6.2402Y-3.4449
X6.311Y-1.7008
X6.311Y-1.8425
X6.311Y-3.2756
X6.311Y-3.4173
X6.3386Y-1.7717
X6.3386Y-3.3465
T2
X7.1299Y-1.7126
X7.1299Y-1.9094
X7.1299Y-1.9882
X7.1299Y-2.185
X7.1299Y-2.2638
X7.1299Y-2.4606
X7.1299Y-2.5394
X7.1299Y-2.7362
X7.1299Y-2.815
X7.1299Y-3.0118
X7.1299Y-3.0906
X7.1299Y-3.4449
T3
X4.0354Y-1.7717
X4.0354Y-3.3465
X6.2402Y-1.7717
X6.2402Y-3.3465
T0
M30
