G04 #@! TF.FileFunction,Legend,Top*
%FSLAX46Y46*%
G04 Gerber Fmt 4.6, Leading zero omitted, Abs format (unit mm)*
G04 Created by KiCad (PCBNEW 0.201502231246+5447~21~ubuntu14.04.1-product) date Wed 06 May 2015 15:51:57 BST*
%MOMM*%
G01*
G04 APERTURE LIST*
%ADD10C,0.100000*%
%ADD11C,0.300000*%
%ADD12C,0.150000*%
%ADD13C,0.200000*%
%ADD14C,0.500000*%
%ADD15C,1.500000*%
%ADD16R,0.700000X0.950000*%
%ADD17R,0.950000X0.700000*%
%ADD18R,0.300000X1.200000*%
%ADD19R,1.200000X0.300000*%
%ADD20R,1.400000X0.400000*%
%ADD21R,0.550000X1.545000*%
%ADD22R,1.545000X0.550000*%
%ADD23R,0.300000X0.800000*%
%ADD24R,0.800000X0.300000*%
%ADD25R,0.600000X1.500000*%
%ADD26C,1.100000*%
%ADD27C,1.016000*%
%ADD28R,5.080000X2.286000*%
%ADD29R,5.080000X2.413000*%
%ADD30R,1.780000X0.720000*%
%ADD31R,0.700000X0.900000*%
%ADD32R,4.000000X1.300000*%
%ADD33R,2.300000X2.500000*%
%ADD34R,1.800000X0.700000*%
%ADD35R,1.800000X0.800000*%
%ADD36R,1.300000X1.400000*%
%ADD37R,1.000000X0.950000*%
%ADD38R,1.400000X1.900000*%
%ADD39R,0.800000X1.500000*%
%ADD40R,0.500000X0.600000*%
%ADD41C,6.300000*%
%ADD42C,0.600000*%
G04 APERTURE END LIST*
D10*
D11*
X150678571Y-52771428D02*
X149178571Y-52771428D01*
X149178571Y-52200000D01*
X149250000Y-52057142D01*
X149321429Y-51985714D01*
X149464286Y-51914285D01*
X149678571Y-51914285D01*
X149821429Y-51985714D01*
X149892857Y-52057142D01*
X149964286Y-52200000D01*
X149964286Y-52771428D01*
X149964286Y-50985714D02*
X150678571Y-50985714D01*
X149178571Y-51485714D02*
X149964286Y-50985714D01*
X149178571Y-50485714D01*
X150678571Y-49128571D02*
X149964286Y-49628571D01*
X150678571Y-49985714D02*
X149178571Y-49985714D01*
X149178571Y-49414286D01*
X149250000Y-49271428D01*
X149321429Y-49200000D01*
X149464286Y-49128571D01*
X149678571Y-49128571D01*
X149821429Y-49200000D01*
X149892857Y-49271428D01*
X149964286Y-49414286D01*
X149964286Y-49985714D01*
X149178571Y-48200000D02*
X149178571Y-47914286D01*
X149250000Y-47771428D01*
X149392857Y-47628571D01*
X149678571Y-47557143D01*
X150178571Y-47557143D01*
X150464286Y-47628571D01*
X150607143Y-47771428D01*
X150678571Y-47914286D01*
X150678571Y-48200000D01*
X150607143Y-48342857D01*
X150464286Y-48485714D01*
X150178571Y-48557143D01*
X149678571Y-48557143D01*
X149392857Y-48485714D01*
X149250000Y-48342857D01*
X149178571Y-48200000D01*
X147578571Y-52571428D02*
X146864286Y-53071428D01*
X147578571Y-53428571D02*
X146078571Y-53428571D01*
X146078571Y-52857143D01*
X146150000Y-52714285D01*
X146221429Y-52642857D01*
X146364286Y-52571428D01*
X146578571Y-52571428D01*
X146721429Y-52642857D01*
X146792857Y-52714285D01*
X146864286Y-52857143D01*
X146864286Y-53428571D01*
X147150000Y-52000000D02*
X147150000Y-51285714D01*
X147578571Y-52142857D02*
X146078571Y-51642857D01*
X147578571Y-51142857D01*
X147578571Y-50642857D02*
X146078571Y-50642857D01*
X146078571Y-50285714D01*
X146150000Y-50071429D01*
X146292857Y-49928571D01*
X146435714Y-49857143D01*
X146721429Y-49785714D01*
X146935714Y-49785714D01*
X147221429Y-49857143D01*
X147364286Y-49928571D01*
X147507143Y-50071429D01*
X147578571Y-50285714D01*
X147578571Y-50642857D01*
X147578571Y-49142857D02*
X146078571Y-49142857D01*
X146078571Y-48142857D02*
X146078571Y-47857143D01*
X146150000Y-47714285D01*
X146292857Y-47571428D01*
X146578571Y-47500000D01*
X147078571Y-47500000D01*
X147364286Y-47571428D01*
X147507143Y-47714285D01*
X147578571Y-47857143D01*
X147578571Y-48142857D01*
X147507143Y-48285714D01*
X147364286Y-48428571D01*
X147078571Y-48500000D01*
X146578571Y-48500000D01*
X146292857Y-48428571D01*
X146150000Y-48285714D01*
X146078571Y-48142857D01*
X144678571Y-50842857D02*
X143178571Y-50842857D01*
X144678571Y-50128571D02*
X143178571Y-50128571D01*
X144250000Y-49628571D01*
X143178571Y-49128571D01*
X144678571Y-49128571D01*
X143178571Y-48414285D02*
X144392857Y-48414285D01*
X144535714Y-48342857D01*
X144607143Y-48271428D01*
X144678571Y-48128571D01*
X144678571Y-47842857D01*
X144607143Y-47699999D01*
X144535714Y-47628571D01*
X144392857Y-47557142D01*
X143178571Y-47557142D01*
X142578571Y-51600000D02*
X141078571Y-51600000D01*
X141078571Y-51028572D01*
X141150000Y-50885714D01*
X141221429Y-50814286D01*
X141364286Y-50742857D01*
X141578571Y-50742857D01*
X141721429Y-50814286D01*
X141792857Y-50885714D01*
X141864286Y-51028572D01*
X141864286Y-51600000D01*
X141078571Y-50242857D02*
X142578571Y-49885714D01*
X141507143Y-49600000D01*
X142578571Y-49314286D01*
X141078571Y-48957143D01*
X142578571Y-47528571D02*
X141864286Y-48028571D01*
X142578571Y-48385714D02*
X141078571Y-48385714D01*
X141078571Y-47814286D01*
X141150000Y-47671428D01*
X141221429Y-47600000D01*
X141364286Y-47528571D01*
X141578571Y-47528571D01*
X141721429Y-47600000D01*
X141792857Y-47671428D01*
X141864286Y-47814286D01*
X141864286Y-48385714D01*
X99928572Y-79478571D02*
X99428572Y-78764286D01*
X99071429Y-79478571D02*
X99071429Y-77978571D01*
X99642857Y-77978571D01*
X99785715Y-78050000D01*
X99857143Y-78121429D01*
X99928572Y-78264286D01*
X99928572Y-78478571D01*
X99857143Y-78621429D01*
X99785715Y-78692857D01*
X99642857Y-78764286D01*
X99071429Y-78764286D01*
X100500000Y-79050000D02*
X101214286Y-79050000D01*
X100357143Y-79478571D02*
X100857143Y-77978571D01*
X101357143Y-79478571D01*
X101857143Y-79478571D02*
X101857143Y-77978571D01*
X102214286Y-77978571D01*
X102428571Y-78050000D01*
X102571429Y-78192857D01*
X102642857Y-78335714D01*
X102714286Y-78621429D01*
X102714286Y-78835714D01*
X102642857Y-79121429D01*
X102571429Y-79264286D01*
X102428571Y-79407143D01*
X102214286Y-79478571D01*
X101857143Y-79478571D01*
X103357143Y-79478571D02*
X103357143Y-77978571D01*
X104357143Y-77978571D02*
X104642857Y-77978571D01*
X104785715Y-78050000D01*
X104928572Y-78192857D01*
X105000000Y-78478571D01*
X105000000Y-78978571D01*
X104928572Y-79264286D01*
X104785715Y-79407143D01*
X104642857Y-79478571D01*
X104357143Y-79478571D01*
X104214286Y-79407143D01*
X104071429Y-79264286D01*
X104000000Y-78978571D01*
X104000000Y-78478571D01*
X104071429Y-78192857D01*
X104214286Y-78050000D01*
X104357143Y-77978571D01*
X176428572Y-79907143D02*
X177571429Y-79907143D01*
X177000000Y-80478571D02*
X177000000Y-79335714D01*
X177107143Y-86571428D02*
X177107143Y-85428571D01*
X176178571Y-84428571D02*
X176178571Y-83571428D01*
X177678571Y-83999999D02*
X176178571Y-83999999D01*
X177678571Y-81535714D02*
X176964286Y-82035714D01*
X177678571Y-82392857D02*
X176178571Y-82392857D01*
X176178571Y-81821429D01*
X176250000Y-81678571D01*
X176321429Y-81607143D01*
X176464286Y-81535714D01*
X176678571Y-81535714D01*
X176821429Y-81607143D01*
X176892857Y-81678571D01*
X176964286Y-81821429D01*
X176964286Y-82392857D01*
X177278571Y-47749999D02*
X175778571Y-47749999D01*
X175778571Y-47178571D01*
X175850000Y-47035713D01*
X175921429Y-46964285D01*
X176064286Y-46892856D01*
X176278571Y-46892856D01*
X176421429Y-46964285D01*
X176492857Y-47035713D01*
X176564286Y-47178571D01*
X176564286Y-47749999D01*
X176564286Y-45964285D02*
X177278571Y-45964285D01*
X175778571Y-46464285D02*
X176564286Y-45964285D01*
X175778571Y-45464285D01*
X176278571Y-44321428D02*
X177278571Y-44321428D01*
X175707143Y-44678571D02*
X176778571Y-45035714D01*
X176778571Y-44107142D01*
X177278571Y-54749999D02*
X175778571Y-54749999D01*
X175778571Y-54178571D01*
X175850000Y-54035713D01*
X175921429Y-53964285D01*
X176064286Y-53892856D01*
X176278571Y-53892856D01*
X176421429Y-53964285D01*
X176492857Y-54035713D01*
X176564286Y-54178571D01*
X176564286Y-54749999D01*
X176564286Y-52964285D02*
X177278571Y-52964285D01*
X175778571Y-53464285D02*
X176564286Y-52964285D01*
X175778571Y-52464285D01*
X175778571Y-52107142D02*
X175778571Y-51178571D01*
X176350000Y-51678571D01*
X176350000Y-51464285D01*
X176421429Y-51321428D01*
X176492857Y-51249999D01*
X176635714Y-51178571D01*
X176992857Y-51178571D01*
X177135714Y-51249999D01*
X177207143Y-51321428D01*
X177278571Y-51464285D01*
X177278571Y-51892857D01*
X177207143Y-52035714D01*
X177135714Y-52107142D01*
X177278571Y-61749999D02*
X175778571Y-61749999D01*
X175778571Y-61178571D01*
X175850000Y-61035713D01*
X175921429Y-60964285D01*
X176064286Y-60892856D01*
X176278571Y-60892856D01*
X176421429Y-60964285D01*
X176492857Y-61035713D01*
X176564286Y-61178571D01*
X176564286Y-61749999D01*
X176564286Y-59964285D02*
X177278571Y-59964285D01*
X175778571Y-60464285D02*
X176564286Y-59964285D01*
X175778571Y-59464285D01*
X175921429Y-59035714D02*
X175850000Y-58964285D01*
X175778571Y-58821428D01*
X175778571Y-58464285D01*
X175850000Y-58321428D01*
X175921429Y-58249999D01*
X176064286Y-58178571D01*
X176207143Y-58178571D01*
X176421429Y-58249999D01*
X177278571Y-59107142D01*
X177278571Y-58178571D01*
X177278571Y-68549999D02*
X175778571Y-68549999D01*
X175778571Y-67978571D01*
X175850000Y-67835713D01*
X175921429Y-67764285D01*
X176064286Y-67692856D01*
X176278571Y-67692856D01*
X176421429Y-67764285D01*
X176492857Y-67835713D01*
X176564286Y-67978571D01*
X176564286Y-68549999D01*
X176564286Y-66764285D02*
X177278571Y-66764285D01*
X175778571Y-67264285D02*
X176564286Y-66764285D01*
X175778571Y-66264285D01*
X177278571Y-64978571D02*
X177278571Y-65835714D01*
X177278571Y-65407142D02*
X175778571Y-65407142D01*
X175992857Y-65549999D01*
X176135714Y-65692857D01*
X176207143Y-65835714D01*
X177307143Y-73571428D02*
X177307143Y-72428571D01*
X177307143Y-75571428D02*
X177307143Y-74428571D01*
X177878571Y-75000000D02*
X176735714Y-75000000D01*
X173778571Y-74707142D02*
X173778571Y-74992856D01*
X173850000Y-75135713D01*
X173921429Y-75207142D01*
X174135714Y-75349999D01*
X174421429Y-75421428D01*
X174992857Y-75421428D01*
X175135714Y-75349999D01*
X175207143Y-75278571D01*
X175278571Y-75135713D01*
X175278571Y-74849999D01*
X175207143Y-74707142D01*
X175135714Y-74635713D01*
X174992857Y-74564285D01*
X174635714Y-74564285D01*
X174492857Y-74635713D01*
X174421429Y-74707142D01*
X174350000Y-74849999D01*
X174350000Y-75135713D01*
X174421429Y-75278571D01*
X174492857Y-75349999D01*
X174635714Y-75421428D01*
X173778571Y-74135714D02*
X175278571Y-73635714D01*
X173778571Y-73135714D01*
X175207143Y-86264286D02*
X175278571Y-86050000D01*
X175278571Y-85692857D01*
X175207143Y-85550000D01*
X175135714Y-85478571D01*
X174992857Y-85407143D01*
X174850000Y-85407143D01*
X174707143Y-85478571D01*
X174635714Y-85550000D01*
X174564286Y-85692857D01*
X174492857Y-85978571D01*
X174421429Y-86121429D01*
X174350000Y-86192857D01*
X174207143Y-86264286D01*
X174064286Y-86264286D01*
X173921429Y-86192857D01*
X173850000Y-86121429D01*
X173778571Y-85978571D01*
X173778571Y-85621429D01*
X173850000Y-85407143D01*
X174492857Y-84764286D02*
X174492857Y-84264286D01*
X175278571Y-84050000D02*
X175278571Y-84764286D01*
X173778571Y-84764286D01*
X173778571Y-84050000D01*
X175278571Y-82550000D02*
X174564286Y-83050000D01*
X175278571Y-83407143D02*
X173778571Y-83407143D01*
X173778571Y-82835715D01*
X173850000Y-82692857D01*
X173921429Y-82621429D01*
X174064286Y-82550000D01*
X174278571Y-82550000D01*
X174421429Y-82621429D01*
X174492857Y-82692857D01*
X174564286Y-82835715D01*
X174564286Y-83407143D01*
X175278571Y-81907143D02*
X173778571Y-81907143D01*
X174850000Y-81264286D02*
X174850000Y-80550000D01*
X175278571Y-81407143D02*
X173778571Y-80907143D01*
X175278571Y-80407143D01*
X175278571Y-79192857D02*
X175278571Y-79907143D01*
X173778571Y-79907143D01*
X100128572Y-60650000D02*
X99985715Y-60578571D01*
X99771429Y-60578571D01*
X99557144Y-60650000D01*
X99414286Y-60792857D01*
X99342858Y-60935714D01*
X99271429Y-61221429D01*
X99271429Y-61435714D01*
X99342858Y-61721429D01*
X99414286Y-61864286D01*
X99557144Y-62007143D01*
X99771429Y-62078571D01*
X99914286Y-62078571D01*
X100128572Y-62007143D01*
X100200001Y-61935714D01*
X100200001Y-61435714D01*
X99914286Y-61435714D01*
X100842858Y-62078571D02*
X100842858Y-60578571D01*
X101414286Y-60578571D01*
X101557144Y-60650000D01*
X101628572Y-60721429D01*
X101700001Y-60864286D01*
X101700001Y-61078571D01*
X101628572Y-61221429D01*
X101557144Y-61292857D01*
X101414286Y-61364286D01*
X100842858Y-61364286D01*
X102271429Y-62007143D02*
X102485715Y-62078571D01*
X102842858Y-62078571D01*
X102985715Y-62007143D01*
X103057144Y-61935714D01*
X103128572Y-61792857D01*
X103128572Y-61650000D01*
X103057144Y-61507143D01*
X102985715Y-61435714D01*
X102842858Y-61364286D01*
X102557144Y-61292857D01*
X102414286Y-61221429D01*
X102342858Y-61150000D01*
X102271429Y-61007143D01*
X102271429Y-60864286D01*
X102342858Y-60721429D01*
X102414286Y-60650000D01*
X102557144Y-60578571D01*
X102914286Y-60578571D01*
X103128572Y-60650000D01*
X105835717Y-67078571D02*
X105835717Y-66078571D01*
X105835717Y-66364286D02*
X105907145Y-66221429D01*
X105978574Y-66150000D01*
X106121431Y-66078571D01*
X106264288Y-66078571D01*
X107550002Y-67078571D02*
X106692859Y-67078571D01*
X107121431Y-67078571D02*
X107121431Y-65578571D01*
X106978574Y-65792857D01*
X106835716Y-65935714D01*
X106692859Y-66007143D01*
X109264287Y-65721429D02*
X109335716Y-65650000D01*
X109478573Y-65578571D01*
X109835716Y-65578571D01*
X109978573Y-65650000D01*
X110050002Y-65721429D01*
X110121430Y-65864286D01*
X110121430Y-66007143D01*
X110050002Y-66221429D01*
X109192859Y-67078571D01*
X110121430Y-67078571D01*
X111050001Y-65578571D02*
X111192858Y-65578571D01*
X111335715Y-65650000D01*
X111407144Y-65721429D01*
X111478573Y-65864286D01*
X111550001Y-66150000D01*
X111550001Y-66507143D01*
X111478573Y-66792857D01*
X111407144Y-66935714D01*
X111335715Y-67007143D01*
X111192858Y-67078571D01*
X111050001Y-67078571D01*
X110907144Y-67007143D01*
X110835715Y-66935714D01*
X110764287Y-66792857D01*
X110692858Y-66507143D01*
X110692858Y-66150000D01*
X110764287Y-65864286D01*
X110835715Y-65721429D01*
X110907144Y-65650000D01*
X111050001Y-65578571D01*
X112978572Y-67078571D02*
X112121429Y-67078571D01*
X112550001Y-67078571D02*
X112550001Y-65578571D01*
X112407144Y-65792857D01*
X112264286Y-65935714D01*
X112121429Y-66007143D01*
X114335715Y-65578571D02*
X113621429Y-65578571D01*
X113550000Y-66292857D01*
X113621429Y-66221429D01*
X113764286Y-66150000D01*
X114121429Y-66150000D01*
X114264286Y-66221429D01*
X114335715Y-66292857D01*
X114407143Y-66435714D01*
X114407143Y-66792857D01*
X114335715Y-66935714D01*
X114264286Y-67007143D01*
X114121429Y-67078571D01*
X113764286Y-67078571D01*
X113621429Y-67007143D01*
X113550000Y-66935714D01*
X115050000Y-66507143D02*
X116192857Y-66507143D01*
X117192857Y-65578571D02*
X117335714Y-65578571D01*
X117478571Y-65650000D01*
X117550000Y-65721429D01*
X117621429Y-65864286D01*
X117692857Y-66150000D01*
X117692857Y-66507143D01*
X117621429Y-66792857D01*
X117550000Y-66935714D01*
X117478571Y-67007143D01*
X117335714Y-67078571D01*
X117192857Y-67078571D01*
X117050000Y-67007143D01*
X116978571Y-66935714D01*
X116907143Y-66792857D01*
X116835714Y-66507143D01*
X116835714Y-66150000D01*
X116907143Y-65864286D01*
X116978571Y-65721429D01*
X117050000Y-65650000D01*
X117192857Y-65578571D01*
X119050000Y-65578571D02*
X118335714Y-65578571D01*
X118264285Y-66292857D01*
X118335714Y-66221429D01*
X118478571Y-66150000D01*
X118835714Y-66150000D01*
X118978571Y-66221429D01*
X119050000Y-66292857D01*
X119121428Y-66435714D01*
X119121428Y-66792857D01*
X119050000Y-66935714D01*
X118978571Y-67007143D01*
X118835714Y-67078571D01*
X118478571Y-67078571D01*
X118335714Y-67007143D01*
X118264285Y-66935714D01*
X119764285Y-66507143D02*
X120907142Y-66507143D01*
X121907142Y-65578571D02*
X122049999Y-65578571D01*
X122192856Y-65650000D01*
X122264285Y-65721429D01*
X122335714Y-65864286D01*
X122407142Y-66150000D01*
X122407142Y-66507143D01*
X122335714Y-66792857D01*
X122264285Y-66935714D01*
X122192856Y-67007143D01*
X122049999Y-67078571D01*
X121907142Y-67078571D01*
X121764285Y-67007143D01*
X121692856Y-66935714D01*
X121621428Y-66792857D01*
X121549999Y-66507143D01*
X121549999Y-66150000D01*
X121621428Y-65864286D01*
X121692856Y-65721429D01*
X121764285Y-65650000D01*
X121907142Y-65578571D01*
X123764285Y-65578571D02*
X123049999Y-65578571D01*
X122978570Y-66292857D01*
X123049999Y-66221429D01*
X123192856Y-66150000D01*
X123549999Y-66150000D01*
X123692856Y-66221429D01*
X123764285Y-66292857D01*
X123835713Y-66435714D01*
X123835713Y-66792857D01*
X123764285Y-66935714D01*
X123692856Y-67007143D01*
X123549999Y-67078571D01*
X123192856Y-67078571D01*
X123049999Y-67007143D01*
X122978570Y-66935714D01*
X106557143Y-61785714D02*
X106985714Y-61928571D01*
X107128571Y-62071429D01*
X107271428Y-62357143D01*
X107271428Y-62785714D01*
X107128571Y-63071429D01*
X106985714Y-63214286D01*
X106700000Y-63357143D01*
X105557143Y-63357143D01*
X105557143Y-60357143D01*
X106557143Y-60357143D01*
X106842857Y-60500000D01*
X106985714Y-60642857D01*
X107128571Y-60928571D01*
X107128571Y-61214286D01*
X106985714Y-61500000D01*
X106842857Y-61642857D01*
X106557143Y-61785714D01*
X105557143Y-61785714D01*
X109842857Y-63357143D02*
X109842857Y-61785714D01*
X109700000Y-61500000D01*
X109414286Y-61357143D01*
X108842857Y-61357143D01*
X108557143Y-61500000D01*
X109842857Y-63214286D02*
X109557143Y-63357143D01*
X108842857Y-63357143D01*
X108557143Y-63214286D01*
X108414286Y-62928571D01*
X108414286Y-62642857D01*
X108557143Y-62357143D01*
X108842857Y-62214286D01*
X109557143Y-62214286D01*
X109842857Y-62071429D01*
X112557143Y-63357143D02*
X112557143Y-60357143D01*
X112557143Y-63214286D02*
X112271429Y-63357143D01*
X111700000Y-63357143D01*
X111414286Y-63214286D01*
X111271429Y-63071429D01*
X111128572Y-62785714D01*
X111128572Y-61928571D01*
X111271429Y-61642857D01*
X111414286Y-61500000D01*
X111700000Y-61357143D01*
X112271429Y-61357143D01*
X112557143Y-61500000D01*
X115271429Y-61357143D02*
X115271429Y-63785714D01*
X115128572Y-64071429D01*
X114985715Y-64214286D01*
X114700000Y-64357143D01*
X114271429Y-64357143D01*
X113985715Y-64214286D01*
X115271429Y-63214286D02*
X114985715Y-63357143D01*
X114414286Y-63357143D01*
X114128572Y-63214286D01*
X113985715Y-63071429D01*
X113842858Y-62785714D01*
X113842858Y-61928571D01*
X113985715Y-61642857D01*
X114128572Y-61500000D01*
X114414286Y-61357143D01*
X114985715Y-61357143D01*
X115271429Y-61500000D01*
X117842858Y-63214286D02*
X117557144Y-63357143D01*
X116985715Y-63357143D01*
X116700001Y-63214286D01*
X116557144Y-62928571D01*
X116557144Y-61785714D01*
X116700001Y-61500000D01*
X116985715Y-61357143D01*
X117557144Y-61357143D01*
X117842858Y-61500000D01*
X117985715Y-61785714D01*
X117985715Y-62071429D01*
X116557144Y-62357143D01*
X119271430Y-63357143D02*
X119271430Y-61357143D01*
X119271430Y-61928571D02*
X119414287Y-61642857D01*
X119557144Y-61500000D01*
X119842858Y-61357143D01*
X120128573Y-61357143D01*
X123128572Y-60357143D02*
X124985715Y-60357143D01*
X123985715Y-61500000D01*
X124414287Y-61500000D01*
X124700001Y-61642857D01*
X124842858Y-61785714D01*
X124985715Y-62071429D01*
X124985715Y-62785714D01*
X124842858Y-63071429D01*
X124700001Y-63214286D01*
X124414287Y-63357143D01*
X123557144Y-63357143D01*
X123271430Y-63214286D01*
X123128572Y-63071429D01*
D12*
X173600000Y-81600000D02*
G75*
G03X173600000Y-81600000I-6000000J0D01*
G01*
X141011400Y-59629600D02*
X143011400Y-59629600D01*
X141011400Y-58429600D02*
X143011400Y-58429600D01*
X152060400Y-79263800D02*
X154060400Y-79263800D01*
X152060400Y-78063800D02*
X154060400Y-78063800D01*
X143468800Y-77181200D02*
X143468800Y-79181200D01*
X144668800Y-77181200D02*
X144668800Y-79181200D01*
X156600400Y-79740200D02*
X154600400Y-79740200D01*
X156600400Y-80940200D02*
X154600400Y-80940200D01*
X157521200Y-60639200D02*
X157521200Y-58639200D01*
X156321200Y-60639200D02*
X156321200Y-58639200D01*
X148000000Y-84000000D02*
X150000000Y-84000000D01*
X148000000Y-82800000D02*
X150000000Y-82800000D01*
X152600000Y-82800000D02*
X150600000Y-82800000D01*
X152600000Y-84000000D02*
X150600000Y-84000000D01*
X156575000Y-78368600D02*
X154575000Y-78368600D01*
X156575000Y-79568600D02*
X154575000Y-79568600D01*
X139868200Y-75599800D02*
X139868200Y-73599800D01*
X138668200Y-75599800D02*
X138668200Y-73599800D01*
X144840400Y-77181200D02*
X144840400Y-79181200D01*
X146040400Y-77181200D02*
X146040400Y-79181200D01*
X158816600Y-61121800D02*
X158816600Y-59121800D01*
X157616600Y-61121800D02*
X157616600Y-59121800D01*
X157794400Y-73015600D02*
X157794400Y-75015600D01*
X158994400Y-73015600D02*
X158994400Y-75015600D01*
X143000000Y-57000000D02*
X141000000Y-57000000D01*
X143000000Y-58200000D02*
X141000000Y-58200000D01*
X140600000Y-59400000D02*
X140600000Y-57400000D01*
X139400000Y-59400000D02*
X139400000Y-57400000D01*
X175200000Y-72400000D02*
X175200000Y-70400000D01*
X174000000Y-72400000D02*
X174000000Y-70400000D01*
X170800000Y-75400000D02*
X172800000Y-75400000D01*
X170800000Y-74200000D02*
X172800000Y-74200000D01*
X166400000Y-72000000D02*
X166400000Y-74000000D01*
X167600000Y-72000000D02*
X167600000Y-74000000D01*
X119900000Y-45500000D02*
X121900000Y-45500000D01*
X119900000Y-44300000D02*
X121900000Y-44300000D01*
X133100000Y-68600000D02*
X133100000Y-66600000D01*
X131900000Y-68600000D02*
X131900000Y-66600000D01*
X131700000Y-68600000D02*
X131700000Y-66600000D01*
X130500000Y-68600000D02*
X130500000Y-66600000D01*
X138000000Y-49200000D02*
X138000000Y-51200000D01*
X139200000Y-49200000D02*
X139200000Y-51200000D01*
X159426400Y-75326800D02*
X161426400Y-75326800D01*
X159426400Y-74126800D02*
X161426400Y-74126800D01*
X148000000Y-85400000D02*
X150000000Y-85400000D01*
X148000000Y-84200000D02*
X150000000Y-84200000D01*
X163382200Y-75447600D02*
X161382200Y-75447600D01*
X163382200Y-76647600D02*
X161382200Y-76647600D01*
X148000000Y-86800000D02*
X150000000Y-86800000D01*
X148000000Y-85600000D02*
X150000000Y-85600000D01*
X163966400Y-74076000D02*
X161966400Y-74076000D01*
X163966400Y-75276000D02*
X161966400Y-75276000D01*
X138591000Y-79307800D02*
X138591000Y-81307800D01*
X139791000Y-79307800D02*
X139791000Y-81307800D01*
X139791000Y-83807800D02*
X139791000Y-81807800D01*
X138591000Y-83807800D02*
X138591000Y-81807800D01*
X151575300Y-53182500D02*
X153575300Y-53182500D01*
X151575300Y-51982500D02*
X153575300Y-51982500D01*
X159179400Y-57846000D02*
X161179400Y-57846000D01*
X159179400Y-56646000D02*
X161179400Y-56646000D01*
X159600000Y-51900000D02*
X161600000Y-51900000D01*
X159600000Y-50700000D02*
X161600000Y-50700000D01*
X157500000Y-50000000D02*
X157500000Y-52000000D01*
X158700000Y-50000000D02*
X158700000Y-52000000D01*
X150350000Y-43775000D02*
X150650000Y-43175000D01*
X150650000Y-43175000D02*
X150950000Y-43775000D01*
X150950000Y-43775000D02*
X150350000Y-43775000D01*
X151250000Y-44475000D02*
X151250000Y-42475000D01*
X150050000Y-44475000D02*
X150050000Y-42475000D01*
X148848000Y-43779400D02*
X149148000Y-43179400D01*
X149148000Y-43179400D02*
X149448000Y-43779400D01*
X149448000Y-43779400D02*
X148848000Y-43779400D01*
X149748000Y-44479400D02*
X149748000Y-42479400D01*
X148548000Y-44479400D02*
X148548000Y-42479400D01*
X144348000Y-43779400D02*
X144648000Y-43179400D01*
X144648000Y-43179400D02*
X144948000Y-43779400D01*
X144948000Y-43779400D02*
X144348000Y-43779400D01*
X145248000Y-44479400D02*
X145248000Y-42479400D01*
X144048000Y-44479400D02*
X144048000Y-42479400D01*
X142848000Y-43779400D02*
X143148000Y-43179400D01*
X143148000Y-43179400D02*
X143448000Y-43779400D01*
X143448000Y-43779400D02*
X142848000Y-43779400D01*
X143748000Y-44479400D02*
X143748000Y-42479400D01*
X142548000Y-44479400D02*
X142548000Y-42479400D01*
X147348000Y-43779400D02*
X147648000Y-43179400D01*
X147648000Y-43179400D02*
X147948000Y-43779400D01*
X147948000Y-43779400D02*
X147348000Y-43779400D01*
X148248000Y-44479400D02*
X148248000Y-42479400D01*
X147048000Y-44479400D02*
X147048000Y-42479400D01*
X145848000Y-43779400D02*
X146148000Y-43179400D01*
X146148000Y-43179400D02*
X146448000Y-43779400D01*
X146448000Y-43779400D02*
X145848000Y-43779400D01*
X146748000Y-44479400D02*
X146748000Y-42479400D01*
X145548000Y-44479400D02*
X145548000Y-42479400D01*
X141396400Y-75772200D02*
G75*
G03X141396400Y-75772200I-250000J0D01*
G01*
X141258203Y-75772200D02*
G75*
G03X141258203Y-75772200I-111803J0D01*
G01*
X142146400Y-60772200D02*
X141146400Y-60772200D01*
X141146400Y-60772200D02*
X141146400Y-61772200D01*
X155146400Y-60772200D02*
X156146400Y-60772200D01*
X156146400Y-60772200D02*
X156146400Y-61772200D01*
X155146400Y-75772200D02*
X156146400Y-75772200D01*
X156146400Y-75772200D02*
X156146400Y-74772200D01*
X141146400Y-74772200D02*
X141146400Y-75772200D01*
X141146400Y-75772200D02*
X142146400Y-75772200D01*
X168650000Y-70990000D02*
G75*
G03X168650000Y-70990000I-200000J0D01*
G01*
X168550000Y-70990000D02*
G75*
G03X168550000Y-70990000I-100000J0D01*
G01*
X168450000Y-73990000D02*
X172950000Y-73990000D01*
X168450000Y-70990000D02*
X172950000Y-70990000D01*
X160121800Y-73156400D02*
G75*
G03X160121800Y-73156400I-200000J0D01*
G01*
X160021800Y-73156400D02*
G75*
G03X160021800Y-73156400I-100000J0D01*
G01*
X159921800Y-73156400D02*
X160021800Y-73156400D01*
X164921800Y-73156400D02*
X164821800Y-73156400D01*
X164921800Y-70156400D02*
X164821800Y-70156400D01*
X159921800Y-70156400D02*
X160021800Y-70156400D01*
X164921800Y-71156400D02*
X164921800Y-70156400D01*
X164921800Y-73156400D02*
X164921800Y-72156400D01*
X159921800Y-71156400D02*
X159921800Y-70156400D01*
X159921800Y-73156400D02*
X159921800Y-72156400D01*
X140907421Y-84407800D02*
G75*
G03X140907421Y-84407800I-141421J0D01*
G01*
X144166000Y-81407800D02*
X144166000Y-80907800D01*
X144166000Y-80907800D02*
X143766000Y-80907800D01*
X143766000Y-84407800D02*
X144166000Y-84407800D01*
X144166000Y-84407800D02*
X144166000Y-83907800D01*
X140766000Y-81407800D02*
X140766000Y-80907800D01*
X140766000Y-80907800D02*
X141166000Y-80907800D01*
X140766000Y-83907800D02*
X140766000Y-84407800D01*
X140766000Y-84407800D02*
X141166000Y-84407800D01*
X151625300Y-51532500D02*
G75*
G03X151625300Y-51532500I-150000J0D01*
G01*
X151525300Y-51532500D02*
G75*
G03X151525300Y-51532500I-50000J0D01*
G01*
X151725300Y-50032500D02*
X151725300Y-49282500D01*
X152725300Y-48282500D02*
X152475300Y-48282500D01*
X153975300Y-48282500D02*
X153725300Y-48282500D01*
X155225300Y-48282500D02*
X154975300Y-48282500D01*
X155975300Y-50032500D02*
X155975300Y-49282500D01*
X154975300Y-51032500D02*
X155225300Y-51032500D01*
X153725300Y-51032500D02*
X153975300Y-51032500D01*
X152475300Y-51032500D02*
X152725300Y-51032500D01*
X157979400Y-55996000D02*
G75*
G03X157979400Y-55996000I-200000J0D01*
G01*
X157920821Y-55996000D02*
G75*
G03X157920821Y-55996000I-141421J0D01*
G01*
X160679400Y-53496000D02*
X160679400Y-53096000D01*
X160679400Y-53096000D02*
X160279400Y-53096000D01*
X160279400Y-55996000D02*
X160679400Y-55996000D01*
X160679400Y-55996000D02*
X160679400Y-55596000D01*
X157779400Y-53496000D02*
X157779400Y-53096000D01*
X157779400Y-53096000D02*
X158179400Y-53096000D01*
X157779400Y-55596000D02*
X157779400Y-55996000D01*
X157779400Y-55996000D02*
X158179400Y-55996000D01*
D13*
X187200000Y-77000000D02*
X187200000Y-71000000D01*
X182000000Y-77000000D02*
X187200000Y-77000000D01*
X175500000Y-77000000D02*
X180200000Y-77000000D01*
X175500000Y-71000000D02*
X175500000Y-77000000D01*
X180200000Y-71000000D02*
X175500000Y-71000000D01*
X187200000Y-71000000D02*
X182000000Y-71000000D01*
X187200000Y-88000000D02*
X187200000Y-78000000D01*
X182000000Y-88000000D02*
X187200000Y-88000000D01*
X175500000Y-88000000D02*
X180200000Y-88000000D01*
X175500000Y-78000000D02*
X175500000Y-88000000D01*
X180200000Y-78000000D02*
X175500000Y-78000000D01*
X187200000Y-78000000D02*
X182000000Y-78000000D01*
D12*
X139720000Y-52050500D02*
X139720000Y-51225000D01*
X139720000Y-51225000D02*
X141180500Y-51225000D01*
X141180500Y-51225000D02*
X141180500Y-52050500D01*
X144800000Y-52050500D02*
X144800000Y-51225000D01*
X144800000Y-51225000D02*
X143339500Y-51225000D01*
X143339500Y-51225000D02*
X143339500Y-52050500D01*
X144800000Y-55479500D02*
X144800000Y-56305000D01*
X144800000Y-56305000D02*
X139720000Y-56305000D01*
X139720000Y-56305000D02*
X139720000Y-55479500D01*
X142260000Y-55479500D02*
X139085000Y-55479500D01*
X139085000Y-55479500D02*
X139085000Y-52050500D01*
X139085000Y-52050500D02*
X145435000Y-52050500D01*
X145435000Y-52050500D02*
X145435000Y-55479500D01*
X145435000Y-55479500D02*
X142260000Y-55479500D01*
X98533000Y-60088000D02*
X98533000Y-48912000D01*
X98533000Y-77288000D02*
X98533000Y-66112000D01*
D13*
X187200000Y-70000000D02*
X187200000Y-64000000D01*
X182000000Y-70000000D02*
X187200000Y-70000000D01*
X175500000Y-70000000D02*
X180200000Y-70000000D01*
X175500000Y-64000000D02*
X175500000Y-70000000D01*
X180200000Y-64000000D02*
X175500000Y-64000000D01*
X187200000Y-64000000D02*
X182000000Y-64000000D01*
X187200000Y-63000000D02*
X187200000Y-57000000D01*
X182000000Y-63000000D02*
X187200000Y-63000000D01*
X175500000Y-63000000D02*
X180200000Y-63000000D01*
X175500000Y-57000000D02*
X175500000Y-63000000D01*
X180200000Y-57000000D02*
X175500000Y-57000000D01*
X187200000Y-57000000D02*
X182000000Y-57000000D01*
X187200000Y-56000000D02*
X187200000Y-50000000D01*
X182000000Y-56000000D02*
X187200000Y-56000000D01*
X175500000Y-56000000D02*
X180200000Y-56000000D01*
X175500000Y-50000000D02*
X175500000Y-56000000D01*
X180200000Y-50000000D02*
X175500000Y-50000000D01*
X187200000Y-50000000D02*
X182000000Y-50000000D01*
X187200000Y-49000000D02*
X187200000Y-43000000D01*
X182000000Y-49000000D02*
X187200000Y-49000000D01*
X175500000Y-49000000D02*
X180200000Y-49000000D01*
X175500000Y-43000000D02*
X175500000Y-49000000D01*
X180200000Y-43000000D02*
X175500000Y-43000000D01*
X187200000Y-43000000D02*
X182000000Y-43000000D01*
D12*
X169200000Y-60250000D02*
X165200000Y-60250000D01*
X165200000Y-65300000D02*
X169200000Y-65300000D01*
D14*
X165150000Y-59750000D02*
G75*
G03X165150000Y-59750000I-300000J0D01*
G01*
D12*
X172600000Y-66700000D02*
X171800000Y-66700000D01*
X171600000Y-65300000D02*
X170600000Y-65300000D01*
X173800000Y-65300000D02*
X172800000Y-65300000D01*
X170600000Y-65300000D02*
X170600000Y-66700000D01*
X173800000Y-65300000D02*
X173800000Y-66700000D01*
X172600000Y-52900000D02*
X171800000Y-52900000D01*
X171600000Y-51500000D02*
X170600000Y-51500000D01*
X173800000Y-51500000D02*
X172800000Y-51500000D01*
X170600000Y-51500000D02*
X170600000Y-52900000D01*
X173800000Y-51500000D02*
X173800000Y-52900000D01*
X169200000Y-46450000D02*
X165200000Y-46450000D01*
X165200000Y-51500000D02*
X169200000Y-51500000D01*
D14*
X165150000Y-45950000D02*
G75*
G03X165150000Y-45950000I-300000J0D01*
G01*
D12*
X172600000Y-60700000D02*
X171800000Y-60700000D01*
X171600000Y-59300000D02*
X170600000Y-59300000D01*
X173800000Y-59300000D02*
X172800000Y-59300000D01*
X170600000Y-59300000D02*
X170600000Y-60700000D01*
X173800000Y-59300000D02*
X173800000Y-60700000D01*
X172600000Y-46500000D02*
X171800000Y-46500000D01*
X171600000Y-45100000D02*
X170600000Y-45100000D01*
X173800000Y-45100000D02*
X172800000Y-45100000D01*
X170600000Y-45100000D02*
X170600000Y-46500000D01*
X173800000Y-45100000D02*
X173800000Y-46500000D01*
X148707600Y-79289200D02*
X150707600Y-79289200D01*
X148707600Y-78089200D02*
X150707600Y-78089200D01*
X139600000Y-46000000D02*
X139600000Y-48000000D01*
X140800000Y-46000000D02*
X140800000Y-48000000D01*
X140800000Y-50600000D02*
X140800000Y-48600000D01*
X139600000Y-50600000D02*
X139600000Y-48600000D01*
X129800000Y-59400000D02*
X127800000Y-59400000D01*
X129800000Y-60600000D02*
X127800000Y-60600000D01*
X130400000Y-60600000D02*
X132400000Y-60600000D01*
X130400000Y-59400000D02*
X132400000Y-59400000D01*
X164400000Y-66800000D02*
X166400000Y-66800000D01*
X164400000Y-65600000D02*
X166400000Y-65600000D01*
X164400000Y-53000000D02*
X166400000Y-53000000D01*
X164400000Y-51800000D02*
X166400000Y-51800000D01*
X169000000Y-65600000D02*
X167000000Y-65600000D01*
X169000000Y-66800000D02*
X167000000Y-66800000D01*
X169000000Y-51800000D02*
X167000000Y-51800000D01*
X169000000Y-53000000D02*
X167000000Y-53000000D01*
X171200000Y-69000000D02*
X173200000Y-69000000D01*
X171200000Y-67800000D02*
X173200000Y-67800000D01*
X171200000Y-55200000D02*
X173200000Y-55200000D01*
X171200000Y-54000000D02*
X173200000Y-54000000D01*
X174000000Y-65200000D02*
X174000000Y-67200000D01*
X175200000Y-65200000D02*
X175200000Y-67200000D01*
X174000000Y-51400000D02*
X174000000Y-53400000D01*
X175200000Y-51400000D02*
X175200000Y-53400000D01*
X170200000Y-67800000D02*
X168200000Y-67800000D01*
X170200000Y-69000000D02*
X168200000Y-69000000D01*
X170200000Y-54000000D02*
X168200000Y-54000000D01*
X170200000Y-55200000D02*
X168200000Y-55200000D01*
X165400000Y-59800000D02*
X167400000Y-59800000D01*
X165400000Y-58600000D02*
X167400000Y-58600000D01*
X165600000Y-46200000D02*
X167600000Y-46200000D01*
X165600000Y-45000000D02*
X167600000Y-45000000D01*
X170000000Y-58600000D02*
X168000000Y-58600000D01*
X170000000Y-59800000D02*
X168000000Y-59800000D01*
X170200000Y-45000000D02*
X168200000Y-45000000D01*
X170200000Y-46200000D02*
X168200000Y-46200000D01*
X171200000Y-63000000D02*
X173200000Y-63000000D01*
X171200000Y-61800000D02*
X173200000Y-61800000D01*
X171200000Y-48800000D02*
X173200000Y-48800000D01*
X171200000Y-47600000D02*
X173200000Y-47600000D01*
X174000000Y-59200000D02*
X174000000Y-61200000D01*
X175200000Y-59200000D02*
X175200000Y-61200000D01*
X174000000Y-45000000D02*
X174000000Y-47000000D01*
X175200000Y-45000000D02*
X175200000Y-47000000D01*
X172400000Y-56400000D02*
X170400000Y-56400000D01*
X172400000Y-57600000D02*
X170400000Y-57600000D01*
X175066200Y-43519800D02*
X173066200Y-43519800D01*
X175066200Y-44719800D02*
X173066200Y-44719800D01*
X151248000Y-46979400D02*
X151248000Y-44979400D01*
X150048000Y-46979400D02*
X150048000Y-44979400D01*
X149748000Y-46979400D02*
X149748000Y-44979400D01*
X148548000Y-46979400D02*
X148548000Y-44979400D01*
X145248000Y-46979400D02*
X145248000Y-44979400D01*
X144048000Y-46979400D02*
X144048000Y-44979400D01*
X143748000Y-46979400D02*
X143748000Y-44979400D01*
X142548000Y-46979400D02*
X142548000Y-44979400D01*
X148248000Y-46979400D02*
X148248000Y-44979400D01*
X147048000Y-46979400D02*
X147048000Y-44979400D01*
X146748000Y-46979400D02*
X146748000Y-44979400D01*
X145548000Y-46979400D02*
X145548000Y-44979400D01*
X141491000Y-86582800D02*
X143491000Y-86582800D01*
X141491000Y-85382800D02*
X143491000Y-85382800D01*
X146167400Y-86242400D02*
X146167400Y-84242400D01*
X144967400Y-86242400D02*
X144967400Y-84242400D01*
X167020800Y-71002400D02*
X167020800Y-69002400D01*
X165820800Y-71002400D02*
X165820800Y-69002400D01*
X140403500Y-84095300D02*
X138403500Y-84095300D01*
X140403500Y-85295300D02*
X138403500Y-85295300D01*
X158679400Y-56646000D02*
X156679400Y-56646000D01*
X158679400Y-57846000D02*
X156679400Y-57846000D01*
X154075300Y-53182500D02*
X156075300Y-53182500D01*
X154075300Y-51982500D02*
X156075300Y-51982500D01*
X155429400Y-54346000D02*
X155429400Y-56346000D01*
X156629400Y-54346000D02*
X156629400Y-56346000D01*
X130503905Y-85210000D02*
G75*
G03X130503905Y-85210000I-457905J0D01*
G01*
X130300000Y-68700000D02*
X130300000Y-84700000D01*
X130300000Y-84700000D02*
X110600000Y-84700000D01*
X110600000Y-68700000D02*
X110600000Y-84700000D01*
X130300000Y-68700000D02*
X110600000Y-68700000D01*
X146943000Y-79451400D02*
X151543000Y-79451400D01*
X151743000Y-79651400D02*
X151543000Y-79451400D01*
X146743000Y-79651400D02*
X146943000Y-79451400D01*
X146893000Y-82651400D02*
X151593000Y-82651400D01*
X146743000Y-82451400D02*
X146893000Y-82651400D01*
X151743000Y-82451400D02*
X151593000Y-82651400D01*
X120400000Y-55200000D02*
G75*
G03X120400000Y-55200000I-200000J0D01*
G01*
X120300000Y-55200000D02*
G75*
G03X120300000Y-55200000I-100000J0D01*
G01*
X112300000Y-45700000D02*
X122000000Y-45700000D01*
X112300000Y-55900000D02*
X122000000Y-55900000D01*
X137400000Y-46400000D02*
X137400000Y-58800000D01*
X136000000Y-44600000D02*
X125900000Y-44600000D01*
X136250000Y-58800000D02*
X137400000Y-58800000D01*
X130550000Y-58800000D02*
X133200000Y-58800000D01*
X123400000Y-58800000D02*
X128750000Y-58800000D01*
X123400000Y-58800000D02*
X123400000Y-45400000D01*
X125900000Y-43600000D02*
X124700000Y-43600000D01*
X128600000Y-46200000D02*
G75*
G03X128600000Y-46200000I-200000J0D01*
G01*
X128500000Y-46200000D02*
G75*
G03X128500000Y-46200000I-100000J0D01*
G01*
X125900000Y-43600000D02*
X125900000Y-44600000D01*
X137400000Y-58800000D02*
X137400000Y-58700000D01*
X177250000Y-66100000D02*
X177250000Y-67800000D01*
X177950000Y-66100000D02*
X177950000Y-67800000D01*
X177250000Y-59100000D02*
X177250000Y-60800000D01*
X177950000Y-59100000D02*
X177950000Y-60800000D01*
X177250000Y-52100000D02*
X177250000Y-53800000D01*
X177950000Y-52100000D02*
X177950000Y-53800000D01*
X177250000Y-45100000D02*
X177250000Y-46800000D01*
X177950000Y-45100000D02*
X177950000Y-46800000D01*
X161800000Y-85000000D02*
G75*
G03X161800000Y-85000000I-3300000J0D01*
G01*
X161800000Y-45000000D02*
G75*
G03X161800000Y-45000000I-3300000J0D01*
G01*
X105800000Y-45000000D02*
G75*
G03X105800000Y-45000000I-3300000J0D01*
G01*
X105800000Y-85000000D02*
G75*
G03X105800000Y-85000000I-3300000J0D01*
G01*
X161400000Y-79000000D02*
X159400000Y-79000000D01*
X161400000Y-80200000D02*
X159400000Y-80200000D01*
D10*
G36*
X107795736Y-81938875D02*
X107793366Y-81987746D01*
X107772523Y-82018489D01*
X107754842Y-82023000D01*
X107730121Y-82011207D01*
X107674208Y-81977355D01*
X107590543Y-81923733D01*
X107482563Y-81852633D01*
X107353707Y-81766343D01*
X107207414Y-81667155D01*
X107047121Y-81557357D01*
X106876267Y-81439240D01*
X106828800Y-81406240D01*
X106654527Y-81284672D01*
X106489338Y-81168944D01*
X106336790Y-81061580D01*
X106200440Y-80965108D01*
X106083844Y-80882054D01*
X105990559Y-80814943D01*
X105924142Y-80766302D01*
X105888149Y-80738657D01*
X105884542Y-80735530D01*
X105838296Y-80673875D01*
X105826334Y-80608989D01*
X105829800Y-80560576D01*
X105845620Y-80543531D01*
X105874288Y-80545565D01*
X105898883Y-80558810D01*
X105954107Y-80593668D01*
X106035971Y-80647387D01*
X106140488Y-80717211D01*
X106263669Y-80800388D01*
X106401526Y-80894163D01*
X106550070Y-80995783D01*
X106705314Y-81102495D01*
X106863270Y-81211543D01*
X107019948Y-81320175D01*
X107171361Y-81425637D01*
X107313521Y-81525175D01*
X107442440Y-81616035D01*
X107554128Y-81695464D01*
X107644598Y-81760707D01*
X107709862Y-81809012D01*
X107745932Y-81837623D01*
X107747209Y-81838770D01*
X107780170Y-81884882D01*
X107795736Y-81938875D01*
X107795736Y-81938875D01*
X107795736Y-81938875D01*
G37*
X107795736Y-81938875D02*
X107793366Y-81987746D01*
X107772523Y-82018489D01*
X107754842Y-82023000D01*
X107730121Y-82011207D01*
X107674208Y-81977355D01*
X107590543Y-81923733D01*
X107482563Y-81852633D01*
X107353707Y-81766343D01*
X107207414Y-81667155D01*
X107047121Y-81557357D01*
X106876267Y-81439240D01*
X106828800Y-81406240D01*
X106654527Y-81284672D01*
X106489338Y-81168944D01*
X106336790Y-81061580D01*
X106200440Y-80965108D01*
X106083844Y-80882054D01*
X105990559Y-80814943D01*
X105924142Y-80766302D01*
X105888149Y-80738657D01*
X105884542Y-80735530D01*
X105838296Y-80673875D01*
X105826334Y-80608989D01*
X105829800Y-80560576D01*
X105845620Y-80543531D01*
X105874288Y-80545565D01*
X105898883Y-80558810D01*
X105954107Y-80593668D01*
X106035971Y-80647387D01*
X106140488Y-80717211D01*
X106263669Y-80800388D01*
X106401526Y-80894163D01*
X106550070Y-80995783D01*
X106705314Y-81102495D01*
X106863270Y-81211543D01*
X107019948Y-81320175D01*
X107171361Y-81425637D01*
X107313521Y-81525175D01*
X107442440Y-81616035D01*
X107554128Y-81695464D01*
X107644598Y-81760707D01*
X107709862Y-81809012D01*
X107745932Y-81837623D01*
X107747209Y-81838770D01*
X107780170Y-81884882D01*
X107795736Y-81938875D01*
X107795736Y-81938875D01*
G36*
X107796748Y-81394801D02*
X107783434Y-81436726D01*
X107757253Y-81451500D01*
X107733072Y-81439695D01*
X107677671Y-81405795D01*
X107594447Y-81352075D01*
X107486797Y-81280809D01*
X107358118Y-81194270D01*
X107211806Y-81094732D01*
X107051259Y-80984469D01*
X106879873Y-80865756D01*
X106820628Y-80824494D01*
X106645603Y-80702236D01*
X106480001Y-80586186D01*
X106327289Y-80478802D01*
X106190936Y-80382539D01*
X106074410Y-80299853D01*
X105981180Y-80233202D01*
X105914714Y-80185041D01*
X105878480Y-80157826D01*
X105873959Y-80154055D01*
X105844669Y-80110728D01*
X105827541Y-80053450D01*
X105823346Y-79995206D01*
X105832852Y-79948978D01*
X105856834Y-79927751D01*
X105860508Y-79927500D01*
X105883315Y-79939257D01*
X105936766Y-79972714D01*
X106016927Y-80025147D01*
X106119864Y-80093835D01*
X106241641Y-80176054D01*
X106378326Y-80269082D01*
X106525982Y-80370196D01*
X106680677Y-80476674D01*
X106838476Y-80585792D01*
X106995444Y-80694828D01*
X107147647Y-80801060D01*
X107291151Y-80901765D01*
X107422021Y-80994219D01*
X107536324Y-81075701D01*
X107630124Y-81143488D01*
X107699488Y-81194856D01*
X107740480Y-81227085D01*
X107747209Y-81233151D01*
X107778047Y-81280230D01*
X107794756Y-81338374D01*
X107796748Y-81394801D01*
X107796748Y-81394801D01*
X107796748Y-81394801D01*
G37*
X107796748Y-81394801D02*
X107783434Y-81436726D01*
X107757253Y-81451500D01*
X107733072Y-81439695D01*
X107677671Y-81405795D01*
X107594447Y-81352075D01*
X107486797Y-81280809D01*
X107358118Y-81194270D01*
X107211806Y-81094732D01*
X107051259Y-80984469D01*
X106879873Y-80865756D01*
X106820628Y-80824494D01*
X106645603Y-80702236D01*
X106480001Y-80586186D01*
X106327289Y-80478802D01*
X106190936Y-80382539D01*
X106074410Y-80299853D01*
X105981180Y-80233202D01*
X105914714Y-80185041D01*
X105878480Y-80157826D01*
X105873959Y-80154055D01*
X105844669Y-80110728D01*
X105827541Y-80053450D01*
X105823346Y-79995206D01*
X105832852Y-79948978D01*
X105856834Y-79927751D01*
X105860508Y-79927500D01*
X105883315Y-79939257D01*
X105936766Y-79972714D01*
X106016927Y-80025147D01*
X106119864Y-80093835D01*
X106241641Y-80176054D01*
X106378326Y-80269082D01*
X106525982Y-80370196D01*
X106680677Y-80476674D01*
X106838476Y-80585792D01*
X106995444Y-80694828D01*
X107147647Y-80801060D01*
X107291151Y-80901765D01*
X107422021Y-80994219D01*
X107536324Y-81075701D01*
X107630124Y-81143488D01*
X107699488Y-81194856D01*
X107740480Y-81227085D01*
X107747209Y-81233151D01*
X107778047Y-81280230D01*
X107794756Y-81338374D01*
X107796748Y-81394801D01*
X107796748Y-81394801D01*
G36*
X107794834Y-80725960D02*
X107792604Y-80792050D01*
X107783617Y-80825823D01*
X107764423Y-80837161D01*
X107755856Y-80837667D01*
X107731394Y-80825859D01*
X107675726Y-80791954D01*
X107592258Y-80738228D01*
X107484395Y-80666958D01*
X107355543Y-80580421D01*
X107209109Y-80480891D01*
X107048499Y-80370647D01*
X106877118Y-80251965D01*
X106819231Y-80211651D01*
X106644292Y-80089432D01*
X106478747Y-79973358D01*
X106326074Y-79865897D01*
X106189748Y-79769514D01*
X106073246Y-79686676D01*
X105980046Y-79619850D01*
X105913623Y-79571503D01*
X105877456Y-79544102D01*
X105873038Y-79540346D01*
X105844389Y-79506540D01*
X105831232Y-79465392D01*
X105829624Y-79401774D01*
X105830705Y-79377904D01*
X105836162Y-79310443D01*
X105846180Y-79275413D01*
X105865065Y-79262911D01*
X105881081Y-79262059D01*
X105906579Y-79274166D01*
X105962554Y-79308120D01*
X106045032Y-79361161D01*
X106150040Y-79430532D01*
X106273606Y-79513472D01*
X106411756Y-79607225D01*
X106560519Y-79709030D01*
X106715920Y-79816130D01*
X106873989Y-79925765D01*
X107030751Y-80035178D01*
X107182233Y-80141609D01*
X107324464Y-80242300D01*
X107453471Y-80334492D01*
X107565280Y-80415426D01*
X107655919Y-80482344D01*
X107721415Y-80532487D01*
X107757795Y-80563097D01*
X107763054Y-80568881D01*
X107783116Y-80620395D01*
X107793914Y-80695912D01*
X107794834Y-80725960D01*
X107794834Y-80725960D01*
X107794834Y-80725960D01*
G37*
X107794834Y-80725960D02*
X107792604Y-80792050D01*
X107783617Y-80825823D01*
X107764423Y-80837161D01*
X107755856Y-80837667D01*
X107731394Y-80825859D01*
X107675726Y-80791954D01*
X107592258Y-80738228D01*
X107484395Y-80666958D01*
X107355543Y-80580421D01*
X107209109Y-80480891D01*
X107048499Y-80370647D01*
X106877118Y-80251965D01*
X106819231Y-80211651D01*
X106644292Y-80089432D01*
X106478747Y-79973358D01*
X106326074Y-79865897D01*
X106189748Y-79769514D01*
X106073246Y-79686676D01*
X105980046Y-79619850D01*
X105913623Y-79571503D01*
X105877456Y-79544102D01*
X105873038Y-79540346D01*
X105844389Y-79506540D01*
X105831232Y-79465392D01*
X105829624Y-79401774D01*
X105830705Y-79377904D01*
X105836162Y-79310443D01*
X105846180Y-79275413D01*
X105865065Y-79262911D01*
X105881081Y-79262059D01*
X105906579Y-79274166D01*
X105962554Y-79308120D01*
X106045032Y-79361161D01*
X106150040Y-79430532D01*
X106273606Y-79513472D01*
X106411756Y-79607225D01*
X106560519Y-79709030D01*
X106715920Y-79816130D01*
X106873989Y-79925765D01*
X107030751Y-80035178D01*
X107182233Y-80141609D01*
X107324464Y-80242300D01*
X107453471Y-80334492D01*
X107565280Y-80415426D01*
X107655919Y-80482344D01*
X107721415Y-80532487D01*
X107757795Y-80563097D01*
X107763054Y-80568881D01*
X107783116Y-80620395D01*
X107793914Y-80695912D01*
X107794834Y-80725960D01*
X107794834Y-80725960D01*
G36*
X107792199Y-79913405D02*
X107790412Y-79989997D01*
X107790400Y-79990272D01*
X107784093Y-80070389D01*
X107772762Y-80115715D01*
X107754411Y-80133683D01*
X107751719Y-80134339D01*
X107728535Y-80123757D01*
X107674105Y-80091054D01*
X107591802Y-80038476D01*
X107485000Y-79968269D01*
X107357070Y-79882678D01*
X107211387Y-79783947D01*
X107051323Y-79674322D01*
X106880250Y-79556048D01*
X106820386Y-79514408D01*
X106645256Y-79392031D01*
X106479565Y-79275523D01*
X106326790Y-79167378D01*
X106190408Y-79070093D01*
X106073895Y-78986161D01*
X105980728Y-78918078D01*
X105914383Y-78868339D01*
X105878338Y-78839438D01*
X105873959Y-78835211D01*
X105845110Y-78793263D01*
X105830573Y-78740578D01*
X105826347Y-78662070D01*
X105826334Y-78655655D01*
X105831688Y-78571067D01*
X105849559Y-78524355D01*
X105882654Y-78512216D01*
X105929906Y-78529290D01*
X105961414Y-78549033D01*
X106023029Y-78590191D01*
X106110602Y-78649854D01*
X106219985Y-78725113D01*
X106347028Y-78813058D01*
X106487584Y-78910780D01*
X106637504Y-79015370D01*
X106792638Y-79123918D01*
X106948839Y-79233514D01*
X107101958Y-79341250D01*
X107247845Y-79444215D01*
X107382353Y-79539501D01*
X107501334Y-79624198D01*
X107600637Y-79695396D01*
X107676115Y-79750187D01*
X107723619Y-79785661D01*
X107737483Y-79796937D01*
X107769553Y-79830826D01*
X107786519Y-79864998D01*
X107792199Y-79913405D01*
X107792199Y-79913405D01*
X107792199Y-79913405D01*
G37*
X107792199Y-79913405D02*
X107790412Y-79989997D01*
X107790400Y-79990272D01*
X107784093Y-80070389D01*
X107772762Y-80115715D01*
X107754411Y-80133683D01*
X107751719Y-80134339D01*
X107728535Y-80123757D01*
X107674105Y-80091054D01*
X107591802Y-80038476D01*
X107485000Y-79968269D01*
X107357070Y-79882678D01*
X107211387Y-79783947D01*
X107051323Y-79674322D01*
X106880250Y-79556048D01*
X106820386Y-79514408D01*
X106645256Y-79392031D01*
X106479565Y-79275523D01*
X106326790Y-79167378D01*
X106190408Y-79070093D01*
X106073895Y-78986161D01*
X105980728Y-78918078D01*
X105914383Y-78868339D01*
X105878338Y-78839438D01*
X105873959Y-78835211D01*
X105845110Y-78793263D01*
X105830573Y-78740578D01*
X105826347Y-78662070D01*
X105826334Y-78655655D01*
X105831688Y-78571067D01*
X105849559Y-78524355D01*
X105882654Y-78512216D01*
X105929906Y-78529290D01*
X105961414Y-78549033D01*
X106023029Y-78590191D01*
X106110602Y-78649854D01*
X106219985Y-78725113D01*
X106347028Y-78813058D01*
X106487584Y-78910780D01*
X106637504Y-79015370D01*
X106792638Y-79123918D01*
X106948839Y-79233514D01*
X107101958Y-79341250D01*
X107247845Y-79444215D01*
X107382353Y-79539501D01*
X107501334Y-79624198D01*
X107600637Y-79695396D01*
X107676115Y-79750187D01*
X107723619Y-79785661D01*
X107737483Y-79796937D01*
X107769553Y-79830826D01*
X107786519Y-79864998D01*
X107792199Y-79913405D01*
X107792199Y-79913405D01*
G36*
X107792455Y-79163004D02*
X107790416Y-79231445D01*
X107784431Y-79321917D01*
X107774470Y-79384698D01*
X107761685Y-79412798D01*
X107760424Y-79413391D01*
X107733054Y-79405780D01*
X107681077Y-79378623D01*
X107614195Y-79337173D01*
X107591091Y-79321655D01*
X107383644Y-79179206D01*
X107177312Y-79036717D01*
X106975343Y-78896486D01*
X106780983Y-78760811D01*
X106597481Y-78631988D01*
X106428083Y-78512316D01*
X106276037Y-78404091D01*
X106144590Y-78309612D01*
X106036990Y-78231175D01*
X105956484Y-78171078D01*
X105906320Y-78131619D01*
X105895125Y-78121796D01*
X105860428Y-78086494D01*
X105839927Y-78053934D01*
X105829898Y-78011636D01*
X105826615Y-77947124D01*
X105826334Y-77891348D01*
X105827070Y-77808540D01*
X105830955Y-77759385D01*
X105840499Y-77735205D01*
X105858213Y-77727325D01*
X105873959Y-77726812D01*
X105898170Y-77738643D01*
X105953016Y-77772108D01*
X106034510Y-77824471D01*
X106138671Y-77893000D01*
X106261514Y-77974959D01*
X106399055Y-78067614D01*
X106547312Y-78168231D01*
X106702301Y-78274075D01*
X106860037Y-78382413D01*
X107016538Y-78490509D01*
X107167820Y-78595630D01*
X107309899Y-78695042D01*
X107438791Y-78786008D01*
X107550514Y-78865797D01*
X107641083Y-78931672D01*
X107706515Y-78980900D01*
X107737500Y-79005949D01*
X107766549Y-79033609D01*
X107783641Y-79061543D01*
X107791400Y-79100943D01*
X107792455Y-79163004D01*
X107792455Y-79163004D01*
X107792455Y-79163004D01*
G37*
X107792455Y-79163004D02*
X107790416Y-79231445D01*
X107784431Y-79321917D01*
X107774470Y-79384698D01*
X107761685Y-79412798D01*
X107760424Y-79413391D01*
X107733054Y-79405780D01*
X107681077Y-79378623D01*
X107614195Y-79337173D01*
X107591091Y-79321655D01*
X107383644Y-79179206D01*
X107177312Y-79036717D01*
X106975343Y-78896486D01*
X106780983Y-78760811D01*
X106597481Y-78631988D01*
X106428083Y-78512316D01*
X106276037Y-78404091D01*
X106144590Y-78309612D01*
X106036990Y-78231175D01*
X105956484Y-78171078D01*
X105906320Y-78131619D01*
X105895125Y-78121796D01*
X105860428Y-78086494D01*
X105839927Y-78053934D01*
X105829898Y-78011636D01*
X105826615Y-77947124D01*
X105826334Y-77891348D01*
X105827070Y-77808540D01*
X105830955Y-77759385D01*
X105840499Y-77735205D01*
X105858213Y-77727325D01*
X105873959Y-77726812D01*
X105898170Y-77738643D01*
X105953016Y-77772108D01*
X106034510Y-77824471D01*
X106138671Y-77893000D01*
X106261514Y-77974959D01*
X106399055Y-78067614D01*
X106547312Y-78168231D01*
X106702301Y-78274075D01*
X106860037Y-78382413D01*
X107016538Y-78490509D01*
X107167820Y-78595630D01*
X107309899Y-78695042D01*
X107438791Y-78786008D01*
X107550514Y-78865797D01*
X107641083Y-78931672D01*
X107706515Y-78980900D01*
X107737500Y-79005949D01*
X107766549Y-79033609D01*
X107783641Y-79061543D01*
X107791400Y-79100943D01*
X107792455Y-79163004D01*
X107792455Y-79163004D01*
G36*
X107794954Y-71287874D02*
X107789602Y-74935645D01*
X107788922Y-75396080D01*
X107788277Y-75816045D01*
X107787643Y-76197406D01*
X107786995Y-76542026D01*
X107786311Y-76851770D01*
X107785564Y-77128502D01*
X107784730Y-77374087D01*
X107783786Y-77590388D01*
X107782707Y-77779271D01*
X107781469Y-77942598D01*
X107780047Y-78082235D01*
X107778417Y-78200047D01*
X107776555Y-78297896D01*
X107774436Y-78377648D01*
X107772036Y-78441166D01*
X107769330Y-78490315D01*
X107766295Y-78526960D01*
X107762906Y-78552965D01*
X107759138Y-78570193D01*
X107754968Y-78580509D01*
X107750371Y-78585778D01*
X107745322Y-78587864D01*
X107741917Y-78588380D01*
X107714543Y-78577381D01*
X107654647Y-78542682D01*
X107563974Y-78485439D01*
X107444271Y-78406807D01*
X107419973Y-78390463D01*
X107419973Y-72095833D01*
X107279320Y-72095833D01*
X107138667Y-72095833D01*
X107138667Y-72168539D01*
X107126661Y-72265783D01*
X107092835Y-72337782D01*
X107056067Y-72369894D01*
X106996567Y-72388846D01*
X106910079Y-72401361D01*
X106811547Y-72406794D01*
X106715919Y-72404495D01*
X106638141Y-72393820D01*
X106620153Y-72388763D01*
X106574589Y-72368484D01*
X106539984Y-72338681D01*
X106514872Y-72293854D01*
X106497789Y-72228501D01*
X106487270Y-72137120D01*
X106481851Y-72014210D01*
X106480090Y-71862690D01*
X106481932Y-71699848D01*
X106489192Y-71574828D01*
X106502742Y-71483364D01*
X106523458Y-71421188D01*
X106552214Y-71384034D01*
X106581110Y-71369590D01*
X106673276Y-71348050D01*
X106754856Y-71339607D01*
X106847676Y-71342626D01*
X106890214Y-71346416D01*
X106994190Y-71362503D01*
X107062451Y-71389568D01*
X107101168Y-71432440D01*
X107116510Y-71495950D01*
X107117500Y-71524333D01*
X107117500Y-71609000D01*
X107257981Y-71609000D01*
X107398463Y-71609000D01*
X107387767Y-71475752D01*
X107370581Y-71357841D01*
X107337310Y-71267074D01*
X107283476Y-71200415D01*
X107204605Y-71154829D01*
X107096219Y-71127282D01*
X106953842Y-71114739D01*
X106852917Y-71113145D01*
X106675624Y-71118981D01*
X106534684Y-71136939D01*
X106425330Y-71169090D01*
X106342793Y-71217503D01*
X106282303Y-71284249D01*
X106239092Y-71371399D01*
X106235591Y-71381163D01*
X106214973Y-71470234D01*
X106201861Y-71590487D01*
X106195889Y-71732268D01*
X106196692Y-71885918D01*
X106203904Y-72041780D01*
X106217159Y-72190198D01*
X106236091Y-72321514D01*
X106260337Y-72426071D01*
X106276845Y-72470990D01*
X106322365Y-72527881D01*
X106398483Y-72578321D01*
X106493467Y-72615206D01*
X106528733Y-72623547D01*
X106633871Y-72636948D01*
X106763168Y-72642825D01*
X106899129Y-72641193D01*
X107024259Y-72632068D01*
X107086727Y-72623028D01*
X107165280Y-72605396D01*
X107234836Y-72584531D01*
X107267677Y-72571044D01*
X107328915Y-72515934D01*
X107373981Y-72423307D01*
X107402049Y-72295103D01*
X107407603Y-72243390D01*
X107419973Y-72095833D01*
X107419973Y-78390463D01*
X107418120Y-78389217D01*
X107418120Y-72667333D01*
X107278393Y-72667333D01*
X107138667Y-72667333D01*
X107137745Y-73180625D01*
X107136650Y-73374004D01*
X107133839Y-73529581D01*
X107128872Y-73651868D01*
X107121308Y-73745378D01*
X107110709Y-73814623D01*
X107096632Y-73864114D01*
X107078640Y-73898364D01*
X107066312Y-73912947D01*
X107026703Y-73930743D01*
X106956521Y-73943029D01*
X106867143Y-73949787D01*
X106769947Y-73950996D01*
X106676308Y-73946638D01*
X106597604Y-73936692D01*
X106545210Y-73921141D01*
X106534661Y-73913853D01*
X106513572Y-73886242D01*
X106496843Y-73847101D01*
X106484008Y-73791788D01*
X106474597Y-73715658D01*
X106468143Y-73614069D01*
X106464179Y-73482376D01*
X106462236Y-73315936D01*
X106461838Y-73191208D01*
X106461334Y-72667333D01*
X106322073Y-72667333D01*
X106182813Y-72667333D01*
X106190176Y-73286458D01*
X106192742Y-73472457D01*
X106195721Y-73620933D01*
X106199398Y-73736695D01*
X106204059Y-73824553D01*
X106209989Y-73889317D01*
X106217473Y-73935797D01*
X106226795Y-73968802D01*
X106231265Y-73979667D01*
X106284924Y-74066172D01*
X106358794Y-74124558D01*
X106456029Y-74161423D01*
X106539105Y-74176079D01*
X106650571Y-74185338D01*
X106776814Y-74189073D01*
X106904219Y-74187155D01*
X107019171Y-74179456D01*
X107100583Y-74167508D01*
X107212066Y-74133412D01*
X107291262Y-74082303D01*
X107346869Y-74007779D01*
X107362507Y-73974648D01*
X107373915Y-73943022D01*
X107383059Y-73904537D01*
X107390287Y-73853987D01*
X107395950Y-73786169D01*
X107400396Y-73695879D01*
X107403974Y-73577913D01*
X107407034Y-73427067D01*
X107409391Y-73275875D01*
X107418120Y-72667333D01*
X107418120Y-78389217D01*
X107413834Y-78386334D01*
X107413834Y-76011667D01*
X107413834Y-75895250D01*
X107413834Y-75778833D01*
X107402885Y-75778833D01*
X107402885Y-75287994D01*
X107396344Y-75172183D01*
X107376036Y-75072717D01*
X107343535Y-75000686D01*
X107334519Y-74989188D01*
X107285633Y-74948123D01*
X107217233Y-74916583D01*
X107122492Y-74892456D01*
X106994587Y-74873629D01*
X106943502Y-74868175D01*
X106793023Y-74852912D01*
X106679471Y-74839419D01*
X106597647Y-74825284D01*
X106542354Y-74808091D01*
X106508391Y-74785428D01*
X106490560Y-74754878D01*
X106483663Y-74714029D01*
X106482501Y-74660466D01*
X106482500Y-74654096D01*
X106487897Y-74564702D01*
X106508729Y-74507112D01*
X106551961Y-74471652D01*
X106624556Y-74448651D01*
X106631490Y-74447134D01*
X106779522Y-74425757D01*
X106902417Y-74429486D01*
X106997509Y-74457354D01*
X107062129Y-74508394D01*
X107093613Y-74581640D01*
X107096334Y-74615662D01*
X107100799Y-74637876D01*
X107120344Y-74650361D01*
X107164191Y-74655831D01*
X107236878Y-74657000D01*
X107377423Y-74657000D01*
X107364990Y-74536537D01*
X107342122Y-74425687D01*
X107295978Y-74344030D01*
X107220424Y-74282049D01*
X107190218Y-74265417D01*
X107151303Y-74248326D01*
X107107719Y-74236474D01*
X107051062Y-74228949D01*
X106972928Y-74224839D01*
X106864914Y-74223233D01*
X106800000Y-74223083D01*
X106640230Y-74225444D01*
X106516648Y-74233750D01*
X106423307Y-74249840D01*
X106354261Y-74275549D01*
X106303565Y-74312715D01*
X106265271Y-74363176D01*
X106249273Y-74393231D01*
X106220734Y-74482892D01*
X106205378Y-74596213D01*
X106203655Y-74716480D01*
X106216016Y-74826980D01*
X106235745Y-74895691D01*
X106266460Y-74947839D01*
X106313501Y-74989685D01*
X106381701Y-75022813D01*
X106475894Y-75048809D01*
X106600911Y-75069258D01*
X106761585Y-75085746D01*
X106831750Y-75091212D01*
X106922823Y-75100713D01*
X107002133Y-75114132D01*
X107056910Y-75129116D01*
X107068886Y-75134890D01*
X107109907Y-75183547D01*
X107130261Y-75254864D01*
X107131053Y-75335973D01*
X107113384Y-75414006D01*
X107078357Y-75476094D01*
X107037059Y-75506237D01*
X106991968Y-75514865D01*
X106916739Y-75520419D01*
X106823499Y-75522242D01*
X106761052Y-75521182D01*
X106661150Y-75517238D01*
X106594450Y-75511643D01*
X106551825Y-75502394D01*
X106524144Y-75487487D01*
X106502278Y-75464919D01*
X106501760Y-75464280D01*
X106472957Y-75407153D01*
X106461334Y-75342572D01*
X106461334Y-75270833D01*
X106321311Y-75270833D01*
X106181289Y-75270833D01*
X106196194Y-75392542D01*
X106223614Y-75526813D01*
X106268480Y-75623017D01*
X106331099Y-75681796D01*
X106336198Y-75684547D01*
X106422782Y-75715496D01*
X106540411Y-75737966D01*
X106678498Y-75751165D01*
X106826457Y-75754299D01*
X106973704Y-75746573D01*
X107047369Y-75737871D01*
X107174021Y-75711923D01*
X107265506Y-75672326D01*
X107328323Y-75612917D01*
X107368971Y-75527532D01*
X107393951Y-75410007D01*
X107394086Y-75409059D01*
X107402885Y-75287994D01*
X107402885Y-75778833D01*
X106800000Y-75778833D01*
X106186167Y-75778833D01*
X106186167Y-76530250D01*
X106186167Y-77281667D01*
X106323750Y-77281667D01*
X106461334Y-77281667D01*
X106461334Y-76974750D01*
X106461334Y-76667833D01*
X106874084Y-76667833D01*
X107286834Y-76667833D01*
X107286834Y-76551417D01*
X107286834Y-76435000D01*
X106874084Y-76435000D01*
X106461334Y-76435000D01*
X106461334Y-76223333D01*
X106461334Y-76011667D01*
X106937584Y-76011667D01*
X107413834Y-76011667D01*
X107413834Y-78386334D01*
X107297285Y-78307942D01*
X107124761Y-78189998D01*
X106928447Y-78054132D01*
X106821167Y-77979316D01*
X106647757Y-77857837D01*
X106483415Y-77742206D01*
X106331709Y-77634969D01*
X106196207Y-77538670D01*
X106080475Y-77455855D01*
X105988080Y-77389068D01*
X105922591Y-77340855D01*
X105887574Y-77313760D01*
X105884542Y-77311100D01*
X105826334Y-77256911D01*
X105826334Y-74284085D01*
X105826334Y-71311259D01*
X105881221Y-71200838D01*
X105903573Y-71158055D01*
X105943974Y-71083001D01*
X105999850Y-70980374D01*
X106068624Y-70854871D01*
X106147720Y-70711192D01*
X106234561Y-70554032D01*
X106326572Y-70388091D01*
X106351401Y-70343411D01*
X106456967Y-70154043D01*
X106544297Y-69998753D01*
X106615331Y-69874405D01*
X106672012Y-69777862D01*
X106716279Y-69705986D01*
X106750073Y-69655641D01*
X106775337Y-69623689D01*
X106794010Y-69606994D01*
X106808034Y-69602420D01*
X106809804Y-69602577D01*
X106827764Y-69614387D01*
X106855897Y-69647671D01*
X106895809Y-69704973D01*
X106949108Y-69788838D01*
X107017398Y-69901809D01*
X107102288Y-70046430D01*
X107205383Y-70225245D01*
X107228088Y-70264917D01*
X107319916Y-70425974D01*
X107409242Y-70583485D01*
X107492818Y-70731663D01*
X107567398Y-70864721D01*
X107629735Y-70976872D01*
X107676582Y-71062329D01*
X107699107Y-71104479D01*
X107794954Y-71287874D01*
X107794954Y-71287874D01*
X107794954Y-71287874D01*
G37*
X107794954Y-71287874D02*
X107789602Y-74935645D01*
X107788922Y-75396080D01*
X107788277Y-75816045D01*
X107787643Y-76197406D01*
X107786995Y-76542026D01*
X107786311Y-76851770D01*
X107785564Y-77128502D01*
X107784730Y-77374087D01*
X107783786Y-77590388D01*
X107782707Y-77779271D01*
X107781469Y-77942598D01*
X107780047Y-78082235D01*
X107778417Y-78200047D01*
X107776555Y-78297896D01*
X107774436Y-78377648D01*
X107772036Y-78441166D01*
X107769330Y-78490315D01*
X107766295Y-78526960D01*
X107762906Y-78552965D01*
X107759138Y-78570193D01*
X107754968Y-78580509D01*
X107750371Y-78585778D01*
X107745322Y-78587864D01*
X107741917Y-78588380D01*
X107714543Y-78577381D01*
X107654647Y-78542682D01*
X107563974Y-78485439D01*
X107444271Y-78406807D01*
X107419973Y-78390463D01*
X107419973Y-72095833D01*
X107279320Y-72095833D01*
X107138667Y-72095833D01*
X107138667Y-72168539D01*
X107126661Y-72265783D01*
X107092835Y-72337782D01*
X107056067Y-72369894D01*
X106996567Y-72388846D01*
X106910079Y-72401361D01*
X106811547Y-72406794D01*
X106715919Y-72404495D01*
X106638141Y-72393820D01*
X106620153Y-72388763D01*
X106574589Y-72368484D01*
X106539984Y-72338681D01*
X106514872Y-72293854D01*
X106497789Y-72228501D01*
X106487270Y-72137120D01*
X106481851Y-72014210D01*
X106480090Y-71862690D01*
X106481932Y-71699848D01*
X106489192Y-71574828D01*
X106502742Y-71483364D01*
X106523458Y-71421188D01*
X106552214Y-71384034D01*
X106581110Y-71369590D01*
X106673276Y-71348050D01*
X106754856Y-71339607D01*
X106847676Y-71342626D01*
X106890214Y-71346416D01*
X106994190Y-71362503D01*
X107062451Y-71389568D01*
X107101168Y-71432440D01*
X107116510Y-71495950D01*
X107117500Y-71524333D01*
X107117500Y-71609000D01*
X107257981Y-71609000D01*
X107398463Y-71609000D01*
X107387767Y-71475752D01*
X107370581Y-71357841D01*
X107337310Y-71267074D01*
X107283476Y-71200415D01*
X107204605Y-71154829D01*
X107096219Y-71127282D01*
X106953842Y-71114739D01*
X106852917Y-71113145D01*
X106675624Y-71118981D01*
X106534684Y-71136939D01*
X106425330Y-71169090D01*
X106342793Y-71217503D01*
X106282303Y-71284249D01*
X106239092Y-71371399D01*
X106235591Y-71381163D01*
X106214973Y-71470234D01*
X106201861Y-71590487D01*
X106195889Y-71732268D01*
X106196692Y-71885918D01*
X106203904Y-72041780D01*
X106217159Y-72190198D01*
X106236091Y-72321514D01*
X106260337Y-72426071D01*
X106276845Y-72470990D01*
X106322365Y-72527881D01*
X106398483Y-72578321D01*
X106493467Y-72615206D01*
X106528733Y-72623547D01*
X106633871Y-72636948D01*
X106763168Y-72642825D01*
X106899129Y-72641193D01*
X107024259Y-72632068D01*
X107086727Y-72623028D01*
X107165280Y-72605396D01*
X107234836Y-72584531D01*
X107267677Y-72571044D01*
X107328915Y-72515934D01*
X107373981Y-72423307D01*
X107402049Y-72295103D01*
X107407603Y-72243390D01*
X107419973Y-72095833D01*
X107419973Y-78390463D01*
X107418120Y-78389217D01*
X107418120Y-72667333D01*
X107278393Y-72667333D01*
X107138667Y-72667333D01*
X107137745Y-73180625D01*
X107136650Y-73374004D01*
X107133839Y-73529581D01*
X107128872Y-73651868D01*
X107121308Y-73745378D01*
X107110709Y-73814623D01*
X107096632Y-73864114D01*
X107078640Y-73898364D01*
X107066312Y-73912947D01*
X107026703Y-73930743D01*
X106956521Y-73943029D01*
X106867143Y-73949787D01*
X106769947Y-73950996D01*
X106676308Y-73946638D01*
X106597604Y-73936692D01*
X106545210Y-73921141D01*
X106534661Y-73913853D01*
X106513572Y-73886242D01*
X106496843Y-73847101D01*
X106484008Y-73791788D01*
X106474597Y-73715658D01*
X106468143Y-73614069D01*
X106464179Y-73482376D01*
X106462236Y-73315936D01*
X106461838Y-73191208D01*
X106461334Y-72667333D01*
X106322073Y-72667333D01*
X106182813Y-72667333D01*
X106190176Y-73286458D01*
X106192742Y-73472457D01*
X106195721Y-73620933D01*
X106199398Y-73736695D01*
X106204059Y-73824553D01*
X106209989Y-73889317D01*
X106217473Y-73935797D01*
X106226795Y-73968802D01*
X106231265Y-73979667D01*
X106284924Y-74066172D01*
X106358794Y-74124558D01*
X106456029Y-74161423D01*
X106539105Y-74176079D01*
X106650571Y-74185338D01*
X106776814Y-74189073D01*
X106904219Y-74187155D01*
X107019171Y-74179456D01*
X107100583Y-74167508D01*
X107212066Y-74133412D01*
X107291262Y-74082303D01*
X107346869Y-74007779D01*
X107362507Y-73974648D01*
X107373915Y-73943022D01*
X107383059Y-73904537D01*
X107390287Y-73853987D01*
X107395950Y-73786169D01*
X107400396Y-73695879D01*
X107403974Y-73577913D01*
X107407034Y-73427067D01*
X107409391Y-73275875D01*
X107418120Y-72667333D01*
X107418120Y-78389217D01*
X107413834Y-78386334D01*
X107413834Y-76011667D01*
X107413834Y-75895250D01*
X107413834Y-75778833D01*
X107402885Y-75778833D01*
X107402885Y-75287994D01*
X107396344Y-75172183D01*
X107376036Y-75072717D01*
X107343535Y-75000686D01*
X107334519Y-74989188D01*
X107285633Y-74948123D01*
X107217233Y-74916583D01*
X107122492Y-74892456D01*
X106994587Y-74873629D01*
X106943502Y-74868175D01*
X106793023Y-74852912D01*
X106679471Y-74839419D01*
X106597647Y-74825284D01*
X106542354Y-74808091D01*
X106508391Y-74785428D01*
X106490560Y-74754878D01*
X106483663Y-74714029D01*
X106482501Y-74660466D01*
X106482500Y-74654096D01*
X106487897Y-74564702D01*
X106508729Y-74507112D01*
X106551961Y-74471652D01*
X106624556Y-74448651D01*
X106631490Y-74447134D01*
X106779522Y-74425757D01*
X106902417Y-74429486D01*
X106997509Y-74457354D01*
X107062129Y-74508394D01*
X107093613Y-74581640D01*
X107096334Y-74615662D01*
X107100799Y-74637876D01*
X107120344Y-74650361D01*
X107164191Y-74655831D01*
X107236878Y-74657000D01*
X107377423Y-74657000D01*
X107364990Y-74536537D01*
X107342122Y-74425687D01*
X107295978Y-74344030D01*
X107220424Y-74282049D01*
X107190218Y-74265417D01*
X107151303Y-74248326D01*
X107107719Y-74236474D01*
X107051062Y-74228949D01*
X106972928Y-74224839D01*
X106864914Y-74223233D01*
X106800000Y-74223083D01*
X106640230Y-74225444D01*
X106516648Y-74233750D01*
X106423307Y-74249840D01*
X106354261Y-74275549D01*
X106303565Y-74312715D01*
X106265271Y-74363176D01*
X106249273Y-74393231D01*
X106220734Y-74482892D01*
X106205378Y-74596213D01*
X106203655Y-74716480D01*
X106216016Y-74826980D01*
X106235745Y-74895691D01*
X106266460Y-74947839D01*
X106313501Y-74989685D01*
X106381701Y-75022813D01*
X106475894Y-75048809D01*
X106600911Y-75069258D01*
X106761585Y-75085746D01*
X106831750Y-75091212D01*
X106922823Y-75100713D01*
X107002133Y-75114132D01*
X107056910Y-75129116D01*
X107068886Y-75134890D01*
X107109907Y-75183547D01*
X107130261Y-75254864D01*
X107131053Y-75335973D01*
X107113384Y-75414006D01*
X107078357Y-75476094D01*
X107037059Y-75506237D01*
X106991968Y-75514865D01*
X106916739Y-75520419D01*
X106823499Y-75522242D01*
X106761052Y-75521182D01*
X106661150Y-75517238D01*
X106594450Y-75511643D01*
X106551825Y-75502394D01*
X106524144Y-75487487D01*
X106502278Y-75464919D01*
X106501760Y-75464280D01*
X106472957Y-75407153D01*
X106461334Y-75342572D01*
X106461334Y-75270833D01*
X106321311Y-75270833D01*
X106181289Y-75270833D01*
X106196194Y-75392542D01*
X106223614Y-75526813D01*
X106268480Y-75623017D01*
X106331099Y-75681796D01*
X106336198Y-75684547D01*
X106422782Y-75715496D01*
X106540411Y-75737966D01*
X106678498Y-75751165D01*
X106826457Y-75754299D01*
X106973704Y-75746573D01*
X107047369Y-75737871D01*
X107174021Y-75711923D01*
X107265506Y-75672326D01*
X107328323Y-75612917D01*
X107368971Y-75527532D01*
X107393951Y-75410007D01*
X107394086Y-75409059D01*
X107402885Y-75287994D01*
X107402885Y-75778833D01*
X106800000Y-75778833D01*
X106186167Y-75778833D01*
X106186167Y-76530250D01*
X106186167Y-77281667D01*
X106323750Y-77281667D01*
X106461334Y-77281667D01*
X106461334Y-76974750D01*
X106461334Y-76667833D01*
X106874084Y-76667833D01*
X107286834Y-76667833D01*
X107286834Y-76551417D01*
X107286834Y-76435000D01*
X106874084Y-76435000D01*
X106461334Y-76435000D01*
X106461334Y-76223333D01*
X106461334Y-76011667D01*
X106937584Y-76011667D01*
X107413834Y-76011667D01*
X107413834Y-78386334D01*
X107297285Y-78307942D01*
X107124761Y-78189998D01*
X106928447Y-78054132D01*
X106821167Y-77979316D01*
X106647757Y-77857837D01*
X106483415Y-77742206D01*
X106331709Y-77634969D01*
X106196207Y-77538670D01*
X106080475Y-77455855D01*
X105988080Y-77389068D01*
X105922591Y-77340855D01*
X105887574Y-77313760D01*
X105884542Y-77311100D01*
X105826334Y-77256911D01*
X105826334Y-74284085D01*
X105826334Y-71311259D01*
X105881221Y-71200838D01*
X105903573Y-71158055D01*
X105943974Y-71083001D01*
X105999850Y-70980374D01*
X106068624Y-70854871D01*
X106147720Y-70711192D01*
X106234561Y-70554032D01*
X106326572Y-70388091D01*
X106351401Y-70343411D01*
X106456967Y-70154043D01*
X106544297Y-69998753D01*
X106615331Y-69874405D01*
X106672012Y-69777862D01*
X106716279Y-69705986D01*
X106750073Y-69655641D01*
X106775337Y-69623689D01*
X106794010Y-69606994D01*
X106808034Y-69602420D01*
X106809804Y-69602577D01*
X106827764Y-69614387D01*
X106855897Y-69647671D01*
X106895809Y-69704973D01*
X106949108Y-69788838D01*
X107017398Y-69901809D01*
X107102288Y-70046430D01*
X107205383Y-70225245D01*
X107228088Y-70264917D01*
X107319916Y-70425974D01*
X107409242Y-70583485D01*
X107492818Y-70731663D01*
X107567398Y-70864721D01*
X107629735Y-70976872D01*
X107676582Y-71062329D01*
X107699107Y-71104479D01*
X107794954Y-71287874D01*
X107794954Y-71287874D01*
D12*
X141350000Y-43775000D02*
X141650000Y-43175000D01*
X141650000Y-43175000D02*
X141950000Y-43775000D01*
X141950000Y-43775000D02*
X141350000Y-43775000D01*
X142250000Y-44475000D02*
X142250000Y-42475000D01*
X141050000Y-44475000D02*
X141050000Y-42475000D01*
X142250000Y-46975000D02*
X142250000Y-44975000D01*
X141050000Y-46975000D02*
X141050000Y-44975000D01*
%LPC*%
D15*
X167600000Y-85100000D03*
X167600000Y-78100000D03*
D16*
X141286400Y-59029600D03*
X142736400Y-59029600D03*
X152335400Y-78663800D03*
X153785400Y-78663800D03*
D17*
X144068800Y-77456200D03*
X144068800Y-78906200D03*
D16*
X156325400Y-80340200D03*
X154875400Y-80340200D03*
D17*
X156921200Y-60364200D03*
X156921200Y-58914200D03*
D16*
X148275000Y-83400000D03*
X149725000Y-83400000D03*
X152325000Y-83400000D03*
X150875000Y-83400000D03*
X156300000Y-78968600D03*
X154850000Y-78968600D03*
D17*
X139268200Y-75324800D03*
X139268200Y-73874800D03*
X145440400Y-77456200D03*
X145440400Y-78906200D03*
X158216600Y-60846800D03*
X158216600Y-59396800D03*
X158394400Y-73290600D03*
X158394400Y-74740600D03*
D16*
X142725000Y-57600000D03*
X141275000Y-57600000D03*
D17*
X140000000Y-59125000D03*
X140000000Y-57675000D03*
X174600000Y-72125000D03*
X174600000Y-70675000D03*
D16*
X171075000Y-74800000D03*
X172525000Y-74800000D03*
D17*
X167000000Y-72275000D03*
X167000000Y-73725000D03*
D16*
X120175000Y-44900000D03*
X121625000Y-44900000D03*
D17*
X132500000Y-68325000D03*
X132500000Y-66875000D03*
X131100000Y-68325000D03*
X131100000Y-66875000D03*
X138600000Y-49475000D03*
X138600000Y-50925000D03*
D16*
X159701400Y-74726800D03*
X161151400Y-74726800D03*
X148275000Y-84800000D03*
X149725000Y-84800000D03*
X163107200Y-76047600D03*
X161657200Y-76047600D03*
X148275000Y-86200000D03*
X149725000Y-86200000D03*
X163691400Y-74676000D03*
X162241400Y-74676000D03*
D17*
X139191000Y-79582800D03*
X139191000Y-81032800D03*
X139191000Y-83532800D03*
X139191000Y-82082800D03*
D16*
X151850300Y-52582500D03*
X153300300Y-52582500D03*
X159454400Y-57246000D03*
X160904400Y-57246000D03*
X159875000Y-51300000D03*
X161325000Y-51300000D03*
D17*
X158100000Y-50275000D03*
X158100000Y-51725000D03*
X150650000Y-44200000D03*
X150650000Y-42750000D03*
X149148000Y-44204400D03*
X149148000Y-42754400D03*
X144648000Y-44204400D03*
X144648000Y-42754400D03*
X143148000Y-44204400D03*
X143148000Y-42754400D03*
X147648000Y-44204400D03*
X147648000Y-42754400D03*
X146148000Y-44204400D03*
X146148000Y-42754400D03*
D18*
X142646400Y-76022200D03*
X143146400Y-76022200D03*
X143646400Y-76022200D03*
X144146400Y-76022200D03*
X144646400Y-76022200D03*
X145146400Y-76022200D03*
X145646400Y-76022200D03*
X146146400Y-76022200D03*
X146646400Y-76022200D03*
X147146400Y-76022200D03*
X147646400Y-76022200D03*
X148146400Y-76022200D03*
X148646400Y-76022200D03*
X149146400Y-76022200D03*
X149646400Y-76022200D03*
X150146400Y-76022200D03*
X150646400Y-76022200D03*
X151146400Y-76022200D03*
X151646400Y-76022200D03*
X152146400Y-76022200D03*
X152646400Y-76022200D03*
X153146400Y-76022200D03*
X153646400Y-76022200D03*
X154146400Y-76022200D03*
X154646400Y-76022200D03*
D19*
X156396400Y-74272200D03*
X156396400Y-73772200D03*
X156396400Y-73272200D03*
X156396400Y-72772200D03*
X156396400Y-72272200D03*
X156396400Y-71772200D03*
X156396400Y-71272200D03*
X156396400Y-70772200D03*
X156396400Y-70272200D03*
X156396400Y-69772200D03*
X156396400Y-69272200D03*
X156396400Y-68772200D03*
X156396400Y-68272200D03*
X156396400Y-67772200D03*
X156396400Y-67272200D03*
X156396400Y-66772200D03*
X156396400Y-66272200D03*
X156396400Y-65772200D03*
X156396400Y-65272200D03*
X156396400Y-64772200D03*
X156396400Y-64272200D03*
X156396400Y-63772200D03*
X156396400Y-63272200D03*
X156396400Y-62772200D03*
X156396400Y-62272200D03*
D18*
X154646400Y-60522200D03*
X154146400Y-60522200D03*
X153646400Y-60522200D03*
X153146400Y-60522200D03*
X152646400Y-60522200D03*
X152146400Y-60522200D03*
X151646400Y-60522200D03*
X151146400Y-60522200D03*
X150646400Y-60522200D03*
X150146400Y-60522200D03*
X149646400Y-60522200D03*
X149146400Y-60522200D03*
X148646400Y-60522200D03*
X148146400Y-60522200D03*
X147646400Y-60522200D03*
X147146400Y-60522200D03*
X146646400Y-60522200D03*
X146146400Y-60522200D03*
X145646400Y-60522200D03*
X145146400Y-60522200D03*
X144646400Y-60522200D03*
X144146400Y-60522200D03*
X143646400Y-60522200D03*
X143146400Y-60522200D03*
X142646400Y-60522200D03*
D19*
X140896400Y-62272200D03*
X140896400Y-62772200D03*
X140896400Y-63272200D03*
X140896400Y-63772200D03*
X140896400Y-64272200D03*
X140896400Y-64772200D03*
X140896400Y-65272200D03*
X140896400Y-65772200D03*
X140896400Y-66272200D03*
X140896400Y-66772200D03*
X140896400Y-67272200D03*
X140896400Y-67772200D03*
X140896400Y-68272200D03*
X140896400Y-68772200D03*
X140896400Y-69272200D03*
X140896400Y-69772200D03*
X140896400Y-70272200D03*
X140896400Y-70772200D03*
X140896400Y-71272200D03*
X140896400Y-71772200D03*
X140896400Y-72272200D03*
X140896400Y-72772200D03*
X140896400Y-73272200D03*
X140896400Y-73772200D03*
X140896400Y-74272200D03*
D20*
X168450000Y-71490000D03*
X168450000Y-72140000D03*
X168450000Y-72790000D03*
X168450000Y-73440000D03*
X172850000Y-73440000D03*
X172850000Y-72790000D03*
X172850000Y-72140000D03*
X172850000Y-71490000D03*
D21*
X160421800Y-72956400D03*
X161221800Y-72956400D03*
X162021800Y-72956400D03*
X162821800Y-72956400D03*
X163621800Y-72956400D03*
X164421800Y-72956400D03*
X164421800Y-70361400D03*
X163621800Y-70361400D03*
X162821800Y-70361400D03*
X162021800Y-70361400D03*
X161221800Y-70361400D03*
X160421800Y-70361400D03*
D22*
X160124300Y-71656400D03*
X164719300Y-71656400D03*
D23*
X141466000Y-84607800D03*
X142116000Y-84607800D03*
X142766000Y-84607800D03*
X143416000Y-84607800D03*
D24*
X144391000Y-83632800D03*
X144391000Y-82982800D03*
X144391000Y-82332800D03*
X144391000Y-81682800D03*
D23*
X143416000Y-80707800D03*
X142766000Y-80707800D03*
X142116000Y-80707800D03*
X141466000Y-80707800D03*
D24*
X140491000Y-81682800D03*
X140491000Y-82332800D03*
X140491000Y-82982800D03*
X140491000Y-83632800D03*
D25*
X151975300Y-50982500D03*
X153225300Y-50982500D03*
X154475300Y-50982500D03*
X154475300Y-48382500D03*
X153225300Y-48382500D03*
X151975300Y-48382500D03*
X155725300Y-50982500D03*
X155725300Y-48382500D03*
D23*
X158479400Y-56046000D03*
X158979400Y-56046000D03*
X159479400Y-56046000D03*
X159979400Y-56046000D03*
D24*
X160729400Y-55296000D03*
X160729400Y-54796000D03*
X160729400Y-54296000D03*
X160729400Y-53796000D03*
D23*
X159979400Y-53046000D03*
X159479400Y-53046000D03*
X158979400Y-53046000D03*
X158479400Y-53046000D03*
D24*
X157729400Y-53796000D03*
X157729400Y-54296000D03*
X157729400Y-54796000D03*
X157729400Y-55296000D03*
D15*
X179000000Y-73000000D03*
X179000000Y-75000000D03*
D26*
X181100000Y-71500000D03*
X181100000Y-76500000D03*
D15*
X179000000Y-80000000D03*
X179000000Y-82000000D03*
X179000000Y-84000000D03*
X179000000Y-86000000D03*
D26*
X181100000Y-78500000D03*
X181100000Y-87500000D03*
D27*
X144800000Y-53130000D03*
X144800000Y-54400000D03*
X143530000Y-53130000D03*
X143530000Y-54400000D03*
X142260000Y-53130000D03*
X142260000Y-54400000D03*
X140990000Y-53130000D03*
X140990000Y-54400000D03*
X139720000Y-53130000D03*
X139720000Y-54400000D03*
D28*
X101200000Y-54500000D03*
D29*
X101200000Y-58881500D03*
X101200000Y-50118500D03*
D28*
X101200000Y-71700000D03*
D29*
X101200000Y-76081500D03*
X101200000Y-67318500D03*
D15*
X179000000Y-66000000D03*
X179000000Y-68000000D03*
D26*
X181100000Y-64500000D03*
X181100000Y-69500000D03*
D15*
X179000000Y-59000000D03*
X179000000Y-61000000D03*
D26*
X181100000Y-57500000D03*
X181100000Y-62500000D03*
D15*
X179000000Y-52000000D03*
X179000000Y-54000000D03*
D26*
X181100000Y-50500000D03*
X181100000Y-55500000D03*
D15*
X179000000Y-45000000D03*
X179000000Y-47000000D03*
D26*
X181100000Y-43500000D03*
X181100000Y-48500000D03*
D30*
X164860000Y-60895000D03*
X164860000Y-62165000D03*
X164860000Y-63435000D03*
X164860000Y-64705000D03*
X169540000Y-64705000D03*
X169540000Y-63435000D03*
X169540000Y-62165000D03*
X169540000Y-60895000D03*
D31*
X172200000Y-65000000D03*
X171250000Y-67000000D03*
X173150000Y-67000000D03*
X172200000Y-51200000D03*
X171250000Y-53200000D03*
X173150000Y-53200000D03*
D30*
X164860000Y-47095000D03*
X164860000Y-48365000D03*
X164860000Y-49635000D03*
X164860000Y-50905000D03*
X169540000Y-50905000D03*
X169540000Y-49635000D03*
X169540000Y-48365000D03*
X169540000Y-47095000D03*
D31*
X172200000Y-59000000D03*
X171250000Y-61000000D03*
X173150000Y-61000000D03*
X172200000Y-44800000D03*
X171250000Y-46800000D03*
X173150000Y-46800000D03*
D16*
X148982600Y-78689200D03*
X150432600Y-78689200D03*
D17*
X140200000Y-46275000D03*
X140200000Y-47725000D03*
X140200000Y-50325000D03*
X140200000Y-48875000D03*
D16*
X129525000Y-60000000D03*
X128075000Y-60000000D03*
X130675000Y-60000000D03*
X132125000Y-60000000D03*
X164675000Y-66200000D03*
X166125000Y-66200000D03*
X164675000Y-52400000D03*
X166125000Y-52400000D03*
X168725000Y-66200000D03*
X167275000Y-66200000D03*
X168725000Y-52400000D03*
X167275000Y-52400000D03*
X171475000Y-68400000D03*
X172925000Y-68400000D03*
X171475000Y-54600000D03*
X172925000Y-54600000D03*
D17*
X174600000Y-65475000D03*
X174600000Y-66925000D03*
X174600000Y-51675000D03*
X174600000Y-53125000D03*
D16*
X169925000Y-68400000D03*
X168475000Y-68400000D03*
X169925000Y-54600000D03*
X168475000Y-54600000D03*
X165675000Y-59200000D03*
X167125000Y-59200000D03*
X165875000Y-45600000D03*
X167325000Y-45600000D03*
X169725000Y-59200000D03*
X168275000Y-59200000D03*
X169925000Y-45600000D03*
X168475000Y-45600000D03*
X171475000Y-62400000D03*
X172925000Y-62400000D03*
X171475000Y-48200000D03*
X172925000Y-48200000D03*
D17*
X174600000Y-59475000D03*
X174600000Y-60925000D03*
X174600000Y-45275000D03*
X174600000Y-46725000D03*
D16*
X172125000Y-57000000D03*
X170675000Y-57000000D03*
X174791200Y-44119800D03*
X173341200Y-44119800D03*
D17*
X150648000Y-46704400D03*
X150648000Y-45254400D03*
X149148000Y-46704400D03*
X149148000Y-45254400D03*
X144648000Y-46704400D03*
X144648000Y-45254400D03*
X143148000Y-46704400D03*
X143148000Y-45254400D03*
X147648000Y-46704400D03*
X147648000Y-45254400D03*
X146148000Y-46704400D03*
X146148000Y-45254400D03*
D16*
X141766000Y-85982800D03*
X143216000Y-85982800D03*
D17*
X145567400Y-85967400D03*
X145567400Y-84517400D03*
X166420800Y-70727400D03*
X166420800Y-69277400D03*
D16*
X140128500Y-84695300D03*
X138678500Y-84695300D03*
X158404400Y-57246000D03*
X156954400Y-57246000D03*
X154350300Y-52582500D03*
X155800300Y-52582500D03*
D17*
X156029400Y-54621000D03*
X156029400Y-56071000D03*
D32*
X130300000Y-69700000D03*
X130300000Y-71700000D03*
X130300000Y-73700000D03*
X130300000Y-75700000D03*
X130300000Y-77700000D03*
X130300000Y-79700000D03*
X130300000Y-81700000D03*
X130300000Y-83700000D03*
X110600000Y-69700000D03*
X110600000Y-71700000D03*
X110600000Y-73700000D03*
X110600000Y-75700000D03*
X110600000Y-77700000D03*
X110600000Y-79700000D03*
X110600000Y-81700000D03*
X110600000Y-83700000D03*
D33*
X146993000Y-81051400D03*
X151493000Y-81051400D03*
D34*
X112400000Y-46400000D03*
D35*
X112400000Y-47500000D03*
X112400000Y-48600000D03*
X112400000Y-49700000D03*
X112400000Y-50800000D03*
X112400000Y-51900000D03*
X112400000Y-53000000D03*
X112400000Y-54100000D03*
D34*
X112400000Y-55200000D03*
X121900000Y-46400000D03*
X121900000Y-55200000D03*
D35*
X121900000Y-47500000D03*
X121900000Y-48600000D03*
X121900000Y-49700000D03*
X121900000Y-50800000D03*
X121900000Y-51900000D03*
X121900000Y-53000000D03*
X121900000Y-54100000D03*
D36*
X135350000Y-58400000D03*
D37*
X133960000Y-58625000D03*
D36*
X129650000Y-58400000D03*
D38*
X136950000Y-45250000D03*
X123800000Y-44250000D03*
D39*
X136160000Y-47540000D03*
X135060000Y-47540000D03*
X133960000Y-47340000D03*
X132860000Y-47540000D03*
X131760000Y-47340000D03*
X130660000Y-47540000D03*
X129560000Y-47940000D03*
X128460000Y-47540000D03*
D40*
X177600000Y-66400000D03*
X177600000Y-67500000D03*
X177600000Y-59400000D03*
X177600000Y-60500000D03*
X177600000Y-52400000D03*
X177600000Y-53500000D03*
X177600000Y-45400000D03*
X177600000Y-46500000D03*
D41*
X158500000Y-85000000D03*
D42*
X158500000Y-82500000D03*
X161000000Y-85000000D03*
X158500000Y-87500000D03*
X156000000Y-85000000D03*
X156700000Y-83200000D03*
X160300000Y-83200000D03*
X156700000Y-86800000D03*
X160300000Y-86800000D03*
D41*
X158500000Y-45000000D03*
D42*
X158500000Y-42500000D03*
X161000000Y-45000000D03*
X158500000Y-47500000D03*
X156000000Y-45000000D03*
X156700000Y-43200000D03*
X160300000Y-43200000D03*
X156700000Y-46800000D03*
X160300000Y-46800000D03*
D41*
X102500000Y-45000000D03*
D42*
X102500000Y-42500000D03*
X105000000Y-45000000D03*
X102500000Y-47500000D03*
X100000000Y-45000000D03*
X100700000Y-43200000D03*
X104300000Y-43200000D03*
X100700000Y-46800000D03*
X104300000Y-46800000D03*
D41*
X102500000Y-85000000D03*
D42*
X102500000Y-82500000D03*
X105000000Y-85000000D03*
X102500000Y-87500000D03*
X100000000Y-85000000D03*
X100700000Y-83200000D03*
X104300000Y-83200000D03*
X100700000Y-86800000D03*
X104300000Y-86800000D03*
D16*
X161125000Y-79600000D03*
X159675000Y-79600000D03*
D17*
X141650000Y-44200000D03*
X141650000Y-42750000D03*
X141650000Y-46700000D03*
X141650000Y-45250000D03*
M02*
