G04 #@! TF.FileFunction,Copper,L1,Top,Signal*
%FSLAX46Y46*%
G04 Gerber Fmt 4.6, Leading zero omitted, Abs format (unit mm)*
G04 Created by KiCad (PCBNEW 0.201505061231+5645~23~ubuntu14.04.1-product) date Wed 06 May 2015 16:32:05 BST*
%MOMM*%
G01*
G04 APERTURE LIST*
%ADD10C,0.100000*%
%ADD11C,1.500000*%
%ADD12R,0.700000X0.950000*%
%ADD13R,0.950000X0.700000*%
%ADD14R,0.300000X1.200000*%
%ADD15R,1.200000X0.300000*%
%ADD16R,1.400000X0.400000*%
%ADD17R,0.550000X1.545000*%
%ADD18R,1.545000X0.550000*%
%ADD19R,0.300000X0.800000*%
%ADD20R,0.800000X0.300000*%
%ADD21R,0.600000X1.500000*%
%ADD22C,1.016000*%
%ADD23R,5.080000X2.286000*%
%ADD24R,5.080000X2.413000*%
%ADD25R,1.780000X0.720000*%
%ADD26R,0.700000X0.900000*%
%ADD27R,4.000000X1.300000*%
%ADD28R,2.300000X2.500000*%
%ADD29R,1.800000X0.700000*%
%ADD30R,1.800000X0.800000*%
%ADD31R,1.300000X1.400000*%
%ADD32R,1.000000X0.950000*%
%ADD33R,1.400000X1.900000*%
%ADD34R,0.800000X1.500000*%
%ADD35R,0.500000X0.600000*%
%ADD36C,0.800000*%
%ADD37C,1.000000*%
%ADD38C,0.300000*%
%ADD39C,0.500000*%
%ADD40C,1.000000*%
%ADD41C,0.800000*%
%ADD42C,1.500000*%
%ADD43C,0.254000*%
G04 APERTURE END LIST*
D10*
D11*
X167600000Y-85100000D03*
X167600000Y-78100000D03*
D12*
X141286400Y-59029600D03*
X142736400Y-59029600D03*
X152335400Y-78663800D03*
X153785400Y-78663800D03*
D13*
X144068800Y-77456200D03*
X144068800Y-78906200D03*
D12*
X156325400Y-80340200D03*
X154875400Y-80340200D03*
D13*
X156921200Y-60364200D03*
X156921200Y-58914200D03*
D12*
X148275000Y-83400000D03*
X149725000Y-83400000D03*
X152325000Y-83400000D03*
X150875000Y-83400000D03*
X156300000Y-78968600D03*
X154850000Y-78968600D03*
D13*
X139268200Y-75324800D03*
X139268200Y-73874800D03*
X145440400Y-77456200D03*
X145440400Y-78906200D03*
X158216600Y-60846800D03*
X158216600Y-59396800D03*
X158394400Y-73290600D03*
X158394400Y-74740600D03*
D12*
X142725000Y-57600000D03*
X141275000Y-57600000D03*
D13*
X140000000Y-59125000D03*
X140000000Y-57675000D03*
X174600000Y-72125000D03*
X174600000Y-70675000D03*
D12*
X171075000Y-74800000D03*
X172525000Y-74800000D03*
D13*
X167000000Y-72275000D03*
X167000000Y-73725000D03*
D12*
X120175000Y-44900000D03*
X121625000Y-44900000D03*
D13*
X132500000Y-68325000D03*
X132500000Y-66875000D03*
X131100000Y-68325000D03*
X131100000Y-66875000D03*
X138600000Y-49475000D03*
X138600000Y-50925000D03*
D12*
X159701400Y-74726800D03*
X161151400Y-74726800D03*
X148275000Y-84800000D03*
X149725000Y-84800000D03*
X163107200Y-76047600D03*
X161657200Y-76047600D03*
X148275000Y-86200000D03*
X149725000Y-86200000D03*
X163691400Y-74676000D03*
X162241400Y-74676000D03*
D13*
X139191000Y-79582800D03*
X139191000Y-81032800D03*
X139191000Y-83532800D03*
X139191000Y-82082800D03*
D12*
X151850300Y-52582500D03*
X153300300Y-52582500D03*
X159454400Y-57246000D03*
X160904400Y-57246000D03*
X159875000Y-51300000D03*
X161325000Y-51300000D03*
D13*
X158100000Y-50275000D03*
X158100000Y-51725000D03*
X150650000Y-44200000D03*
X150650000Y-42750000D03*
X149148000Y-44204400D03*
X149148000Y-42754400D03*
X144648000Y-44204400D03*
X144648000Y-42754400D03*
X143148000Y-44204400D03*
X143148000Y-42754400D03*
X147648000Y-44204400D03*
X147648000Y-42754400D03*
X146148000Y-44204400D03*
X146148000Y-42754400D03*
D14*
X142646400Y-76022200D03*
X143146400Y-76022200D03*
X143646400Y-76022200D03*
X144146400Y-76022200D03*
X144646400Y-76022200D03*
X145146400Y-76022200D03*
X145646400Y-76022200D03*
X146146400Y-76022200D03*
X146646400Y-76022200D03*
X147146400Y-76022200D03*
X147646400Y-76022200D03*
X148146400Y-76022200D03*
X148646400Y-76022200D03*
X149146400Y-76022200D03*
X149646400Y-76022200D03*
X150146400Y-76022200D03*
X150646400Y-76022200D03*
X151146400Y-76022200D03*
X151646400Y-76022200D03*
X152146400Y-76022200D03*
X152646400Y-76022200D03*
X153146400Y-76022200D03*
X153646400Y-76022200D03*
X154146400Y-76022200D03*
X154646400Y-76022200D03*
D15*
X156396400Y-74272200D03*
X156396400Y-73772200D03*
X156396400Y-73272200D03*
X156396400Y-72772200D03*
X156396400Y-72272200D03*
X156396400Y-71772200D03*
X156396400Y-71272200D03*
X156396400Y-70772200D03*
X156396400Y-70272200D03*
X156396400Y-69772200D03*
X156396400Y-69272200D03*
X156396400Y-68772200D03*
X156396400Y-68272200D03*
X156396400Y-67772200D03*
X156396400Y-67272200D03*
X156396400Y-66772200D03*
X156396400Y-66272200D03*
X156396400Y-65772200D03*
X156396400Y-65272200D03*
X156396400Y-64772200D03*
X156396400Y-64272200D03*
X156396400Y-63772200D03*
X156396400Y-63272200D03*
X156396400Y-62772200D03*
X156396400Y-62272200D03*
D14*
X154646400Y-60522200D03*
X154146400Y-60522200D03*
X153646400Y-60522200D03*
X153146400Y-60522200D03*
X152646400Y-60522200D03*
X152146400Y-60522200D03*
X151646400Y-60522200D03*
X151146400Y-60522200D03*
X150646400Y-60522200D03*
X150146400Y-60522200D03*
X149646400Y-60522200D03*
X149146400Y-60522200D03*
X148646400Y-60522200D03*
X148146400Y-60522200D03*
X147646400Y-60522200D03*
X147146400Y-60522200D03*
X146646400Y-60522200D03*
X146146400Y-60522200D03*
X145646400Y-60522200D03*
X145146400Y-60522200D03*
X144646400Y-60522200D03*
X144146400Y-60522200D03*
X143646400Y-60522200D03*
X143146400Y-60522200D03*
X142646400Y-60522200D03*
D15*
X140896400Y-62272200D03*
X140896400Y-62772200D03*
X140896400Y-63272200D03*
X140896400Y-63772200D03*
X140896400Y-64272200D03*
X140896400Y-64772200D03*
X140896400Y-65272200D03*
X140896400Y-65772200D03*
X140896400Y-66272200D03*
X140896400Y-66772200D03*
X140896400Y-67272200D03*
X140896400Y-67772200D03*
X140896400Y-68272200D03*
X140896400Y-68772200D03*
X140896400Y-69272200D03*
X140896400Y-69772200D03*
X140896400Y-70272200D03*
X140896400Y-70772200D03*
X140896400Y-71272200D03*
X140896400Y-71772200D03*
X140896400Y-72272200D03*
X140896400Y-72772200D03*
X140896400Y-73272200D03*
X140896400Y-73772200D03*
X140896400Y-74272200D03*
D16*
X168450000Y-71490000D03*
X168450000Y-72140000D03*
X168450000Y-72790000D03*
X168450000Y-73440000D03*
X172850000Y-73440000D03*
X172850000Y-72790000D03*
X172850000Y-72140000D03*
X172850000Y-71490000D03*
D17*
X160421800Y-72956400D03*
X161221800Y-72956400D03*
X162021800Y-72956400D03*
X162821800Y-72956400D03*
X163621800Y-72956400D03*
X164421800Y-72956400D03*
X164421800Y-70361400D03*
X163621800Y-70361400D03*
X162821800Y-70361400D03*
X162021800Y-70361400D03*
X161221800Y-70361400D03*
X160421800Y-70361400D03*
D18*
X160124300Y-71656400D03*
X164719300Y-71656400D03*
D19*
X141466000Y-84607800D03*
X142116000Y-84607800D03*
X142766000Y-84607800D03*
X143416000Y-84607800D03*
D20*
X144391000Y-83632800D03*
X144391000Y-82982800D03*
X144391000Y-82332800D03*
X144391000Y-81682800D03*
D19*
X143416000Y-80707800D03*
X142766000Y-80707800D03*
X142116000Y-80707800D03*
X141466000Y-80707800D03*
D20*
X140491000Y-81682800D03*
X140491000Y-82332800D03*
X140491000Y-82982800D03*
X140491000Y-83632800D03*
D21*
X151975300Y-50982500D03*
X153225300Y-50982500D03*
X154475300Y-50982500D03*
X154475300Y-48382500D03*
X153225300Y-48382500D03*
X151975300Y-48382500D03*
X155725300Y-50982500D03*
X155725300Y-48382500D03*
D19*
X158479400Y-56046000D03*
X158979400Y-56046000D03*
X159479400Y-56046000D03*
X159979400Y-56046000D03*
D20*
X160729400Y-55296000D03*
X160729400Y-54796000D03*
X160729400Y-54296000D03*
X160729400Y-53796000D03*
D19*
X159979400Y-53046000D03*
X159479400Y-53046000D03*
X158979400Y-53046000D03*
X158479400Y-53046000D03*
D20*
X157729400Y-53796000D03*
X157729400Y-54296000D03*
X157729400Y-54796000D03*
X157729400Y-55296000D03*
D11*
X179000000Y-73000000D03*
X179000000Y-75000000D03*
X179000000Y-80000000D03*
X179000000Y-82000000D03*
X179000000Y-84000000D03*
X179000000Y-86000000D03*
D22*
X144800000Y-53130000D03*
X144800000Y-54400000D03*
X143530000Y-53130000D03*
X143530000Y-54400000D03*
X142260000Y-53130000D03*
X142260000Y-54400000D03*
X140990000Y-53130000D03*
X140990000Y-54400000D03*
X139720000Y-53130000D03*
X139720000Y-54400000D03*
D23*
X101200000Y-54500000D03*
D24*
X101200000Y-58881500D03*
X101200000Y-50118500D03*
D23*
X101200000Y-71700000D03*
D24*
X101200000Y-76081500D03*
X101200000Y-67318500D03*
D11*
X179000000Y-66000000D03*
X179000000Y-68000000D03*
X179000000Y-59000000D03*
X179000000Y-61000000D03*
X179000000Y-52000000D03*
X179000000Y-54000000D03*
X179000000Y-45000000D03*
X179000000Y-47000000D03*
D25*
X164860000Y-60895000D03*
X164860000Y-62165000D03*
X164860000Y-63435000D03*
X164860000Y-64705000D03*
X169540000Y-64705000D03*
X169540000Y-63435000D03*
X169540000Y-62165000D03*
X169540000Y-60895000D03*
D26*
X172200000Y-65000000D03*
X171250000Y-67000000D03*
X173150000Y-67000000D03*
X172200000Y-51200000D03*
X171250000Y-53200000D03*
X173150000Y-53200000D03*
D25*
X164860000Y-47095000D03*
X164860000Y-48365000D03*
X164860000Y-49635000D03*
X164860000Y-50905000D03*
X169540000Y-50905000D03*
X169540000Y-49635000D03*
X169540000Y-48365000D03*
X169540000Y-47095000D03*
D26*
X172200000Y-59000000D03*
X171250000Y-61000000D03*
X173150000Y-61000000D03*
X172200000Y-44800000D03*
X171250000Y-46800000D03*
X173150000Y-46800000D03*
D12*
X148982600Y-78689200D03*
X150432600Y-78689200D03*
D13*
X140200000Y-46275000D03*
X140200000Y-47725000D03*
X140200000Y-50325000D03*
X140200000Y-48875000D03*
D12*
X129525000Y-60000000D03*
X128075000Y-60000000D03*
X130675000Y-60000000D03*
X132125000Y-60000000D03*
X164675000Y-66200000D03*
X166125000Y-66200000D03*
X164675000Y-52400000D03*
X166125000Y-52400000D03*
X168725000Y-66200000D03*
X167275000Y-66200000D03*
X168725000Y-52400000D03*
X167275000Y-52400000D03*
X171475000Y-68400000D03*
X172925000Y-68400000D03*
X171475000Y-54600000D03*
X172925000Y-54600000D03*
D13*
X174600000Y-65475000D03*
X174600000Y-66925000D03*
X174600000Y-51675000D03*
X174600000Y-53125000D03*
D12*
X169925000Y-68400000D03*
X168475000Y-68400000D03*
X169925000Y-54600000D03*
X168475000Y-54600000D03*
X165675000Y-59200000D03*
X167125000Y-59200000D03*
X165875000Y-45600000D03*
X167325000Y-45600000D03*
X169725000Y-59200000D03*
X168275000Y-59200000D03*
X169925000Y-45600000D03*
X168475000Y-45600000D03*
X171475000Y-62400000D03*
X172925000Y-62400000D03*
X171475000Y-48200000D03*
X172925000Y-48200000D03*
D13*
X174600000Y-59475000D03*
X174600000Y-60925000D03*
X174600000Y-45275000D03*
X174600000Y-46725000D03*
D12*
X172125000Y-57000000D03*
X170675000Y-57000000D03*
X174791200Y-44119800D03*
X173341200Y-44119800D03*
D13*
X150648000Y-46704400D03*
X150648000Y-45254400D03*
X149148000Y-46704400D03*
X149148000Y-45254400D03*
X144648000Y-46704400D03*
X144648000Y-45254400D03*
X143148000Y-46704400D03*
X143148000Y-45254400D03*
X147648000Y-46704400D03*
X147648000Y-45254400D03*
X146148000Y-46704400D03*
X146148000Y-45254400D03*
D12*
X141766000Y-85982800D03*
X143216000Y-85982800D03*
D13*
X145567400Y-85967400D03*
X145567400Y-84517400D03*
X166420800Y-70727400D03*
X166420800Y-69277400D03*
D12*
X140128500Y-84695300D03*
X138678500Y-84695300D03*
X158404400Y-57246000D03*
X156954400Y-57246000D03*
X154350300Y-52582500D03*
X155800300Y-52582500D03*
D13*
X156029400Y-54621000D03*
X156029400Y-56071000D03*
D27*
X130300000Y-69700000D03*
X130300000Y-71700000D03*
X130300000Y-73700000D03*
X130300000Y-75700000D03*
X130300000Y-77700000D03*
X130300000Y-79700000D03*
X130300000Y-81700000D03*
X130300000Y-83700000D03*
X110600000Y-69700000D03*
X110600000Y-71700000D03*
X110600000Y-73700000D03*
X110600000Y-75700000D03*
X110600000Y-77700000D03*
X110600000Y-79700000D03*
X110600000Y-81700000D03*
X110600000Y-83700000D03*
D28*
X146993000Y-81051400D03*
X151493000Y-81051400D03*
D29*
X112400000Y-46400000D03*
D30*
X112400000Y-47500000D03*
X112400000Y-48600000D03*
X112400000Y-49700000D03*
X112400000Y-50800000D03*
X112400000Y-51900000D03*
X112400000Y-53000000D03*
X112400000Y-54100000D03*
D29*
X112400000Y-55200000D03*
X121900000Y-46400000D03*
X121900000Y-55200000D03*
D30*
X121900000Y-47500000D03*
X121900000Y-48600000D03*
X121900000Y-49700000D03*
X121900000Y-50800000D03*
X121900000Y-51900000D03*
X121900000Y-53000000D03*
X121900000Y-54100000D03*
D31*
X135350000Y-58400000D03*
D32*
X133960000Y-58625000D03*
D31*
X129650000Y-58400000D03*
D33*
X136950000Y-45250000D03*
X123800000Y-44250000D03*
D34*
X136160000Y-47540000D03*
X135060000Y-47540000D03*
X133960000Y-47340000D03*
X132860000Y-47540000D03*
X131760000Y-47340000D03*
X130660000Y-47540000D03*
X129560000Y-47940000D03*
X128460000Y-47540000D03*
D35*
X177600000Y-66400000D03*
X177600000Y-67500000D03*
X177600000Y-59400000D03*
X177600000Y-60500000D03*
X177600000Y-52400000D03*
X177600000Y-53500000D03*
X177600000Y-45400000D03*
X177600000Y-46500000D03*
D12*
X161125000Y-79600000D03*
X159675000Y-79600000D03*
D13*
X141650000Y-44200000D03*
X141650000Y-42750000D03*
X141650000Y-46700000D03*
X141650000Y-45250000D03*
D36*
X157400000Y-53000000D03*
X134150000Y-45800000D03*
X135000000Y-49000000D03*
X138200000Y-60200000D03*
X140000000Y-60500000D03*
X143000000Y-51100000D03*
X144600000Y-51800000D03*
X133200000Y-61000000D03*
X133200000Y-64000000D03*
X153314400Y-55346600D03*
X147320000Y-78257400D03*
X149453600Y-77419200D03*
X155651200Y-59893200D03*
X160000000Y-57500000D03*
X155400000Y-56800000D03*
X133400000Y-69700000D03*
X135800000Y-78200000D03*
X107000000Y-43000000D03*
X109000000Y-43000000D03*
X111000000Y-43000000D03*
X113000000Y-43000000D03*
X115000000Y-43000000D03*
X117000000Y-43000000D03*
X119000000Y-43000000D03*
X107000000Y-45000000D03*
X110000000Y-51000000D03*
X110000000Y-53000000D03*
X109000000Y-55000000D03*
X121000000Y-59000000D03*
X121000000Y-57000000D03*
X119000000Y-57000000D03*
X105000000Y-59000000D03*
X107000000Y-59000000D03*
X109000000Y-59000000D03*
X111000000Y-59000000D03*
X113000000Y-59000000D03*
X115000000Y-59000000D03*
X117000000Y-59000000D03*
X119000000Y-59000000D03*
X119000000Y-51000000D03*
X119000000Y-53000000D03*
X119000000Y-55000000D03*
X119000000Y-49000000D03*
X117000000Y-49000000D03*
X117000000Y-51000000D03*
X117000000Y-53000000D03*
X117000000Y-55000000D03*
X117000000Y-57000000D03*
X105000000Y-57000000D03*
X107000000Y-57000000D03*
X109000000Y-57000000D03*
X111000000Y-57000000D03*
X113000000Y-57000000D03*
X115000000Y-57000000D03*
X115000000Y-55000000D03*
X115000000Y-53000000D03*
X115000000Y-51000000D03*
X115000000Y-49000000D03*
X113000000Y-45000000D03*
X111000000Y-45000000D03*
X109000000Y-45000000D03*
X115000000Y-45000000D03*
X117000000Y-47000000D03*
X117000000Y-45000000D03*
X115000000Y-47000000D03*
X106250000Y-46550000D03*
X105000000Y-48200000D03*
X102200000Y-78600000D03*
X102600000Y-64700000D03*
X102000000Y-61500000D03*
X155500000Y-58900000D03*
X138600000Y-51900000D03*
X124100000Y-55800000D03*
X162100000Y-57100000D03*
X139000000Y-70800000D03*
X159400000Y-50100000D03*
X168200000Y-74600000D03*
X134000000Y-67700000D03*
X110600000Y-85100000D03*
X142000000Y-56400000D03*
X170800000Y-58400000D03*
X152603200Y-53797200D03*
X158826200Y-75768200D03*
X163068000Y-47802800D03*
D37*
X140603500Y-79595300D03*
X133971000Y-49921000D03*
X169900000Y-67000000D03*
X169750000Y-53250000D03*
D36*
X166243000Y-60858400D03*
X160731200Y-76073000D03*
X145897600Y-74701400D03*
X154863800Y-81610200D03*
X142722600Y-78917800D03*
X150901400Y-84759800D03*
X137845800Y-73837800D03*
X168910000Y-44246800D03*
X140250000Y-42750000D03*
X152000000Y-42750000D03*
X121700000Y-43800000D03*
X146400000Y-59200000D03*
X148000000Y-62700000D03*
X158623000Y-71501000D03*
X161213800Y-68630800D03*
X163423600Y-68681600D03*
X163042600Y-67183000D03*
X160604200Y-58801000D03*
X156700000Y-53700000D03*
X154500000Y-47200000D03*
X151000000Y-48400000D03*
X137000000Y-65600000D03*
X142400000Y-67600000D03*
X139000000Y-66400000D03*
X142400000Y-66600000D03*
X138200000Y-65600000D03*
X142400000Y-65400000D03*
X124900000Y-46600000D03*
X124900000Y-48400000D03*
X132800000Y-53000000D03*
X130600000Y-55200000D03*
X134000000Y-55800000D03*
X132200000Y-56800000D03*
X135400000Y-54400000D03*
X135400000Y-56600000D03*
X135000000Y-86800000D03*
X133400000Y-85200000D03*
X131600000Y-86200000D03*
X133600000Y-87000000D03*
X136245600Y-77139800D03*
X137820400Y-77825600D03*
D38*
X161125000Y-79600000D02*
X162100000Y-79600000D01*
X162100000Y-79600000D02*
X167600000Y-85100000D01*
X157954400Y-53554400D02*
X157400000Y-53000000D01*
X157954400Y-53796000D02*
X157954400Y-53554400D01*
D39*
X141200000Y-77456200D02*
X141200000Y-75700000D01*
X155651200Y-61148800D02*
X155651200Y-59893200D01*
X155000000Y-61800000D02*
X155651200Y-61148800D01*
X147600000Y-61800000D02*
X155000000Y-61800000D01*
X146800000Y-62600000D02*
X147600000Y-61800000D01*
X146800000Y-70100000D02*
X146800000Y-62600000D01*
X141200000Y-75700000D02*
X146800000Y-70100000D01*
X137400000Y-50000000D02*
X136000000Y-50000000D01*
X135000000Y-49000000D02*
X136000000Y-50000000D01*
X140000000Y-59125000D02*
X140000000Y-60500000D01*
X137925000Y-49475000D02*
X138600000Y-49475000D01*
X137400000Y-50000000D02*
X137925000Y-49475000D01*
X137400000Y-52300000D02*
X137400000Y-50000000D01*
X138100000Y-53000000D02*
X137400000Y-52300000D01*
X138100000Y-60100000D02*
X138100000Y-53000000D01*
X138200000Y-60200000D02*
X138100000Y-60100000D01*
X143000000Y-51100000D02*
X142225000Y-50325000D01*
X142225000Y-50325000D02*
X140200000Y-50325000D01*
X144800000Y-53130000D02*
X144800000Y-52000000D01*
X144800000Y-52000000D02*
X144600000Y-51800000D01*
X133400000Y-69700000D02*
X133800000Y-69700000D01*
X133100000Y-61100000D02*
X129200000Y-61100000D01*
X133200000Y-61000000D02*
X133100000Y-61100000D01*
D40*
X135500000Y-66300000D02*
X133200000Y-64000000D01*
X135500000Y-68000000D02*
X135500000Y-66300000D01*
X133800000Y-69700000D02*
X135500000Y-68000000D01*
D39*
X129525000Y-60000000D02*
X129525000Y-60775000D01*
X129525000Y-60775000D02*
X129200000Y-61100000D01*
X130100000Y-44800000D02*
X131760000Y-46460000D01*
X127800000Y-44800000D02*
X130100000Y-44800000D01*
X125800000Y-46000000D02*
X127000000Y-44800000D01*
X125800000Y-47500000D02*
X125800000Y-46000000D01*
X127400000Y-61100000D02*
X127100000Y-60800000D01*
X127100000Y-60800000D02*
X127100000Y-51400000D01*
X127100000Y-51400000D02*
X125800000Y-50100000D01*
X125800000Y-50100000D02*
X125800000Y-47500000D01*
X129200000Y-61100000D02*
X127400000Y-61100000D01*
X127000000Y-44800000D02*
X127800000Y-44800000D01*
X120175000Y-44900000D02*
X120175000Y-46975000D01*
X120700000Y-47500000D02*
X121900000Y-47500000D01*
X120175000Y-46975000D02*
X120700000Y-47500000D01*
D41*
X121900000Y-47500000D02*
X121900000Y-48600000D01*
X121900000Y-48600000D02*
X121900000Y-49700000D01*
D40*
X133125000Y-68325000D02*
X132500000Y-68325000D01*
X133400000Y-68600000D02*
X133125000Y-68325000D01*
X133400000Y-69700000D02*
X133400000Y-68600000D01*
X132500000Y-68325000D02*
X131100000Y-68325000D01*
X131100000Y-68325000D02*
X130300000Y-69125000D01*
D39*
X130300000Y-69125000D02*
X130300000Y-69700000D01*
D38*
X129525000Y-60000000D02*
X130675000Y-60000000D01*
D39*
X138600000Y-49475000D02*
X138875000Y-49475000D01*
X138875000Y-49475000D02*
X139725000Y-50325000D01*
X139725000Y-50325000D02*
X140200000Y-50325000D01*
X131760000Y-47340000D02*
X131760000Y-46460000D01*
X131760000Y-46460000D02*
X131760000Y-46240000D01*
X132200000Y-45800000D02*
X134150000Y-45800000D01*
X131760000Y-46240000D02*
X132200000Y-45800000D01*
X134150000Y-45800000D02*
X134000000Y-45800000D01*
X140200000Y-45400000D02*
X140200000Y-46275000D01*
X138000000Y-43200000D02*
X140200000Y-45400000D01*
X135800000Y-43200000D02*
X138000000Y-43200000D01*
X134400000Y-44600000D02*
X135800000Y-43200000D01*
X134400000Y-45400000D02*
X134400000Y-44600000D01*
X134000000Y-45800000D02*
X134400000Y-45400000D01*
D38*
X138600000Y-49475000D02*
X138675000Y-49475000D01*
X141286400Y-59029600D02*
X141286400Y-59162200D01*
X141286400Y-59162200D02*
X142646400Y-60522200D01*
D39*
X140000000Y-59125000D02*
X141191000Y-59125000D01*
X141191000Y-59125000D02*
X141286400Y-59029600D01*
X148105200Y-87505200D02*
X148463000Y-87147400D01*
X148271400Y-87339000D02*
X148082000Y-87528400D01*
D40*
X148271400Y-85979000D02*
X148271400Y-87339000D01*
D39*
X148082000Y-87528400D02*
X148105200Y-87505200D01*
D38*
X156921200Y-60364200D02*
X156921200Y-61797398D01*
X156921200Y-61797398D02*
X156396400Y-62322198D01*
X156396400Y-62322198D02*
X156396400Y-62272200D01*
X156396400Y-73272200D02*
X158376000Y-73272200D01*
X158376000Y-73272200D02*
X158394400Y-73290600D01*
X152646400Y-76022200D02*
X153146400Y-76022200D01*
X153146400Y-76022200D02*
X153146400Y-76746400D01*
X153146400Y-76746400D02*
X154200000Y-77800000D01*
X154200000Y-77800000D02*
X155600000Y-77800000D01*
X155600000Y-77800000D02*
X156300000Y-78500000D01*
X156300000Y-78500000D02*
X156300000Y-78968600D01*
D39*
X160794700Y-81343500D02*
X160705800Y-81254600D01*
D40*
X166852600Y-87401400D02*
X160794700Y-81343500D01*
X179500000Y-87401400D02*
X166852600Y-87401400D01*
D39*
X156325400Y-80340200D02*
X156325400Y-81000000D01*
D38*
X151646400Y-76022200D02*
X151646400Y-76953600D01*
X151646400Y-76953600D02*
X151180800Y-77419200D01*
D39*
X168450000Y-72790000D02*
X169290000Y-72790000D01*
X169290000Y-72790000D02*
X169940000Y-72140000D01*
X168450000Y-72140000D02*
X169940000Y-72140000D01*
D40*
X169940000Y-72140000D02*
X170000000Y-72200000D01*
D39*
X168450000Y-71490000D02*
X169290000Y-71490000D01*
X169290000Y-71490000D02*
X170000000Y-72200000D01*
D40*
X171075000Y-73275000D02*
X170000000Y-72200000D01*
X171075000Y-73275000D02*
X171075000Y-74800000D01*
D39*
X167000000Y-72275000D02*
X166400000Y-72275000D01*
X165443600Y-72756400D02*
X164421800Y-72756400D01*
X166400000Y-72275000D02*
X165925000Y-72275000D01*
X165925000Y-72275000D02*
X165443600Y-72756400D01*
X168450000Y-72790000D02*
X167515000Y-72790000D01*
X167515000Y-72790000D02*
X167000000Y-72275000D01*
X168450000Y-72140000D02*
X167135000Y-72140000D01*
X167135000Y-72140000D02*
X167000000Y-72275000D01*
X168450000Y-71490000D02*
X167785000Y-71490000D01*
X167785000Y-71490000D02*
X167000000Y-72275000D01*
D38*
X156726600Y-62272200D02*
X156396400Y-62272200D01*
X140896400Y-74272200D02*
X140484800Y-74272200D01*
X140484800Y-74272200D02*
X139432200Y-75324800D01*
X139432200Y-75324800D02*
X139268200Y-75324800D01*
D40*
X148271400Y-85979000D02*
X148271400Y-84607400D01*
D39*
X156300000Y-78968600D02*
X156300000Y-80314800D01*
X156300000Y-80314800D02*
X156325400Y-80340200D01*
D38*
X142646400Y-60522200D02*
X142646400Y-60274200D01*
D39*
X154350300Y-52582500D02*
X154350300Y-53193100D01*
X154350300Y-53193100D02*
X152933400Y-54610000D01*
X151850300Y-53432500D02*
X151850300Y-52582500D01*
X151739600Y-53543200D02*
X151850300Y-53432500D01*
X151739600Y-54076600D02*
X151739600Y-53543200D01*
X152933400Y-54610000D02*
X152273000Y-54610000D01*
X152273000Y-54610000D02*
X151739600Y-54076600D01*
X151850300Y-50907500D02*
X151975300Y-50782500D01*
X151850300Y-52582500D02*
X151850300Y-50907500D01*
X159701400Y-74726800D02*
X159701400Y-73292800D01*
X159701400Y-73292800D02*
X159703600Y-73290600D01*
D38*
X160421800Y-72756400D02*
X160237800Y-72756400D01*
D39*
X160237800Y-72756400D02*
X159703600Y-73290600D01*
X159703600Y-73290600D02*
X158394400Y-73290600D01*
D38*
X158350600Y-73246800D02*
X158394400Y-73290600D01*
D39*
X160344800Y-72833400D02*
X160421800Y-72756400D01*
D38*
X179000000Y-80000000D02*
X178750000Y-80000000D01*
X143398500Y-83665300D02*
X143398500Y-83632800D01*
X143398500Y-83650300D02*
X143398500Y-83665300D01*
X143416000Y-83632800D02*
X143398500Y-83650300D01*
X143416000Y-84407800D02*
X143416000Y-83632800D01*
D39*
X143398500Y-83632800D02*
X141478500Y-83632800D01*
D38*
X141466000Y-83645300D02*
X140703500Y-83645300D01*
X140703500Y-83645300D02*
X140691000Y-83632800D01*
X140691000Y-82982800D02*
X140691000Y-83632800D01*
X141466000Y-84407800D02*
X141466000Y-83645300D01*
X141466000Y-83645300D02*
X141478500Y-83632800D01*
D39*
X144191000Y-83632800D02*
X143398500Y-83632800D01*
D38*
X159979400Y-55821000D02*
X159979400Y-56721000D01*
X158979400Y-55821000D02*
X158979400Y-56546000D01*
D39*
X160361800Y-72816400D02*
X160356400Y-72821800D01*
X159701400Y-76211600D02*
X160629600Y-77139800D01*
X160629600Y-77139800D02*
X162534600Y-77139800D01*
X162534600Y-77139800D02*
X163107200Y-76567200D01*
X159701400Y-74726800D02*
X159701400Y-76211600D01*
X163347400Y-76047600D02*
X163691400Y-75703600D01*
X163107200Y-76047600D02*
X163347400Y-76047600D01*
X163107200Y-76567200D02*
X163107200Y-76047600D01*
X163691400Y-75703600D02*
X163691400Y-74676000D01*
D38*
X159979400Y-56721000D02*
X159454400Y-57246000D01*
X158979400Y-56546000D02*
X159454400Y-57021000D01*
X159454400Y-57021000D02*
X159454400Y-57246000D01*
D39*
X143228500Y-85995300D02*
X143216000Y-85982800D01*
X166400000Y-70748200D02*
X166420800Y-70727400D01*
X156954400Y-57246000D02*
X156954400Y-56996000D01*
X156954400Y-56996000D02*
X156029400Y-56071000D01*
X164421800Y-74378800D02*
X164421800Y-72756400D01*
X163691400Y-74676000D02*
X164211000Y-74676000D01*
X164211000Y-74676000D02*
X164421800Y-74465200D01*
X164421800Y-74465200D02*
X164421800Y-74378800D01*
X153314400Y-55346600D02*
X153289000Y-55346600D01*
X153314400Y-54991000D02*
X152933400Y-54610000D01*
X153314400Y-55346600D02*
X153314400Y-54991000D01*
X179000000Y-80000000D02*
X179085400Y-80000000D01*
D40*
X153670000Y-82651600D02*
X154578600Y-83560200D01*
D39*
X152335400Y-78751600D02*
X153670000Y-80086200D01*
D40*
X153670000Y-80086200D02*
X153670000Y-82651600D01*
D39*
X152335400Y-78663800D02*
X152335400Y-78751600D01*
X151180800Y-77419200D02*
X149453600Y-77419200D01*
X147320000Y-78257400D02*
X147320000Y-78232000D01*
X152335400Y-78573800D02*
X151180800Y-77419200D01*
X152335400Y-78663800D02*
X152335400Y-78573800D01*
D38*
X145731400Y-77165200D02*
X145440400Y-77456200D01*
D39*
X145731400Y-77456200D02*
X145440400Y-77456200D01*
X146532600Y-78257400D02*
X145731400Y-77456200D01*
X147320000Y-78257400D02*
X146532600Y-78257400D01*
X145440400Y-77456200D02*
X144068800Y-77456200D01*
D38*
X144463600Y-77456200D02*
X144068800Y-77456200D01*
X145146400Y-76773400D02*
X144463600Y-77456200D01*
X145146400Y-76022200D02*
X145146400Y-76773400D01*
X147345400Y-77165200D02*
X145731400Y-77165200D01*
X147646400Y-76864200D02*
X147345400Y-77165200D01*
X147646400Y-76022200D02*
X147646400Y-76864200D01*
D39*
X140651400Y-77456200D02*
X140600600Y-77405400D01*
X139268200Y-76073000D02*
X139268200Y-75324800D01*
X139268200Y-76073000D02*
X139738100Y-76542900D01*
X139738100Y-76542900D02*
X140600600Y-77405400D01*
X144068800Y-77456200D02*
X141200000Y-77456200D01*
X141200000Y-77456200D02*
X140651400Y-77456200D01*
D40*
X144920800Y-84517400D02*
X145567400Y-84517400D01*
X143455400Y-85982800D02*
X144920800Y-84517400D01*
D39*
X143216000Y-85982800D02*
X143455400Y-85982800D01*
X145657400Y-84607400D02*
X145567400Y-84517400D01*
D40*
X148271400Y-84607400D02*
X145657400Y-84607400D01*
D39*
X144682800Y-83632800D02*
X145567400Y-84517400D01*
X144191000Y-83632800D02*
X144682800Y-83632800D01*
D38*
X143416000Y-85782800D02*
X143216000Y-85982800D01*
X143416000Y-84407800D02*
X143416000Y-85782800D01*
D39*
X156006800Y-59893200D02*
X155651200Y-59893200D01*
X156477800Y-60364200D02*
X156006800Y-59893200D01*
X156921200Y-60364200D02*
X156477800Y-60364200D01*
X156921200Y-60364200D02*
X156501000Y-60364200D01*
D38*
X140625000Y-46700000D02*
X140200000Y-46275000D01*
X141650000Y-46700000D02*
X140625000Y-46700000D01*
D39*
X159746000Y-57246000D02*
X159454400Y-57246000D01*
X160000000Y-57500000D02*
X159746000Y-57246000D01*
X156029400Y-56170600D02*
X156029400Y-56071000D01*
X155400000Y-56800000D02*
X156029400Y-56170600D01*
D40*
X160451200Y-81000000D02*
X160794700Y-81343500D01*
X156325400Y-81000000D02*
X160451200Y-81000000D01*
X154509200Y-83490800D02*
X154578600Y-83560200D01*
X156325400Y-81674600D02*
X154509200Y-83490800D01*
X156325400Y-81000000D02*
X156325400Y-81674600D01*
X150991400Y-87147400D02*
X154578600Y-83560200D01*
X150633600Y-87505200D02*
X150991400Y-87147400D01*
X148105200Y-87505200D02*
X150633600Y-87505200D01*
X135800000Y-85700000D02*
X138000000Y-87900000D01*
X138000000Y-87900000D02*
X147710400Y-87900000D01*
X147710400Y-87900000D02*
X148105200Y-87505200D01*
X135800000Y-78200000D02*
X135800000Y-85700000D01*
D39*
X120175000Y-43925000D02*
X121500000Y-42600000D01*
X121500000Y-42600000D02*
X127000000Y-42600000D01*
X127000000Y-42600000D02*
X127800000Y-43400000D01*
X127800000Y-43400000D02*
X127800000Y-44800000D01*
X120175000Y-44900000D02*
X120175000Y-43925000D01*
D40*
X171075000Y-75475000D02*
X175600000Y-80000000D01*
X178100000Y-80000000D02*
X179000000Y-80000000D01*
X175600000Y-80000000D02*
X178100000Y-80000000D01*
X171075000Y-74800000D02*
X171075000Y-75475000D01*
D38*
X166420800Y-72275000D02*
X166400000Y-72254200D01*
X166400000Y-72254200D02*
X166400000Y-72200000D01*
X166400000Y-72200000D02*
X166400000Y-72275000D01*
X166420800Y-70727400D02*
X166420800Y-71695800D01*
X166420800Y-71695800D02*
X166420800Y-72275000D01*
D40*
X178100000Y-79600000D02*
X178500000Y-79200000D01*
X178500000Y-79200000D02*
X179300000Y-79200000D01*
X179300000Y-79200000D02*
X180000000Y-79900000D01*
X180000000Y-79900000D02*
X180000000Y-80200000D01*
X178100000Y-80000000D02*
X178100000Y-79600000D01*
X179085400Y-80000000D02*
X180568600Y-81483200D01*
X180568600Y-81483200D02*
X180568600Y-86334600D01*
D41*
X179501800Y-87401400D02*
X180568600Y-86334600D01*
X179500000Y-87401400D02*
X179501800Y-87401400D01*
D39*
X107000000Y-43000000D02*
X109000000Y-43000000D01*
X111000000Y-43000000D02*
X113000000Y-43000000D01*
X115000000Y-43000000D02*
X117000000Y-43000000D01*
X109000000Y-57000000D02*
X109000000Y-55000000D01*
X110000000Y-53000000D02*
X110000000Y-51000000D01*
X121000000Y-57000000D02*
X121000000Y-59000000D01*
X119000000Y-55000000D02*
X119000000Y-57000000D01*
X107000000Y-59000000D02*
X105000000Y-59000000D01*
X111000000Y-59000000D02*
X109000000Y-59000000D01*
X115000000Y-59000000D02*
X113000000Y-59000000D01*
X119000000Y-59000000D02*
X117000000Y-59000000D01*
X119000000Y-53000000D02*
X119000000Y-51000000D01*
X119000000Y-49000000D02*
X117000000Y-49000000D01*
X115000000Y-57000000D02*
X117000000Y-57000000D01*
X117000000Y-51000000D02*
X117000000Y-49000000D01*
X117000000Y-55000000D02*
X117000000Y-53000000D01*
X115000000Y-47000000D02*
X115000000Y-49000000D01*
X109000000Y-57000000D02*
X107000000Y-57000000D01*
X113000000Y-57000000D02*
X111000000Y-57000000D01*
X115000000Y-55000000D02*
X115000000Y-57000000D01*
X115000000Y-51000000D02*
X115000000Y-53000000D01*
X113000000Y-45000000D02*
X115000000Y-45000000D01*
X109000000Y-45000000D02*
X111000000Y-45000000D01*
X117000000Y-45000000D02*
X117000000Y-47000000D01*
X115000000Y-47000000D02*
X115000000Y-45000000D01*
X105000000Y-48200000D02*
X106000000Y-47200000D01*
D40*
X103081500Y-50118500D02*
X105000000Y-48200000D01*
D39*
X106000000Y-46800000D02*
X106250000Y-46550000D01*
X106000000Y-47200000D02*
X106000000Y-46800000D01*
D40*
X101200000Y-76081500D02*
X101200000Y-77600000D01*
X101200000Y-77600000D02*
X102200000Y-78600000D01*
X101200000Y-67318500D02*
X101200000Y-66100000D01*
X101200000Y-66100000D02*
X102600000Y-64700000D01*
X101200000Y-50118500D02*
X103081500Y-50118500D01*
X101200000Y-58881500D02*
X101200000Y-60700000D01*
X101200000Y-60700000D02*
X102000000Y-61500000D01*
D39*
X155514200Y-58914200D02*
X155500000Y-58900000D01*
X155514200Y-58914200D02*
X156921200Y-58914200D01*
X138600000Y-50925000D02*
X138600000Y-51900000D01*
X121900000Y-55200000D02*
X123500000Y-55200000D01*
X123500000Y-55200000D02*
X124100000Y-55800000D01*
X160904400Y-57246000D02*
X161954000Y-57246000D01*
X161954000Y-57246000D02*
X162100000Y-57100000D01*
X174600000Y-70675000D02*
X176325000Y-70675000D01*
X176325000Y-70675000D02*
X179000000Y-68000000D01*
D38*
X140896400Y-71272200D02*
X139472200Y-71272200D01*
X139472200Y-71272200D02*
X139000000Y-70800000D01*
X159400000Y-50400000D02*
X159400000Y-50100000D01*
X158979400Y-53271000D02*
X158979400Y-50820600D01*
X160900000Y-50400000D02*
X161325000Y-50825000D01*
X159400000Y-50400000D02*
X160900000Y-50400000D01*
X158979400Y-50820600D02*
X159400000Y-50400000D01*
X161325000Y-50825000D02*
X161325000Y-51300000D01*
X159979400Y-53271000D02*
X159979400Y-52620600D01*
X161325000Y-51975000D02*
X161325000Y-51300000D01*
X161000000Y-52300000D02*
X161325000Y-51975000D01*
X160300000Y-52300000D02*
X161000000Y-52300000D01*
X159979400Y-52620600D02*
X160300000Y-52300000D01*
X168450000Y-73440000D02*
X168450000Y-74350000D01*
D39*
X168000000Y-74800000D02*
X167000000Y-74800000D01*
X168000000Y-74800000D02*
X168200000Y-74600000D01*
D38*
X168450000Y-74350000D02*
X168200000Y-74600000D01*
X168450000Y-73440000D02*
X167285000Y-73440000D01*
X167285000Y-73440000D02*
X167000000Y-73725000D01*
D41*
X101818500Y-50118500D02*
X101200000Y-50118500D01*
X101618500Y-58881500D02*
X101200000Y-58881500D01*
D42*
X110600000Y-73700000D02*
X104700000Y-73700000D01*
X104700000Y-73700000D02*
X102318500Y-76081500D01*
X102318500Y-76081500D02*
X101200000Y-76081500D01*
X110600000Y-69700000D02*
X104900000Y-69700000D01*
X104900000Y-69700000D02*
X102518500Y-67318500D01*
X102518500Y-67318500D02*
X101200000Y-67318500D01*
D39*
X132500000Y-66875000D02*
X133175000Y-66875000D01*
X133175000Y-66875000D02*
X134000000Y-67700000D01*
X131100000Y-66875000D02*
X132500000Y-66875000D01*
X110600000Y-83700000D02*
X110600000Y-85100000D01*
X141275000Y-57600000D02*
X141275000Y-57125000D01*
X141275000Y-57125000D02*
X142000000Y-56400000D01*
D38*
X141275000Y-57600000D02*
X141800000Y-57600000D01*
X142000000Y-58293200D02*
X142736400Y-59029600D01*
X142000000Y-57800000D02*
X142000000Y-58293200D01*
X141800000Y-57600000D02*
X142000000Y-57800000D01*
D39*
X140000000Y-57675000D02*
X141200000Y-57675000D01*
X141200000Y-57675000D02*
X141275000Y-57600000D01*
X169725000Y-59200000D02*
X170000000Y-59200000D01*
X170000000Y-59200000D02*
X170800000Y-58400000D01*
X163621800Y-72756400D02*
X162821800Y-72756400D01*
X161221800Y-72756400D02*
X161221800Y-74656400D01*
X161221800Y-74656400D02*
X161151400Y-74726800D01*
X162241400Y-74676000D02*
X162524000Y-74676000D01*
X162524000Y-74676000D02*
X162821800Y-74378200D01*
X162821800Y-74378200D02*
X162821800Y-72756400D01*
X161151400Y-74726800D02*
X161151400Y-74754400D01*
X161151400Y-74754400D02*
X161657200Y-75260200D01*
D38*
X156396400Y-73772200D02*
X157172200Y-73772200D01*
X157172200Y-73772200D02*
X158140600Y-74740600D01*
X158140600Y-74740600D02*
X158394400Y-74740600D01*
X152146400Y-76022200D02*
X152146400Y-77546400D01*
X153785400Y-78185400D02*
X153785400Y-78663800D01*
X153400000Y-77800000D02*
X153785400Y-78185400D01*
X152400000Y-77800000D02*
X153400000Y-77800000D01*
X152146400Y-77546400D02*
X152400000Y-77800000D01*
X153785400Y-78385400D02*
X153785400Y-78663800D01*
D39*
X153785400Y-78663800D02*
X154545200Y-78663800D01*
X154545200Y-78663800D02*
X154850000Y-78968600D01*
X167000000Y-73725000D02*
X167000000Y-74800000D01*
X167000000Y-74800000D02*
X167000000Y-77500000D01*
X167000000Y-77500000D02*
X167600000Y-78100000D01*
D38*
X140896400Y-73772200D02*
X139370800Y-73772200D01*
X139370800Y-73772200D02*
X139268200Y-73874800D01*
D39*
X149721400Y-84607400D02*
X149721400Y-85979000D01*
X149772200Y-83286600D02*
X149772200Y-84556600D01*
X149772200Y-84556600D02*
X149721400Y-84607400D01*
X154824600Y-78943200D02*
X154850000Y-78968600D01*
D38*
X153810800Y-78499800D02*
X153810800Y-78943200D01*
D39*
X154850000Y-78968600D02*
X154850000Y-80314800D01*
X154850000Y-80314800D02*
X154875400Y-80340200D01*
D38*
X143146400Y-60522200D02*
X143146400Y-59439600D01*
X143146400Y-59439600D02*
X142736400Y-59029600D01*
D39*
X154475300Y-50782500D02*
X153225300Y-50782500D01*
X153300300Y-52582500D02*
X153300300Y-50857500D01*
X153300300Y-50857500D02*
X153225300Y-50782500D01*
X153300300Y-52582500D02*
X153300300Y-53100100D01*
X153300300Y-53100100D02*
X152603200Y-53797200D01*
X158394400Y-74740600D02*
X158394400Y-75336400D01*
X158394400Y-75336400D02*
X158826200Y-75768200D01*
X163068000Y-47802800D02*
X163118800Y-47802800D01*
X163396800Y-49300000D02*
X163068000Y-48971200D01*
X163068000Y-48971200D02*
X163068000Y-47832000D01*
X163068000Y-47832000D02*
X163068000Y-47802800D01*
X164860000Y-49635000D02*
X163735000Y-49635000D01*
X163400000Y-49300000D02*
X163735000Y-49635000D01*
X163400000Y-49300000D02*
X163396800Y-49300000D01*
X163118800Y-47802800D02*
X163826600Y-47095000D01*
X149148000Y-42754400D02*
X150648000Y-42754400D01*
D38*
X143416000Y-80907800D02*
X143416000Y-81132800D01*
X143966000Y-81682800D02*
X144191000Y-81682800D01*
X143416000Y-81132800D02*
X143966000Y-81682800D01*
D39*
X141466000Y-80907800D02*
X141466000Y-80282800D01*
X140591000Y-79582800D02*
X140603500Y-79595300D01*
X140778500Y-79595300D02*
X140603500Y-79595300D01*
X141466000Y-80282800D02*
X140778500Y-79595300D01*
D38*
X140691000Y-81682800D02*
X140891000Y-81682800D01*
X140891000Y-81682800D02*
X141466000Y-81107800D01*
X141466000Y-81107800D02*
X141466000Y-80907800D01*
D39*
X143416000Y-80907800D02*
X142766000Y-80907800D01*
X142766000Y-80907800D02*
X142116000Y-80907800D01*
X142116000Y-80907800D02*
X141466000Y-80907800D01*
D38*
X141441000Y-80882800D02*
X141466000Y-80907800D01*
D39*
X164860000Y-63435000D02*
X165960000Y-63435000D01*
X165960000Y-63435000D02*
X168725000Y-66200000D01*
X164860000Y-49635000D02*
X165960000Y-49635000D01*
X165960000Y-49635000D02*
X168725000Y-52400000D01*
X133931000Y-47261000D02*
X133931000Y-49881000D01*
X133931000Y-49881000D02*
X133971000Y-49921000D01*
X143148000Y-42754400D02*
X144648000Y-42754400D01*
X144648000Y-42754400D02*
X146148000Y-42754400D01*
X146148000Y-42754400D02*
X147648000Y-42754400D01*
X147648000Y-42754400D02*
X149148000Y-42754400D01*
D38*
X159979400Y-53271000D02*
X159979400Y-52796000D01*
D39*
X164860000Y-47095000D02*
X163826600Y-47095000D01*
X163826600Y-47095000D02*
X163805000Y-47095000D01*
X164860000Y-60895000D02*
X163805000Y-60895000D01*
X163835000Y-63435000D02*
X164860000Y-63435000D01*
X163400000Y-63000000D02*
X163835000Y-63435000D01*
X163400000Y-61300000D02*
X163400000Y-63000000D01*
X163805000Y-60895000D02*
X163400000Y-61300000D01*
X168725000Y-66200000D02*
X169100000Y-66200000D01*
X169100000Y-66200000D02*
X169900000Y-67000000D01*
X177600000Y-67500000D02*
X178500000Y-67500000D01*
X178500000Y-67500000D02*
X179000000Y-68000000D01*
X177600000Y-60500000D02*
X178500000Y-60500000D01*
X178500000Y-60500000D02*
X179000000Y-61000000D01*
X177400000Y-53500000D02*
X178500000Y-53500000D01*
X178500000Y-53500000D02*
X179000000Y-54000000D01*
X177400000Y-46500000D02*
X178500000Y-46500000D01*
X178500000Y-46500000D02*
X179000000Y-47000000D01*
X168900000Y-52400000D02*
X169750000Y-53250000D01*
X168725000Y-52400000D02*
X168900000Y-52400000D01*
D38*
X166206400Y-60895000D02*
X164860000Y-60895000D01*
X166206400Y-60895000D02*
X166243000Y-60858400D01*
X164896600Y-60858400D02*
X166243000Y-60858400D01*
D39*
X161202200Y-74676000D02*
X161151400Y-74726800D01*
X161657200Y-76047600D02*
X161559400Y-76047600D01*
X161657200Y-76047600D02*
X161657200Y-75260200D01*
X160756600Y-76047600D02*
X160731200Y-76073000D01*
X161657200Y-76047600D02*
X160756600Y-76047600D01*
X162241400Y-74676000D02*
X162241400Y-74613600D01*
X161657200Y-75260200D02*
X162241400Y-74676000D01*
X140591000Y-79582800D02*
X139191000Y-79582800D01*
X138153500Y-80620300D02*
X139191000Y-79582800D01*
X139191000Y-79582800D02*
X139016000Y-79582800D01*
X138153500Y-83945300D02*
X138153500Y-80620300D01*
X138678500Y-84695300D02*
X138678500Y-84470300D01*
X138678500Y-84470300D02*
X138153500Y-83945300D01*
X157771000Y-58914200D02*
X156921200Y-58914200D01*
X158216600Y-59359800D02*
X157771000Y-58914200D01*
X158216600Y-59396800D02*
X158216600Y-59359800D01*
D38*
X147146400Y-75264400D02*
X146583400Y-74701400D01*
X146583400Y-74701400D02*
X145897600Y-74701400D01*
X147146400Y-76022200D02*
X147146400Y-75264400D01*
D39*
X154875400Y-81598600D02*
X154863800Y-81610200D01*
X154875400Y-80340200D02*
X154875400Y-81598600D01*
X144057200Y-78917800D02*
X142722600Y-78917800D01*
X144068800Y-78906200D02*
X144057200Y-78917800D01*
X145440400Y-78906200D02*
X144068800Y-78906200D01*
X149797600Y-83312000D02*
X149772200Y-83286600D01*
X150887600Y-83312000D02*
X149797600Y-83312000D01*
X150749000Y-84607400D02*
X150901400Y-84759800D01*
X149721400Y-84607400D02*
X150749000Y-84607400D01*
X137882800Y-73874800D02*
X137845800Y-73837800D01*
X139268200Y-73874800D02*
X137882800Y-73874800D01*
X169925000Y-45261800D02*
X168910000Y-44246800D01*
X169925000Y-45600000D02*
X169925000Y-45261800D01*
X141654400Y-42754400D02*
X141650000Y-42750000D01*
X143148000Y-42754400D02*
X141654400Y-42754400D01*
X141650000Y-42750000D02*
X140250000Y-42750000D01*
X150650000Y-42750000D02*
X152000000Y-42750000D01*
X121625000Y-43875000D02*
X121700000Y-43800000D01*
X121625000Y-44900000D02*
X121625000Y-43875000D01*
X147193000Y-81051400D02*
X147193000Y-82157400D01*
X147193000Y-82157400D02*
X148322200Y-83286600D01*
X148437600Y-83171200D02*
X148322200Y-83286600D01*
D38*
X147193000Y-81051400D02*
X147193000Y-79502000D01*
X148146400Y-78548600D02*
X147599400Y-79095600D01*
X148146400Y-78548600D02*
X148146400Y-76022200D01*
X147193000Y-79502000D02*
X147599400Y-79095600D01*
D39*
X152337600Y-83312000D02*
X152337600Y-82096000D01*
X152337600Y-82096000D02*
X151293000Y-81051400D01*
X151093000Y-81251400D02*
X151293000Y-81051400D01*
D38*
X150712000Y-80470400D02*
X151293000Y-81051400D01*
X150432600Y-80191000D02*
X151293000Y-81051400D01*
X150432600Y-78689200D02*
X150432600Y-80191000D01*
X157420400Y-62772200D02*
X158216600Y-61976000D01*
X158216600Y-61976000D02*
X158216600Y-60846800D01*
X156396400Y-62772200D02*
X157420400Y-62772200D01*
X143646400Y-60522200D02*
X143646400Y-58521400D01*
X143646400Y-58521400D02*
X142725000Y-57600000D01*
D39*
X184000000Y-51700000D02*
X184000000Y-49800000D01*
X184000000Y-49800000D02*
X181600000Y-47400000D01*
D40*
X184000000Y-61300000D02*
X184000000Y-51700000D01*
X184000000Y-51700000D02*
X184000000Y-51600000D01*
D39*
X180600000Y-51600000D02*
X184000000Y-51600000D01*
X173150000Y-53150000D02*
X172200000Y-52200000D01*
X172200000Y-52200000D02*
X171600000Y-52200000D01*
X171600000Y-52200000D02*
X171200000Y-51800000D01*
X171200000Y-51800000D02*
X171200000Y-50400000D01*
X171200000Y-50400000D02*
X171600000Y-50000000D01*
X171600000Y-50000000D02*
X179000000Y-50000000D01*
X179000000Y-50000000D02*
X180600000Y-51600000D01*
X174600000Y-46725000D02*
X175725000Y-46725000D01*
X175725000Y-46725000D02*
X177400000Y-48400000D01*
X177400000Y-48400000D02*
X179400000Y-48400000D01*
X179400000Y-48400000D02*
X180400000Y-47400000D01*
X180400000Y-47400000D02*
X181600000Y-47400000D01*
D42*
X184000000Y-65600000D02*
X184000000Y-61300000D01*
X179000000Y-75000000D02*
X182300000Y-75000000D01*
X184000000Y-73300000D02*
X184000000Y-65600000D01*
X182300000Y-75000000D02*
X184000000Y-73300000D01*
D39*
X173150000Y-66950000D02*
X172200000Y-66000000D01*
X172200000Y-66000000D02*
X171500000Y-66000000D01*
X171500000Y-66000000D02*
X171200000Y-65700000D01*
X171200000Y-65700000D02*
X171200000Y-64300000D01*
X171200000Y-64300000D02*
X171500000Y-64000000D01*
X171500000Y-64000000D02*
X178900000Y-64000000D01*
X178900000Y-64000000D02*
X180500000Y-65600000D01*
X180500000Y-65600000D02*
X184000000Y-65600000D01*
X173150000Y-67000000D02*
X173150000Y-66950000D01*
X174600000Y-60925000D02*
X176225000Y-60925000D01*
X176225000Y-60925000D02*
X177600000Y-62300000D01*
X177600000Y-62300000D02*
X179600000Y-62300000D01*
X179600000Y-62300000D02*
X180600000Y-61300000D01*
X180600000Y-61300000D02*
X184000000Y-61300000D01*
X174600000Y-60925000D02*
X173225000Y-60925000D01*
X173225000Y-60925000D02*
X172925000Y-61225000D01*
X172925000Y-61225000D02*
X172925000Y-62400000D01*
X174600000Y-66925000D02*
X173225000Y-66925000D01*
X173225000Y-66925000D02*
X172925000Y-67225000D01*
X172925000Y-67225000D02*
X172925000Y-68400000D01*
D40*
X179000000Y-75000000D02*
X177475000Y-75000000D01*
X177475000Y-75000000D02*
X175675000Y-73200000D01*
D39*
X173150000Y-53200000D02*
X173150000Y-53150000D01*
X173150000Y-53200000D02*
X174525000Y-53200000D01*
X174525000Y-53200000D02*
X174600000Y-53125000D01*
X172925000Y-54600000D02*
X172925000Y-53425000D01*
X172925000Y-53425000D02*
X173150000Y-53200000D01*
X174600000Y-46725000D02*
X173225000Y-46725000D01*
X173225000Y-46725000D02*
X172925000Y-47025000D01*
X172925000Y-47025000D02*
X172925000Y-48200000D01*
D38*
X172850000Y-72790000D02*
X173935000Y-72790000D01*
D39*
X172850000Y-71490000D02*
X173965000Y-71490000D01*
X174600000Y-72125000D02*
X172865000Y-72125000D01*
X172865000Y-72125000D02*
X172850000Y-72140000D01*
D40*
X175675000Y-73200000D02*
X174600000Y-72125000D01*
D38*
X173935000Y-72790000D02*
X174600000Y-72125000D01*
D39*
X173965000Y-71490000D02*
X174600000Y-72125000D01*
X172850000Y-73440000D02*
X172850000Y-74475000D01*
X172850000Y-74475000D02*
X172525000Y-74800000D01*
X139191000Y-81032800D02*
X139191000Y-82082800D01*
D38*
X140691000Y-82332800D02*
X139441000Y-82332800D01*
X139441000Y-82332800D02*
X139191000Y-82082800D01*
D39*
X139191000Y-83532800D02*
X139191000Y-83757800D01*
X139191000Y-83757800D02*
X140128500Y-84695300D01*
D38*
X159479400Y-53271000D02*
X159479400Y-51695600D01*
X159479400Y-51695600D02*
X159875000Y-51300000D01*
X158100000Y-50275000D02*
X158125000Y-50275000D01*
X158125000Y-50275000D02*
X159100000Y-49300000D01*
X161204000Y-53796000D02*
X160504400Y-53796000D01*
X162000000Y-53000000D02*
X161204000Y-53796000D01*
X162000000Y-50415402D02*
X162000000Y-53000000D01*
X160884598Y-49300000D02*
X162000000Y-50415402D01*
X159100000Y-49300000D02*
X160884598Y-49300000D01*
X158100000Y-50275000D02*
X158225000Y-50275000D01*
X158479400Y-53271000D02*
X158479400Y-52104400D01*
X158479400Y-52104400D02*
X158100000Y-51725000D01*
D39*
X150648000Y-44204400D02*
X150648000Y-45254400D01*
X149148000Y-44204400D02*
X149148000Y-45254400D01*
X144648000Y-44204400D02*
X144648000Y-45254400D01*
X143148000Y-44204400D02*
X143148000Y-45254400D01*
X147648000Y-44204400D02*
X147648000Y-45254400D01*
X146148000Y-44204400D02*
X146148000Y-45254400D01*
D38*
X149148800Y-78714600D02*
X149148800Y-78765400D01*
X148646400Y-78353000D02*
X148982600Y-78689200D01*
X148646400Y-77870400D02*
X148646400Y-76022200D01*
X148646400Y-78353000D02*
X148646400Y-77870400D01*
X149146400Y-64000000D02*
X149146400Y-63846400D01*
X146400000Y-57903602D02*
X146400000Y-59200000D01*
X145800000Y-57303602D02*
X146400000Y-57903602D01*
X145800000Y-51800000D02*
X145800000Y-57303602D01*
X145000000Y-51000000D02*
X145800000Y-51800000D01*
X144400000Y-51000000D02*
X145000000Y-51000000D01*
X143400000Y-52000000D02*
X144400000Y-51000000D01*
X139600000Y-52000000D02*
X143400000Y-52000000D01*
X138800000Y-52800000D02*
X139600000Y-52000000D01*
X138800000Y-53600000D02*
X138800000Y-52800000D01*
X138800000Y-53600000D02*
X139600000Y-54400000D01*
X149146400Y-63846400D02*
X148000000Y-62700000D01*
X139720000Y-54400000D02*
X139600000Y-54400000D01*
X149146400Y-63946400D02*
X149146400Y-64000000D01*
X149146400Y-64000000D02*
X149146400Y-76022200D01*
X154646400Y-76022200D02*
X154646400Y-76566800D01*
X154646400Y-76566800D02*
X154851799Y-76772199D01*
X154851799Y-76772199D02*
X158128399Y-76772199D01*
X158128399Y-76772199D02*
X158140400Y-76760198D01*
X158140400Y-76760198D02*
X158140400Y-76784200D01*
X179000000Y-84000000D02*
X177500000Y-84000000D01*
X176000000Y-82500000D02*
X173049998Y-82500000D01*
X177500000Y-84000000D02*
X176000000Y-82500000D01*
X173049998Y-82500000D02*
X168148800Y-82500000D01*
X160542000Y-78500000D02*
X159856200Y-78500000D01*
X160578800Y-78500000D02*
X160542000Y-78500000D01*
X160655000Y-78500000D02*
X160578800Y-78500000D01*
X159856200Y-78500000D02*
X158140400Y-76784200D01*
X168148800Y-82500000D02*
X167411400Y-81762600D01*
X164148800Y-78500000D02*
X160578800Y-78500000D01*
X164148800Y-78500000D02*
X167411400Y-81762600D01*
X173253400Y-82000000D02*
X179000000Y-82000000D01*
X173250000Y-82000000D02*
X173253400Y-82000000D01*
X156396400Y-74272200D02*
X156873000Y-74272200D01*
X168766400Y-82000000D02*
X167995600Y-81229200D01*
X157302200Y-74701400D02*
X156873000Y-74272200D01*
X157302200Y-74701400D02*
X157302200Y-75285600D01*
X157302200Y-75285600D02*
X159893000Y-77876400D01*
X159893000Y-77876400D02*
X164642800Y-77876400D01*
X164642800Y-77876400D02*
X167995600Y-81229200D01*
X173253400Y-82000000D02*
X168766400Y-82000000D01*
X156396400Y-72272200D02*
X159327800Y-72272200D01*
X159327800Y-72272200D02*
X159943600Y-71656400D01*
X159943600Y-71656400D02*
X160324300Y-71656400D01*
X160324300Y-71656400D02*
X159839200Y-71656400D01*
X160324300Y-71656400D02*
X159585200Y-71656400D01*
X156396400Y-71772200D02*
X158351800Y-71772200D01*
X161213800Y-68630800D02*
X161221800Y-68638800D01*
X161221800Y-68638800D02*
X161221800Y-70561400D01*
X158351800Y-71772200D02*
X158623000Y-71501000D01*
X160421800Y-70561400D02*
X158521200Y-70561400D01*
X157810400Y-71272200D02*
X156396400Y-71272200D01*
X158521200Y-70561400D02*
X157810400Y-71272200D01*
X160421800Y-70561400D02*
X160421800Y-70480400D01*
X160421800Y-70561400D02*
X160421800Y-69972400D01*
X156396400Y-70772200D02*
X157674002Y-70772200D01*
X159664400Y-69164200D02*
X160909000Y-67919600D01*
X160909000Y-67919600D02*
X165063000Y-67919600D01*
X165063000Y-67919600D02*
X166420800Y-69277400D01*
X158828600Y-70000000D02*
X159664400Y-69164200D01*
X158446202Y-70000000D02*
X158828600Y-70000000D01*
X157674002Y-70772200D02*
X158446202Y-70000000D01*
X164519300Y-71656400D02*
X164943600Y-71656400D01*
X164943600Y-71656400D02*
X165400000Y-71200000D01*
X165400000Y-70000000D02*
X166122600Y-69277400D01*
X165400000Y-71200000D02*
X165400000Y-70000000D01*
X166122600Y-69277400D02*
X166420800Y-69277400D01*
X164519300Y-71656400D02*
X165147800Y-71656400D01*
X156396400Y-70272200D02*
X157537604Y-70272200D01*
X159143001Y-69049201D02*
X159143001Y-69025199D01*
X158696101Y-69496101D02*
X159143001Y-69049201D01*
X158313703Y-69496101D02*
X158696101Y-69496101D01*
X157537604Y-70272200D02*
X158313703Y-69496101D01*
X164421800Y-70561400D02*
X164421800Y-69679800D01*
X164421800Y-69679800D02*
X163423600Y-68681600D01*
X163042600Y-67183000D02*
X162788600Y-67437000D01*
X162788600Y-67437000D02*
X160731200Y-67437000D01*
X160731200Y-67437000D02*
X159143001Y-69025199D01*
X159143001Y-69025199D02*
X159131000Y-69037200D01*
X164438800Y-65963800D02*
X164675000Y-66200000D01*
X159024400Y-67772200D02*
X159049800Y-67746800D01*
X159049800Y-67746800D02*
X160292202Y-66504398D01*
X160292202Y-66504398D02*
X161968602Y-66504398D01*
X161968602Y-66504398D02*
X162509200Y-65963800D01*
X162509200Y-65963800D02*
X164438800Y-65963800D01*
X156396400Y-67772200D02*
X159024400Y-67772200D01*
X162826701Y-61074300D02*
X162826701Y-65009901D01*
X158907500Y-67240898D02*
X158901598Y-67246800D01*
X160108398Y-66040000D02*
X158907500Y-67240898D01*
X161796602Y-66040000D02*
X160108398Y-66040000D01*
X162826701Y-65009901D02*
X161796602Y-66040000D01*
X165675000Y-59200000D02*
X164701000Y-59200000D01*
X164701000Y-59200000D02*
X164701000Y-59221180D01*
X164701001Y-59200000D02*
X162826701Y-61074300D01*
X165675000Y-59200000D02*
X164701001Y-59200000D01*
X158888002Y-67272200D02*
X158907500Y-67252702D01*
X158907500Y-67252702D02*
X158907500Y-67240898D01*
X156396400Y-67272200D02*
X158888002Y-67272200D01*
X156420998Y-65796798D02*
X156396400Y-65772200D01*
X161906798Y-59809802D02*
X161366200Y-60350400D01*
X161366200Y-60350400D02*
X161366200Y-64338200D01*
X161366200Y-64338200D02*
X161061400Y-64643000D01*
X161061400Y-64643000D02*
X159497398Y-64643000D01*
X159497398Y-64643000D02*
X158343600Y-65796798D01*
X161992000Y-59750000D02*
X161932198Y-59809802D01*
X164675000Y-57075000D02*
X162000000Y-59750000D01*
X164675000Y-57075000D02*
X164675000Y-52400000D01*
X162000000Y-59750000D02*
X161992000Y-59750000D01*
X161932198Y-59809802D02*
X161906798Y-59809802D01*
X156420998Y-65796798D02*
X158343600Y-65796798D01*
X156421800Y-65246800D02*
X156396400Y-65272200D01*
X163900000Y-45600000D02*
X162179000Y-47321000D01*
X163900000Y-45600000D02*
X165875000Y-45600000D01*
X163750000Y-57306200D02*
X160916198Y-60140002D01*
X160916198Y-60140002D02*
X160916198Y-63906400D01*
X160916198Y-63906400D02*
X160629600Y-64192998D01*
X160629600Y-64192998D02*
X159276202Y-64192998D01*
X159276202Y-64192998D02*
X158222400Y-65246800D01*
X163750000Y-52000000D02*
X163750000Y-57250000D01*
X163750000Y-57250000D02*
X163750000Y-57306200D01*
X156421800Y-65246800D02*
X158222400Y-65246800D01*
X163068000Y-51282600D02*
X163068000Y-49936400D01*
X163750000Y-51964600D02*
X163068000Y-51282600D01*
X163750000Y-52000000D02*
X163750000Y-51964600D01*
X163068000Y-49936400D02*
X162179000Y-49047400D01*
X162179000Y-49047400D02*
X162179000Y-47321000D01*
X164312600Y-67386200D02*
X164287200Y-67386200D01*
X168475000Y-68400000D02*
X167536200Y-68400000D01*
X164312600Y-67386200D02*
X166522400Y-67386200D01*
X167536200Y-68400000D02*
X166522400Y-67386200D01*
X159342599Y-68165201D02*
X159261000Y-68246800D01*
X160553400Y-66954400D02*
X159342599Y-68165201D01*
X162229800Y-66954400D02*
X160553400Y-66954400D01*
X162712400Y-66471800D02*
X162229800Y-66954400D01*
X163372800Y-66471800D02*
X162712400Y-66471800D01*
X164287200Y-67386200D02*
X163372800Y-66471800D01*
X168475000Y-68400000D02*
X168300000Y-68400000D01*
X168475000Y-68400000D02*
X168200000Y-68400000D01*
X159160798Y-68272200D02*
X159342599Y-68090399D01*
X159342599Y-68090399D02*
X159342599Y-68165201D01*
X156396400Y-68272200D02*
X159160798Y-68272200D01*
X162544491Y-60720111D02*
X162533901Y-60730701D01*
X162902202Y-60362400D02*
X162544491Y-60720111D01*
X170250000Y-57000000D02*
X169000000Y-58250000D01*
X169000000Y-58250000D02*
X165000000Y-58250000D01*
X170675000Y-57000000D02*
X170250000Y-57000000D01*
X165000000Y-58264602D02*
X162902202Y-60362400D01*
X165000000Y-58250000D02*
X165000000Y-58264602D01*
X170675000Y-57000000D02*
X170600000Y-57000000D01*
X162523311Y-60741291D02*
X162544491Y-60720111D01*
X156421800Y-66746800D02*
X156396400Y-66772200D01*
X158729000Y-66746800D02*
X159885802Y-65589998D01*
X159885802Y-65589998D02*
X161582101Y-65589998D01*
X161582101Y-65589998D02*
X162356800Y-64815299D01*
X162356800Y-64815299D02*
X162356800Y-60907804D01*
X162356800Y-60907804D02*
X162902202Y-60362402D01*
X162902202Y-60362402D02*
X162902202Y-60362400D01*
X156421800Y-66746800D02*
X158729000Y-66746800D01*
X156421800Y-66246800D02*
X156396400Y-66272200D01*
X158543200Y-66246800D02*
X159664400Y-65125600D01*
X159664400Y-65125600D02*
X161391600Y-65125600D01*
X161391600Y-65125600D02*
X161848800Y-64668400D01*
X161848800Y-64668400D02*
X161848800Y-60553600D01*
X161848800Y-60553600D02*
X162142596Y-60259804D01*
X164652400Y-57750000D02*
X162142596Y-60259804D01*
X168475000Y-56775000D02*
X167500000Y-57750000D01*
X167500000Y-57750000D02*
X164750000Y-57750000D01*
X168475000Y-56775000D02*
X168475000Y-54600000D01*
X164750000Y-57750000D02*
X164652400Y-57750000D01*
X156421800Y-66246800D02*
X158543200Y-66246800D01*
X173341200Y-44119800D02*
X173202600Y-44119800D01*
X162534600Y-51155600D02*
X162534600Y-51689000D01*
X162534600Y-51689000D02*
X163271200Y-52425600D01*
X163271200Y-52425600D02*
X163271200Y-57148602D01*
X163271200Y-57148602D02*
X162267201Y-58152601D01*
X158025596Y-64772200D02*
X156396400Y-64772200D01*
X160451101Y-59968701D02*
X162267201Y-58152601D01*
X160451101Y-63297499D02*
X160451101Y-59968701D01*
X160005604Y-63742996D02*
X160451101Y-63297499D01*
X159054800Y-63742996D02*
X160005604Y-63742996D01*
X158025596Y-64772200D02*
X159054800Y-63742996D01*
X166649400Y-43459400D02*
X165963600Y-43459400D01*
X172542200Y-43459400D02*
X166649400Y-43459400D01*
X173202600Y-44119800D02*
X172542200Y-43459400D01*
X161671000Y-47117000D02*
X161671000Y-49301400D01*
X165328600Y-43459400D02*
X161671000Y-47117000D01*
X165963600Y-43459400D02*
X165328600Y-43459400D01*
X162534600Y-50165000D02*
X161671000Y-49301400D01*
X162534600Y-51155600D02*
X162534600Y-50165000D01*
X157954400Y-54796000D02*
X157096000Y-54796000D01*
X160450402Y-59333002D02*
X160450402Y-58954798D01*
X158855406Y-63292994D02*
X157876200Y-64272200D01*
X158855406Y-63292994D02*
X159693606Y-63292994D01*
X159693606Y-63292994D02*
X159987402Y-62999198D01*
X159987402Y-62999198D02*
X159987402Y-59796002D01*
X159987402Y-59796002D02*
X160450402Y-59333002D01*
X160450402Y-58954798D02*
X160604200Y-58801000D01*
X157876200Y-64272200D02*
X156396400Y-64272200D01*
X156900000Y-53900000D02*
X156700000Y-53700000D01*
X156900000Y-54600000D02*
X156900000Y-53900000D01*
X157096000Y-54796000D02*
X156900000Y-54600000D01*
X159867600Y-59050806D02*
X159867600Y-59279406D01*
X157746700Y-63741300D02*
X158645008Y-62842992D01*
X157741200Y-63746800D02*
X157746700Y-63741300D01*
X158645008Y-62842992D02*
X159388806Y-62842992D01*
X159388806Y-62842992D02*
X159537400Y-62694398D01*
X159537400Y-62694398D02*
X159537400Y-59609606D01*
X159537400Y-59609606D02*
X159842200Y-59304806D01*
X158404400Y-57896600D02*
X158404400Y-57246000D01*
X158648400Y-58140600D02*
X158404400Y-57896600D01*
X159613600Y-58140600D02*
X158648400Y-58140600D01*
X159867600Y-58394600D02*
X159613600Y-58140600D01*
X159867600Y-59050806D02*
X159867600Y-58394600D01*
X159867600Y-59279406D02*
X159842200Y-59304806D01*
X158479400Y-55821000D02*
X158479400Y-57171000D01*
X158479400Y-57171000D02*
X158404400Y-57246000D01*
X158404400Y-57246000D02*
X158404400Y-57622600D01*
X156427300Y-63741300D02*
X156396400Y-63772200D01*
X157746700Y-63741300D02*
X156427300Y-63741300D01*
X157954400Y-55296000D02*
X156704400Y-55296000D01*
X156704400Y-55296000D02*
X156029400Y-54621000D01*
X159080200Y-59258200D02*
X159080200Y-59156600D01*
X159080200Y-62262598D02*
X159080200Y-59258200D01*
X158960398Y-62382400D02*
X159080200Y-62262598D01*
X158469202Y-62382400D02*
X158960398Y-62382400D01*
X157579402Y-63272200D02*
X158469202Y-62382400D01*
X156396400Y-63272200D02*
X157579402Y-63272200D01*
X155500198Y-58191400D02*
X154501002Y-57192204D01*
X154501002Y-57192204D02*
X154501002Y-56149398D01*
X154501002Y-56149398D02*
X154940000Y-55710400D01*
X154940000Y-55710400D02*
X156029400Y-54621000D01*
X159080200Y-58844602D02*
X158833398Y-58597800D01*
X158833398Y-58597800D02*
X158469202Y-58597800D01*
X158062802Y-58191400D02*
X156260800Y-58191400D01*
X159080200Y-59258200D02*
X159080200Y-58844602D01*
X158469202Y-58597800D02*
X158062802Y-58191400D01*
X156260800Y-58191400D02*
X155500198Y-58191400D01*
D39*
X155800300Y-52582500D02*
X155800300Y-50857500D01*
X155800300Y-50857500D02*
X155725300Y-50782500D01*
X155725300Y-50782500D02*
X155725300Y-48582500D01*
D38*
X154051000Y-55702200D02*
X154051000Y-57378600D01*
X154051000Y-57378600D02*
X154646400Y-57974000D01*
X154646400Y-57974000D02*
X154646400Y-60522200D01*
X155800300Y-52582500D02*
X155738720Y-52582500D01*
X155738720Y-52582500D02*
X154051000Y-54270220D01*
X154051000Y-54270220D02*
X154051000Y-55702200D01*
X155800300Y-52582500D02*
X155773700Y-52582500D01*
D39*
X155725300Y-52507500D02*
X155800300Y-52582500D01*
D38*
X151003000Y-51562000D02*
X151003000Y-49554800D01*
X154146400Y-60472202D02*
X154146400Y-58167604D01*
X151003000Y-54178200D02*
X151003000Y-51562000D01*
X151003000Y-55024204D02*
X154146400Y-58167604D01*
X151003000Y-54178200D02*
X151003000Y-55024204D01*
X151003000Y-49554800D02*
X151975300Y-48582500D01*
X154146400Y-60472202D02*
X154196398Y-60522200D01*
X154196398Y-60522200D02*
X154146400Y-60522200D01*
X151975300Y-48582500D02*
X151848900Y-48582500D01*
X153646400Y-60522200D02*
X153646400Y-58345600D01*
X150487802Y-54051200D02*
X150495000Y-54051200D01*
X150487802Y-55187002D02*
X150487802Y-54051200D01*
X153646400Y-58345600D02*
X150487802Y-55187002D01*
X150495000Y-54051200D02*
X150495000Y-54330600D01*
X150495000Y-50850800D02*
X150495000Y-48905000D01*
X150495000Y-50850800D02*
X150495000Y-54051200D01*
X154475300Y-48582500D02*
X154475300Y-47224700D01*
X154500000Y-47200000D02*
X154475300Y-47224700D01*
X150495000Y-48905000D02*
X151000000Y-48400000D01*
X150037800Y-48212200D02*
X150750000Y-47500000D01*
X150750000Y-47500000D02*
X151250000Y-47500000D01*
X151250000Y-47500000D02*
X151500000Y-47250000D01*
X151500000Y-47250000D02*
X153000000Y-47250000D01*
X153000000Y-47250000D02*
X153225300Y-47475300D01*
X153225300Y-47475300D02*
X153225300Y-48582500D01*
X153146400Y-60522200D02*
X153146400Y-58556800D01*
X150037800Y-54559200D02*
X150037800Y-50622200D01*
X150037800Y-55448200D02*
X150037800Y-54559200D01*
X153146400Y-58556800D02*
X150037800Y-55448200D01*
X150037800Y-50622200D02*
X150037800Y-48212200D01*
X154146400Y-76022200D02*
X154146400Y-76746400D01*
X159675000Y-78955198D02*
X159675000Y-79600000D01*
X157942003Y-77222201D02*
X159675000Y-78955198D01*
X154622201Y-77222201D02*
X157942003Y-77222201D01*
X154146400Y-76746400D02*
X154622201Y-77222201D01*
X149587798Y-47764602D02*
X150648000Y-46704400D01*
X151646400Y-60522200D02*
X151646400Y-57693198D01*
X151646400Y-57693198D02*
X149587798Y-55634596D01*
X149587798Y-55634596D02*
X149587798Y-47764602D01*
X147701000Y-49757400D02*
X144648000Y-46704400D01*
X149646400Y-60522200D02*
X149646400Y-58409600D01*
X149646400Y-58409600D02*
X147701000Y-56464200D01*
X147701000Y-56464200D02*
X147701000Y-49757400D01*
X148673398Y-47729798D02*
X147648000Y-46704400D01*
X150646400Y-60522200D02*
X150646400Y-58063400D01*
X150646400Y-58063400D02*
X148673398Y-56090398D01*
X148673398Y-56090398D02*
X148673398Y-47729798D01*
X146148000Y-46704400D02*
X146172200Y-46704400D01*
X148184299Y-48740699D02*
X146148000Y-46704400D01*
X150146400Y-58223800D02*
X148184299Y-56261699D01*
X150146400Y-60522200D02*
X150146400Y-58223800D01*
X148184299Y-56261699D02*
X148184299Y-48740699D01*
X147218400Y-50218400D02*
X144700000Y-47700000D01*
X144700000Y-47700000D02*
X143600000Y-47700000D01*
X143600000Y-47700000D02*
X143148000Y-47248000D01*
X143148000Y-47248000D02*
X143148000Y-46704400D01*
X149146400Y-58620800D02*
X147218400Y-56692800D01*
X149146400Y-60522200D02*
X149146400Y-58620800D01*
X147218400Y-56692800D02*
X147218400Y-50218400D01*
X149302600Y-46859000D02*
X149148000Y-46704400D01*
X149123400Y-46729000D02*
X149148000Y-46704400D01*
X151146400Y-57877600D02*
X151146400Y-60522200D01*
X151146400Y-57877600D02*
X149123400Y-55854600D01*
X149123400Y-46729000D02*
X149123400Y-55854600D01*
X135060000Y-47540000D02*
X135060000Y-44740000D01*
X138925000Y-47725000D02*
X140200000Y-47725000D01*
X138400000Y-47200000D02*
X138925000Y-47725000D01*
X138400000Y-44400000D02*
X138400000Y-47200000D01*
X137800000Y-43800000D02*
X138400000Y-44400000D01*
X136000000Y-43800000D02*
X137800000Y-43800000D01*
X135060000Y-44740000D02*
X136000000Y-43800000D01*
X140200000Y-47725000D02*
X141125000Y-47725000D01*
X142086000Y-48686000D02*
X142400000Y-48686000D01*
X141125000Y-47725000D02*
X142086000Y-48686000D01*
X146735800Y-50750598D02*
X144671202Y-48686000D01*
X144671202Y-48686000D02*
X142400000Y-48686000D01*
X142400000Y-48686000D02*
X142400000Y-48686000D01*
X147646400Y-60522200D02*
X147646400Y-57806600D01*
X146735800Y-56896000D02*
X146735800Y-55143400D01*
X147646400Y-57806600D02*
X146735800Y-56896000D01*
X146735800Y-55143400D02*
X146735800Y-50750598D01*
X136160000Y-47540000D02*
X137340000Y-47540000D01*
X138400000Y-48600000D02*
X139925000Y-48600000D01*
X137340000Y-47540000D02*
X138400000Y-48600000D01*
X139925000Y-48600000D02*
X140200000Y-48875000D01*
X140200000Y-48875000D02*
X141475000Y-48875000D01*
X146253200Y-51053200D02*
X144400000Y-49200000D01*
X144400000Y-49200000D02*
X142400000Y-49200000D01*
X146253200Y-51053200D02*
X146253200Y-55400000D01*
X141800000Y-49200000D02*
X142400000Y-49200000D01*
X141475000Y-48875000D02*
X141800000Y-49200000D01*
X147146400Y-57967000D02*
X146253200Y-57073800D01*
X146253200Y-57073800D02*
X146253200Y-55400000D01*
X146253200Y-55400000D02*
X146253200Y-55346600D01*
X147146400Y-60522200D02*
X147146400Y-57967000D01*
X137000000Y-65600000D02*
X133800000Y-62400000D01*
X146146400Y-60522200D02*
X146146400Y-63853600D01*
X146146400Y-63853600D02*
X142400000Y-67600000D01*
X123700000Y-53000000D02*
X121900000Y-53000000D01*
X126000000Y-55300000D02*
X123700000Y-53000000D01*
X126000000Y-61300000D02*
X126000000Y-55300000D01*
X127100000Y-62400000D02*
X126000000Y-61300000D01*
X133800000Y-62400000D02*
X127100000Y-62400000D01*
X136800000Y-66400000D02*
X133400000Y-63000000D01*
X145646400Y-60522200D02*
X145646400Y-63353600D01*
X145646400Y-63353600D02*
X142400000Y-66600000D01*
X139000000Y-66400000D02*
X136800000Y-66400000D01*
X123800000Y-54100000D02*
X121900000Y-54100000D01*
X125500000Y-55800000D02*
X123800000Y-54100000D01*
X125500000Y-61500000D02*
X125500000Y-55800000D01*
X127000000Y-63000000D02*
X125500000Y-61500000D01*
X133400000Y-63000000D02*
X127000000Y-63000000D01*
X138200000Y-65600000D02*
X134400000Y-61800000D01*
X145146400Y-60522200D02*
X145146400Y-62653600D01*
X145146400Y-62653600D02*
X142400000Y-65400000D01*
X124700000Y-46400000D02*
X121900000Y-46400000D01*
X124900000Y-46600000D02*
X124700000Y-46400000D01*
X124900000Y-50000000D02*
X124900000Y-48400000D01*
X126500000Y-51600000D02*
X124900000Y-50000000D01*
X126500000Y-61100000D02*
X126500000Y-51600000D01*
X127200000Y-61800000D02*
X126500000Y-61100000D01*
X134400000Y-61800000D02*
X127200000Y-61800000D01*
X144800000Y-54400000D02*
X144800000Y-58800000D01*
X144146400Y-59453600D02*
X144146400Y-60522200D01*
X144800000Y-58800000D02*
X144146400Y-59453600D01*
X143530000Y-54400000D02*
X143530000Y-54870000D01*
X143530000Y-54870000D02*
X142800000Y-55600000D01*
X142800000Y-55600000D02*
X140400000Y-55600000D01*
X140400000Y-55600000D02*
X139000000Y-57000000D01*
X139000000Y-57000000D02*
X139000000Y-61400000D01*
X139000000Y-61400000D02*
X139872200Y-62272200D01*
X139872200Y-62272200D02*
X140896400Y-62272200D01*
X128075000Y-60000000D02*
X128075000Y-57725000D01*
X128075000Y-57725000D02*
X130600000Y-55200000D01*
X132800000Y-53000000D02*
X132800000Y-53200000D01*
X132800000Y-53200000D02*
X132800000Y-53000000D01*
X128460000Y-47540000D02*
X128460000Y-48660000D01*
X139981394Y-63272200D02*
X137300004Y-60590810D01*
X137300004Y-60590810D02*
X137300004Y-58600000D01*
X139981394Y-63272200D02*
X140896400Y-63272200D01*
X137300004Y-56500004D02*
X137300004Y-58600000D01*
X136000000Y-55200000D02*
X137300004Y-56500004D01*
X135000000Y-55200000D02*
X136000000Y-55200000D01*
X128460000Y-48660000D02*
X132800000Y-53000000D01*
X132800000Y-53000000D02*
X135000000Y-55200000D01*
X132125000Y-60000000D02*
X132125000Y-56875000D01*
X132125000Y-56875000D02*
X132200000Y-56800000D01*
X129560000Y-47940000D02*
X129560000Y-46760000D01*
X139844996Y-63772200D02*
X136850002Y-60777206D01*
X136850002Y-60777206D02*
X136850002Y-58400000D01*
X139844996Y-63772200D02*
X140896400Y-63772200D01*
X136850002Y-56850002D02*
X136850002Y-58400000D01*
X135800000Y-55800000D02*
X136850002Y-56850002D01*
X134000000Y-55800000D02*
X135800000Y-55800000D01*
X127400000Y-49200000D02*
X134000000Y-55800000D01*
X127400000Y-46600000D02*
X127400000Y-49200000D01*
X127800000Y-46200000D02*
X127400000Y-46600000D01*
X129000000Y-46200000D02*
X127800000Y-46200000D01*
X129560000Y-46760000D02*
X129000000Y-46200000D01*
D39*
X129531000Y-47861000D02*
X129531000Y-48361000D01*
D38*
X136400000Y-58200000D02*
X136400000Y-57600000D01*
X139708598Y-64272200D02*
X136400000Y-60963602D01*
X136400000Y-60963602D02*
X136400000Y-58200000D01*
X140896400Y-64272200D02*
X139708598Y-64272200D01*
X132800000Y-51800000D02*
X132800000Y-47600000D01*
X135400000Y-54400000D02*
X132800000Y-51800000D01*
X136400000Y-57600000D02*
X135400000Y-56600000D01*
X132800000Y-47600000D02*
X132860000Y-47540000D01*
X140896400Y-65272200D02*
X140072200Y-65272200D01*
X133960000Y-59160000D02*
X133960000Y-58625000D01*
X140072200Y-65272200D02*
X133960000Y-59160000D01*
X133000000Y-58200000D02*
X133000000Y-56400000D01*
X139372200Y-65772200D02*
X133000000Y-59400000D01*
X133000000Y-59400000D02*
X133000000Y-58200000D01*
X140896400Y-65772200D02*
X139372200Y-65772200D01*
X130660000Y-46460000D02*
X130660000Y-47540000D01*
X129600000Y-45400000D02*
X130660000Y-46460000D01*
X127400000Y-45400000D02*
X129600000Y-45400000D01*
X126400000Y-46400000D02*
X127400000Y-45400000D01*
X126400000Y-49800000D02*
X126400000Y-46400000D01*
X133000000Y-56400000D02*
X126400000Y-49800000D01*
X132800000Y-80300000D02*
X132800000Y-80800000D01*
X140896400Y-67772200D02*
X137027800Y-67772200D01*
X132800000Y-72000000D02*
X132800000Y-79600000D01*
X137027800Y-67772200D02*
X132800000Y-72000000D01*
X132800000Y-79600000D02*
X132800000Y-80300000D01*
X132800000Y-80800000D02*
X131900000Y-81700000D01*
X131900000Y-81700000D02*
X130300000Y-81700000D01*
X131900000Y-82000000D02*
X130200000Y-82000000D01*
X110200000Y-86000000D02*
X109600000Y-86000000D01*
X133449994Y-83400000D02*
X133449994Y-84150006D01*
X137327800Y-68272200D02*
X133449994Y-72150006D01*
X133449994Y-72150006D02*
X133449994Y-83400000D01*
X140896400Y-68272200D02*
X137327800Y-68272200D01*
X130600000Y-86000000D02*
X128400000Y-86000000D01*
X131200000Y-85400000D02*
X130600000Y-86000000D01*
X132200000Y-85400000D02*
X131200000Y-85400000D01*
X133449994Y-84150006D02*
X132200000Y-85400000D01*
X110200000Y-86000000D02*
X128400000Y-86000000D01*
X108100000Y-82400000D02*
X108800000Y-81700000D01*
X108100000Y-84500000D02*
X108100000Y-82400000D01*
X109600000Y-86000000D02*
X108100000Y-84500000D01*
X108800000Y-81700000D02*
X110600000Y-81700000D01*
X120800000Y-87800000D02*
X109300000Y-87800000D01*
X133899996Y-84200000D02*
X133899996Y-84700004D01*
X137627800Y-68772200D02*
X133899996Y-72500004D01*
X133899996Y-72500004D02*
X133899996Y-84200000D01*
X140896400Y-68772200D02*
X137627800Y-68772200D01*
X134000000Y-87800000D02*
X132000000Y-87800000D01*
X135000000Y-86800000D02*
X134000000Y-87800000D01*
X133899996Y-84700004D02*
X133400000Y-85200000D01*
X120800000Y-87800000D02*
X132000000Y-87800000D01*
X108400000Y-75700000D02*
X110600000Y-75700000D01*
X106600000Y-77500000D02*
X108400000Y-75700000D01*
X106600000Y-85100000D02*
X106600000Y-77500000D01*
X109300000Y-87800000D02*
X106600000Y-85100000D01*
X126600000Y-87200000D02*
X109400000Y-87200000D01*
X134349998Y-85400000D02*
X134349998Y-85450002D01*
X134349998Y-85450002D02*
X133600000Y-86200000D01*
X132200000Y-87200000D02*
X129400000Y-87200000D01*
X133200000Y-86200000D02*
X132200000Y-87200000D01*
X133600000Y-86200000D02*
X133200000Y-86200000D01*
X134349998Y-84800000D02*
X134349998Y-85400000D01*
X137927800Y-69272200D02*
X134349998Y-72850002D01*
X134349998Y-72850002D02*
X134349998Y-84800000D01*
X140896400Y-69272200D02*
X137927800Y-69272200D01*
X126600000Y-87200000D02*
X129400000Y-87200000D01*
X108500000Y-77700000D02*
X110600000Y-77700000D01*
X107100000Y-79100000D02*
X108500000Y-77700000D01*
X107100000Y-84900000D02*
X107100000Y-79100000D01*
X109400000Y-87200000D02*
X107100000Y-84900000D01*
X128600000Y-86600000D02*
X109500000Y-86600000D01*
X131200000Y-86600000D02*
X128600000Y-86600000D01*
X134800000Y-85800000D02*
X133600000Y-87000000D01*
X131600000Y-86200000D02*
X131200000Y-86600000D01*
X108500000Y-79700000D02*
X110600000Y-79700000D01*
X107600000Y-80600000D02*
X108500000Y-79700000D01*
X107600000Y-84700000D02*
X107600000Y-80600000D01*
X109500000Y-86600000D02*
X107600000Y-84700000D01*
X134800000Y-85800000D02*
X134800000Y-85600000D01*
X138227800Y-69772200D02*
X134800000Y-73200000D01*
X134800000Y-73200000D02*
X134800000Y-85800000D01*
X140896400Y-69772200D02*
X138227800Y-69772200D01*
X140896400Y-71772200D02*
X136888800Y-71772200D01*
X136888800Y-71772200D02*
X135407400Y-73253600D01*
X135407400Y-73253600D02*
X135407400Y-75336400D01*
X135407400Y-75336400D02*
X136245600Y-76174600D01*
X136245600Y-76174600D02*
X136245600Y-77139800D01*
X137820400Y-77825600D02*
X137515600Y-78130400D01*
X137515600Y-78130400D02*
X137515600Y-79451200D01*
X137515600Y-85369400D02*
X137515600Y-79552800D01*
X137515600Y-79552800D02*
X137515600Y-79298800D01*
X142116000Y-84407800D02*
X142116000Y-85007800D01*
X142116000Y-85007800D02*
X141766000Y-85357800D01*
X141766000Y-85982800D02*
X138129000Y-85982800D01*
X138129000Y-85982800D02*
X137515600Y-85369400D01*
X141766000Y-85357800D02*
X141766000Y-85982800D01*
X140896400Y-72272200D02*
X137049200Y-72272200D01*
X142265400Y-86969600D02*
X142392400Y-86842600D01*
X138430000Y-86969600D02*
X136994900Y-85534500D01*
X142163800Y-86969600D02*
X138430000Y-86969600D01*
X142265400Y-86969600D02*
X142163800Y-86969600D01*
X136994900Y-85534500D02*
X136994900Y-78701900D01*
X136994900Y-76263500D02*
X136994900Y-78701900D01*
X135966200Y-75234800D02*
X136994900Y-76263500D01*
X135966200Y-73355200D02*
X135966200Y-75234800D01*
X137049200Y-72272200D02*
X135966200Y-73355200D01*
X142766000Y-84407800D02*
X142766000Y-85132800D01*
X142766000Y-85132800D02*
X142503500Y-85395300D01*
X142503500Y-86720300D02*
X142503500Y-86731500D01*
X142503500Y-86731500D02*
X142392400Y-86842600D01*
X142503500Y-85395300D02*
X142503500Y-86720300D01*
X144565200Y-86969600D02*
X145567400Y-85967400D01*
X142163800Y-86969600D02*
X144565200Y-86969600D01*
X145253500Y-81495300D02*
X145253500Y-81067700D01*
X145253500Y-81585300D02*
X145253500Y-81495300D01*
X145253500Y-82720300D02*
X145253500Y-81585300D01*
X144991000Y-82982800D02*
X145253500Y-82720300D01*
X144991000Y-82982800D02*
X144191000Y-82982800D01*
X145253500Y-81067700D02*
X144005300Y-79819500D01*
X140246100Y-78752700D02*
X138785600Y-77292200D01*
X137235000Y-72772200D02*
X136448800Y-73558400D01*
X136448800Y-73558400D02*
X136448800Y-74955400D01*
X136448800Y-74955400D02*
X138785600Y-77292200D01*
X137235000Y-72772200D02*
X140896400Y-72772200D01*
X141135100Y-78752700D02*
X140246100Y-78752700D01*
X142201900Y-79819500D02*
X141135100Y-78752700D01*
X144005300Y-79819500D02*
X142201900Y-79819500D01*
D42*
X110600000Y-71700000D02*
X101200000Y-71700000D01*
D39*
X167125000Y-59200000D02*
X167125000Y-61175000D01*
X166135000Y-62165000D02*
X164860000Y-62165000D01*
X167125000Y-61175000D02*
X166135000Y-62165000D01*
X168275000Y-59200000D02*
X167125000Y-59200000D01*
X166125000Y-66200000D02*
X166125000Y-65970000D01*
X166125000Y-65970000D02*
X164860000Y-64705000D01*
X167275000Y-66200000D02*
X166125000Y-66200000D01*
X167325000Y-45550000D02*
X168475000Y-45550000D01*
X167325000Y-47175000D02*
X166135000Y-48365000D01*
X166135000Y-48365000D02*
X164860000Y-48365000D01*
X167325000Y-45550000D02*
X167325000Y-47175000D01*
X167275000Y-52400000D02*
X166125000Y-52400000D01*
X166125000Y-52400000D02*
X166200000Y-52325000D01*
X166200000Y-52325000D02*
X166200000Y-52245000D01*
X166200000Y-52245000D02*
X164860000Y-50905000D01*
X169925000Y-68400000D02*
X169925000Y-68625000D01*
X169925000Y-68625000D02*
X170700000Y-69400000D01*
X170700000Y-69400000D02*
X175600000Y-69400000D01*
X175600000Y-69400000D02*
X176100000Y-68900000D01*
X176100000Y-68900000D02*
X176100000Y-65475000D01*
X174600000Y-65475000D02*
X176100000Y-65475000D01*
X176100000Y-65475000D02*
X176675000Y-65475000D01*
X176675000Y-65475000D02*
X177600000Y-66400000D01*
X174600000Y-65475000D02*
X172675000Y-65475000D01*
X172675000Y-65475000D02*
X172200000Y-65000000D01*
X177600000Y-66400000D02*
X178600000Y-66400000D01*
X178600000Y-66400000D02*
X179000000Y-66000000D01*
X172125000Y-57000000D02*
X172125000Y-58925000D01*
X172125000Y-58925000D02*
X172200000Y-59000000D01*
X177600000Y-59400000D02*
X174675000Y-59400000D01*
X174675000Y-59400000D02*
X174600000Y-59475000D01*
X172225000Y-58975000D02*
X172725000Y-59475000D01*
X172725000Y-59475000D02*
X174600000Y-59475000D01*
X177600000Y-59400000D02*
X178600000Y-59400000D01*
X178600000Y-59400000D02*
X179000000Y-59000000D01*
X169925000Y-54600000D02*
X169925000Y-55125000D01*
X176200000Y-54800000D02*
X176200000Y-51675000D01*
X175200000Y-55800000D02*
X176200000Y-54800000D01*
X170600000Y-55800000D02*
X175200000Y-55800000D01*
X169925000Y-55125000D02*
X170600000Y-55800000D01*
X172200000Y-51200000D02*
X174125000Y-51200000D01*
X174125000Y-51200000D02*
X174600000Y-51675000D01*
X174600000Y-51675000D02*
X176200000Y-51675000D01*
X176200000Y-51675000D02*
X176675000Y-51675000D01*
X176675000Y-51675000D02*
X177400000Y-52400000D01*
X177400000Y-52400000D02*
X178600000Y-52400000D01*
X178600000Y-52400000D02*
X179000000Y-52000000D01*
X174600000Y-45275000D02*
X172675000Y-45275000D01*
X172675000Y-45275000D02*
X172200000Y-44800000D01*
X177400000Y-45400000D02*
X178600000Y-45400000D01*
X178600000Y-45400000D02*
X179000000Y-45000000D01*
X174725000Y-45400000D02*
X174600000Y-45275000D01*
X177400000Y-45400000D02*
X174725000Y-45400000D01*
D38*
X174791200Y-45083800D02*
X174600000Y-45275000D01*
X174791200Y-44119800D02*
X174791200Y-45083800D01*
D39*
X169540000Y-63435000D02*
X169540000Y-64705000D01*
X169540000Y-64705000D02*
X169540000Y-65290000D01*
X169540000Y-65290000D02*
X171475000Y-67225000D01*
X171475000Y-67225000D02*
X171475000Y-68400000D01*
X171240000Y-62165000D02*
X171475000Y-62400000D01*
X169540000Y-62165000D02*
X171240000Y-62165000D01*
X171475000Y-61225000D02*
X171250000Y-61000000D01*
X171475000Y-62400000D02*
X171475000Y-61225000D01*
X169540000Y-60895000D02*
X169540000Y-62165000D01*
X171145000Y-60895000D02*
X171250000Y-61000000D01*
X169540000Y-60895000D02*
X171145000Y-60895000D01*
X171250000Y-46800000D02*
X169835000Y-46800000D01*
X169835000Y-46800000D02*
X169540000Y-47095000D01*
X169540000Y-47095000D02*
X169540000Y-48365000D01*
X171475000Y-48200000D02*
X171475000Y-47025000D01*
X171475000Y-47025000D02*
X171250000Y-46800000D01*
X169540000Y-48365000D02*
X171310000Y-48365000D01*
X171310000Y-48365000D02*
X171475000Y-48200000D01*
D41*
X112400000Y-47500000D02*
X109100000Y-47500000D01*
X105400000Y-54500000D02*
X101200000Y-54500000D01*
X107400000Y-52500000D02*
X105400000Y-54500000D01*
X107400000Y-49200000D02*
X107400000Y-52500000D01*
X109100000Y-47500000D02*
X107400000Y-49200000D01*
D39*
X169540000Y-50905000D02*
X169540000Y-51490000D01*
X169540000Y-51490000D02*
X171250000Y-53200000D01*
X171475000Y-54600000D02*
X171475000Y-53425000D01*
X171475000Y-53425000D02*
X171250000Y-53200000D01*
X169540000Y-50905000D02*
X169540000Y-49635000D01*
X141650000Y-44200000D02*
X141650000Y-45250000D01*
D43*
G36*
X121773000Y-43927750D02*
X121752000Y-43948750D01*
X121752000Y-44773000D01*
X121772000Y-44773000D01*
X121772000Y-45027000D01*
X121752000Y-45027000D01*
X121752000Y-45047000D01*
X121498000Y-45047000D01*
X121498000Y-45027000D01*
X121478000Y-45027000D01*
X121478000Y-44773000D01*
X121498000Y-44773000D01*
X121498000Y-43948750D01*
X121450414Y-43901164D01*
X121773000Y-43578579D01*
X121773000Y-43927750D01*
X121773000Y-43927750D01*
G37*
X121773000Y-43927750D02*
X121752000Y-43948750D01*
X121752000Y-44773000D01*
X121772000Y-44773000D01*
X121772000Y-45027000D01*
X121752000Y-45027000D01*
X121752000Y-45047000D01*
X121498000Y-45047000D01*
X121498000Y-45027000D01*
X121478000Y-45027000D01*
X121478000Y-44773000D01*
X121498000Y-44773000D01*
X121498000Y-43948750D01*
X121450414Y-43901164D01*
X121773000Y-43578579D01*
X121773000Y-43927750D01*
G36*
X121773000Y-63273000D02*
X113947440Y-63273000D01*
X113947440Y-55550000D01*
X113947440Y-54850000D01*
X113912925Y-54672108D01*
X113947440Y-54500000D01*
X113947440Y-53700000D01*
X113917855Y-53547521D01*
X113947440Y-53400000D01*
X113947440Y-52600000D01*
X113917855Y-52447521D01*
X113947440Y-52300000D01*
X113947440Y-51500000D01*
X113917855Y-51347521D01*
X113947440Y-51200000D01*
X113947440Y-50400000D01*
X113917855Y-50247521D01*
X113947440Y-50100000D01*
X113947440Y-49300000D01*
X113920522Y-49161262D01*
X113935000Y-49126310D01*
X113935000Y-48885750D01*
X113776250Y-48727000D01*
X113585753Y-48727000D01*
X113549640Y-48702623D01*
X113300000Y-48652560D01*
X111500000Y-48652560D01*
X111257877Y-48699537D01*
X111216069Y-48727000D01*
X111023750Y-48727000D01*
X110865000Y-48885750D01*
X110865000Y-49126310D01*
X110880087Y-49162734D01*
X110852560Y-49300000D01*
X110852560Y-50100000D01*
X110882144Y-50252478D01*
X110852560Y-50400000D01*
X110852560Y-51200000D01*
X110882144Y-51352478D01*
X110852560Y-51500000D01*
X110852560Y-52300000D01*
X110882144Y-52452478D01*
X110852560Y-52600000D01*
X110852560Y-53400000D01*
X110882144Y-53552478D01*
X110852560Y-53700000D01*
X110852560Y-54500000D01*
X110887074Y-54677891D01*
X110852560Y-54850000D01*
X110852560Y-55550000D01*
X110899537Y-55792123D01*
X111039327Y-56004927D01*
X111250360Y-56147377D01*
X111500000Y-56197440D01*
X113300000Y-56197440D01*
X113542123Y-56150463D01*
X113754927Y-56010673D01*
X113897377Y-55799640D01*
X113947440Y-55550000D01*
X113947440Y-63273000D01*
X104375000Y-63273000D01*
X104375000Y-60214309D01*
X104375000Y-59167250D01*
X104375000Y-58595750D01*
X104375000Y-57548691D01*
X104278327Y-57315302D01*
X104099699Y-57136673D01*
X103866310Y-57040000D01*
X103613691Y-57040000D01*
X101485750Y-57040000D01*
X101327000Y-57198750D01*
X101327000Y-58754500D01*
X104216250Y-58754500D01*
X104375000Y-58595750D01*
X104375000Y-59167250D01*
X104216250Y-59008500D01*
X101327000Y-59008500D01*
X101327000Y-60564250D01*
X101485750Y-60723000D01*
X103613691Y-60723000D01*
X103866310Y-60723000D01*
X104099699Y-60626327D01*
X104278327Y-60447698D01*
X104375000Y-60214309D01*
X104375000Y-63273000D01*
X99627000Y-63273000D01*
X99627000Y-60723000D01*
X100914250Y-60723000D01*
X101073000Y-60564250D01*
X101073000Y-59008500D01*
X101053000Y-59008500D01*
X101053000Y-58754500D01*
X101073000Y-58754500D01*
X101073000Y-57198750D01*
X100914250Y-57040000D01*
X99627000Y-57040000D01*
X99627000Y-56290440D01*
X103740000Y-56290440D01*
X103982123Y-56243463D01*
X104194927Y-56103673D01*
X104337377Y-55892640D01*
X104387440Y-55643000D01*
X104387440Y-55535000D01*
X105399994Y-55535000D01*
X105400000Y-55535001D01*
X105400000Y-55535000D01*
X105796077Y-55456215D01*
X106131856Y-55231856D01*
X108131852Y-53231858D01*
X108131855Y-53231856D01*
X108131856Y-53231856D01*
X108356215Y-52896077D01*
X108435000Y-52500000D01*
X108435001Y-52500000D01*
X108435000Y-52499994D01*
X108435000Y-49628711D01*
X109528711Y-48535000D01*
X111437967Y-48535000D01*
X111500000Y-48547440D01*
X113300000Y-48547440D01*
X113542123Y-48500463D01*
X113583930Y-48473000D01*
X113776250Y-48473000D01*
X113935000Y-48314250D01*
X113935000Y-48073690D01*
X113919912Y-48037265D01*
X113947440Y-47900000D01*
X113947440Y-47100000D01*
X113913915Y-46927212D01*
X113935000Y-46876310D01*
X113935000Y-46685750D01*
X113935000Y-46114250D01*
X113935000Y-45923690D01*
X113838327Y-45690301D01*
X113659698Y-45511673D01*
X113426309Y-45415000D01*
X112685750Y-45415000D01*
X112527000Y-45573750D01*
X112527000Y-46273000D01*
X113776250Y-46273000D01*
X113935000Y-46114250D01*
X113935000Y-46685750D01*
X113776250Y-46527000D01*
X113585753Y-46527000D01*
X113549640Y-46502623D01*
X113300000Y-46452560D01*
X112273000Y-46452560D01*
X112273000Y-46273000D01*
X112273000Y-45573750D01*
X112114250Y-45415000D01*
X111373691Y-45415000D01*
X111140302Y-45511673D01*
X110961673Y-45690301D01*
X110865000Y-45923690D01*
X110865000Y-46114250D01*
X111023750Y-46273000D01*
X112273000Y-46273000D01*
X112273000Y-46452560D01*
X111500000Y-46452560D01*
X111435883Y-46465000D01*
X109100005Y-46465000D01*
X109100000Y-46464999D01*
X108703923Y-46543785D01*
X108368144Y-46768144D01*
X108368141Y-46768147D01*
X106668144Y-48468144D01*
X106443785Y-48803923D01*
X106364999Y-49200000D01*
X106365000Y-49200005D01*
X106365000Y-52071288D01*
X104971288Y-53465000D01*
X104387440Y-53465000D01*
X104387440Y-53357000D01*
X104375000Y-53292883D01*
X104375000Y-51451309D01*
X104375000Y-50404250D01*
X104216250Y-50245500D01*
X101327000Y-50245500D01*
X101327000Y-51801250D01*
X101485750Y-51960000D01*
X103613691Y-51960000D01*
X103866310Y-51960000D01*
X104099699Y-51863327D01*
X104278327Y-51684698D01*
X104375000Y-51451309D01*
X104375000Y-53292883D01*
X104340463Y-53114877D01*
X104200673Y-52902073D01*
X103989640Y-52759623D01*
X103740000Y-52709560D01*
X99627000Y-52709560D01*
X99627000Y-51960000D01*
X100914250Y-51960000D01*
X101073000Y-51801250D01*
X101073000Y-50245500D01*
X101053000Y-50245500D01*
X101053000Y-49991500D01*
X101073000Y-49991500D01*
X101073000Y-48435750D01*
X100914250Y-48277000D01*
X99627000Y-48277000D01*
X99627000Y-46972726D01*
X99853412Y-47199534D01*
X99906883Y-47328943D01*
X100169673Y-47592192D01*
X100298989Y-47645889D01*
X100556226Y-47903575D01*
X101476884Y-48285865D01*
X101327000Y-48435750D01*
X101327000Y-49991500D01*
X104216250Y-49991500D01*
X104375000Y-49832750D01*
X104375000Y-48785691D01*
X104278327Y-48552302D01*
X104099699Y-48373673D01*
X103866310Y-48277000D01*
X103613691Y-48277000D01*
X103543146Y-48277000D01*
X104438704Y-47906963D01*
X104699534Y-47646587D01*
X104828943Y-47593117D01*
X105092192Y-47330327D01*
X105145889Y-47201010D01*
X105403575Y-46943774D01*
X105926404Y-45684663D01*
X105926821Y-45206104D01*
X105934838Y-45186799D01*
X105935162Y-44814833D01*
X105927180Y-44795515D01*
X105927594Y-44321318D01*
X105406963Y-43061296D01*
X105146587Y-42800465D01*
X105093117Y-42671057D01*
X104830327Y-42407808D01*
X104701010Y-42354110D01*
X104474295Y-42127000D01*
X120721420Y-42127000D01*
X119549210Y-43299210D01*
X119357367Y-43586325D01*
X119346189Y-43642515D01*
X119289999Y-43925000D01*
X119290000Y-43925005D01*
X119290000Y-44082951D01*
X119227623Y-44175360D01*
X119177560Y-44425000D01*
X119177560Y-45375000D01*
X119224537Y-45617123D01*
X119290000Y-45716778D01*
X119290000Y-46974994D01*
X119289999Y-46975000D01*
X119346189Y-47257484D01*
X119357367Y-47313675D01*
X119549210Y-47600790D01*
X120074207Y-48125786D01*
X120074210Y-48125790D01*
X120352560Y-48311776D01*
X120352560Y-49000000D01*
X120382144Y-49152478D01*
X120352560Y-49300000D01*
X120352560Y-50100000D01*
X120382144Y-50252478D01*
X120352560Y-50400000D01*
X120352560Y-51200000D01*
X120382144Y-51352478D01*
X120352560Y-51500000D01*
X120352560Y-52300000D01*
X120382144Y-52452478D01*
X120352560Y-52600000D01*
X120352560Y-53400000D01*
X120382144Y-53552478D01*
X120352560Y-53700000D01*
X120352560Y-54500000D01*
X120386084Y-54672787D01*
X120365000Y-54723690D01*
X120365000Y-54914250D01*
X120523750Y-55073000D01*
X120714246Y-55073000D01*
X120750360Y-55097377D01*
X121000000Y-55147440D01*
X121773000Y-55147440D01*
X121773000Y-55327000D01*
X120523750Y-55327000D01*
X120365000Y-55485750D01*
X120365000Y-55676310D01*
X120461673Y-55909699D01*
X120640302Y-56088327D01*
X120873691Y-56185000D01*
X121614250Y-56185000D01*
X121772998Y-56026252D01*
X121772998Y-56185000D01*
X121773000Y-56185000D01*
X121773000Y-63273000D01*
X121773000Y-63273000D01*
G37*
X121773000Y-63273000D02*
X113947440Y-63273000D01*
X113947440Y-55550000D01*
X113947440Y-54850000D01*
X113912925Y-54672108D01*
X113947440Y-54500000D01*
X113947440Y-53700000D01*
X113917855Y-53547521D01*
X113947440Y-53400000D01*
X113947440Y-52600000D01*
X113917855Y-52447521D01*
X113947440Y-52300000D01*
X113947440Y-51500000D01*
X113917855Y-51347521D01*
X113947440Y-51200000D01*
X113947440Y-50400000D01*
X113917855Y-50247521D01*
X113947440Y-50100000D01*
X113947440Y-49300000D01*
X113920522Y-49161262D01*
X113935000Y-49126310D01*
X113935000Y-48885750D01*
X113776250Y-48727000D01*
X113585753Y-48727000D01*
X113549640Y-48702623D01*
X113300000Y-48652560D01*
X111500000Y-48652560D01*
X111257877Y-48699537D01*
X111216069Y-48727000D01*
X111023750Y-48727000D01*
X110865000Y-48885750D01*
X110865000Y-49126310D01*
X110880087Y-49162734D01*
X110852560Y-49300000D01*
X110852560Y-50100000D01*
X110882144Y-50252478D01*
X110852560Y-50400000D01*
X110852560Y-51200000D01*
X110882144Y-51352478D01*
X110852560Y-51500000D01*
X110852560Y-52300000D01*
X110882144Y-52452478D01*
X110852560Y-52600000D01*
X110852560Y-53400000D01*
X110882144Y-53552478D01*
X110852560Y-53700000D01*
X110852560Y-54500000D01*
X110887074Y-54677891D01*
X110852560Y-54850000D01*
X110852560Y-55550000D01*
X110899537Y-55792123D01*
X111039327Y-56004927D01*
X111250360Y-56147377D01*
X111500000Y-56197440D01*
X113300000Y-56197440D01*
X113542123Y-56150463D01*
X113754927Y-56010673D01*
X113897377Y-55799640D01*
X113947440Y-55550000D01*
X113947440Y-63273000D01*
X104375000Y-63273000D01*
X104375000Y-60214309D01*
X104375000Y-59167250D01*
X104375000Y-58595750D01*
X104375000Y-57548691D01*
X104278327Y-57315302D01*
X104099699Y-57136673D01*
X103866310Y-57040000D01*
X103613691Y-57040000D01*
X101485750Y-57040000D01*
X101327000Y-57198750D01*
X101327000Y-58754500D01*
X104216250Y-58754500D01*
X104375000Y-58595750D01*
X104375000Y-59167250D01*
X104216250Y-59008500D01*
X101327000Y-59008500D01*
X101327000Y-60564250D01*
X101485750Y-60723000D01*
X103613691Y-60723000D01*
X103866310Y-60723000D01*
X104099699Y-60626327D01*
X104278327Y-60447698D01*
X104375000Y-60214309D01*
X104375000Y-63273000D01*
X99627000Y-63273000D01*
X99627000Y-60723000D01*
X100914250Y-60723000D01*
X101073000Y-60564250D01*
X101073000Y-59008500D01*
X101053000Y-59008500D01*
X101053000Y-58754500D01*
X101073000Y-58754500D01*
X101073000Y-57198750D01*
X100914250Y-57040000D01*
X99627000Y-57040000D01*
X99627000Y-56290440D01*
X103740000Y-56290440D01*
X103982123Y-56243463D01*
X104194927Y-56103673D01*
X104337377Y-55892640D01*
X104387440Y-55643000D01*
X104387440Y-55535000D01*
X105399994Y-55535000D01*
X105400000Y-55535001D01*
X105400000Y-55535000D01*
X105796077Y-55456215D01*
X106131856Y-55231856D01*
X108131852Y-53231858D01*
X108131855Y-53231856D01*
X108131856Y-53231856D01*
X108356215Y-52896077D01*
X108435000Y-52500000D01*
X108435001Y-52500000D01*
X108435000Y-52499994D01*
X108435000Y-49628711D01*
X109528711Y-48535000D01*
X111437967Y-48535000D01*
X111500000Y-48547440D01*
X113300000Y-48547440D01*
X113542123Y-48500463D01*
X113583930Y-48473000D01*
X113776250Y-48473000D01*
X113935000Y-48314250D01*
X113935000Y-48073690D01*
X113919912Y-48037265D01*
X113947440Y-47900000D01*
X113947440Y-47100000D01*
X113913915Y-46927212D01*
X113935000Y-46876310D01*
X113935000Y-46685750D01*
X113935000Y-46114250D01*
X113935000Y-45923690D01*
X113838327Y-45690301D01*
X113659698Y-45511673D01*
X113426309Y-45415000D01*
X112685750Y-45415000D01*
X112527000Y-45573750D01*
X112527000Y-46273000D01*
X113776250Y-46273000D01*
X113935000Y-46114250D01*
X113935000Y-46685750D01*
X113776250Y-46527000D01*
X113585753Y-46527000D01*
X113549640Y-46502623D01*
X113300000Y-46452560D01*
X112273000Y-46452560D01*
X112273000Y-46273000D01*
X112273000Y-45573750D01*
X112114250Y-45415000D01*
X111373691Y-45415000D01*
X111140302Y-45511673D01*
X110961673Y-45690301D01*
X110865000Y-45923690D01*
X110865000Y-46114250D01*
X111023750Y-46273000D01*
X112273000Y-46273000D01*
X112273000Y-46452560D01*
X111500000Y-46452560D01*
X111435883Y-46465000D01*
X109100005Y-46465000D01*
X109100000Y-46464999D01*
X108703923Y-46543785D01*
X108368144Y-46768144D01*
X108368141Y-46768147D01*
X106668144Y-48468144D01*
X106443785Y-48803923D01*
X106364999Y-49200000D01*
X106365000Y-49200005D01*
X106365000Y-52071288D01*
X104971288Y-53465000D01*
X104387440Y-53465000D01*
X104387440Y-53357000D01*
X104375000Y-53292883D01*
X104375000Y-51451309D01*
X104375000Y-50404250D01*
X104216250Y-50245500D01*
X101327000Y-50245500D01*
X101327000Y-51801250D01*
X101485750Y-51960000D01*
X103613691Y-51960000D01*
X103866310Y-51960000D01*
X104099699Y-51863327D01*
X104278327Y-51684698D01*
X104375000Y-51451309D01*
X104375000Y-53292883D01*
X104340463Y-53114877D01*
X104200673Y-52902073D01*
X103989640Y-52759623D01*
X103740000Y-52709560D01*
X99627000Y-52709560D01*
X99627000Y-51960000D01*
X100914250Y-51960000D01*
X101073000Y-51801250D01*
X101073000Y-50245500D01*
X101053000Y-50245500D01*
X101053000Y-49991500D01*
X101073000Y-49991500D01*
X101073000Y-48435750D01*
X100914250Y-48277000D01*
X99627000Y-48277000D01*
X99627000Y-46972726D01*
X99853412Y-47199534D01*
X99906883Y-47328943D01*
X100169673Y-47592192D01*
X100298989Y-47645889D01*
X100556226Y-47903575D01*
X101476884Y-48285865D01*
X101327000Y-48435750D01*
X101327000Y-49991500D01*
X104216250Y-49991500D01*
X104375000Y-49832750D01*
X104375000Y-48785691D01*
X104278327Y-48552302D01*
X104099699Y-48373673D01*
X103866310Y-48277000D01*
X103613691Y-48277000D01*
X103543146Y-48277000D01*
X104438704Y-47906963D01*
X104699534Y-47646587D01*
X104828943Y-47593117D01*
X105092192Y-47330327D01*
X105145889Y-47201010D01*
X105403575Y-46943774D01*
X105926404Y-45684663D01*
X105926821Y-45206104D01*
X105934838Y-45186799D01*
X105935162Y-44814833D01*
X105927180Y-44795515D01*
X105927594Y-44321318D01*
X105406963Y-43061296D01*
X105146587Y-42800465D01*
X105093117Y-42671057D01*
X104830327Y-42407808D01*
X104701010Y-42354110D01*
X104474295Y-42127000D01*
X120721420Y-42127000D01*
X119549210Y-43299210D01*
X119357367Y-43586325D01*
X119346189Y-43642515D01*
X119289999Y-43925000D01*
X119290000Y-43925005D01*
X119290000Y-44082951D01*
X119227623Y-44175360D01*
X119177560Y-44425000D01*
X119177560Y-45375000D01*
X119224537Y-45617123D01*
X119290000Y-45716778D01*
X119290000Y-46974994D01*
X119289999Y-46975000D01*
X119346189Y-47257484D01*
X119357367Y-47313675D01*
X119549210Y-47600790D01*
X120074207Y-48125786D01*
X120074210Y-48125790D01*
X120352560Y-48311776D01*
X120352560Y-49000000D01*
X120382144Y-49152478D01*
X120352560Y-49300000D01*
X120352560Y-50100000D01*
X120382144Y-50252478D01*
X120352560Y-50400000D01*
X120352560Y-51200000D01*
X120382144Y-51352478D01*
X120352560Y-51500000D01*
X120352560Y-52300000D01*
X120382144Y-52452478D01*
X120352560Y-52600000D01*
X120352560Y-53400000D01*
X120382144Y-53552478D01*
X120352560Y-53700000D01*
X120352560Y-54500000D01*
X120386084Y-54672787D01*
X120365000Y-54723690D01*
X120365000Y-54914250D01*
X120523750Y-55073000D01*
X120714246Y-55073000D01*
X120750360Y-55097377D01*
X121000000Y-55147440D01*
X121773000Y-55147440D01*
X121773000Y-55327000D01*
X120523750Y-55327000D01*
X120365000Y-55485750D01*
X120365000Y-55676310D01*
X120461673Y-55909699D01*
X120640302Y-56088327D01*
X120873691Y-56185000D01*
X121614250Y-56185000D01*
X121772998Y-56026252D01*
X121772998Y-56185000D01*
X121773000Y-56185000D01*
X121773000Y-63273000D01*
M02*
