G04 #@! TF.FileFunction,Soldermask,Bot*
%FSLAX46Y46*%
G04 Gerber Fmt 4.6, Leading zero omitted, Abs format (unit mm)*
G04 Created by KiCad (PCBNEW 0.201502231246+5447~21~ubuntu14.04.1-product) date Wed 06 May 2015 01:31:57 BST*
%MOMM*%
G01*
G04 APERTURE LIST*
%ADD10C,0.100000*%
%ADD11C,1.500000*%
%ADD12C,1.100000*%
%ADD13C,1.016000*%
%ADD14R,5.080000X2.413000*%
%ADD15C,6.300000*%
%ADD16C,0.600000*%
G04 APERTURE END LIST*
D10*
D11*
X167600000Y-85100000D03*
X167600000Y-78100000D03*
X179000000Y-73000000D03*
X179000000Y-75000000D03*
D12*
X181100000Y-71500000D03*
X181100000Y-76500000D03*
D11*
X179000000Y-80000000D03*
X179000000Y-82000000D03*
X179000000Y-84000000D03*
X179000000Y-86000000D03*
D12*
X181100000Y-78500000D03*
X181100000Y-87500000D03*
D13*
X144800000Y-53130000D03*
X144800000Y-54400000D03*
X143530000Y-53130000D03*
X143530000Y-54400000D03*
X142260000Y-53130000D03*
X142260000Y-54400000D03*
X140990000Y-53130000D03*
X140990000Y-54400000D03*
X139720000Y-53130000D03*
X139720000Y-54400000D03*
D14*
X101200000Y-58881500D03*
X101200000Y-50118500D03*
X101200000Y-76081500D03*
X101200000Y-67318500D03*
D11*
X179000000Y-66000000D03*
X179000000Y-68000000D03*
D12*
X181100000Y-64500000D03*
X181100000Y-69500000D03*
D11*
X179000000Y-59000000D03*
X179000000Y-61000000D03*
D12*
X181100000Y-57500000D03*
X181100000Y-62500000D03*
D11*
X179000000Y-52000000D03*
X179000000Y-54000000D03*
D12*
X181100000Y-50500000D03*
X181100000Y-55500000D03*
D11*
X179000000Y-45000000D03*
X179000000Y-47000000D03*
D12*
X181100000Y-43500000D03*
X181100000Y-48500000D03*
D15*
X158500000Y-85000000D03*
D16*
X158500000Y-82500000D03*
X161000000Y-85000000D03*
X158500000Y-87500000D03*
X156000000Y-85000000D03*
X156700000Y-83200000D03*
X160300000Y-83200000D03*
X156700000Y-86800000D03*
X160300000Y-86800000D03*
D15*
X158500000Y-45000000D03*
D16*
X158500000Y-42500000D03*
X161000000Y-45000000D03*
X158500000Y-47500000D03*
X156000000Y-45000000D03*
X156700000Y-43200000D03*
X160300000Y-43200000D03*
X156700000Y-46800000D03*
X160300000Y-46800000D03*
D15*
X102500000Y-45000000D03*
D16*
X102500000Y-42500000D03*
X105000000Y-45000000D03*
X102500000Y-47500000D03*
X100000000Y-45000000D03*
X100700000Y-43200000D03*
X104300000Y-43200000D03*
X100700000Y-46800000D03*
X104300000Y-46800000D03*
D15*
X102500000Y-85000000D03*
D16*
X102500000Y-82500000D03*
X105000000Y-85000000D03*
X102500000Y-87500000D03*
X100000000Y-85000000D03*
X100700000Y-83200000D03*
X104300000Y-83200000D03*
X100700000Y-86800000D03*
X104300000Y-86800000D03*
M02*
