G04 #@! TF.FileFunction,Soldermask,Top*
%FSLAX46Y46*%
G04 Gerber Fmt 4.6, Leading zero omitted, Abs format (unit mm)*
G04 Created by KiCad (PCBNEW 0.201502231246+5447~21~ubuntu14.04.1-product) date Wed 06 May 2015 15:58:52 BST*
%MOMM*%
G01*
G04 APERTURE LIST*
%ADD10C,0.100000*%
%ADD11C,1.500000*%
%ADD12R,0.700000X0.950000*%
%ADD13R,0.950000X0.700000*%
%ADD14R,0.300000X1.200000*%
%ADD15R,1.200000X0.300000*%
%ADD16R,1.400000X0.400000*%
%ADD17R,0.550000X1.545000*%
%ADD18R,1.545000X0.550000*%
%ADD19R,0.300000X0.800000*%
%ADD20R,0.800000X0.300000*%
%ADD21R,0.600000X1.500000*%
%ADD22C,1.100000*%
%ADD23C,1.016000*%
%ADD24R,5.080000X2.286000*%
%ADD25R,5.080000X2.413000*%
%ADD26R,1.780000X0.720000*%
%ADD27R,0.700000X0.900000*%
%ADD28R,4.000000X1.300000*%
%ADD29R,2.300000X2.500000*%
%ADD30R,1.800000X0.700000*%
%ADD31R,1.800000X0.800000*%
%ADD32R,1.300000X1.400000*%
%ADD33R,1.000000X0.950000*%
%ADD34R,1.400000X1.900000*%
%ADD35R,0.800000X1.500000*%
%ADD36R,0.500000X0.600000*%
%ADD37C,6.300000*%
%ADD38C,0.600000*%
G04 APERTURE END LIST*
D10*
D11*
X167600000Y-85100000D03*
X167600000Y-78100000D03*
D12*
X141286400Y-59029600D03*
X142736400Y-59029600D03*
X152335400Y-78663800D03*
X153785400Y-78663800D03*
D13*
X144068800Y-77456200D03*
X144068800Y-78906200D03*
D12*
X156325400Y-80340200D03*
X154875400Y-80340200D03*
D13*
X156921200Y-60364200D03*
X156921200Y-58914200D03*
D12*
X148275000Y-83400000D03*
X149725000Y-83400000D03*
X152325000Y-83400000D03*
X150875000Y-83400000D03*
X156300000Y-78968600D03*
X154850000Y-78968600D03*
D13*
X139268200Y-75324800D03*
X139268200Y-73874800D03*
X145440400Y-77456200D03*
X145440400Y-78906200D03*
X158216600Y-60846800D03*
X158216600Y-59396800D03*
X158394400Y-73290600D03*
X158394400Y-74740600D03*
D12*
X142725000Y-57600000D03*
X141275000Y-57600000D03*
D13*
X140000000Y-59125000D03*
X140000000Y-57675000D03*
X174600000Y-72125000D03*
X174600000Y-70675000D03*
D12*
X171075000Y-74800000D03*
X172525000Y-74800000D03*
D13*
X167000000Y-72275000D03*
X167000000Y-73725000D03*
D12*
X120175000Y-44900000D03*
X121625000Y-44900000D03*
D13*
X132500000Y-68325000D03*
X132500000Y-66875000D03*
X131100000Y-68325000D03*
X131100000Y-66875000D03*
X138600000Y-49475000D03*
X138600000Y-50925000D03*
D12*
X159701400Y-74726800D03*
X161151400Y-74726800D03*
X148275000Y-84800000D03*
X149725000Y-84800000D03*
X163107200Y-76047600D03*
X161657200Y-76047600D03*
X148275000Y-86200000D03*
X149725000Y-86200000D03*
X163691400Y-74676000D03*
X162241400Y-74676000D03*
D13*
X139191000Y-79582800D03*
X139191000Y-81032800D03*
X139191000Y-83532800D03*
X139191000Y-82082800D03*
D12*
X151850300Y-52582500D03*
X153300300Y-52582500D03*
X159454400Y-57246000D03*
X160904400Y-57246000D03*
X159875000Y-51300000D03*
X161325000Y-51300000D03*
D13*
X158100000Y-50275000D03*
X158100000Y-51725000D03*
X150650000Y-44200000D03*
X150650000Y-42750000D03*
X149148000Y-44204400D03*
X149148000Y-42754400D03*
X144648000Y-44204400D03*
X144648000Y-42754400D03*
X143148000Y-44204400D03*
X143148000Y-42754400D03*
X147648000Y-44204400D03*
X147648000Y-42754400D03*
X146148000Y-44204400D03*
X146148000Y-42754400D03*
D14*
X142646400Y-76022200D03*
X143146400Y-76022200D03*
X143646400Y-76022200D03*
X144146400Y-76022200D03*
X144646400Y-76022200D03*
X145146400Y-76022200D03*
X145646400Y-76022200D03*
X146146400Y-76022200D03*
X146646400Y-76022200D03*
X147146400Y-76022200D03*
X147646400Y-76022200D03*
X148146400Y-76022200D03*
X148646400Y-76022200D03*
X149146400Y-76022200D03*
X149646400Y-76022200D03*
X150146400Y-76022200D03*
X150646400Y-76022200D03*
X151146400Y-76022200D03*
X151646400Y-76022200D03*
X152146400Y-76022200D03*
X152646400Y-76022200D03*
X153146400Y-76022200D03*
X153646400Y-76022200D03*
X154146400Y-76022200D03*
X154646400Y-76022200D03*
D15*
X156396400Y-74272200D03*
X156396400Y-73772200D03*
X156396400Y-73272200D03*
X156396400Y-72772200D03*
X156396400Y-72272200D03*
X156396400Y-71772200D03*
X156396400Y-71272200D03*
X156396400Y-70772200D03*
X156396400Y-70272200D03*
X156396400Y-69772200D03*
X156396400Y-69272200D03*
X156396400Y-68772200D03*
X156396400Y-68272200D03*
X156396400Y-67772200D03*
X156396400Y-67272200D03*
X156396400Y-66772200D03*
X156396400Y-66272200D03*
X156396400Y-65772200D03*
X156396400Y-65272200D03*
X156396400Y-64772200D03*
X156396400Y-64272200D03*
X156396400Y-63772200D03*
X156396400Y-63272200D03*
X156396400Y-62772200D03*
X156396400Y-62272200D03*
D14*
X154646400Y-60522200D03*
X154146400Y-60522200D03*
X153646400Y-60522200D03*
X153146400Y-60522200D03*
X152646400Y-60522200D03*
X152146400Y-60522200D03*
X151646400Y-60522200D03*
X151146400Y-60522200D03*
X150646400Y-60522200D03*
X150146400Y-60522200D03*
X149646400Y-60522200D03*
X149146400Y-60522200D03*
X148646400Y-60522200D03*
X148146400Y-60522200D03*
X147646400Y-60522200D03*
X147146400Y-60522200D03*
X146646400Y-60522200D03*
X146146400Y-60522200D03*
X145646400Y-60522200D03*
X145146400Y-60522200D03*
X144646400Y-60522200D03*
X144146400Y-60522200D03*
X143646400Y-60522200D03*
X143146400Y-60522200D03*
X142646400Y-60522200D03*
D15*
X140896400Y-62272200D03*
X140896400Y-62772200D03*
X140896400Y-63272200D03*
X140896400Y-63772200D03*
X140896400Y-64272200D03*
X140896400Y-64772200D03*
X140896400Y-65272200D03*
X140896400Y-65772200D03*
X140896400Y-66272200D03*
X140896400Y-66772200D03*
X140896400Y-67272200D03*
X140896400Y-67772200D03*
X140896400Y-68272200D03*
X140896400Y-68772200D03*
X140896400Y-69272200D03*
X140896400Y-69772200D03*
X140896400Y-70272200D03*
X140896400Y-70772200D03*
X140896400Y-71272200D03*
X140896400Y-71772200D03*
X140896400Y-72272200D03*
X140896400Y-72772200D03*
X140896400Y-73272200D03*
X140896400Y-73772200D03*
X140896400Y-74272200D03*
D16*
X168450000Y-71490000D03*
X168450000Y-72140000D03*
X168450000Y-72790000D03*
X168450000Y-73440000D03*
X172850000Y-73440000D03*
X172850000Y-72790000D03*
X172850000Y-72140000D03*
X172850000Y-71490000D03*
D17*
X160421800Y-72956400D03*
X161221800Y-72956400D03*
X162021800Y-72956400D03*
X162821800Y-72956400D03*
X163621800Y-72956400D03*
X164421800Y-72956400D03*
X164421800Y-70361400D03*
X163621800Y-70361400D03*
X162821800Y-70361400D03*
X162021800Y-70361400D03*
X161221800Y-70361400D03*
X160421800Y-70361400D03*
D18*
X160124300Y-71656400D03*
X164719300Y-71656400D03*
D19*
X141466000Y-84607800D03*
X142116000Y-84607800D03*
X142766000Y-84607800D03*
X143416000Y-84607800D03*
D20*
X144391000Y-83632800D03*
X144391000Y-82982800D03*
X144391000Y-82332800D03*
X144391000Y-81682800D03*
D19*
X143416000Y-80707800D03*
X142766000Y-80707800D03*
X142116000Y-80707800D03*
X141466000Y-80707800D03*
D20*
X140491000Y-81682800D03*
X140491000Y-82332800D03*
X140491000Y-82982800D03*
X140491000Y-83632800D03*
D21*
X151975300Y-50982500D03*
X153225300Y-50982500D03*
X154475300Y-50982500D03*
X154475300Y-48382500D03*
X153225300Y-48382500D03*
X151975300Y-48382500D03*
X155725300Y-50982500D03*
X155725300Y-48382500D03*
D19*
X158479400Y-56046000D03*
X158979400Y-56046000D03*
X159479400Y-56046000D03*
X159979400Y-56046000D03*
D20*
X160729400Y-55296000D03*
X160729400Y-54796000D03*
X160729400Y-54296000D03*
X160729400Y-53796000D03*
D19*
X159979400Y-53046000D03*
X159479400Y-53046000D03*
X158979400Y-53046000D03*
X158479400Y-53046000D03*
D20*
X157729400Y-53796000D03*
X157729400Y-54296000D03*
X157729400Y-54796000D03*
X157729400Y-55296000D03*
D11*
X179000000Y-73000000D03*
X179000000Y-75000000D03*
D22*
X181100000Y-71500000D03*
X181100000Y-76500000D03*
D11*
X179000000Y-80000000D03*
X179000000Y-82000000D03*
X179000000Y-84000000D03*
X179000000Y-86000000D03*
D22*
X181100000Y-78500000D03*
X181100000Y-87500000D03*
D23*
X144800000Y-53130000D03*
X144800000Y-54400000D03*
X143530000Y-53130000D03*
X143530000Y-54400000D03*
X142260000Y-53130000D03*
X142260000Y-54400000D03*
X140990000Y-53130000D03*
X140990000Y-54400000D03*
X139720000Y-53130000D03*
X139720000Y-54400000D03*
D24*
X101200000Y-54500000D03*
D25*
X101200000Y-58881500D03*
X101200000Y-50118500D03*
D24*
X101200000Y-71700000D03*
D25*
X101200000Y-76081500D03*
X101200000Y-67318500D03*
D11*
X179000000Y-66000000D03*
X179000000Y-68000000D03*
D22*
X181100000Y-64500000D03*
X181100000Y-69500000D03*
D11*
X179000000Y-59000000D03*
X179000000Y-61000000D03*
D22*
X181100000Y-57500000D03*
X181100000Y-62500000D03*
D11*
X179000000Y-52000000D03*
X179000000Y-54000000D03*
D22*
X181100000Y-50500000D03*
X181100000Y-55500000D03*
D11*
X179000000Y-45000000D03*
X179000000Y-47000000D03*
D22*
X181100000Y-43500000D03*
X181100000Y-48500000D03*
D26*
X164860000Y-60895000D03*
X164860000Y-62165000D03*
X164860000Y-63435000D03*
X164860000Y-64705000D03*
X169540000Y-64705000D03*
X169540000Y-63435000D03*
X169540000Y-62165000D03*
X169540000Y-60895000D03*
D27*
X172200000Y-65000000D03*
X171250000Y-67000000D03*
X173150000Y-67000000D03*
X172200000Y-51200000D03*
X171250000Y-53200000D03*
X173150000Y-53200000D03*
D26*
X164860000Y-47095000D03*
X164860000Y-48365000D03*
X164860000Y-49635000D03*
X164860000Y-50905000D03*
X169540000Y-50905000D03*
X169540000Y-49635000D03*
X169540000Y-48365000D03*
X169540000Y-47095000D03*
D27*
X172200000Y-59000000D03*
X171250000Y-61000000D03*
X173150000Y-61000000D03*
X172200000Y-44800000D03*
X171250000Y-46800000D03*
X173150000Y-46800000D03*
D12*
X148982600Y-78689200D03*
X150432600Y-78689200D03*
D13*
X140200000Y-46275000D03*
X140200000Y-47725000D03*
X140200000Y-50325000D03*
X140200000Y-48875000D03*
D12*
X129525000Y-60000000D03*
X128075000Y-60000000D03*
X130675000Y-60000000D03*
X132125000Y-60000000D03*
X164675000Y-66200000D03*
X166125000Y-66200000D03*
X164675000Y-52400000D03*
X166125000Y-52400000D03*
X168725000Y-66200000D03*
X167275000Y-66200000D03*
X168725000Y-52400000D03*
X167275000Y-52400000D03*
X171475000Y-68400000D03*
X172925000Y-68400000D03*
X171475000Y-54600000D03*
X172925000Y-54600000D03*
D13*
X174600000Y-65475000D03*
X174600000Y-66925000D03*
X174600000Y-51675000D03*
X174600000Y-53125000D03*
D12*
X169925000Y-68400000D03*
X168475000Y-68400000D03*
X169925000Y-54600000D03*
X168475000Y-54600000D03*
X165675000Y-59200000D03*
X167125000Y-59200000D03*
X165875000Y-45600000D03*
X167325000Y-45600000D03*
X169725000Y-59200000D03*
X168275000Y-59200000D03*
X169925000Y-45600000D03*
X168475000Y-45600000D03*
X171475000Y-62400000D03*
X172925000Y-62400000D03*
X171475000Y-48200000D03*
X172925000Y-48200000D03*
D13*
X174600000Y-59475000D03*
X174600000Y-60925000D03*
X174600000Y-45275000D03*
X174600000Y-46725000D03*
D12*
X172125000Y-57000000D03*
X170675000Y-57000000D03*
X174791200Y-44119800D03*
X173341200Y-44119800D03*
D13*
X150648000Y-46704400D03*
X150648000Y-45254400D03*
X149148000Y-46704400D03*
X149148000Y-45254400D03*
X144648000Y-46704400D03*
X144648000Y-45254400D03*
X143148000Y-46704400D03*
X143148000Y-45254400D03*
X147648000Y-46704400D03*
X147648000Y-45254400D03*
X146148000Y-46704400D03*
X146148000Y-45254400D03*
D12*
X141766000Y-85982800D03*
X143216000Y-85982800D03*
D13*
X145567400Y-85967400D03*
X145567400Y-84517400D03*
X166420800Y-70727400D03*
X166420800Y-69277400D03*
D12*
X140128500Y-84695300D03*
X138678500Y-84695300D03*
X158404400Y-57246000D03*
X156954400Y-57246000D03*
X154350300Y-52582500D03*
X155800300Y-52582500D03*
D13*
X156029400Y-54621000D03*
X156029400Y-56071000D03*
D28*
X130300000Y-69700000D03*
X130300000Y-71700000D03*
X130300000Y-73700000D03*
X130300000Y-75700000D03*
X130300000Y-77700000D03*
X130300000Y-79700000D03*
X130300000Y-81700000D03*
X130300000Y-83700000D03*
X110600000Y-69700000D03*
X110600000Y-71700000D03*
X110600000Y-73700000D03*
X110600000Y-75700000D03*
X110600000Y-77700000D03*
X110600000Y-79700000D03*
X110600000Y-81700000D03*
X110600000Y-83700000D03*
D29*
X146993000Y-81051400D03*
X151493000Y-81051400D03*
D30*
X112400000Y-46400000D03*
D31*
X112400000Y-47500000D03*
X112400000Y-48600000D03*
X112400000Y-49700000D03*
X112400000Y-50800000D03*
X112400000Y-51900000D03*
X112400000Y-53000000D03*
X112400000Y-54100000D03*
D30*
X112400000Y-55200000D03*
X121900000Y-46400000D03*
X121900000Y-55200000D03*
D31*
X121900000Y-47500000D03*
X121900000Y-48600000D03*
X121900000Y-49700000D03*
X121900000Y-50800000D03*
X121900000Y-51900000D03*
X121900000Y-53000000D03*
X121900000Y-54100000D03*
D32*
X135350000Y-58400000D03*
D33*
X133960000Y-58625000D03*
D32*
X129650000Y-58400000D03*
D34*
X136950000Y-45250000D03*
X123800000Y-44250000D03*
D35*
X136160000Y-47540000D03*
X135060000Y-47540000D03*
X133960000Y-47340000D03*
X132860000Y-47540000D03*
X131760000Y-47340000D03*
X130660000Y-47540000D03*
X129560000Y-47940000D03*
X128460000Y-47540000D03*
D36*
X177600000Y-66400000D03*
X177600000Y-67500000D03*
X177600000Y-59400000D03*
X177600000Y-60500000D03*
X177600000Y-52400000D03*
X177600000Y-53500000D03*
X177600000Y-45400000D03*
X177600000Y-46500000D03*
D37*
X158500000Y-85000000D03*
D38*
X158500000Y-82500000D03*
X161000000Y-85000000D03*
X158500000Y-87500000D03*
X156000000Y-85000000D03*
X156700000Y-83200000D03*
X160300000Y-83200000D03*
X156700000Y-86800000D03*
X160300000Y-86800000D03*
D37*
X158500000Y-45000000D03*
D38*
X158500000Y-42500000D03*
X161000000Y-45000000D03*
X158500000Y-47500000D03*
X156000000Y-45000000D03*
X156700000Y-43200000D03*
X160300000Y-43200000D03*
X156700000Y-46800000D03*
X160300000Y-46800000D03*
D37*
X102500000Y-45000000D03*
D38*
X102500000Y-42500000D03*
X105000000Y-45000000D03*
X102500000Y-47500000D03*
X100000000Y-45000000D03*
X100700000Y-43200000D03*
X104300000Y-43200000D03*
X100700000Y-46800000D03*
X104300000Y-46800000D03*
D37*
X102500000Y-85000000D03*
D38*
X102500000Y-82500000D03*
X105000000Y-85000000D03*
X102500000Y-87500000D03*
X100000000Y-85000000D03*
X100700000Y-83200000D03*
X104300000Y-83200000D03*
X100700000Y-86800000D03*
X104300000Y-86800000D03*
D12*
X161125000Y-79600000D03*
X159675000Y-79600000D03*
D13*
X141650000Y-44200000D03*
X141650000Y-42750000D03*
X141650000Y-46700000D03*
X141650000Y-45250000D03*
M02*
